<svg xmlns="http://www.w3.org/2000/svg" width="160" height="160" viewBox="0 0 160 160">
  <g id="Group_14192" data-name="Group 14192" transform="translate(-357 -939)">
    <g id="Group_11778" data-name="Group 11778" transform="translate(333 835)">
      <path id="Rectangle_8222" data-name="Rectangle 8222" d="M80,0h0a80,80,0,0,1,80,80v0a80,80,0,0,1-80,80H0a0,0,0,0,1,0,0V80A80,80,0,0,1,80,0Z" transform="translate(24 104)" fill="#fff6b0"/>
      <circle id="Ellipse_205" data-name="Ellipse 205" cx="70" cy="70" r="70" transform="translate(34 114)" fill="#f5e673"/>
    </g>
    <g id="Group_14182" data-name="Group 14182" transform="translate(-21461 -270)">
      <g id="loupe" transform="translate(21864 1254.999)">
        <path id="Path_6512" data-name="Path 6512" d="M183.014,16.938a24,24,0,1,1-33.946,0A24,24,0,0,1,183.014,16.938Z" transform="translate(-123.1 -8.586)" fill="#687780"/>
        <path id="Path_6513" data-name="Path 6513" d="M213.936,55.411A18.671,18.671,0,0,0,184,60.338a.01.01,0,0,0,0,.007,18.669,18.669,0,1,0,33.527,16.433,16.163,16.163,0,0,0,.829-1.992A18.692,18.692,0,0,0,213.936,55.411Z" transform="translate(-157.795 -43.286)" fill="#c8e5e3"/>
        <path id="Path_6514" data-name="Path 6514" d="M143.947,302.313l-5.762,5.761,3.772,3.772,5.761-5.762Z" transform="translate(-119.761 -262.004)" fill="#eb3e3e"/>
        <path id="Path_6515" data-name="Path 6515" d="M30.873,344.215a2.667,2.667,0,0,1,0,3.771L19.117,359.742a5.333,5.333,0,0,1-7.542-7.542L23.33,340.443a2.667,2.667,0,0,1,3.771,0Z" transform="translate(-8.676 -294.373)" fill="#a21212"/>
        <path id="Path_6516" data-name="Path 6516" d="M208.78,70.947A20.005,20.005,0,0,0,182.5,42.376a1.334,1.334,0,1,0,1.3,2.331,17.335,17.335,0,1,1-6.946,6.943,1.334,1.334,0,1,0-2.337-1.286c-.082.149-.227.426-.367.71h0A20,20,0,0,0,208.78,70.947Z" transform="translate(-149.136 -34.613)"/>
        <path id="Path_6517" data-name="Path 6517" d="M13.71,45.127,1.956,56.883a6.667,6.667,0,1,0,9.428,9.429L23.14,54.556A4,4,0,0,0,23.922,50l4.155-4.156A25.336,25.336,0,1,0,22.42,40.19l-4.156,4.155A4,4,0,0,0,13.71,45.127Zm11.315-1.885c.313.313.637.62.968.918l-3.8,3.8L20.311,46.07l3.8-3.8C24.406,42.6,24.712,42.928,25.025,43.241ZM21.254,52.67,9.5,64.426a4,4,0,0,1-5.656-5.657L15.6,47.013a1.334,1.334,0,0,1,1.885,0l3.773,3.773A1.334,1.334,0,0,1,21.254,52.67ZM26.911,9.3a22.67,22.67,0,1,1,0,32.06A22.7,22.7,0,0,1,26.911,9.3Z" transform="translate(0 0)"/>
        <path id="Path_6518" data-name="Path 6518" d="M213.476,83.233a1.334,1.334,0,0,0,1.884-1.886.373.373,0,0,0-.032-.035,1.334,1.334,0,1,0-1.887,1.887Z" transform="translate(-184.645 -70.132)"/>
      </g>
      <rect id="Rectangle_8695" data-name="Rectangle 8695" width="80" height="80" transform="translate(21858 1249)" fill="none"/>
    </g>
  </g>
</svg>
