<svg xmlns="http://www.w3.org/2000/svg" width="160" height="160" viewBox="0 0 160 160">
  <g id="entregas" transform="translate(-213 -964)">
    <g id="Group_11098" data-name="Group 11098" transform="translate(189 860)">
      <path id="Rectangle_8222" data-name="Rectangle 8222" d="M80,0h0a80,80,0,0,1,80,80v0a80,80,0,0,1-80,80H0a0,0,0,0,1,0,0V80A80,80,0,0,1,80,0Z" transform="translate(24 104)" fill="#fff6b0"/>
      <circle id="Ellipse_205" data-name="Ellipse 205" cx="70" cy="70" r="70" transform="translate(34 114)" fill="#f5e673"/>
    </g>
    <g id="Group_11815" data-name="Group 11815" transform="translate(0 -1)">
      <g id="_x33_6_hourglass" transform="translate(275.958 1016.09)">
        <path id="Path_5996" data-name="Path 5996" d="M155.285,40.9V36.627H126V40.9A21.433,21.433,0,0,0,134.85,58.17a3.916,3.916,0,0,1,.006,6.332A21.426,21.426,0,0,0,126,81.771v4.278h29.287V81.771A21.426,21.426,0,0,0,146.427,64.5a3.925,3.925,0,0,1-1.608-3.163h0a3.933,3.933,0,0,1,1.615-3.169A21.434,21.434,0,0,0,155.285,40.9Z" transform="translate(-123.182 -32.501)" fill="#d8ecfe"/>
        <path id="Path_5997" data-name="Path 5997" d="M146.438,58.17A21.433,21.433,0,0,0,155.289,40.9V36.627H150.5V40.9a21.433,21.433,0,0,1-8.851,17.265,3.933,3.933,0,0,0-1.615,3.169h0a3.925,3.925,0,0,0,1.608,3.163A21.425,21.425,0,0,1,150.5,81.771v4.278h4.79V81.771A21.426,21.426,0,0,0,146.431,64.5a3.924,3.924,0,0,1-1.608-3.163h0A3.933,3.933,0,0,1,146.438,58.17Z" transform="translate(-123.186 -32.501)" fill="#c4e2ff"/>
        <path id="Path_5998" data-name="Path 5998" d="M156,359.989v-.569a10.014,10.014,0,0,1,4.071-7.652,11.415,11.415,0,0,1,14.387,0,10.014,10.014,0,0,1,4.071,7.652v.569Z" transform="translate(-149.804 -309.879)" fill="#f26b09"/>
        <path id="Path_5999" data-name="Path 5999" d="M103.029,4.127h30.864a2.045,2.045,0,0,0,2.028-2.063A2.045,2.045,0,0,0,133.893,0H103.029A2.045,2.045,0,0,0,101,2.064,2.045,2.045,0,0,0,103.029,4.127Z" transform="translate(-101.001 -0.001)" fill="#596c76"/>
        <path id="Path_6000" data-name="Path 6000" d="M103.029,479.5h30.864a2.063,2.063,0,0,0,0-4.126H103.029a2.063,2.063,0,0,0,0,4.126Z" transform="translate(-101.001 -421.826)" fill="#596c76"/>
        <g id="Group_11776" data-name="Group 11776" transform="translate(16.589 25.239)">
          <path id="Path_6001" data-name="Path 6001" d="M249.142,236.017a.87.87,0,0,1-.87-.87v-1.16a.87.87,0,1,1,1.741,0v1.16A.87.87,0,0,1,249.142,236.017Zm0-4.526a.87.87,0,0,1-.87-.87v-1.16a.87.87,0,1,1,1.741,0v1.16A.87.87,0,0,1,249.142,231.492Zm0-4.526a.87.87,0,0,1-.87-.87v-1.16a.87.87,0,1,1,1.741,0v1.16A.87.87,0,0,1,249.142,226.966Z" transform="translate(-248.272 -224.065)" fill="#feb137"/>
        </g>
        <path id="Path_6002" data-name="Path 6002" d="M157.742,97.956a17.832,17.832,0,0,0,4.954,9.86,8.567,8.567,0,0,0,12.228,0,17.832,17.832,0,0,0,4.954-9.86Z" transform="translate(-151.351 -86.922)" fill="#feb137"/>
        <path id="Path_6003" data-name="Path 6003" d="M346.356,0h-5.921a2.045,2.045,0,0,1,2.028,2.063,2.045,2.045,0,0,1-2.028,2.063h5.921a2.045,2.045,0,0,0,2.028-2.063A2.045,2.045,0,0,0,346.356,0Z" transform="translate(-313.464)" fill="#465a61"/>
        <path id="Path_6004" data-name="Path 6004" d="M346.356,475.373h-5.921a2.063,2.063,0,0,1,0,4.126h5.921a2.063,2.063,0,0,0,0-4.126Z" transform="translate(-313.464 -421.825)" fill="#465a61"/>
        <path id="Path_6005" data-name="Path 6005" d="M337.161,389.308a21.048,21.048,0,0,1,.712,5.417v.84h1.41V395a9.088,9.088,0,0,0-2.122-5.688Z" transform="translate(-310.559 -345.455)" fill="#a21212"/>
        <path id="Path_6006" data-name="Path 6006" d="M305.633,97.957a21.313,21.313,0,0,1-4.617,10.762,8.583,8.583,0,0,0,1.044-.9,17.832,17.832,0,0,0,4.954-9.86h-1.381Z" transform="translate(-278.486 -86.923)" fill="#f6ab31"/>
      </g>
      <rect id="Rectangle_8662" data-name="Rectangle 8662" width="80" height="80" transform="translate(253 1005)" fill="none"/>
    </g>
  </g>
</svg>
