<svg xmlns="http://www.w3.org/2000/svg" width="160" height="160" viewBox="0 0 160 160">
  <g id="Group_11826" data-name="Group 11826" transform="translate(-1068 -965)">
    <g id="Group_11778" data-name="Group 11778" transform="translate(1044 861)">
      <path id="Rectangle_8222" data-name="Rectangle 8222" d="M80,0h0a80,80,0,0,1,80,80v0a80,80,0,0,1-80,80H0a0,0,0,0,1,0,0V80A80,80,0,0,1,80,0Z" transform="translate(24 104)" fill="#fff6b0"/>
      <circle id="Ellipse_205" data-name="Ellipse 205" cx="70" cy="70" r="70" transform="translate(34 114)" fill="#f5e673"/>
    </g>
    <g id="Group_11825" data-name="Group 11825" transform="translate(-1971 210)">
      <g id="social-media-marketing" transform="translate(3088 804.516)">
        <path id="Path_6027" data-name="Path 6027" d="M210.48,447.884H196.092l2.365-7.727h9.658Z" transform="translate(-172.544 -387.3)" fill="#90abbd"/>
        <path id="Path_6028" data-name="Path 6028" d="M61.484,60.525V94.937a6.425,6.425,0,0,1-6.41,6.425H6.41A6.425,6.425,0,0,1,0,94.937V60.525A6.425,6.425,0,0,1,6.41,54.1H55.074A6.425,6.425,0,0,1,61.484,60.525Z" transform="translate(0 -47.603)" fill="#56788b"/>
        <path id="Path_6029" data-name="Path 6029" d="M447.432,60.525V94.937a6.425,6.425,0,0,1-6.41,6.425h-2.4a6.425,6.425,0,0,0,6.41-6.425V60.525a6.425,6.425,0,0,0-6.41-6.425h2.4A6.425,6.425,0,0,1,447.432,60.525Z" transform="translate(-385.948 -47.603)" fill="#415e6f"/>
        <path id="Path_6030" data-name="Path 6030" d="M84.218,85.453V116.44a2.854,2.854,0,0,1-2.848,2.853h-48.6a2.854,2.854,0,0,1-2.848-2.853V85.453A2.854,2.854,0,0,1,32.768,82.6h48.6A2.854,2.854,0,0,1,84.218,85.453Z" transform="translate(-26.327 -72.681)" fill="#d9f0f4"/>
        <path id="Path_6031" data-name="Path 6031" d="M443.61,85.453V116.44a2.854,2.854,0,0,1-2.848,2.853h-2.4a2.854,2.854,0,0,0,2.848-2.853V85.453A2.854,2.854,0,0,0,438.36,82.6h2.4A2.854,2.854,0,0,1,443.61,85.453Z" transform="translate(-385.719 -72.681)" fill="#bae1e5"/>
        <path id="Path_6032" data-name="Path 6032" d="M174.393,497H150.684a.9.9,0,1,0,0,1.8h23.709a.9.9,0,1,0,0-1.8Z" transform="translate(-131.796 -437.317)" fill="#56788b"/>
        <path id="Path_6033" data-name="Path 6033" d="M108.051,2.7V13.614a2.707,2.707,0,0,1-2.7,2.7H99.982L98.36,18.652a.9.9,0,0,1-1.479,0l-1.62-2.334H89.893a2.707,2.707,0,0,1-2.7-2.7V2.7a2.707,2.707,0,0,1,2.7-2.7h15.455a2.707,2.707,0,0,1,2.7,2.7Z" transform="translate(-76.72)" fill="#ff6b81"/>
        <path id="Path_6034" data-name="Path 6034" d="M223.5,2.7V13.614a2.707,2.707,0,0,1-2.7,2.7h-2.4a2.707,2.707,0,0,0,2.7-2.7V2.7A2.707,2.707,0,0,0,218.4,0h2.4a2.707,2.707,0,0,1,2.7,2.7Z" transform="translate(-192.173)" fill="#ed2061"/>
        <g id="Group_11819" data-name="Group 11819" transform="translate(6.792 49.348)">
          <path id="Path_6035" data-name="Path 6035" d="M61.135,410.938H57.456a.9.9,0,1,0,0,1.8h3.679a.9.9,0,1,0,0-1.8Z" transform="translate(-56.555 -410.938)" fill="#415e6f"/>
          <path id="Path_6036" data-name="Path 6036" d="M121.135,410.938h-3.679a.9.9,0,1,0,0,1.8h3.679a.9.9,0,1,0,0-1.8Z" transform="translate(-109.35 -410.938)" fill="#415e6f"/>
        </g>
        <path id="Path_6037" data-name="Path 6037" d="M147.437,38.46a2.4,2.4,0,0,0-3.395,0,2.388,2.388,0,0,0-1.7-.7h0a2.4,2.4,0,0,0-1.694,4.1l2.968,2.968a.6.6,0,0,0,.849,0l2.968-2.968A2.4,2.4,0,0,0,147.437,38.46Z" transform="translate(-123.141 -33.224)" fill="#fff"/>
        <g id="Group_11820" data-name="Group 11820" transform="translate(10.471 16.514)">
          <path id="Path_6038" data-name="Path 6038" d="M88.095,286.2h3.86a.9.9,0,1,0,0-1.8h-3.86a.9.9,0,1,0,0,1.8Z" transform="translate(-87.194 -266.761)" fill="#90abbd"/>
          <path id="Path_6039" data-name="Path 6039" d="M94.353,319.4H88.095a.9.9,0,1,0,0,1.8h6.258a.9.9,0,1,0,0-1.8Z" transform="translate(-87.194 -297.558)" fill="#90abbd"/>
          <path id="Path_6040" data-name="Path 6040" d="M385.636,172.515h-3.86a.9.9,0,0,0,0,1.8h3.86a.9.9,0,1,0,0-1.8Z" transform="translate(-345.608 -168.312)" fill="#90abbd"/>
          <path id="Path_6041" data-name="Path 6041" d="M368.964,138.416a.9.9,0,0,0-.9-.9h-6.258a.9.9,0,0,0,0,1.8h6.258A.9.9,0,0,0,368.964,138.416Z" transform="translate(-328.036 -137.515)" fill="#90abbd"/>
        </g>
        <path id="Path_6042" data-name="Path 6042" d="M240.551,328.974a3.885,3.885,0,0,1-3.879,3.882H219.959a3.883,3.883,0,0,1,0-7.766h.337l2.026-2.8a.9.9,0,0,1,1.459,0l2.027,2.8h10.864a3.886,3.886,0,0,1,3.879,3.884Z" transform="translate(-190.132 -283.262)" fill="#fbdf63"/>
        <path id="Path_6043" data-name="Path 6043" d="M373.841,352.2a3.885,3.885,0,0,1-3.879,3.882h-2.4a3.883,3.883,0,0,0,0-7.766h2.4A3.886,3.886,0,0,1,373.841,352.2Z" transform="translate(-323.421 -306.491)" fill="#ffa402"/>
        <g id="Group_11822" data-name="Group 11822" transform="translate(21.879 21.624)">
          <g id="Group_11821" data-name="Group 11821" transform="translate(0 5.104)">
            <path id="Path_6044" data-name="Path 6044" d="M185.662,222.574h-2.567a.9.9,0,1,0,0,1.8h2.567a.9.9,0,1,0,0-1.8Z" transform="translate(-182.194 -222.574)" fill="#56788b"/>
            <path id="Path_6045" data-name="Path 6045" d="M223.02,247.267a.9.9,0,0,0-.9.9v4.339a.9.9,0,1,0,1.8,0v-4.339A.9.9,0,0,0,223.02,247.267Z" transform="translate(-217.325 -244.302)" fill="#56788b"/>
          </g>
          <path id="Path_6046" data-name="Path 6046" d="M205.564,189.405a2.309,2.309,0,0,0-1.994,2.282v2.879a2.309,2.309,0,0,0,1.994,2.282l9.926,1.406v-10.17Z" transform="translate(-201.003 -187.122)" fill="#4dd4f7"/>
          <path id="Path_6047" data-name="Path 6047" d="M285.448,181.875v8.406a1.8,1.8,0,1,1-3.6,0v-8.406a1.8,1.8,0,1,1,3.6,0Z" transform="translate(-269.884 -180.074)" fill="#56788b"/>
        </g>
      </g>
      <rect id="Rectangle_8662" data-name="Rectangle 8662" width="80" height="80" transform="translate(3079 795)" fill="none"/>
    </g>
  </g>
</svg>
