<svg xmlns="http://www.w3.org/2000/svg" width="160" height="160" viewBox="0 0 160 160">
  <g id="Group_14190" data-name="Group 14190" transform="translate(-640 -933)">
    <g id="Group_11778" data-name="Group 11778" transform="translate(616 829)">
      <path id="Rectangle_8222" data-name="Rectangle 8222" d="M80,0h0a80,80,0,0,1,80,80v0a80,80,0,0,1-80,80H0a0,0,0,0,1,0,0V80A80,80,0,0,1,80,0Z" transform="translate(24 104)" fill="#fff6b0"/>
      <circle id="Ellipse_205" data-name="Ellipse 205" cx="70" cy="70" r="70" transform="translate(34 114)" fill="#f5e673"/>
    </g>
    <g id="Group_14186" data-name="Group 14186" transform="translate(-21463 -411)">
      <g id="shopping-bag" transform="translate(22103.277 1390)">
        <path id="Path_6519" data-name="Path 6519" d="M103.5,151.549a11,11,0,0,1-8.044,3.515H63.988a10.967,10.967,0,0,1-10.933-11.805l3.008-37.907a4.735,4.735,0,0,1,4.7-4.348H98.68a4.735,4.735,0,0,1,4.7,4.354l3.007,37.9A11,11,0,0,1,103.5,151.549Z" transform="translate(0 -87.718)" fill="#3a5e74"/>
        <path id="Path_6520" data-name="Path 6520" d="M279.669,151.549a11,11,0,0,1-8.044,3.515H255.874V101h18.975a4.735,4.735,0,0,1,4.7,4.354l3.007,37.9A11,11,0,0,1,279.669,151.549Z" transform="translate(-176.169 -87.719)" fill="#2b3b4e"/>
        <path id="Path_6521" data-name="Path 6521" d="M183.072,13.019v9.069a1.972,1.972,0,1,1-3.945,0V13.019a9.084,9.084,0,0,0-9.073-9.074h-.017a9.083,9.083,0,0,0-9.056,9.074v9.069a1.972,1.972,0,1,1-3.945,0V13.019A13.033,13.033,0,0,1,170.037,0h.017A13.033,13.033,0,0,1,183.072,13.019Z" transform="translate(-90.332)" fill="#fab17d"/>
        <path id="Path_6522" data-name="Path 6522" d="M202.4,253.261l-8.9,8.9-1.3,1.3a1.971,1.971,0,0,1-2.79,0l-4.781-4.781a1.972,1.972,0,1,1,2.789-2.789l3.387,3.386,2.693-2.693,6.114-6.114a1.972,1.972,0,1,1,2.789,2.79Z" transform="translate(-113.796 -217.024)" fill="#fffdea"/>
        <path id="Path_6523" data-name="Path 6523" d="M264.777,250.472a1.973,1.973,0,0,1,0,2.79l-8.9,8.9v-5.579l6.114-6.114A1.974,1.974,0,0,1,264.777,250.472Z" transform="translate(-176.169 -217.025)" fill="#ffe414"/>
        <path id="Path_6524" data-name="Path 6524" d="M268.908,13.019v9.069a1.972,1.972,0,1,1-3.945,0V13.019a9.084,9.084,0,0,0-9.073-9.074h-.017V0h.017A13.033,13.033,0,0,1,268.908,13.019Z" transform="translate(-176.168)" fill="#ff8d3b"/>
      </g>
      <rect id="Rectangle_8755" data-name="Rectangle 8755" width="80" height="80" transform="translate(22143 1384)" fill="none"/>
    </g>
  </g>
</svg>
