<svg xmlns="http://www.w3.org/2000/svg" width="160" height="160" viewBox="0 0 160 160">
  <g id="info_integrada" transform="translate(-498 -964)">
    <g id="Group_11778" data-name="Group 11778" transform="translate(474 860)">
      <path id="Rectangle_8222" data-name="Rectangle 8222" d="M80,0h0a80,80,0,0,1,80,80v0a80,80,0,0,1-80,80H0a0,0,0,0,1,0,0V80A80,80,0,0,1,80,0Z" transform="translate(24 104)" fill="#fff6b0"/>
      <circle id="Ellipse_205" data-name="Ellipse 205" cx="70" cy="70" r="70" transform="translate(34 114)" fill="#f5e673"/>
    </g>
    <g id="Group_11814" data-name="Group 11814" transform="translate(-2589 454.93)">
      <rect id="Rectangle_8662" data-name="Rectangle 8662" width="80" height="80" transform="translate(3127 549.07)" fill="none"/>
      <g id="Group_11813" data-name="Group 11813" transform="translate(3127 562.876)">
        <g id="laptop" transform="translate(0 0)">
          <g id="Group_11780" data-name="Group 11780" transform="translate(6.853 4.751)">
            <rect id="Rectangle_8670" data-name="Rectangle 8670" width="59.551" height="37.526" transform="translate(0)" fill="#fff"/>
          </g>
          <g id="Group_11781" data-name="Group 11781" transform="translate(6.853 4.751)">
            <rect id="Rectangle_8671" data-name="Rectangle 8671" width="60.367" height="8.973" transform="translate(0)" fill="#f5e673"/>
          </g>
          <g id="Group_11782" data-name="Group 11782" transform="translate(2.308 0)">
            <path id="Path_6010" data-name="Path 6010" d="M79.931,75.984H21.317A5.316,5.316,0,0,0,16,81.288v42.017a1.153,1.153,0,0,0,1.154,1.154H84.1a1.153,1.153,0,0,0,1.154-1.154V81.288A5.318,5.318,0,0,0,79.931,75.984Zm-59.315,40.4V81.755A1.154,1.154,0,0,1,21.771,80.6H79.479a1.154,1.154,0,0,1,1.154,1.154V116.38a1.154,1.154,0,0,1-1.154,1.154H21.771A1.154,1.154,0,0,1,20.617,116.38Z" transform="translate(-16 -75.984)" fill="#5a5f65"/>
          </g>
          <g id="Group_11783" data-name="Group 11783" transform="translate(0 46.167)">
            <path id="Path_6011" data-name="Path 6011" d="M72.713,395.984H1.154A1.153,1.153,0,0,0,0,397.138H0a4.626,4.626,0,0,0,4.621,4.621H69.246a4.626,4.626,0,0,0,4.621-4.621h0A1.153,1.153,0,0,0,72.713,395.984Z" transform="translate(0 -395.984)" fill="#b9bbc1"/>
          </g>
          <g id="Group_11785" data-name="Group 11785" transform="translate(11.542 8.079)">
            <g id="Group_11784" data-name="Group 11784" transform="translate(0 0)">
              <path id="Path_6012" data-name="Path 6012" d="M89.233,134.292H81.154a1.154,1.154,0,0,1,0-2.308h8.079a1.154,1.154,0,1,1,0,2.308Z" transform="translate(-80 -131.984)" fill="#ff8d3b"/>
            </g>
          </g>
          <g id="Group_11787" data-name="Group 11787" transform="translate(39.242 8.079)">
            <g id="Group_11786" data-name="Group 11786" transform="translate(0 0)">
              <path id="Path_6013" data-name="Path 6013" d="M274.308,134.292h-1.154a1.154,1.154,0,0,1,0-2.308h1.154a1.154,1.154,0,1,1,0,2.308Z" transform="translate(-272 -131.984)" fill="#fff"/>
            </g>
          </g>
          <g id="Group_11789" data-name="Group 11789" transform="translate(45.013 8.079)">
            <g id="Group_11788" data-name="Group 11788" transform="translate(0 0)">
              <path id="Path_6014" data-name="Path 6014" d="M314.308,134.292h-1.154a1.154,1.154,0,1,1,0-2.308h1.154a1.154,1.154,0,1,1,0,2.308Z" transform="translate(-312 -131.984)" fill="#fff"/>
            </g>
          </g>
          <g id="Group_11791" data-name="Group 11791" transform="translate(50.784 8.079)">
            <g id="Group_11790" data-name="Group 11790" transform="translate(0 0)">
              <path id="Path_6015" data-name="Path 6015" d="M354.308,134.292h-1.154a1.154,1.154,0,0,1,0-2.308h1.154a1.154,1.154,0,1,1,0,2.308Z" transform="translate(-352 -131.984)" fill="#fff"/>
            </g>
          </g>
          <g id="Group_11793" data-name="Group 11793" transform="translate(56.554 8.079)">
            <g id="Group_11792" data-name="Group 11792" transform="translate(0 0)">
              <path id="Path_6016" data-name="Path 6016" d="M394.308,134.292h-1.154a1.154,1.154,0,1,1,0-2.308h1.154a1.154,1.154,0,0,1,0,2.308Z" transform="translate(-392 -131.984)" fill="#fff"/>
            </g>
          </g>
          <g id="Group_11794" data-name="Group 11794" transform="translate(11.542 17.313)">
            <path id="Path_6017" data-name="Path 6017" d="M100.775,216.759H81.154A1.154,1.154,0,0,1,80,215.6V197.138a1.154,1.154,0,0,1,1.154-1.154h19.621a1.154,1.154,0,0,1,1.154,1.154V215.6A1.154,1.154,0,0,1,100.775,216.759Z" transform="translate(-80 -195.984)" fill="#53dcff"/>
          </g>
          <g id="Group_11796" data-name="Group 11796" transform="translate(36.933 17.313)">
            <g id="Group_11795" data-name="Group 11795">
              <path id="Path_6018" data-name="Path 6018" d="M279.083,198.292H257.154a1.154,1.154,0,1,1,0-2.308h21.929a1.154,1.154,0,0,1,0,2.308Z" transform="translate(-256 -195.984)" fill="#ff4f19"/>
            </g>
          </g>
          <g id="Group_11798" data-name="Group 11798" transform="translate(36.933 26.546)">
            <g id="Group_11797" data-name="Group 11797" transform="translate(0 0)">
              <path id="Path_6019" data-name="Path 6019" d="M266.388,262.292h-9.233a1.154,1.154,0,1,1,0-2.308h9.233a1.154,1.154,0,0,1,0,2.308Z" transform="translate(-256 -259.984)" fill="#b9bbc1"/>
            </g>
          </g>
          <g id="Group_11800" data-name="Group 11800" transform="translate(36.933 31.163)">
            <g id="Group_11799" data-name="Group 11799">
              <path id="Path_6020" data-name="Path 6020" d="M266.388,294.292h-9.233a1.154,1.154,0,1,1,0-2.308h9.233a1.154,1.154,0,0,1,0,2.308Z" transform="translate(-256 -291.984)" fill="#b9bbc1"/>
            </g>
          </g>
          <g id="Group_11802" data-name="Group 11802" transform="translate(36.933 35.779)">
            <g id="Group_11801" data-name="Group 11801">
              <path id="Path_6021" data-name="Path 6021" d="M266.388,326.292h-9.233a1.154,1.154,0,1,1,0-2.308h9.233a1.154,1.154,0,0,1,0,2.308Z" transform="translate(-256 -323.984)" fill="#b9bbc1"/>
            </g>
          </g>
          <g id="Group_11804" data-name="Group 11804" transform="translate(50.784 26.546)">
            <g id="Group_11803" data-name="Group 11803" transform="translate(0 0)">
              <path id="Path_6022" data-name="Path 6022" d="M362.388,262.292h-9.233a1.154,1.154,0,0,1,0-2.308h9.233a1.154,1.154,0,1,1,0,2.308Z" transform="translate(-352 -259.984)" fill="#b9bbc1"/>
            </g>
          </g>
          <g id="Group_11806" data-name="Group 11806" transform="translate(50.784 31.163)">
            <g id="Group_11805" data-name="Group 11805">
              <path id="Path_6023" data-name="Path 6023" d="M362.388,294.292h-9.233a1.154,1.154,0,0,1,0-2.308h9.233a1.154,1.154,0,1,1,0,2.308Z" transform="translate(-352 -291.984)" fill="#b9bbc1"/>
            </g>
          </g>
          <g id="Group_11808" data-name="Group 11808" transform="translate(50.784 35.779)">
            <g id="Group_11807" data-name="Group 11807">
              <path id="Path_6024" data-name="Path 6024" d="M362.388,326.292h-9.233a1.154,1.154,0,0,1,0-2.308h9.233a1.154,1.154,0,1,1,0,2.308Z" transform="translate(-352 -323.984)" fill="#b9bbc1"/>
            </g>
          </g>
          <g id="Group_11810" data-name="Group 11810" transform="translate(36.933 21.929)">
            <g id="Group_11809" data-name="Group 11809">
              <path id="Path_6025" data-name="Path 6025" d="M272.158,230.292h-15a1.154,1.154,0,1,1,0-2.308h15a1.154,1.154,0,1,1,0,2.308Z" transform="translate(-256 -227.984)" fill="#e9001e"/>
            </g>
          </g>
          <g id="Group_11811" data-name="Group 11811" transform="translate(30.008 46.167)">
            <path id="Path_6026" data-name="Path 6026" d="M210.308,398.292h9.233a2.308,2.308,0,0,0,2.308-2.308H208A2.308,2.308,0,0,0,210.308,398.292Z" transform="translate(-208 -395.984)" fill="#8b8996"/>
          </g>
        </g>
        <g id="Group_11812" data-name="Group 11812" transform="translate(60.586 20.512)">
          <path id="Path_6007" data-name="Path 6007" d="M149.268,84.726h-12.2a3.472,3.472,0,0,1-3.464-3.464v-24.6a3.472,3.472,0,0,1,3.464-3.464H149.3a3.472,3.472,0,0,1,3.464,3.464v24.6A3.479,3.479,0,0,1,149.268,84.726Z" transform="translate(-133.6 -53.2)" fill="#324a5e"/>
          <rect id="Rectangle_8664" data-name="Rectangle 8664" width="17.384" height="23.708" transform="translate(0.858 3.718)" fill="#fff"/>
          <rect id="Rectangle_8665" data-name="Rectangle 8665" width="17.384" height="1.875" transform="translate(0.858 3.718)" fill="#e6e9ee"/>
          <path id="Path_6008" data-name="Path 6008" d="M231.509,75.772h-3.623a.285.285,0,0,1-.286-.286h0a.285.285,0,0,1,.286-.286h3.655a.285.285,0,0,1,.286.286h0A.314.314,0,0,1,231.509,75.772Z" transform="translate(-220.132 -73.452)" fill="#acb3ba"/>
          <g id="Group_11779" data-name="Group 11779" transform="translate(13.189 1.621)">
            <circle id="Ellipse_207" data-name="Ellipse 207" cx="0.35" cy="0.35" r="0.35" transform="translate(2.415)" fill="#2b3b4e"/>
            <circle id="Ellipse_208" data-name="Ellipse 208" cx="0.254" cy="0.254" r="0.254" transform="translate(0 0.826)" fill="#2b3b4e"/>
            <circle id="Ellipse_209" data-name="Ellipse 209" cx="0.254" cy="0.254" r="0.254" transform="translate(0.763 0.826)" fill="#2b3b4e"/>
          </g>
          <path id="Path_6009" data-name="Path 6009" d="M227.973,416.471h-3.178a.787.787,0,0,1-.794-.795h0a.489.489,0,0,1,.477-.477h3.814a.489.489,0,0,1,.477.477h0A.807.807,0,0,1,227.973,416.471Z" transform="translate(-216.818 -386.439)" fill="#acb3ba"/>
          <rect id="Rectangle_8666" data-name="Rectangle 8666" width="2.606" height="6.547" transform="translate(2.701 16.748)" fill="#ced5e0"/>
          <rect id="Rectangle_8667" data-name="Rectangle 8667" width="2.606" height="11.727" transform="translate(6.388 11.568)" fill="#ffd05b"/>
          <rect id="Rectangle_8668" data-name="Rectangle 8668" width="2.606" height="9.534" transform="translate(10.106 13.793)" fill="#84dbff"/>
          <rect id="Rectangle_8669" data-name="Rectangle 8669" width="2.606" height="13.634" transform="translate(13.824 9.661)" fill="#ff7058"/>
        </g>
      </g>
    </g>
  </g>
</svg>
