<svg xmlns="http://www.w3.org/2000/svg" width="160" height="160" viewBox="0 0 160 160">
  <g id="Group_14188" data-name="Group 14188" transform="translate(-925 -933)">
    <g id="Group_11778" data-name="Group 11778" transform="translate(901 829)">
      <path id="Rectangle_8222" data-name="Rectangle 8222" d="M80,0h0a80,80,0,0,1,80,80v0a80,80,0,0,1-80,80H0a0,0,0,0,1,0,0V80A80,80,0,0,1,80,0Z" transform="translate(24 104)" fill="#fff6b0"/>
      <circle id="Ellipse_205" data-name="Ellipse 205" cx="70" cy="70" r="70" transform="translate(34 114)" fill="#f5e673"/>
    </g>
    <g id="Group_14187" data-name="Group 14187" transform="translate(-21086 -352)">
      <g id="Group_14178" data-name="Group 14178" transform="translate(-371.5 -140.904)">
        <g id="tracking" transform="translate(22437 1471.404)">
          <g id="Group_14173" data-name="Group 14173" transform="translate(0)">
            <path id="Path_6525" data-name="Path 6525" d="M96.238,0H74.815V13.156L85.849,15.42l10.389-2.263,3.334-6.79Z" transform="translate(-74.815)" fill="#3a5e74"/>
            <path id="Path_6526" data-name="Path 6526" d="M226.251,0V13.156l11.4,2.546,10.044-2.546V0Z" transform="translate(-204.828)" fill="#2b3b4e"/>
            <path id="Path_6527" data-name="Path 6527" d="M74.815,385.546V398.7H96.238l3.475-6.225-3.475-6.932L86.132,383Z" transform="translate(-74.815 -328.818)" fill="#3a5e74"/>
            <path id="Path_6528" data-name="Path 6528" d="M96.238,93H74.815v12.732L76.23,108l-1.415,1.981v26.6H96.238l3.051-22.21Z" transform="translate(-74.815 -79.844)" fill="#ff8d3b"/>
            <path id="Path_6529" data-name="Path 6529" d="M226.251,398.7h21.441V385.546L237.082,383l-10.831,2.546Z" transform="translate(-204.828 -328.818)" fill="#2b3b4e"/>
            <path id="Path_6530" data-name="Path 6530" d="M226.251,136.572h.787l2.546-1.273,1.981,1.273h16.127V93H226.251Z" transform="translate(-204.828 -79.844)" fill="#f26b09"/>
          </g>
          <g id="Group_14174" data-name="Group 14174" transform="translate(5.729 47.462)">
            <path id="Path_6531" data-name="Path 6531" d="M115.315,335.5h4.244v4.244h-4.244Z" transform="translate(-115.315 -335.5)" fill="#a21212"/>
          </g>
          <g id="Group_14175" data-name="Group 14175" transform="translate(0 23.842)">
            <path id="Path_6532" data-name="Path 6532" d="M97.486,168.535l-22.671,1.993v4.26L97.486,172.8Z" transform="translate(-74.815 -168.535)" fill="#fff"/>
          </g>
          <g id="Group_14176" data-name="Group 14176" transform="translate(5.729 38.974)">
            <path id="Path_6533" data-name="Path 6533" d="M115.315,275.5h4.244v4.244h-4.244Z" transform="translate(-115.315 -275.5)" fill="#3a5e74"/>
          </g>
          <g id="Group_14177" data-name="Group 14177" transform="translate(22.126 41.319)">
            <path id="Path_6534" data-name="Path 6534" d="M237.839,292.077l-6.623,15.409h4.619l4.284-10.748Z" transform="translate(-231.216 -292.077)" fill="#fff"/>
          </g>
        </g>
        <g id="Group_14172" data-name="Group 14172" transform="translate(22451.754 1481.574)">
          <g id="Group_10637" data-name="Group 10637" transform="translate(2.711 0.417)">
            <g id="Group_9070" data-name="Group 9070" transform="translate(0 0)">
              <path id="Path_5313" data-name="Path 5313" d="M183.082,491.913c-7.886,0-14.279,5.923-14.279,13.231a12.335,12.335,0,0,0,.546,3.636,19.126,19.126,0,0,0,2.247,5.443q.1.159.187.291h0s1.191,1.8,3.237,4.456,3.761,4.621,3.949,4.882,4.09,4.746,4.09,4.746V518.375h.024c7.886,0,14.279-5.924,14.279-13.231S190.968,491.913,183.082,491.913Z" transform="translate(-168.803 -491.771)" fill="#072a40"/>
              <path id="Path_5317" data-name="Path 5317" d="M276.008,490.939c-.19,0-.378,0-.566.012,7.467.284,13.429,6.153,13.429,13.354s-5.962,13.07-13.429,13.354c.188.007.377.012.566.012,7.729,0,14-5.984,14-13.366S283.738,490.939,276.008,490.939Z" transform="translate(-259.915 -490.939)" fill="#f01f1f"/>
              <g id="Group_9069" data-name="Group 9069" transform="translate(22.774 1.298)">
                <path id="Path_5318" data-name="Path 5318" d="M325.209,499.851a13.284,13.284,0,0,1,0,24.136,12.71,12.71,0,0,0,0-24.136Z" transform="translate(-325.209 -499.851)" fill="#f77415"/>
                <path id="Path_5319" data-name="Path 5319" d="M356.255,515.215a12.818,12.818,0,0,1,0,19.7,11.621,11.621,0,0,0,0-19.7Z" transform="translate(-351.731 -512.978)" fill="#ffe414"/>
              </g>
            </g>
            <g id="Group_9083" data-name="Group 9083" transform="translate(4.885 9.479)">
              <rect id="Rectangle_8134" data-name="Rectangle 8134" width="1.221" height="4.866" transform="translate(0.181 1.959)" fill="#ffe414"/>
              <path id="Path_5314" data-name="Path 5314" d="M204.882,562.939a.618.618,0,0,1-.159.206.768.768,0,0,1-.249.14,1,1,0,0,1-.332.052.983.983,0,0,1-.328-.052.766.766,0,0,1-.249-.14.617.617,0,0,1-.159-.206.573.573,0,0,1-.056-.249.586.586,0,0,1,.056-.254.6.6,0,0,1,.159-.2.789.789,0,0,1,.249-.138.977.977,0,0,1,.328-.052.993.993,0,0,1,.332.052.79.79,0,0,1,.249.138.6.6,0,0,1,.159.2.586.586,0,0,1,.056.254A.574.574,0,0,1,204.882,562.939Z" transform="translate(-203.35 -562.042)" fill="#f01f1f"/>
              <path id="Path_5315" data-name="Path 5315" d="M232.8,567.955a2.864,2.864,0,0,1-.214.882,2.782,2.782,0,0,1-.48.761,2.972,2.972,0,0,1-.73.6,3.715,3.715,0,0,1-.965.388,4.775,4.775,0,0,1-1.184.138,4.6,4.6,0,0,1-1.61-.264,3.594,3.594,0,0,1-1.206-.721,3.1,3.1,0,0,1-.757-1.072,3.309,3.309,0,0,1-.262-1.311,3.171,3.171,0,0,1,.256-1.272,2.907,2.907,0,0,1,.746-1.029,3.574,3.574,0,0,1,1.206-.689,4.933,4.933,0,0,1,1.639-.251,6.505,6.505,0,0,1,.67.035,5.729,5.729,0,0,1,.664.109,5.3,5.3,0,0,1,.639.187,4.079,4.079,0,0,1,.592.27l-.6.99a2.519,2.519,0,0,0-.383-.179,3.545,3.545,0,0,0-.46-.136,4.473,4.473,0,0,0-.507-.085,4.8,4.8,0,0,0-.526-.029,3.532,3.532,0,0,0-1.089.155,2.37,2.37,0,0,0-.808.433,1.852,1.852,0,0,0-.5.666,2.059,2.059,0,0,0-.173.85,2.1,2.1,0,0,0,.181.878,1.983,1.983,0,0,0,.515.689,2.428,2.428,0,0,0,.808.452,3.528,3.528,0,0,0,1.913.058,2.277,2.277,0,0,0,.676-.3,1.678,1.678,0,0,0,.47-.468,1.581,1.581,0,0,0,.239-.617H229.3v-1.076h3.427v0l0,0A3.342,3.342,0,0,1,232.8,567.955Z" transform="translate(-222.178 -563.809)" fill="#fff"/>
              <path id="Path_5316" data-name="Path 5316" d="M288.017,568.69a3.075,3.075,0,0,1-.753,1.054,3.437,3.437,0,0,1-1.165.687,4.72,4.72,0,0,1-3,0,3.444,3.444,0,0,1-1.163-.687,3.075,3.075,0,0,1-.753-1.054,3.322,3.322,0,0,1-.268-1.346,3.268,3.268,0,0,1,.268-1.336,3.029,3.029,0,0,1,.753-1.041,3.414,3.414,0,0,1,1.163-.674,4.833,4.833,0,0,1,3,0,3.409,3.409,0,0,1,1.165.674,3.028,3.028,0,0,1,.753,1.041,3.268,3.268,0,0,1,.268,1.336A3.322,3.322,0,0,1,288.017,568.69Z" transform="translate(-269.618 -563.76)" fill="#fff"/>
              <path id="Path_5320" data-name="Path 5320" d="M293.968,572.6a2.194,2.194,0,0,0-.753-.419,3.174,3.174,0,0,0-1.893,0,2.217,2.217,0,0,0-.755.419,1.91,1.91,0,0,0-.5.67,2.144,2.144,0,0,0-.179.895,2.172,2.172,0,0,0,.179.9,1.983,1.983,0,0,0,.5.683,2.248,2.248,0,0,0,.755.435,3.01,3.01,0,0,0,1.893,0,2.224,2.224,0,0,0,.753-.435,2.021,2.021,0,0,0,.5-.683,2.153,2.153,0,0,0,.181-.9,2.126,2.126,0,0,0-.181-.895A1.946,1.946,0,0,0,293.968,572.6Z" transform="translate(-277.289 -570.584)" fill="#072a40"/>
            </g>
          </g>
          <rect id="Rectangle_8233" data-name="Rectangle 8233" width="37.234" height="37.234" transform="translate(0 0)" fill="none"/>
        </g>
      </g>
      <rect id="Rectangle_8756" data-name="Rectangle 8756" width="80" height="80" transform="translate(22051 1325)" fill="none"/>
    </g>
  </g>
</svg>
