<svg xmlns="http://www.w3.org/2000/svg" width="32" height="32" viewBox="0 0 32 32">
  <g id="animais" transform="translate(-1377 -234)">
    <rect id="Rectangle_8277" data-name="Rectangle 8277" width="32" height="32" transform="translate(1377 234)" fill="none"/>
    <g id="track" transform="translate(1381.82 217.535)">
      <g id="Group_13672" data-name="Group 13672" transform="translate(-0.001 21.383)">
        <g id="Group_13671" data-name="Group 13671" transform="translate(0 0)">
          <path id="Path_6208" data-name="Path 6208" d="M286.455,281.376a.456.456,0,1,0,.456.456A.456.456,0,0,0,286.455,281.376Z" transform="translate(-272.956 -269.519)" fill="#072a40"/>
          <path id="Path_6209" data-name="Path 6209" d="M108.2,212.559a11.433,11.433,0,0,1-2.282-3.459,3.9,3.9,0,0,0-7.207,0,11.031,11.031,0,0,1-2.441,3.611l0,0a3.91,3.91,0,0,0-1.3,2.909,3.87,3.87,0,0,0,1.765,3.281,4.327,4.327,0,0,0,3.547.573,8.233,8.233,0,0,1,4.093.009,4.3,4.3,0,0,0,3.531-.555,3.928,3.928,0,0,0,.3-6.373Zm-.8,5.612a3.388,3.388,0,0,1-2.782.438,9.139,9.139,0,0,0-4.58-.01,3.415,3.415,0,0,1-2.8-.452,2.966,2.966,0,0,1-1.359-2.522,3,3,0,0,1,1-2.228,11.742,11.742,0,0,0,2.677-3.935l0-.007a2.992,2.992,0,0,1,5.526,0l0,.007a12.343,12.343,0,0,0,2.5,3.764.472.472,0,0,0,.041.036,3.016,3.016,0,0,1-.221,4.909Z" transform="translate(-90.634 -198.247)" fill="#072a40"/>
          <path id="Path_6210" data-name="Path 6210" d="M305.7,316.849a.456.456,0,0,0-.764.5,13.034,13.034,0,0,0,1.682,2.1.456.456,0,1,0,.643-.647A12.089,12.089,0,0,1,305.7,316.849Z" transform="translate(-290.956 -303.177)" fill="#072a40"/>
          <path id="Path_6211" data-name="Path 6211" d="M122.289,27.611a4.633,4.633,0,0,0,.5-2.791c-.231-1.962-1.584-3.6-3.1-3.423a2.33,2.33,0,0,0-1.709,1.261,4.636,4.636,0,0,0-.5,2.791C117.863,28.652,120.845,30.134,122.289,27.611Zm-3.512-4.5a1.4,1.4,0,0,1,1.141-.815c.9,0,1.8,1.2,1.966,2.631a3.707,3.707,0,0,1-.387,2.23c-1.051,1.836-2.859.288-3.107-1.816A3.71,3.71,0,0,1,118.777,23.111Z" transform="translate(-112.093 -21.383)" fill="#072a40"/>
          <path id="Path_6212" data-name="Path 6212" d="M5.828,167.8a4.138,4.138,0,0,0-.452-2.531,4.138,4.138,0,0,0-1.8-1.833,2.472,2.472,0,0,0-2.264-.056,2.473,2.473,0,0,0-1.264,1.879A4.138,4.138,0,0,0,.5,167.786a4.139,4.139,0,0,0,1.8,1.833,2.479,2.479,0,0,0,2.264.056A2.472,2.472,0,0,0,5.828,167.8Zm-1.683,1.069A1.587,1.587,0,0,1,2.7,168.8a3.224,3.224,0,0,1-1.395-1.433A3.223,3.223,0,0,1,.945,165.4a1.587,1.587,0,0,1,.782-1.215h0a1.6,1.6,0,0,1,1.444.065,3.224,3.224,0,0,1,1.395,1.433,3.224,3.224,0,0,1,.362,1.966A1.587,1.587,0,0,1,4.145,168.865Z" transform="translate(0.001 -156.663)" fill="#072a40"/>
          <path id="Path_6213" data-name="Path 6213" d="M279.325,29.095c1.382,0,2.644-1.509,2.873-3.436.243-2.053-.791-4.065-2.434-4.065-1.383,0-2.645,1.509-2.873,3.436C276.648,27.086,277.685,29.095,279.325,29.095ZM277.8,25.136c.169-1.426,1.07-2.631,1.967-2.631a.863.863,0,0,1,.111.006,1.539,1.539,0,0,1,1.084.913,3.808,3.808,0,0,1,.333,2.127c-.175,1.478-1.155,2.745-2.078,2.625h-.005a1.516,1.516,0,0,1-1.079-.912A3.81,3.81,0,0,1,277.8,25.136Z" transform="translate(-264.23 -21.583)" fill="#072a40"/>
          <path id="Path_6214" data-name="Path 6214" d="M389.04,165.307a2.353,2.353,0,0,0-3.528-1.823,4.345,4.345,0,0,0-2.255,4.365,2.353,2.353,0,0,0,3.528,1.823A4.344,4.344,0,0,0,389.04,165.307Zm-2.657,3.545a1.588,1.588,0,0,1-1.444.065h0a1.587,1.587,0,0,1-.782-1.215,3.437,3.437,0,0,1,1.756-3.4,1.45,1.45,0,0,1,2.226,1.151A3.437,3.437,0,0,1,386.383,168.852Z" transform="translate(-365.736 -156.714)" fill="#072a40"/>
        </g>
      </g>
    </g>
  </g>
</svg>
