<svg xmlns="http://www.w3.org/2000/svg" width="32" height="32" viewBox="0 0 32 32">
  <g id="bebe" transform="translate(-1160 -234)">
    <rect id="Rectangle_8277" data-name="Rectangle 8277" width="32" height="32" transform="translate(1160 234)" fill="none"/>
    <path id="pacifier" d="M19.383,8.5a4.983,4.983,0,0,0-.05-7.1,4.982,4.982,0,0,0-8.442,3.22q-.015.218-.046.433A12.075,12.075,0,0,0,7.66,3.47c-1.794-.533-2.735-.081-3.209.393-.8.8-.839,2.229-.1,4.023A6.615,6.615,0,0,0,1.956,9.424a6.688,6.688,0,1,0,11,7.066,6.173,6.173,0,0,0,2.289.527,2.361,2.361,0,0,0,1.733-.63c.474-.474.927-1.417.39-3.217a12.1,12.1,0,0,0-1.589-3.181q.2-.025.4-.038A4.976,4.976,0,0,0,19.383,8.5ZM10.55,18.019A5.466,5.466,0,1,1,4.878,8.993c.215.4.459.8.728,1.2a4.06,4.06,0,0,0-1.822,1.058,4.1,4.1,0,1,0,6.86,3.981c.4.269.8.513,1.2.728a5.484,5.484,0,0,1-1.295,2.059ZM6.4,11.282a18.876,18.876,0,0,0,1.485,1.674,18.873,18.873,0,0,0,1.67,1.483,2.882,2.882,0,1,1-4.905-2.323,2.851,2.851,0,0,1,1.7-.824l.052-.009Zm9.8,2.237c.28.941.25,1.671-.083,2-.432.432-1.478.355-2.8-.206a15.383,15.383,0,0,1-4.567-3.225A15.385,15.385,0,0,1,5.521,7.524c-.561-1.32-.638-2.366-.206-2.8.332-.332,1.06-.364,2-.085a11.354,11.354,0,0,1,3.206,1.678,5.564,5.564,0,0,1-1.26,1.959l-.133.133a.611.611,0,0,0,0,.863l2.38,2.381a.611.611,0,0,0,.864,0l.029-.03A5.709,5.709,0,0,1,14.5,10.3a11.407,11.407,0,0,1,1.692,3.223Zm-4.24-3.143L10.411,8.833a6.973,6.973,0,0,0,1.7-4.122,3.75,3.75,0,0,1,3.684-3.488,3.759,3.759,0,0,1,.3,7.509A7.1,7.1,0,0,0,11.954,10.376Z" transform="translate(1165.576 239.576)" fill="#072a40"/>
  </g>
</svg>
