<svg xmlns="http://www.w3.org/2000/svg" width="32" height="32" viewBox="0 0 32 32">
  <g id="bebidas_garrafeira" transform="translate(-943 -234)">
    <rect id="Rectangle_8277" data-name="Rectangle 8277" width="32" height="32" transform="translate(943 234)" fill="none"/>
    <g id="wine" transform="translate(948 236)">
      <path id="Path_6188" data-name="Path 6188" d="M7.726,8.583a8.8,8.8,0,0,1-.742-3.547V2.794a.466.466,0,0,0,.466-.466V.466A.466.466,0,0,0,6.984,0H3.259a.466.466,0,0,0-.466.466V2.328a.466.466,0,0,0,.466.466V5.036a8.806,8.806,0,0,1-.742,3.547L1.211,11.572A14.343,14.343,0,0,0,0,17.357V27.473a.466.466,0,0,0,.466.466H9.778a.466.466,0,0,0,.466-.466V17.357a14.339,14.339,0,0,0-1.211-5.785Zm-4-7.652H6.519v.931H3.725ZM9.313,27.007H.931v-9.65a13.421,13.421,0,0,1,1.132-5.413L3.371,8.956a9.73,9.73,0,0,0,.82-3.919V2.794H6.053V5.036a9.726,9.726,0,0,0,.82,3.919L8.18,11.944a13.421,13.421,0,0,1,1.132,5.413Zm0,0" transform="translate(0)" fill="#072a40"/>
      <path id="Path_6189" data-name="Path 6189" d="M103.812,192.063l.387.885a11.794,11.794,0,0,1,.511,1.409.466.466,0,0,0,.447.335.472.472,0,0,0,.131-.019.465.465,0,0,0,.316-.578,12.765,12.765,0,0,0-.554-1.521l-.387-.885a.466.466,0,1,0-.853.372Zm0,0" transform="translate(-97.726 -180.257)" fill="#072a40"/>
      <path id="Path_6190" data-name="Path 6190" d="M88.545,157.05a.465.465,0,0,0,.427.279.457.457,0,0,0,.186-.039.465.465,0,0,0,.24-.613l-.319-.73a.466.466,0,0,0-.853.372Zm0,0" transform="translate(-83.06 -146.62)" fill="#072a40"/>
      <path id="Path_6191" data-name="Path 6191" d="M32.466,280a.466.466,0,0,0-.466.466v7.916a.466.466,0,0,0,.466.466h5.588a.466.466,0,0,0,.466-.466v-7.916a.466.466,0,0,0-.466-.466Zm5.122,7.916H32.931v-6.985h4.656Zm0,0" transform="translate(-30.138 -263.703)" fill="#072a40"/>
      <path id="Path_6192" data-name="Path 6192" d="M216.754,139.836a6.093,6.093,0,0,0-3.166-1.192v-6.561a5.127,5.127,0,0,0,4.656-5.1.459.459,0,0,0,0-.066l-.245-1.716v0l-.686-4.8a.466.466,0,0,0-.461-.4H209.4a.465.465,0,0,0-.461.4L208,126.918a.459.459,0,0,0,0,.066,5.127,5.127,0,0,0,4.656,5.1v6.562a6.091,6.091,0,0,0-3.166,1.192l-.373.279a.466.466,0,0,0,.279.838h7.45a.466.466,0,0,0,.279-.838Zm-6.953-18.9h6.643l.559,3.911-.9.1a7.869,7.869,0,0,1-3.035-.253l-.055-.016a8.828,8.828,0,0,0-3.522-.266l-.193.024Zm-.869,6.085.233-1.63.444-.054a7.874,7.874,0,0,1,3.145.233l.055.016a8.786,8.786,0,0,0,3.4.285l.924-.1.179,1.253a4.191,4.191,0,0,1-8.381,0Zm2.06,13.006a5.209,5.209,0,0,1,4.262,0Zm0,0" transform="translate(-195.894 -113.015)" fill="#072a40"/>
    </g>
  </g>
</svg>
