<svg xmlns="http://www.w3.org/2000/svg" width="32" height="32" viewBox="0 0 32 32">
  <g id="bio_intolerancias" transform="translate(-184 -234)">
    <rect id="Rectangle_8277" data-name="Rectangle 8277" width="32" height="32" transform="translate(184 234)" fill="none"/>
    <g id="diet" transform="translate(185 210.363)">
      <g id="Group_13638" data-name="Group 13638" transform="translate(9.245 36.307)">
        <g id="Group_13637" data-name="Group 13637" transform="translate(0 0)">
          <path id="Path_6145" data-name="Path 6145" d="M159.784,191.726a1.371,1.371,0,0,0-2.382.9.441.441,0,0,0,.433.448h.008a.441.441,0,0,0,.44-.433.489.489,0,0,1,.5-.481.484.484,0,0,1,.353.159.441.441,0,1,0,.65-.594Z" transform="translate(-157.402 -191.28)" fill="#072a40"/>
        </g>
      </g>
      <g id="Group_13640" data-name="Group 13640" transform="translate(11.605 37.423)">
        <g id="Group_13639" data-name="Group 13639">
          <path id="Path_6146" data-name="Path 6146" d="M199.959,211.048a1.258,1.258,0,0,0-2.338.056.44.44,0,1,0,.826.306.379.379,0,0,1,.485-.223.372.372,0,0,1,.216.206.441.441,0,0,0,.811-.345Z" transform="translate(-197.594 -210.283)" fill="#072a40"/>
        </g>
      </g>
      <g id="Group_13642" data-name="Group 13642" transform="translate(15.643 34.158)">
        <g id="Group_13641" data-name="Group 13641">
          <path id="Path_6147" data-name="Path 6147" d="M267.506,154.822a.44.44,0,0,0-.623,0l-.415.416a.44.44,0,0,0,.624.622l.415-.416A.44.44,0,0,0,267.506,154.822Z" transform="translate(-266.339 -154.693)" fill="#072a40"/>
        </g>
      </g>
      <g id="Group_13644" data-name="Group 13644" transform="translate(13.042 39.974)">
        <g id="Group_13643" data-name="Group 13643">
          <path id="Path_6148" data-name="Path 6148" d="M223.077,253.709h-.587a.441.441,0,0,0,0,.881h.587a.441.441,0,0,0,0-.881Z" transform="translate(-222.049 -253.709)" fill="#072a40"/>
        </g>
      </g>
      <g id="Group_13646" data-name="Group 13646" transform="translate(17.543 39.974)">
        <g id="Group_13645" data-name="Group 13645">
          <path id="Path_6149" data-name="Path 6149" d="M299.72,253.709h-.587a.441.441,0,0,0,0,.881h.587a.441.441,0,1,0,0-.881Z" transform="translate(-298.692 -253.709)" fill="#072a40"/>
        </g>
      </g>
      <g id="Group_13648" data-name="Group 13648" transform="translate(0 26.637)">
        <g id="Group_13647" data-name="Group 13647" transform="translate(0 0)">
          <path id="Path_6150" data-name="Path 6150" d="M30.057,47.916l-.115-.619a.836.836,0,0,0-.973-.669l-2.335.429,1.058-.707a.832.832,0,0,0,.263-1.1l-.32-.567a.833.833,0,0,0-.837-.417,11.143,11.143,0,0,0,.178-1.989.737.737,0,0,0-.438-.672,3.378,3.378,0,0,0,.027-2.556.535.535,0,0,0-.3-.3,3.351,3.351,0,0,0-1.245-.239q-.082,0-.163,0a2.322,2.322,0,0,0-2.8-2.161,3.63,3.63,0,0,0-.205-1.939.541.541,0,0,0-.3-.307,3.62,3.62,0,0,0-3.272.3,4.357,4.357,0,0,0-1.037-1.659.748.748,0,0,0-1.059,0l-2.133,2.138a2.214,2.214,0,0,0-1.478-.562,2.228,2.228,0,0,0-1.59.668,2.214,2.214,0,0,0-1.643-.117V33.223A2.08,2.08,0,0,0,7.3,31.145V30.21a.735.735,0,0,0,.609-.723V27.371a.735.735,0,0,0-.734-.734H3.592a.735.735,0,0,0-.734.734v2.117a.735.735,0,0,0,.609.723v.934a2.08,2.08,0,0,0-2.039,2.078V46.079A4.208,4.208,0,0,0,0,49.207a4.559,4.559,0,0,0,4.717,4.372l17.631-.005a2.016,2.016,0,0,0,2-2.331l3.521.633a.842.842,0,0,0,.148.013.835.835,0,0,0,.827-.711l.1-.64a.833.833,0,0,0-.639-.936l-1.241-.285,2.333-.429a.834.834,0,0,0,.671-.972Zm-5.036-8.528a2.47,2.47,0,0,1,.777.125,2.5,2.5,0,0,1-.211,2.026H24.4l.379-.38a.441.441,0,0,0-.624-.622l-.2.2a2.043,2.043,0,0,0-.473-.813A2.463,2.463,0,0,1,25.021,39.388Zm-2.484-2.207a1.446,1.446,0,0,1,1.443,1.447c0,.015,0,.029,0,.044a3.347,3.347,0,0,0-1.257.746c-.058-.022-.117-.042-.177-.059a2.044,2.044,0,0,0-1.218-1.515A1.44,1.44,0,0,1,22.537,37.181Zm-2.328-2.454a2.729,2.729,0,0,1,.877.144,2.76,2.76,0,0,1-.109,2.034,2.339,2.339,0,0,0-.564.782,2.08,2.08,0,0,0-.235.027,2.057,2.057,0,0,0-.936.427,2.331,2.331,0,0,0-.333-.463l1.01-1.012a.441.441,0,0,0-.624-.622l-1.1,1.107a2.3,2.3,0,0,0-.676-.2,2.749,2.749,0,0,1,2.695-2.223Zm-3.375,6.811h-.382a.44.44,0,0,0-.82,0h-.449A.44.44,0,0,0,14.5,41l-.415.416a.438.438,0,0,0-.087.125h-.9a3.484,3.484,0,0,1-.565-1.778H19.52a3.484,3.484,0,0,1-.565,1.778h-.933a.439.439,0,0,0-.087-.125L17.52,41a.44.44,0,0,0-.687.541Zm-1.024-2.659a1.441,1.441,0,0,1,2.785,0Zm.9-5.416a3.484,3.484,0,0,1,.832,1.556,3.628,3.628,0,0,0-.559.8.438.438,0,0,0-.229-.065h-.587a.44.44,0,1,0,0,.881h.515a3.648,3.648,0,0,0-.068.369,2.3,2.3,0,0,0-.5.195,2.224,2.224,0,0,0-1.356-1.036v0a2.23,2.23,0,0,0-.177-.564ZM8.747,37.438a1.329,1.329,0,0,1-.058-.221,1.345,1.345,0,0,1,1.094-1.551,1.359,1.359,0,0,1,.232-.02,1.331,1.331,0,0,1,.8.268.441.441,0,0,0,.631-.109,1.334,1.334,0,0,1,.891-.583,1.359,1.359,0,0,1,.233-.02,1.336,1.336,0,0,1,1.319,1.11,1.35,1.35,0,0,1,.019.228.441.441,0,0,0,.4.438,1.341,1.341,0,0,1,1.106.79,2.322,2.322,0,0,0-.509,1.112H12.4a.749.749,0,0,0-.692.466,3.361,3.361,0,0,0-3.132-.34.534.534,0,0,0-.3.3,3.375,3.375,0,0,0-.206.783,1.34,1.34,0,0,1,.448-2.1A.441.441,0,0,0,8.747,37.438Zm1.313,3.98.12.12H9.122a2.5,2.5,0,0,1-.081-1.767,2.478,2.478,0,0,1,2.71.8,4.351,4.351,0,0,0,.337.965h-.664l-.741-.743a.441.441,0,0,0-.624.622Zm-1.876.12H6.614a1.449,1.449,0,0,1,.683-1,2.215,2.215,0,0,0,.8.666A3.407,3.407,0,0,0,8.184,41.538ZM3.739,27.518H7.027v1.823H3.739Zm2.68,2.7v.922H4.347v-.922Zm-4.11,4.787h2.86a.44.44,0,1,0,0-.881H2.308v-.905a1.2,1.2,0,0,1,1.195-1.2H7.263a1.2,1.2,0,0,1,1.195,1.2v.905H7.635a.44.44,0,1,0,0,.881h.822V35.4a2.22,2.22,0,0,0-.637,1.967v0a2.226,2.226,0,0,0-.933,2.212c.009.051.02.1.032.149a2.336,2.336,0,0,0-.587.461H2.308Zm0,6.066H5.821a2.311,2.311,0,0,0-.1.463H5.651a.736.736,0,0,0-.735.736,11.147,11.147,0,0,0,.191,2.058c-.127-.01-.256-.016-.388-.016a4.014,4.014,0,0,0-1.429.238c-.595.235-.759.568-.795.8-.063.031-.125.064-.186.1V41.076Zm5.578,5.411A1.668,1.668,0,0,1,8.2,46.8H8.181a2.737,2.737,0,0,1-1.207-.382,3.174,3.174,0,0,1-.505-.343.441.441,0,0,0-.57,0,3.156,3.156,0,0,1-.505.343,2.737,2.737,0,0,1-1.207.383H4.171a1.666,1.666,0,0,1,.312-.313.44.44,0,0,0-.224-.781,2.1,2.1,0,0,1-.829-.239A2.509,2.509,0,0,1,4.718,45.2a2.746,2.746,0,0,1,1.251.245.441.441,0,0,0,.431,0A2.747,2.747,0,0,1,7.651,45.2a2.509,2.509,0,0,1,1.288.269,2.1,2.1,0,0,1-.829.239.441.441,0,0,0-.224.781ZM7,51.848l.015.082a2.006,2.006,0,0,0,.317.768H4.717A3.68,3.68,0,0,1,.881,49.207a3.46,3.46,0,0,1,1.988-3.058,1.893,1.893,0,0,0,.507.26,1.043,1.043,0,0,0-.148.435.718.718,0,0,0,.175.543,1,1,0,0,0,.786.293,3.638,3.638,0,0,0,1.633-.493q.192-.107.363-.224.17.117.363.224a3.639,3.639,0,0,0,1.633.493h0a1,1,0,0,0,.786-.293.717.717,0,0,0,.175-.543,1.043,1.043,0,0,0-.148-.435,1.9,1.9,0,0,0,.507-.26,3.564,3.564,0,0,1,1.888,2.266L8.273,49.6A2.014,2.014,0,0,0,7,51.848Zm16.219.435a1.14,1.14,0,0,1-.877.409h-.462l-.289-1.56a.441.441,0,0,0-.866.16l.259,1.4H19.473l-.2-1.055a.441.441,0,0,0-.866.16l.166.895H15.052l-.265-1.432a.441.441,0,0,0-.866.161l.236,1.272-5.148,0h0a1.139,1.139,0,0,1-1.122-.929l-.015-.082a1.133,1.133,0,0,1,.715-1.265l1.731-.658.129.7a.441.441,0,0,0,.433.36.446.446,0,0,0,.081-.007.44.44,0,0,0,.353-.513l-.158-.854,2.57-.976a.441.441,0,0,0-.313-.824l-1.2.454a4.464,4.464,0,0,0-2.34-2.748c-.036-.231-.2-.564-.795-.8a4.014,4.014,0,0,0-1.429-.238,4.469,4.469,0,0,0-1.026.114v-.266a.44.44,0,0,0-.713-.346,10.291,10.291,0,0,1-.115-1.4H20.145a.44.44,0,1,0,0-.881h-.18a4.361,4.361,0,0,0,.439-1.91.749.749,0,0,0-.676-.745,1.161,1.161,0,0,1,.6-.3,1.188,1.188,0,0,1,.2-.018,1.164,1.164,0,0,1,1.149.967,1.178,1.178,0,0,1,.017.2.441.441,0,0,0,.4.438,1.168,1.168,0,0,1,1.047.963,1.151,1.151,0,0,1,0,.406h-.473a.44.44,0,1,0,0,.881h3.424a10.153,10.153,0,0,1-.309,2.363L23.4,46.191a2.022,2.022,0,0,0-2.663-1.327l-4.917,1.868a.441.441,0,0,0,.313.824l.648-.246.2,1.086a.441.441,0,0,0,.433.36.446.446,0,0,0,.081-.007.441.441,0,0,0,.353-.513l-.23-1.243,3.432-1.3a1.143,1.143,0,0,1,.967.071,1.132,1.132,0,0,1,.562.783l.891,4.811A1.127,1.127,0,0,1,23.224,52.284ZM24.8,48.836a.44.44,0,0,0-.019.863l3.28.752-.082.55-3.8-.683-.594-3.209,3.312-1.955.276.488-2.793,1.867a.441.441,0,0,0,.324.8l4.388-.806.1.527Z" transform="translate(0 -26.637)" fill="#072a40"/>
        </g>
      </g>
    </g>
  </g>
</svg>
