<svg xmlns="http://www.w3.org/2000/svg" width="32" height="32" viewBox="0 0 32 32">
  <g id="brinquedos" transform="translate(-1485 -234)">
    <rect id="Rectangle_8277" data-name="Rectangle 8277" width="32" height="32" transform="translate(1485 234)" fill="none"/>
    <g id="puzzle-piece" transform="translate(1486.135 234.355)">
      <path id="Path_6215" data-name="Path 6215" d="M48.306,14.16a.385.385,0,0,1-.142-.027l-2.9-1.154a.385.385,0,0,1-.018-.707A1.222,1.222,0,1,0,43.6,10.71a1.18,1.18,0,0,0,0,.9.385.385,0,0,1-.5.508l-2.911-1.157a.385.385,0,0,1-.215-.5l.9-2.256a1.991,1.991,0,1,1,1.368-3.448l.9-2.259a.385.385,0,0,1,.5-.215l7.267,2.888a1.143,1.143,0,0,1,.639,1.482l-2.885,7.258A.385.385,0,0,1,48.306,14.16ZM46.19,12.521l1.9.755,2.743-6.9a.377.377,0,0,0-.208-.483L43.716,3.144,42.7,5.692A.385.385,0,0,1,42,5.708a1.222,1.222,0,1,0-.651,1.639.385.385,0,0,1,.5.5l-1.014,2.546,1.9.757A1.995,1.995,0,1,1,46.19,12.52Z" transform="translate(-22.704)" fill="#072a40"/>
      <path id="Path_6216" data-name="Path 6216" d="M59.282,42.04a.385.385,0,1,1,0-.769h0a.385.385,0,0,1,0,.769Z" transform="translate(-35.012 -24.006)" fill="#072a40"/>
      <path id="Path_6217" data-name="Path 6217" d="M48.911,42.04a.385.385,0,1,1,0-.769h0a.385.385,0,0,1,0,.769Z" transform="translate(-28.629 -24.006)" fill="#072a40"/>
      <path id="Path_6218" data-name="Path 6218" d="M48.9,42.045a.385.385,0,1,1,.154-.032.377.377,0,0,1-.154.032Z" transform="translate(-28.626 -24.009)" fill="#072a40"/>
      <path id="Path_6219" data-name="Path 6219" d="M23.3,35.509H3.357A1.356,1.356,0,0,1,2,34.156V14.212a1.355,1.355,0,0,1,1.357-1.349h9.966a.385.385,0,0,1,.385.385v3.988a.385.385,0,0,1-.654.276,1.664,1.664,0,1,0,0,2.4.385.385,0,0,1,.654.276v3.6h2.881a2.438,2.438,0,1,1,4.415,0h3.258a.385.385,0,0,1,.385.385v9.98A1.352,1.352,0,0,1,23.3,35.509ZM3.357,13.632a.585.585,0,0,0-.587.58V34.156a.587.587,0,0,0,.587.584H23.3a.583.583,0,0,0,.58-.584v-9.6h-3.6a.385.385,0,0,1-.278-.65,1.665,1.665,0,1,0-2.872-1.149,1.613,1.613,0,0,0,.462,1.144.385.385,0,0,1-.273.654h-4a.385.385,0,0,1-.385-.385V20.916a2.434,2.434,0,1,1,0-4.409V13.632Z" transform="translate(0 -6.525)" fill="#072a40"/>
      <path id="Path_6220" data-name="Path 6220" d="M30.833,46.038a.385.385,0,0,1-.385-.385v-3.99a.385.385,0,1,1,.769,0v3.992a.385.385,0,0,1-.385.387Z" transform="translate(-17.506 -24.01)" fill="#072a40"/>
      <path id="Path_6221" data-name="Path 6221" d="M30.84,64.079a.385.385,0,0,1-.385-.385V59.7a.385.385,0,1,1,.769,0v3.994A.385.385,0,0,1,30.84,64.079Z" transform="translate(-17.51 -35.11)" fill="#072a40"/>
      <path id="Path_6222" data-name="Path 6222" d="M24.465,42.04h-3.98a.385.385,0,0,1,0-.769h3.98a.385.385,0,1,1,0,.769Z" transform="translate(-11.138 -24.006)" fill="#072a40"/>
      <path id="Path_6223" data-name="Path 6223" d="M6.408,42.046h-4a.385.385,0,0,1,0-.769h4a.385.385,0,0,1,0,.769Z" transform="translate(-0.017 -24.01)" fill="#072a40"/>
      <path id="Path_6224" data-name="Path 6224" d="M13.345,45.505A2.432,2.432,0,0,1,11.6,41.378a.385.385,0,1,1,.552.536,1.664,1.664,0,1,0,2.86,1.157,1.634,1.634,0,0,0-.465-1.154.385.385,0,1,1,.548-.538,2.4,2.4,0,0,1,.686,1.694,2.438,2.438,0,0,1-2.436,2.432Z" transform="translate(-5.484 -23.995)" fill="#072a40"/>
      <path id="Path_6225" data-name="Path 6225" d="M32.252,55.036a2.426,2.426,0,0,1-1.692-.687.385.385,0,1,1,.534-.553,1.663,1.663,0,1,0,.014-2.409.385.385,0,0,1-.665-.261v0a.385.385,0,0,1,.118-.277,2.436,2.436,0,1,1,1.692,4.19Z" transform="translate(-17.498 -29.479)" fill="#072a40"/>
    </g>
  </g>
</svg>
