<svg xmlns="http://www.w3.org/2000/svg" width="32" height="32" viewBox="0 0 32 32">
  <g id="congelados" transform="translate(-827 -231)">
    <rect id="Rectangle_8277" data-name="Rectangle 8277" width="32" height="32" transform="translate(827 231)" fill="none"/>
    <path id="frozen" d="M21.74,13.344,18.522,15.2l-2.067-1.193L18.9,12.6a.709.709,0,0,0,0-1.228L16.329,9.884l2.193-1.266,3.218,1.858a.709.709,0,0,0,.709-1.228L19.94,7.8l1.768-1.021A.709.709,0,1,0,21,5.55L19.231,6.57v-2.9a.709.709,0,0,0-1.418,0V7.389l-2.13,1.23V5.8a.709.709,0,0,0-1.064-.614L12.111,6.629V4.1L15.328,2.24a.709.709,0,0,0-.709-1.228L12.111,2.459V.709a.709.709,0,1,0-1.418,0v1.75L8.184,1.011A.709.709,0,0,0,7.475,2.24L10.693,4.1V6.629L8.184,5.181A.709.709,0,0,0,7.121,5.8V8.619l-2.13-1.23V3.674a.709.709,0,0,0-1.418,0v2.9L2.056,5.7a.709.709,0,0,0-.709,1.228L2.863,7.8.355,9.247a.709.709,0,1,0,.709,1.228L4.282,8.617,6.475,9.884,3.9,11.368a.709.709,0,0,0,0,1.228l2.446,1.412L4.282,15.2,1.064,13.344a.709.709,0,1,0-.709,1.228L2.863,16.02,1.347,16.9a.709.709,0,1,0,.709,1.228l1.516-.875v2.9a.709.709,0,0,0,1.418,0V16.43l2.13-1.23v2.969a.709.709,0,0,0,1.064.614l2.508-1.448v2.387L7.475,21.58a.709.709,0,0,0,.709,1.228l2.508-1.448V23.4a.709.709,0,0,0,1.418,0V21.36l2.508,1.448a.709.709,0,0,0,.709-1.228l-3.218-1.858V17.335l2.508,1.448a.709.709,0,0,0,1.064-.614V15.2l2.13,1.23v3.715a.709.709,0,0,0,1.418,0v-2.9L21,18.269a.709.709,0,1,0,.709-1.228L19.94,16.02l2.508-1.448a.709.709,0,1,0-.709-1.228Zm-4.612-1.362-2.091,1.207L12.82,11.91,14.911,10.7ZM14.265,7.023V9.438l-2.154,1.243V8.267Zm-5.726,0,2.154,1.243v2.414L8.539,9.438ZM5.676,11.982,7.893,10.7,9.984,11.91l-2.217,1.28Zm2.863,4.959v-2.56l2.154-1.243V15.7Zm5.726,0L12.111,15.7v-2.56l2.154,1.243v2.56Zm0,0" transform="translate(832 235)" fill="#072a40"/>
  </g>
</svg>
