<svg xmlns="http://www.w3.org/2000/svg" width="32" height="32" viewBox="0 0 32 32">
  <g id="desporto" transform="translate(-1593 -234)">
    <rect id="Rectangle_8277" data-name="Rectangle 8277" width="32" height="32" transform="translate(1593 234)" fill="none"/>
    <g id="roller-skate" transform="translate(1591.886 232.897)">
      <path id="Path_6226" data-name="Path 6226" d="M12.4,101.75a1.65,1.65,0,1,0,1.65,1.65A1.65,1.65,0,0,0,12.4,101.75Zm0,2.554a.9.9,0,1,1,.9-.9A.9.9,0,0,1,12.4,104.3Z" transform="translate(-4.724 -76.364)" fill="#072a40"/>
      <path id="Path_6227" data-name="Path 6227" d="M42.73,101.75a1.65,1.65,0,1,0,1.65,1.65A1.65,1.65,0,0,0,42.73,101.75Zm0,2.554a.9.9,0,1,1,.9-.9A.9.9,0,0,1,42.73,104.3Z" transform="translate(-28.598 -76.364)" fill="#072a40"/>
      <path id="Path_6228" data-name="Path 6228" d="M73.07,101.75a1.65,1.65,0,1,0,1.65,1.65A1.65,1.65,0,0,0,73.07,101.75Zm0,2.554a.9.9,0,1,1,.9-.9A.9.9,0,0,1,73.07,104.3Z" transform="translate(-52.48 -76.364)" fill="#072a40"/>
      <path id="Path_6229" data-name="Path 6229" d="M27.6,24.162l-.16-.826h.592a1.011,1.011,0,0,0,.123-2.016,2.575,2.575,0,0,0,.024-1.707,2.352,2.352,0,0,0-1.059-1.306,5.261,5.261,0,0,0-.8-.417,11.288,11.288,0,0,0-1.094-.4c-.519-.16-1.063-.3-1.639-.453a15.53,15.53,0,0,1-3.706-1.292l-.029-.018-.018-.011A8.424,8.424,0,0,1,18.2,14.5a6.471,6.471,0,0,1-1.9-3.9,12.151,12.151,0,0,1-.115-1.716V8.729C16.174,5.209,15.534,4.74,13,4.74a13.243,13.243,0,0,0-3.635.432c-2.627.762-2.832,2.265-2.832,2.708v7.13a16.862,16.862,0,0,1-.18,2.368,8.226,8.226,0,0,0,.232,3.941,1.012,1.012,0,0,0,.111,2.018h.592l-.16.826a2.926,2.926,0,1,0,3.41,3.5h.739a2.926,2.926,0,0,0,5.717,0h.741a2.926,2.926,0,0,0,5.717,0h.739a2.926,2.926,0,1,0,3.41-3.5Zm-.768-.045a2.831,2.831,0,0,0-.524.087l-.168-.868h.541Zm-3.386,2.265h.751a2.76,2.76,0,0,0-.07.532h-.611a2.76,2.76,0,0,0-.07-.532Zm1.032-.745H23.161a2.927,2.927,0,0,0-5.142,0H16.7a2.927,2.927,0,0,0-5.142,0H10.247a2.941,2.941,0,0,0-1.126-1.145l.221-1.156H25.376l.223,1.156a2.941,2.941,0,0,0-1.126,1.145Zm-7.49.745h.753a2.76,2.76,0,0,0-.07.532h-.613a2.76,2.76,0,0,0-.07-.532Zm-6.456,0h.751a2.76,2.76,0,0,0-.07.532H10.6A2.76,2.76,0,0,0,10.528,26.382Zm16.182-7.45a1.646,1.646,0,0,1,.75.891,1.719,1.719,0,0,1-.143,1.492H21.369a5.552,5.552,0,0,1,3.744-3.075c.369.119.664.227.913.335a4.506,4.506,0,0,1,.685.357ZM23.888,17.89a6.236,6.236,0,0,0-3.34,3.425H15.214a13,13,0,0,1-2.635-2.16c-.96-.958-1.916-2.565-2.42-7.71h1.327a.372.372,0,0,0,.372-.372v-.053h3.767a7.253,7.253,0,0,0,1.706,3.64l-1.718.887h0L15.59,15.5a.371.371,0,0,0-.5-.16l-1.46.751a1.758,1.758,0,0,0,.27,3.233,1.826,1.826,0,0,0,.541.085,1.735,1.735,0,0,0,.8-.2l1.46-.753a.367.367,0,0,0,.185-.217.38.38,0,0,0-.023-.285l-.023-.045h0l2.805-1.447a16.748,16.748,0,0,0,3.761,1.3l.486.129ZM9.628,8.7,9.655,8.7h.007a1,1,0,0,1,.181-.017h1.271V10.7H9.843a.515.515,0,0,1-.081,0H9.738a1.011,1.011,0,0,1-.9-1.008.985.985,0,0,1,.3-.717.963.963,0,0,1,.492-.27Zm5.821.4c.006.4.027.8.067,1.171H11.858V9.1Zm3.448,6.9-2.405,1.24-.536-1.04,1.927-.995a8.8,8.8,0,0,0,1.015.794Zm-2.888,1.925.017.034-1.13.583a1.011,1.011,0,1,1-.926-1.8L15.1,16.17l.9,1.739,0,.005a.014.014,0,0,0,0,.006l0,.006Zm-.568-9.574H11.858V8.305a.372.372,0,0,0-.372-.372H9.918c-.03-.655-.054-1.355-.072-2.118A13.164,13.164,0,0,1,13,5.485C14.931,5.485,15.394,5.487,15.441,8.358ZM7.089,17.474a17.52,17.52,0,0,0,.186-2.464V7.879c0-.287.145-1.211,1.83-1.838.018.724.043,1.392.072,2.02h0a1.7,1.7,0,0,0-.568.381,1.738,1.738,0,0,0-.52,1.246,1.756,1.756,0,0,0,1.317,1.7c.525,5.48,1.581,7.229,2.647,8.293a16.566,16.566,0,0,0,1.827,1.633H7.358A7.593,7.593,0,0,1,7.089,17.474Zm-.4,5.117a.266.266,0,0,1,0-.532H28.028a.266.266,0,0,1,0,.532Zm1.892.745-.168.866a3.02,3.02,0,0,0-.524-.085l.151-.781Zm-.909,5.881a2.182,2.182,0,1,1,2.182-2.182A2.182,2.182,0,0,1,7.676,29.217Zm6.456,0a2.182,2.182,0,1,1,2.182-2.182A2.182,2.182,0,0,1,14.132,29.217Zm6.458,0a2.182,2.182,0,1,1,2.182-2.182,2.182,2.182,0,0,1-2.182,2.182Zm6.456,0a2.182,2.182,0,1,1,2.182-2.182,2.182,2.182,0,0,1-2.182,2.182Z" transform="translate(0 0)" fill="#072a40"/>
      <path id="Path_6230" data-name="Path 6230" d="M103.4,101.75a1.65,1.65,0,1,0,1.65,1.65A1.65,1.65,0,0,0,103.4,101.75Zm0,2.554a.9.9,0,1,1,.9-.9A.9.9,0,0,1,103.4,104.3Z" transform="translate(-76.354 -76.364)" fill="#072a40"/>
      <path id="Path_6231" data-name="Path 6231" d="M51.332,39.13A.373.373,0,0,0,52,38.806a8.1,8.1,0,0,1-.514-1.392.373.373,0,0,0-.719.194,8.854,8.854,0,0,0,.562,1.521Z" transform="translate(-36.215 -25.505)" fill="#072a40"/>
    </g>
  </g>
</svg>
