<svg xmlns="http://www.w3.org/2000/svg" width="32" height="32" viewBox="0 0 32 32">
  <g id="frutas_legumes" transform="translate(-510 -234)">
    <rect id="Rectangle_8277" data-name="Rectangle 8277" width="32" height="32" transform="translate(510 234)" fill="none"/>
    <g id="tomato_1_" data-name="tomato(1)" transform="translate(512 214.164)">
      <g id="Group_13670" data-name="Group 13670" transform="translate(0 23.45)">
        <path id="Path_6193" data-name="Path 6193" d="M27.043,34.054a.712.712,0,0,0-.436-.351.724.724,0,0,0-.557.069l-.411.237a9.585,9.585,0,0,0-3.989-4.8l.079-.051a.414.414,0,0,0,0-.688A7.449,7.449,0,0,0,18.48,27.46a.414.414,0,1,0-.088.823,8.149,8.149,0,0,1,2.22.53,9.317,9.317,0,0,1-3.439.593,11.069,11.069,0,0,1-1.774-.139.414.414,0,0,0-.317.738,11.274,11.274,0,0,1,1.141,1,9.318,9.318,0,0,1,2.012,2.851,9.316,9.316,0,0,1-2.851-2.012,11.35,11.35,0,0,1-.931-1.052.414.414,0,0,0-.74.284c.02.274.03.555.03.833a9.317,9.317,0,0,1-.594,3.439,9.317,9.317,0,0,1-.594-3.439c0-.278.01-.558.03-.833a.414.414,0,0,0-.74-.284,11.35,11.35,0,0,1-.931,1.052,9.315,9.315,0,0,1-2.851,2.012,9.317,9.317,0,0,1,2.012-2.851,11.281,11.281,0,0,1,1.141-1,.414.414,0,0,0-.317-.738,11.07,11.07,0,0,1-1.774.139,9.317,9.317,0,0,1-3.439-.594,9.317,9.317,0,0,1,3.439-.594,9.928,9.928,0,0,1,2.906.4l.031.288a1.093,1.093,0,0,0,2.173,0l.031-.288a9.539,9.539,0,0,1,2.259-.383.414.414,0,1,0-.046-.827,10.642,10.642,0,0,0-2.117.322l.379-3.486a.719.719,0,0,0-.714-.8H12.27a.719.719,0,0,0-.714.8l.379,3.486a11.152,11.152,0,0,0-2.809-.341,8.662,8.662,0,0,0-4.555,1.078.414.414,0,0,0,0,.688l.08.052A9.749,9.749,0,0,0,0,37.6a9.445,9.445,0,0,0,9.2,9.654,8.759,8.759,0,0,0,2.409-.334,10.237,10.237,0,0,0,5.178,2.161.414.414,0,0,0,.1-.822,9.383,9.383,0,0,1-6.83-4.293l.6-.349A8.727,8.727,0,0,0,25.934,42.54a.414.414,0,1,0-.753-.345A7.906,7.906,0,0,1,11.374,43.2l13.671-7.893a7.892,7.892,0,0,1,.7,5.139.414.414,0,0,0,.812.163,8.719,8.719,0,0,0-.8-5.716l.6-.348A9.431,9.431,0,0,1,18.734,48.3a.414.414,0,0,0,.031.827H18.8a10.257,10.257,0,0,0,8.246-15.068ZM13.907,24.278l-.494,4.542a.265.265,0,0,1-.527,0l-.494-4.542ZM9.541,43.3a.723.723,0,0,0-.338.448.712.712,0,0,0,.086.553,10.29,10.29,0,0,0,1.563,1.947,7.987,7.987,0,0,1-1.655.172A8.617,8.617,0,0,1,.828,37.6a8.887,8.887,0,0,1,4.727-7.945,10.312,10.312,0,0,0,3.571.583q.285,0,.567-.013-.1.1-.2.2A8.663,8.663,0,0,0,7.031,34.4a.414.414,0,0,0,.486.486A8.663,8.663,0,0,0,11.5,32.431q.117-.117.231-.237a8.423,8.423,0,0,0,1.074,4.271.414.414,0,0,0,.688,0,8.423,8.423,0,0,0,1.074-4.271q.114.12.231.237a8.663,8.663,0,0,0,3.983,2.459.414.414,0,0,0,.486-.486,8.663,8.663,0,0,0-2.459-3.983q-.1-.1-.2-.2.281.013.567.013a10.313,10.313,0,0,0,3.57-.583,8.715,8.715,0,0,1,4.169,4.776Z" transform="translate(0 -23.45)" fill="#072a40"/>
        <path id="Path_6194" data-name="Path 6194" d="M247.57,275.571a1.781,1.781,0,0,1-2.054-.195.717.717,0,0,0-.827-.077l-2.985,1.724a.718.718,0,0,0-.1,1.173,6.9,6.9,0,0,0,11.227-6.478.719.719,0,0,0-1.068-.5l-2.985,1.723a.717.717,0,0,0-.347.755A1.781,1.781,0,0,1,247.57,275.571Zm1.685-1.952,2.781-1.606a6.076,6.076,0,0,1-9.781,5.647l2.781-1.606a2.608,2.608,0,0,0,4.218-2.436Z" transform="translate(-228.023 -257.45)" fill="#072a40"/>
        <path id="Path_6195" data-name="Path 6195" d="M361.139,369.893a.414.414,0,0,0,.717-.414l-.213-.369a.414.414,0,0,0-.717.414Z" transform="translate(-340.951 -349.834)" fill="#072a40"/>
        <path id="Path_6196" data-name="Path 6196" d="M286.588,374.534l-.369.213a.414.414,0,1,0,.414.717l.369-.213a.414.414,0,0,0-.414-.717Z" transform="translate(-270.225 -355.102)" fill="#072a40"/>
        <path id="Path_6197" data-name="Path 6197" d="M400.2,309.835a.412.412,0,0,0,.207-.056l.369-.213a.414.414,0,1,0-.414-.717l-.369.213a.414.414,0,0,0,.207.773Z" transform="translate(-377.714 -293.043)" fill="#072a40"/>
        <path id="Path_6198" data-name="Path 6198" d="M323.563,379.533a.414.414,0,0,0-.507.293l-.11.412a.414.414,0,1,0,.8.214l.11-.412A.414.414,0,0,0,323.563,379.533Z" transform="translate(-305.106 -359.865)" fill="#072a40"/>
        <path id="Path_6199" data-name="Path 6199" d="M388.338,343.9l.412.11a.414.414,0,0,0,.214-.8l-.412-.11a.414.414,0,1,0-.214.8Z" transform="translate(-366.612 -325.443)" fill="#072a40"/>
      </g>
    </g>
  </g>
</svg>
