<svg xmlns="http://www.w3.org/2000/svg" width="32" height="32" viewBox="0 0 32 32">
  <g id="higiene_beleza" transform="translate(-1050 -234)">
    <rect id="Rectangle_8277" data-name="Rectangle 8277" width="32" height="32" transform="translate(1050 234)" fill="none"/>
    <g id="makeup" transform="translate(998.867 237)">
      <path id="Path_6200" data-name="Path 6200" d="M162.358,25.353h-4.012a.9.9,0,0,1-.9-.9V21.549h3.846a.382.382,0,1,0,0-.765h-4.235a.371.371,0,0,1-.371-.349l-.816-15.861a.383.383,0,0,0-.052-.174L154.6,2.325h11.946l-1.064,1.808a.382.382,0,1,0,.659.388l1.4-2.384a.382.382,0,0,0,.053-.194V.659A.659.659,0,0,0,166.938,0H154.207a.659.659,0,0,0-.659.659V1.942a.382.382,0,0,0,.053.194l1.512,2.57.811,15.769a1.136,1.136,0,0,0,.759,1.009v2.972a1.665,1.665,0,0,0,1.663,1.663h4.012a.382.382,0,1,0,0-.765ZM166.831.765V1.56H154.313V.765Z" transform="translate(-91.498 0)" fill="#072a40"/>
      <path id="Path_6201" data-name="Path 6201" d="M316.024,107.6a.844.844,0,0,0-.614-.266h-5.774a.841.841,0,0,0-.839.9l.715,10.944a.383.383,0,0,0,.763-.05l-.593-9.067h5.68l-.825,12.625a.818.818,0,0,1-.814.763h-2.4a.818.818,0,0,1-.814-.763l-.126-1.928a.383.383,0,0,0-.763.05l.126,1.928a1.585,1.585,0,0,0,.953,1.348v2.73a1.169,1.169,0,0,0,1.168,1.168h1.316a1.169,1.169,0,0,0,1.168-1.168v-2.73a1.585,1.585,0,0,0,.953-1.348l.948-14.5a.844.844,0,0,0-.226-.63Zm-2.44,19.21a.4.4,0,0,1-.4.4h-1.316a.4.4,0,0,1-.4-.4v-2.6h2.121Zm-3.951-17.518-.073-1.113a.076.076,0,0,1,.076-.081h5.774a.076.076,0,0,1,.076.081l-.073,1.113Z" transform="translate(-238.828 -101.862)" fill="#072a40"/>
      <path id="Path_6202" data-name="Path 6202" d="M62.815,139.244v-3.033a.757.757,0,0,0-.756-.757h-.034v-.644a.382.382,0,0,0-.765,0v.644H59.216v-2.526a4.061,4.061,0,0,0,1.976-1.913,7.079,7.079,0,0,1,.068.976v1.188a.382.382,0,0,0,.765,0v-1.188a7.754,7.754,0,0,0-.69-3.209.875.875,0,0,0-1.466-.2l-.556.659a3.651,3.651,0,0,0-.861,2.353v3.865h-.034a.757.757,0,0,0-.757.757v3.033a.8.8,0,0,0-.528.752v1.383h0v1.5a.382.382,0,1,0,.765,0v-1.117h4.68v4.277a1.041,1.041,0,0,1-1.04,1.04h-2.6a1.041,1.041,0,0,1-1.04-1.04v-1.53a.382.382,0,0,0-.765,0v1.53a1.807,1.807,0,0,0,1.805,1.805h2.6a1.807,1.807,0,0,0,1.805-1.805V140A.8.8,0,0,0,62.815,139.244ZM59.9,129.731l.556-.659a.11.11,0,0,1,.185.026q.115.254.208.515l-.1.406a3.293,3.293,0,0,1-1.53,2.05v-.479A2.885,2.885,0,0,1,59.9,129.731Zm-1.47,6.489H62.05V139.2H58.426ZM57.9,141v-1a.036.036,0,0,1,.036-.036h4.608a.036.036,0,0,1,.036.036v1Z" transform="translate(0 -121.727)" fill="#072a40"/>
    </g>
  </g>
</svg>
