<svg xmlns="http://www.w3.org/2000/svg" width="32" height="32" viewBox="0 0 32 32">
  <g id="lacticinios_ovos" transform="translate(-293 -234)">
    <rect id="Rectangle_8277" data-name="Rectangle 8277" width="32" height="32" transform="translate(293 234)" fill="none"/>
    <g id="eggs" transform="translate(294 133.42)">
      <path id="Path_6159" data-name="Path 6159" d="M28.374,117.262H27.3c0-.011,0-.022,0-.033,0-3.684-1.961-7.967-4.489-7.967a2.452,2.452,0,0,0-1.2.332,3.608,3.608,0,0,0-2.854-2.013,3.608,3.608,0,0,0-2.854,2.013,2.352,2.352,0,0,0-2.408,0,3.608,3.608,0,0,0-2.854-2.013,3.608,3.608,0,0,0-2.854,2.013,2.453,2.453,0,0,0-1.2-.332,3.434,3.434,0,0,0-2.7,1.781.43.43,0,1,0,.71.487,2.749,2.749,0,0,1,1.992-1.407c.859,0,1.765.82,2.485,2.249a11.309,11.309,0,0,1,1.143,4.857c0,.011,0,.022,0,.033H2.949c0-.011,0-.022,0-.033a11.379,11.379,0,0,1,.764-4,.43.43,0,1,0-.8-.31,12.261,12.261,0,0,0-.821,4.311c0,.011,0,.022,0,.033H1.01A1.011,1.011,0,0,0,0,118.272v.7a1.011,1.011,0,0,0,1.01,1.01H2.138l.469,3.753a1.012,1.012,0,0,0,1,.885H9.6a1.008,1.008,0,0,0,.98-.765l.052-.21.052.21a1.008,1.008,0,0,0,.98.765h2.018a.43.43,0,1,0,0-.861H11.666a.149.149,0,0,1-.145-.113l-.133-.53a.778.778,0,0,0-1.51,0l-.133.531a.149.149,0,0,1-.145.113H3.609a.15.15,0,0,1-.149-.131l-.456-3.647H26.379l-.456,3.647a.15.15,0,0,1-.149.131H19.783a.149.149,0,0,1-.145-.113l-.133-.53a.778.778,0,0,0-1.51,0l-.133.531a.149.149,0,0,1-.145.113H15.7a.43.43,0,1,0,0,.861h2.018a1.008,1.008,0,0,0,.98-.765l.052-.21.052.21a1.008,1.008,0,0,0,.98.765h5.992a1.012,1.012,0,0,0,1-.885l.469-3.753h1.128a1.011,1.011,0,0,0,1.01-1.01v-.7a1.011,1.011,0,0,0-1.01-1.01Zm-9.624-8.821c.737,0,1.5.588,2.159,1.665a8.645,8.645,0,0,0-2.159,4,8.645,8.645,0,0,0-2.159-4C17.254,109.029,18.013,108.441,18.75,108.441Zm-1.573,3.93a11.309,11.309,0,0,1,1.143,4.857c0,.011,0,.022,0,.033H11.065c0-.011,0-.022,0-.033a11.309,11.309,0,0,1,1.143-4.857c.721-1.429,1.626-2.249,2.485-2.249S16.457,110.942,17.177,112.371Zm-8.7-2.266c.663-1.076,1.422-1.665,2.159-1.665s1.5.588,2.159,1.665a8.645,8.645,0,0,0-2.159,4A8.645,8.645,0,0,0,8.475,110.105Zm20.048,8.862a.149.149,0,0,1-.149.149H1.01a.149.149,0,0,1-.149-.149v-.7a.149.149,0,0,1,.149-.149H23.182a.43.43,0,1,0,0-.861h-4c0-.011,0-.022,0-.033a11.309,11.309,0,0,1,1.143-4.857c.721-1.429,1.626-2.249,2.485-2.249s1.765.82,2.485,2.249a11.31,11.31,0,0,1,1.142,4.857c0,.011,0,.022,0,.033H25.2a.43.43,0,1,0,0,.861h3.177a.149.149,0,0,1,.149.149Z" fill="#072a40"/>
    </g>
  </g>
</svg>
