<svg xmlns="http://www.w3.org/2000/svg" width="32" height="32" viewBox="0 0 32 32">
  <g id="limpeza" transform="translate(-1737 -364)">
    <rect id="Rectangle_8277" data-name="Rectangle 8277" width="32" height="32" transform="translate(1737 364)" fill="none"/>
    <g id="outline" transform="translate(1702.484 347.253)">
      <path id="Path_6250" data-name="Path 6250" d="M171.254,86.309l-.392.783a8.266,8.266,0,0,0-.868,3.678v5.653a2,2,0,0,0,1.994,1.994h7.477a2,2,0,0,0,1.994-1.994V90.193a16.194,16.194,0,0,0-.648-4.537l-1.969-6.749V76.984a1.134,1.134,0,0,1,1.038-1.123.5.5,0,0,0,.458-.5A3.368,3.368,0,0,0,176.972,72H169a.5.5,0,0,0-.5.5v1.994a.5.5,0,0,0,.5.5h1.479a8.181,8.181,0,0,1-1.229,3.843l-1.171,1.874a.5.5,0,0,0,.423.763h1.994a.5.5,0,0,0,.406-.209l1.014-1.419a8.44,8.44,0,0,0,1.073-2.041v1.176A16.476,16.476,0,0,1,171.254,86.309Zm9.207,3.884v6.231a1,1,0,0,1-1,1h-7.477a1,1,0,0,1-1-1V90.771a7.265,7.265,0,0,1,.763-3.232l.392-.783a17.488,17.488,0,0,0,1.829-7.279h3.995l1.884,6.46A15.2,15.2,0,0,1,180.461,90.193ZM177.844,78.48h-3.863v-1h3.863Zm1.462-3.512a2.148,2.148,0,0,0-1.4,1.519h-4.422V74.492a.5.5,0,0,0-.5-.5h-1.5V73h5.483A2.372,2.372,0,0,1,179.306,74.967ZM169.5,73h1v1h-1Zm1.605,6.266-.865,1.211H169.4l.695-1.112a9.176,9.176,0,0,0,1.383-4.371h1.01A7.4,7.4,0,0,1,171.1,79.263Z" transform="translate(-121.416 -50.873)" fill="#072a40"/>
      <path id="Path_6251" data-name="Path 6251" d="M245.483,336H241a1,1,0,0,0-1,1v5.981a1,1,0,0,0,1,1h4.486a1,1,0,0,0,1-1V337A1,1,0,0,0,245.483,336Zm0,6.978H241V337h4.486v5.981Z" transform="translate(-188.93 -298.424)" fill="#072a40"/>
      <path id="Path_6252" data-name="Path 6252" d="M0,0H1V1.215H0Z" transform="matrix(0.625, -0.781, 0.781, 0.625, 40.791, 18.526)" fill="#072a40"/>
      <path id="Path_6253" data-name="Path 6253" d="M0,0H1V1.215H0Z" transform="matrix(0.625, -0.781, 0.781, 0.625, 44.587, 21.562)" fill="#072a40"/>
      <path id="Path_6254" data-name="Path 6254" d="M0,0H1V1.215H0Z" transform="matrix(0.625, -0.781, 0.781, 0.625, 42.689, 20.044)" fill="#072a40"/>
      <path id="Path_6255" data-name="Path 6255" d="M116.5,88h1.215v1H116.5Z" transform="translate(-73.128 -65.876)" fill="#072a40"/>
      <path id="Path_6256" data-name="Path 6256" d="M77.51,88h1.215v1H77.51Z" transform="translate(-36.564 -65.876)" fill="#072a40"/>
      <path id="Path_6257" data-name="Path 6257" d="M38.516,88h1.215v1H38.516Z" transform="translate(0 -65.876)" fill="#072a40"/>
      <path id="Path_6258" data-name="Path 6258" d="M0,0H1.215V1H0Z" transform="matrix(0.781, -0.625, 0.625, 0.781, 40.793, 26.719)" fill="#072a40"/>
      <path id="Path_6259" data-name="Path 6259" d="M0,0H1.215V1H0Z" transform="matrix(0.781, -0.625, 0.625, 0.781, 44.587, 23.682)" fill="#072a40"/>
      <path id="Path_6260" data-name="Path 6260" d="M0,0H1.215V1H0Z" transform="matrix(0.781, -0.625, 0.625, 0.781, 42.69, 25.201)" fill="#072a40"/>
      <path id="Path_6261" data-name="Path 6261" d="M325.953,280.019a.5.5,0,0,0-.334.621l.15.5a.5.5,0,1,0,.955-.287l-.15-.5A.5.5,0,0,0,325.953,280.019Z" transform="translate(-269.194 -245.911)" fill="#072a40"/>
      <path id="Path_6262" data-name="Path 6262" d="M309.153,224.019a.5.5,0,0,0-.334.621l.6,1.994a.5.5,0,1,0,.955-.287l-.6-1.994A.5.5,0,0,0,309.153,224.019Z" transform="translate(-253.441 -193.4)" fill="#072a40"/>
    </g>
  </g>
</svg>
