<svg xmlns="http://www.w3.org/2000/svg" width="32" height="32" viewBox="0 0 32 32">
  <g id="livraria_papelaria" transform="translate(-1810 -234)">
    <rect id="Rectangle_8277" data-name="Rectangle 8277" width="32" height="32" transform="translate(1810 234)" fill="none"/>
    <g id="stationery" transform="translate(1790.006 237)">
      <g id="Group_13674" data-name="Group 13674" transform="translate(24.005)">
        <g id="Group_13673" data-name="Group 13673" transform="translate(0)">
          <path id="Path_6232" data-name="Path 6232" d="M26.225,0A2.223,2.223,0,0,0,24,2.22V22.646a.913.913,0,0,0,.031.153c0,.01.006.02.01.029s0,.011.006.016L25.828,26.4a.444.444,0,0,0,.795,0L28.4,22.844c0-.005,0-.011.006-.016s.006-.02.01-.029a.913.913,0,0,0,.031-.153V2.22A2.223,2.223,0,0,0,26.225,0ZM24.893,6.216h.888V22.2h-.888Zm1.332,18.989L25.167,23.09h2.115Zm1.332-3h-.888V6.216h.888Zm0-16.873H24.893V4.44h2.664Zm0-1.776H24.893V2.22a1.332,1.332,0,1,1,2.664,0Z" transform="translate(-24.005)" fill="#072a40"/>
          <path id="Path_6233" data-name="Path 6233" d="M349.777,4.44h-1.332V1.332A1.332,1.332,0,0,0,347.113,0h-1.776a1.332,1.332,0,0,0-1.332,1.332V22.646a2.224,2.224,0,0,0,1.776,2.176V26.2a.444.444,0,1,0,.888,0V24.821a2.224,2.224,0,0,0,1.776-2.176V5.328h.888v6.66a.444.444,0,1,0,.888,0v-7.1A.444.444,0,0,0,349.777,4.44Zm-2.22,18.205a1.332,1.332,0,0,1-2.664,0V5.328h2.664Zm0-18.205h-2.664V1.332a.444.444,0,0,1,.444-.444h1.776a.444.444,0,0,1,.444.444Z" transform="translate(-326.244)" fill="#072a40"/>
          <path id="Path_6234" data-name="Path 6234" d="M159.554,0h-7.1a.444.444,0,0,0-.444.444V26.2a.444.444,0,0,0,.444.444h7.1A.444.444,0,0,0,160,26.2V.444A.444.444,0,0,0,159.554,0Zm-.444,2.22h-2.22a.444.444,0,0,0,0,.888h2.22V4h-1.332a.444.444,0,0,0,0,.888h1.332v.888h-2.22a.444.444,0,0,0,0,.888h2.22v.888h-1.332a.444.444,0,0,0,0,.888h1.332v.888h-2.22a.444.444,0,0,0,0,.888h2.22V11.1h-1.332a.444.444,0,0,0,0,.888h1.332v.888h-2.22a.444.444,0,0,0,0,.888h2.22v.888h-1.332a.444.444,0,0,0,0,.888h1.332v.888h-2.22a.444.444,0,0,0,0,.888h2.22v.888h-1.332a.444.444,0,0,0,0,.888h1.332v.888h-2.22a.444.444,0,0,0,0,.888h2.22v.888h-1.332a.444.444,0,0,0,0,.888h1.332v.888h-2.22a.444.444,0,1,0,0,.888h2.22v1.332h-6.216V.888h6.216Z" transform="translate(-144.9)" fill="#072a40"/>
        </g>
      </g>
    </g>
  </g>
</svg>
