<svg xmlns="http://www.w3.org/2000/svg" width="32" height="32" viewBox="0 0 32 32">
  <g id="mercearia" transform="translate(-76 -234)">
    <g id="groceries" transform="translate(78.281 236.281)">
      <path id="Path_6151" data-name="Path 6151" d="M26.621,3.672a3.672,3.672,0,0,0-7.344,0v4.59h-.24a7.858,7.858,0,0,1-.713-1.094,22.73,22.73,0,0,1-.8-3.5H17.9a.459.459,0,0,0,.459-.459V.459A.459.459,0,0,0,17.9,0H12.393a.459.459,0,0,0-.459.459V3.213a.459.459,0,0,0,.459.459h.378a22.73,22.73,0,0,1-.8,3.5,7.9,7.9,0,0,1-.713,1.093H7.344v3.672H2.295a.459.459,0,0,0-.459.459v1.7L.077,16.728a.949.949,0,0,0-.046.092A.917.917,0,0,0,0,16.982v10.1a.459.459,0,0,0,.459.459h27.08V8.262h-.918Zm-6.426,0a2.754,2.754,0,0,1,5.508,0v4.59H20.2Zm4.131,20.1,1.9,2.846H22.43Zm-.459-.964-1.836,2.754V9.18h1.836ZM.918,17.441H9.18v5.6a1.7,1.7,0,0,0-.656.534c-.184.223-.258.294-.413.294s-.229-.071-.413-.294a1.4,1.4,0,0,0-1.12-.626,1.4,1.4,0,0,0-1.118.624c-.184.223-.258.294-.413.294s-.227-.071-.413-.294a1.4,1.4,0,0,0-1.116-.624,1.4,1.4,0,0,0-1.118.624c-.184.222-.258.294-.413.294s-.216-.059-.413-.294a1.693,1.693,0,0,0-.655-.536Zm10.1-2.187.634,1.269H10.381Zm5.508,2.187a2.3,2.3,0,0,1-2.249-1.836h.413a2.3,2.3,0,0,1,2.249,1.836Zm.459.918a4.131,4.131,0,1,1-4.131,4.131A4.131,4.131,0,0,1,16.982,18.359ZM12.852.918h.918v.918h.918V.918h.918v.918h.918V.918h.918V2.754h-4.59Zm-.035,6.6A24.284,24.284,0,0,0,13.7,3.672h2.892a24.273,24.273,0,0,0,.885,3.847,5.408,5.408,0,0,0,.432.743H12.382A5.484,5.484,0,0,0,12.817,7.519ZM8.262,9.18H21.113V10.1H16.982v.918h4.131v.918H19.277v.918h1.836V19.6a5.056,5.056,0,0,0-3.185-2.065A2.373,2.373,0,0,1,20.2,15.146v-.918a2.932,2.932,0,0,0-2.837,1.889,3.212,3.212,0,0,0-2.671-1.43H13.77a.459.459,0,0,0-.459.459A3.213,3.213,0,0,0,14.883,17.9,5.077,5.077,0,0,0,12.852,19.6V16.982a.953.953,0,0,0-.032-.158c0-.01-.014-.042-.017-.046L11.475,14.12V12.393a.459.459,0,0,0-.459-.459H8.262ZM2.754,12.852h7.8v.918h-7.8Zm-.213,1.836h7.732l-.918,1.836H1.316ZM.918,26.621v-2.4a1.341,1.341,0,0,0,1.069.568A1.4,1.4,0,0,0,3.1,24.161c.184-.223.258-.294.413-.294s.227.071.413.294a1.4,1.4,0,0,0,1.118.624,1.4,1.4,0,0,0,1.118-.624c.184-.223.258-.294.413-.294s.229.071.413.294a1.4,1.4,0,0,0,1.117.624,1.344,1.344,0,0,0,1.07-.567v2.4Zm9.18,0v-9.18h1.836v9.18Zm2.754,0V25.384a5.092,5.092,0,0,0,1.239,1.237Zm7.025,0a5.1,5.1,0,0,0,1.237-1.237v1.237Zm6.745-1.056-1.836-2.754V9.18h1.836Zm0,0" fill="#072a40"/>
      <path id="Path_6152" data-name="Path 6152" d="M373.469,65.317l2.754-.919.29.87-2.754.919Zm0,0" transform="translate(-352.042 -60.704)" fill="#072a40"/>
      <path id="Path_6153" data-name="Path 6153" d="M373.477,105.317l2.754-.919.29.87-2.754.919Zm0,0" transform="translate(-352.049 -98.409)" fill="#072a40"/>
      <path id="Path_6154" data-name="Path 6154" d="M32,306.295c0,1.285,1.411,2.295,3.213,2.295s3.213-1.01,3.213-2.295S37.014,304,35.213,304,32,305.01,32,306.295Zm3.213-1.377c1.244,0,2.295.631,2.295,1.377s-1.051,1.377-2.295,1.377-2.295-.631-2.295-1.377S33.969,304.918,35.213,304.918Zm0,0" transform="translate(-30.164 -286.559)" fill="#072a40"/>
      <path id="Path_6155" data-name="Path 6155" d="M240,391.573a3.425,3.425,0,0,0,3.672,3.187v-.918a2.5,2.5,0,0,1-2.754-2.323Zm0,0" transform="translate(-226.23 -369.057)" fill="#072a40"/>
      <path id="Path_6156" data-name="Path 6156" d="M248,360h.918v.918H248Zm0,0" transform="translate(-233.771 -339.346)" fill="#072a40"/>
      <path id="Path_6157" data-name="Path 6157" d="M272,336h.918v.918H272Zm0,0" transform="translate(-256.395 -316.723)" fill="#072a40"/>
      <path id="Path_6158" data-name="Path 6158" d="M240,192h.918v.918H240Zm0,0" transform="translate(-226.23 -180.984)" fill="#072a40"/>
    </g>
    <rect id="Rectangle_8277" data-name="Rectangle 8277" width="32" height="32" transform="translate(76 234)" fill="none"/>
  </g>
</svg>
