<svg xmlns="http://www.w3.org/2000/svg" width="32" height="32" viewBox="0 0 32 32">
  <g id="padaria_pastelaria" transform="translate(-723 -350)">
    <rect id="Rectangle_8277" data-name="Rectangle 8277" width="32" height="32" transform="translate(723 350)" fill="none"/>
    <path id="Path_6175" data-name="Path 6175" d="M26.209,1.043C25.138-.027,23.355-.28,21.055.313a23.214,23.214,0,0,0-7.244,3.647c-.431.3-.169.822.223.973-.439.31-.879.637-1.314.977-.328.256-.94-.412-1.366-.056-.971.811-1.929,1.689-2.85,2.608-.351.36-.056.79.332.929-.383.391-.759.789-1.122,1.19-.229-.061-.445-.12-.642-.174a.536.536,0,0,0-.544.162c-.805.917-1.561,1.858-2.246,2.8-.328.45.123.768.49.9-.286.413-.559.827-.814,1.237-.369-.092-.907-.347-1.173.087C-.137,20.354-.777,24.3,1.075,26.149a2.11,2.11,0,0,0,1.742.492c3.211-.348,8.8-5.183,11.052-7.246A70.008,70.008,0,0,0,24.74,7.053a.391.391,0,0,0-.658-.422A69.189,69.189,0,0,1,13.341,18.819C8.766,23.007,4.8,25.641,2.732,25.865A1.307,1.307,0,0,1,1.627,25.6C.091,24.063.755,20.455,3.355,16.159c.685.178,1.319.327,1.886.442a.391.391,0,0,0,.156-.765c-.2-.041-.416-.087-.637-.137.241-.378.5-.76.764-1.142,2.2.87,2.6,1.346,2.672,1.473a1.717,1.717,0,0,1-.775.087c-.6-.022-.412.784.159.784.53,0,1.162-.086,1.361-.582a.733.733,0,0,0-.022-.586c-.178-.4-.771-1.046-3.81-2.17.589-.791,1.228-1.583,1.9-2.359a34.112,34.112,0,0,0,3.561.807c1.688.261,2.508.124,2.74-.456a.733.733,0,0,0-.023-.588c-.183-.4-.8-1.07-3.958-2.223.787-.772,1.6-1.512,2.423-2.2a29.536,29.536,0,0,0,3.407.739c1.526.213,2.305.063,2.526-.488a.734.734,0,0,0-.018-.578c-.154-.352-.642-.924-3.029-1.877A21.866,21.866,0,0,1,21.25,1.07C22.657.707,24.564.5,25.658,1.6c.476.476.277,1.644-.562,3.29a.391.391,0,0,0,.7.355c1.034-2.029,1.174-3.441.418-4.2ZM9.639,9.69c2.433.937,2.859,1.444,2.931,1.575-.105.056-.538.2-2.058-.057-.624-.1-1.3-.252-1.94-.408C8.919,10.425,9.276,10.054,9.639,9.69ZM14.9,5.284c1.657.71,1.984,1.1,2.046,1.217-.13.071-.757.267-3.315-.3.422-.319.847-.625,1.268-.913Z" transform="translate(725.968 353)" fill="#072a40"/>
    <path id="Path_6176" data-name="Path 6176" d="M65.782,339.842a.391.391,0,0,0,0-.781A.391.391,0,0,0,65.782,339.842Z" transform="translate(663.999 31.596)" fill="#072a40"/>
    <path id="Path_6177" data-name="Path 6177" d="M52.282,378.059a.391.391,0,0,0,0,.781A.391.391,0,0,0,52.282,378.059Z" transform="translate(676.796 -5.372)" fill="#072a40"/>
    <path id="Path_6178" data-name="Path 6178" d="M104.78,344.341a.391.391,0,0,0,0-.781A.391.391,0,0,0,104.78,344.341Z" transform="translate(627.032 27.331)" fill="#072a40"/>
    <path id="Path_6179" data-name="Path 6179" d="M128.779,248.346a.391.391,0,0,0,0-.781A.391.391,0,0,0,128.779,248.346Z" transform="translate(604.283 118.327)" fill="#072a40"/>
    <path id="Path_6180" data-name="Path 6180" d="M169.277,238.566a.391.391,0,0,0,0,.781A.391.391,0,0,0,169.277,238.566Z" transform="translate(565.894 126.857)" fill="#072a40"/>
    <path id="Path_6181" data-name="Path 6181" d="M179.776,272.345a.391.391,0,0,0,0-.781A.391.391,0,0,0,179.776,272.345Z" transform="translate(555.941 95.578)" fill="#072a40"/>
    <path id="Path_6182" data-name="Path 6182" d="M212.775,156.07a.391.391,0,0,0,0,.781A.391.391,0,0,0,212.775,156.07Z" transform="translate(524.661 205.057)" fill="#072a40"/>
    <path id="Path_6183" data-name="Path 6183" d="M251.773,148.57a.391.391,0,0,0,0,.781A.391.391,0,0,0,251.773,148.57Z" transform="translate(487.694 212.167)" fill="#072a40"/>
    <path id="Path_6184" data-name="Path 6184" d="M258.772,178.85a.391.391,0,0,0,0-.781A.391.391,0,0,0,258.772,178.85Z" transform="translate(481.059 184.204)" fill="#072a40"/>
    <path id="Path_6185" data-name="Path 6185" d="M317.769,74.355a.391.391,0,0,0,0-.781A.391.391,0,0,0,317.769,74.355Z" transform="translate(425.135 283.257)" fill="#072a40"/>
    <path id="Path_6186" data-name="Path 6186" d="M359.767,55.575a.391.391,0,0,0,0,.781A.391.391,0,0,0,359.767,55.575Z" transform="translate(385.323 300.319)" fill="#072a40"/>
    <path id="Path_6187" data-name="Path 6187" d="M352.268,92.354a.391.391,0,0,0,0-.781A.391.391,0,0,0,352.268,92.354Z" transform="translate(392.432 266.196)" fill="#072a40"/>
  </g>
</svg>
