<svg xmlns="http://www.w3.org/2000/svg" width="32" height="32" viewBox="0 0 32 32">
  <g id="queijo" transform="translate(-618 -234)">
    <rect id="Rectangle_8088" data-name="Rectangle 8088" width="32" height="32" transform="translate(618 234)" fill="none"/>
    <g id="cheese" transform="translate(621 198.919)">
      <g id="Group_13657" data-name="Group 13657" transform="translate(15.19 54.072)">
        <g id="Group_13656" data-name="Group 13656">
          <path id="Path_6168" data-name="Path 6168" d="M309.309,322.544a.374.374,0,1,0-.733.149,1.625,1.625,0,1,1-1.592-1.3,1.613,1.613,0,0,1,.65.135.374.374,0,1,0,.3-.685,2.373,2.373,0,1,0,1.424,2.175A2.387,2.387,0,0,0,309.309,322.544Z" transform="translate(-304.611 -320.645)" fill="#072a40"/>
        </g>
      </g>
      <g id="Group_13659" data-name="Group 13659" transform="translate(4.397 49.275)">
        <g id="Group_13658" data-name="Group 13658">
          <path id="Path_6169" data-name="Path 6169" d="M92.874,226.351a.374.374,0,1,0-.733.149,1.625,1.625,0,1,1-1.592-1.3,1.613,1.613,0,0,1,.65.135.374.374,0,0,0,.3-.685,2.373,2.373,0,1,0,1.424,2.175A2.391,2.391,0,0,0,92.874,226.351Z" transform="translate(-88.176 -224.452)" fill="#072a40"/>
        </g>
      </g>
      <g id="Group_13661" data-name="Group 13661" transform="translate(13.192 48.475)">
        <g id="Group_13660" data-name="Group 13660">
          <path id="Path_6170" data-name="Path 6170" d="M267.305,209.618a.374.374,0,0,0-.374.374.825.825,0,1,1-.825-.825.374.374,0,1,0,0-.748,1.573,1.573,0,1,0,1.573,1.573A.374.374,0,0,0,267.305,209.618Z" transform="translate(-264.533 -208.419)" fill="#072a40"/>
        </g>
      </g>
      <g id="Group_13663" data-name="Group 13663" transform="translate(19.588 49.674)">
        <g id="Group_13662" data-name="Group 13662">
          <path id="Path_6171" data-name="Path 6171" d="M393.964,232.467a1.174,1.174,0,1,0,1.174,1.173A1.175,1.175,0,0,0,393.964,232.467Zm0,1.6a.425.425,0,1,1,.425-.425A.426.426,0,0,1,393.964,234.066Z" transform="translate(-392.791 -232.467)" fill="#072a40"/>
        </g>
      </g>
      <g id="Group_13665" data-name="Group 13665" transform="translate(2.798 56.07)">
        <g id="Group_13664" data-name="Group 13664">
          <path id="Path_6172" data-name="Path 6172" d="M57.686,360.725a1.573,1.573,0,1,0,1.573,1.573A1.575,1.575,0,0,0,57.686,360.725Zm0,2.4a.825.825,0,1,1,.825-.825A.826.826,0,0,1,57.686,363.124Z" transform="translate(-56.113 -360.725)" fill="#072a40"/>
        </g>
      </g>
      <g id="Group_13667" data-name="Group 13667" transform="translate(9.194 55.271)">
        <g id="Group_13666" data-name="Group 13666">
          <path id="Path_6173" data-name="Path 6173" d="M185.544,344.693a1.174,1.174,0,1,0,1.174,1.174A1.175,1.175,0,0,0,185.544,344.693Zm0,1.6a.426.426,0,1,1,.425-.426A.426.426,0,0,1,185.544,346.292Z" transform="translate(-184.371 -344.693)" fill="#072a40"/>
        </g>
      </g>
      <g id="Group_13669" data-name="Group 13669" transform="translate(0 40.081)">
        <g id="Group_13668" data-name="Group 13668">
          <path id="Path_6174" data-name="Path 6174" d="M24.9,54.047a.776.776,0,0,0,.628-.758V46.851a.374.374,0,0,0-.214-.338h0l-12.539-5.94a5.24,5.24,0,0,0-2.646-.475,11.677,11.677,0,0,0-7.878,3.478A7.747,7.747,0,0,0,0,48.45V59.643a1.975,1.975,0,0,0,1.973,1.973h8.134a.771.771,0,0,0,.726-.514,1.625,1.625,0,0,1,3.066,0,.771.771,0,0,0,.726.514H24.759a.775.775,0,0,0,.774-.774V57.2a.776.776,0,0,0-.628-.758,1.225,1.225,0,0,1,0-2.4Zm-.154,3.129c.017,0,.035.014.035.026v3.64a.026.026,0,0,1-.026.026H14.626a.021.021,0,0,1-.021-.014,2.373,2.373,0,0,0-4.477,0,.021.021,0,0,1-.021.014H1.973A1.226,1.226,0,0,1,.748,59.643V48.45a1.226,1.226,0,0,1,1.225-1.225H19.562a.374.374,0,1,0,0-.748H1.973a1.96,1.96,0,0,0-.828.183A8.782,8.782,0,0,1,2.8,44.087a10.945,10.945,0,0,1,7.391-3.244,4.492,4.492,0,0,1,2.267.406L23.5,46.477H21.161a.374.374,0,1,0,0,.748h3.624v6.064c0,.012-.018.023-.035.026a1.973,1.973,0,0,0,0,3.861Z" transform="translate(0 -40.081)" fill="#072a40"/>
        </g>
      </g>
    </g>
  </g>
</svg>
