<svg xmlns="http://www.w3.org/2000/svg" width="32" height="32" viewBox="0 0 32 32">
  <g id="adulto" transform="translate(-294 -228)">
    <rect id="Rectangle_8277" data-name="Rectangle 8277" width="32" height="32" transform="translate(294 228)" fill="none"/>
    <g id="employees" transform="translate(296.005 200.192)">
      <g id="Group_13677" data-name="Group 13677" transform="translate(15.026 49.784)">
        <g id="Group_13676" data-name="Group 13676">
          <path id="Path_6239" data-name="Path 6239" d="M281.391,361.686h-1.509a.4.4,0,1,0,0,.806h1.509a.4.4,0,1,0,0-.806Z" transform="translate(-279.479 -361.686)" fill="#072a40"/>
        </g>
      </g>
      <g id="Group_13679" data-name="Group 13679" transform="translate(11.867 32.063)">
        <g id="Group_13678" data-name="Group 13678" transform="translate(0 0)">
          <path id="Path_6240" data-name="Path 6240" d="M234.682,45.47l-2.2-.847-1.12-1.119a.4.4,0,0,0-.259-.117V42.5a4.159,4.159,0,0,0,1.055-2.078,1.153,1.153,0,0,0,.283-.022,1.193,1.193,0,0,0,.926-1.184v-.294a1.208,1.208,0,0,0-.355-.858,5.325,5.325,0,0,0-.852-4.571,4.877,4.877,0,0,0-4.122-1.412,5.4,5.4,0,0,0-3.1,1.142,2.124,2.124,0,0,0-.83.282,2.146,2.146,0,0,0-.982,2,10.07,10.07,0,0,0,.28,2.342,1.2,1.2,0,0,0-.657,1.082v.289a1.193,1.193,0,0,0,.926,1.184,1.151,1.151,0,0,0,.283.022A4.159,4.159,0,0,0,225.02,42.5v.891a.4.4,0,0,0-.259.117l-1.119,1.119-2.2.847a2.67,2.67,0,0,0-.539.282.4.4,0,1,0,.453.667,1.865,1.865,0,0,1,.376-.2l2.038-.786,1.558,2.337a1.153,1.153,0,0,0,.849.51c.039,0,.077.006.115.006a1.151,1.151,0,0,0,.567-.15l-.334,7.584a.4.4,0,0,0,.385.421h.018a.4.4,0,0,0,.4-.385l.31-7.04h.837l.31,7.04a.4.4,0,0,0,.4.385h.018a.4.4,0,0,0,.385-.421l-.334-7.584a1.151,1.151,0,0,0,.567.15c.038,0,.077,0,.115-.006a1.154,1.154,0,0,0,.849-.51l1.558-2.337,2.038.786a1.856,1.856,0,0,1,.725.505l-1.394,1.394a2.649,2.649,0,0,0-.781,1.886v5.733a.4.4,0,0,0,.806,0V50.008a1.848,1.848,0,0,1,.545-1.315l1.224-1.224a1.858,1.858,0,0,1,.064.564l-.312,7.692a.4.4,0,0,0,.387.419h.017a.4.4,0,0,0,.4-.387l.312-7.692A2.666,2.666,0,0,0,234.682,45.47Zm-9.928-5.218a.785.785,0,0,0-.817-.64.346.346,0,0,1-.094-.006.391.391,0,0,1-.281-.393v-.29a.382.382,0,0,1,.285-.384.35.35,0,0,1,.345.132.562.562,0,0,0,.773.121,2.928,2.928,0,0,0,.661-.646.4.4,0,0,0-.647-.481,2.143,2.143,0,0,1-.314.339,1.154,1.154,0,0,0-.437-.233,9.273,9.273,0,0,1-.288-2.273,1.413,1.413,0,0,1,.566-1.29,1.309,1.309,0,0,1,.6-.193.407.407,0,0,0,.278-.111,4.542,4.542,0,0,1,2.7-1.021,4.116,4.116,0,0,1,3.469,1.135,4.453,4.453,0,0,1,.7,3.712,1.748,1.748,0,0,0-.344.024l-.379-.91a.4.4,0,0,0-.474-.235c-.037.01-3.761.954-5.322-.99a.4.4,0,1,0-.629.5c1.594,1.985,4.758,1.553,5.811,1.343l.293.7a.663.663,0,0,0,.766.393.87.87,0,0,1,.3-.022.38.38,0,0,1,.286.378v.294a.391.391,0,0,1-.281.393.342.342,0,0,1-.094.006.785.785,0,0,0-.817.64,3.365,3.365,0,0,1-6.619,0Zm1.789,7.128a.351.351,0,0,1-.541-.054l-1.57-2.354.631-.631,2.41,2.108Zm1.138.533.024-.554.359-.359.359.359.024.554Zm.383-2.019-2.237-1.958v-.772a4.173,4.173,0,0,0,4.475,0v.772Zm2.061,1.433a.351.351,0,0,1-.541.053l-.931-.931,2.41-2.108.631.631Z" transform="translate(-220.729 -32.066)" fill="#072a40"/>
        </g>
      </g>
      <g id="Group_13681" data-name="Group 13681" transform="translate(0 32.063)">
        <g id="Group_13680" data-name="Group 13680" transform="translate(0 0)">
          <path id="Path_6241" data-name="Path 6241" d="M12.787,47.581l-1.969-.859L9.742,45.645a.4.4,0,0,0-.259-.117v-.634a4.165,4.165,0,0,0,1.809-2.711,1.158,1.158,0,0,0,.318-.03,1.2,1.2,0,0,0,.89-1.176v-.294a1.2,1.2,0,0,0-.517-.992,4.56,4.56,0,0,0,.139-1.117A4.7,4.7,0,0,0,9.86,34.587a2.614,2.614,0,0,0-2.666-2.524,2.614,2.614,0,0,0-2.666,2.524,4.7,4.7,0,0,0-2.264,3.987A4.56,4.56,0,0,0,2.4,39.688a1.2,1.2,0,0,0-.516,1v.29a1.2,1.2,0,0,0,.89,1.176,1.156,1.156,0,0,0,.318.03A4.165,4.165,0,0,0,4.9,44.894v.634a.4.4,0,0,0-.259.117L3.569,46.721,1.6,47.581A2.683,2.683,0,0,0,0,50.138l.238,5.618a.4.4,0,0,0,.4.386H.661a.4.4,0,0,0,.386-.42L.808,50.1a1.857,1.857,0,0,1,.256-1.016l1.058,1.27a2.242,2.242,0,0,1,.519,1.432v3.948a.4.4,0,0,0,.806,0V51.79a3.05,3.05,0,0,0-.706-1.949l-1.125-1.35a1.828,1.828,0,0,1,.306-.172l1.716-.749,1.213,1.968a.78.78,0,0,0,1.171.184l.768-.656v6.671a.4.4,0,0,0,.806,0V49.068l.768.656a.78.78,0,0,0,1.171-.184l1.213-1.968,1.716.749a1.83,1.83,0,0,1,.306.172l-1.125,1.35a3.05,3.05,0,0,0-.706,1.949v3.948a.4.4,0,1,0,.806,0V51.79a2.242,2.242,0,0,1,.519-1.432l1.058-1.27a1.857,1.857,0,0,1,.256,1.016l-.238,5.618a.4.4,0,0,0,.386.42h.017a.4.4,0,0,0,.4-.386l.238-5.618A2.684,2.684,0,0,0,12.787,47.581ZM7.194,32.869a1.847,1.847,0,0,1,1.8,1.289,5.113,5.113,0,0,0-3.591,0A1.847,1.847,0,0,1,7.194,32.869ZM3.884,42.016a.785.785,0,0,0-.816-.64.348.348,0,0,1-.105-.009.394.394,0,0,1-.27-.391v-.29a.382.382,0,0,1,.285-.384.35.35,0,0,1,.345.132.562.562,0,0,0,.773.121,2.925,2.925,0,0,0,.653-.635.4.4,0,0,0-.645-.484,2.137,2.137,0,0,1-.308.331,1.155,1.155,0,0,0-.608-.268,3.755,3.755,0,0,1-.117-.927,4.037,4.037,0,0,1,4.124-3.935,4.037,4.037,0,0,1,4.124,3.935,3.754,3.754,0,0,1-.116.925,1.849,1.849,0,0,0-.314.052l-.3-.249a.774.774,0,0,0-.538-.176c-.593.035-3.628.115-5.185-1.749a.4.4,0,1,0-.619.517A5.763,5.763,0,0,0,7.59,39.741a9.869,9.869,0,0,0,2.49.19l.473.389a.4.4,0,0,0,.458.037.89.89,0,0,1,.4-.053.38.38,0,0,1,.286.378v.294a.394.394,0,0,1-.27.391.345.345,0,0,1-.105.009.786.786,0,0,0-.817.64,3.365,3.365,0,0,1-6.619,0ZM5.522,49.09,4.309,47.122,4.93,46.5,6.6,48.17Zm1.672-1.467L5.711,46.14v-.834a4.168,4.168,0,0,0,2.966,0v.834ZM8.866,49.09l-1.078-.92,1.67-1.67.621.621Z" transform="translate(0 -32.063)" fill="#072a40"/>
        </g>
      </g>
      <g id="Group_13683" data-name="Group 13683" transform="translate(4.15 51.563)">
        <g id="Group_13682" data-name="Group 13682">
          <path id="Path_6242" data-name="Path 6242" d="M78.719,394.766H77.587a.4.4,0,1,0,0,.806h1.132a.4.4,0,1,0,0-.806Z" transform="translate(-77.184 -394.766)" fill="#072a40"/>
        </g>
      </g>
    </g>
  </g>
</svg>
