<svg xmlns="http://www.w3.org/2000/svg" width="32" height="32" viewBox="0 0 32 32">
  <g id="crianca" transform="translate(-400 -228)">
    <rect id="Rectangle_8277" data-name="Rectangle 8277" width="32" height="32" transform="translate(400 228)" fill="none"/>
    <g id="children" transform="translate(402 167.696)">
      <path id="Path_6243" data-name="Path 6243" d="M345.6,269.609a1.354,1.354,0,0,0,1.352-1.352.412.412,0,1,0-.824,0,.528.528,0,0,1-1.056,0,.412.412,0,1,0-.824,0A1.354,1.354,0,0,0,345.6,269.609Z" transform="translate(-325.324 -190.949)" fill="#072a40"/>
      <path id="Path_6244" data-name="Path 6244" d="M401.087,229.267a.412.412,0,0,0,.412-.412v-.431a.412.412,0,0,0-.051-.821h-.361a.412.412,0,0,0-.412.412v.84A.412.412,0,0,0,401.087,229.267Z" transform="translate(-378.655 -152.919)" fill="#072a40"/>
      <path id="Path_6245" data-name="Path 6245" d="M315.819,228.425v.431a.412.412,0,0,0,.824,0v-.84a.412.412,0,0,0-.412-.412h-.361a.412.412,0,0,0-.051.821Z" transform="translate(-298.121 -152.92)" fill="#072a40"/>
      <path id="Path_6246" data-name="Path 6246" d="M26.432,76.01a1.91,1.91,0,0,0-.3-2.082.41.41,0,0,0,.075-.237A7.935,7.935,0,0,0,25.9,70.7a.412.412,0,1,0-.778.272,6.076,6.076,0,0,1,.259,2.3H22.846a2.165,2.165,0,0,1-2.163-2.163.412.412,0,1,0-.824,0A2.165,2.165,0,0,1,17.7,73.279H15.157v-.768A4.651,4.651,0,0,1,19.8,67.865a.057.057,0,0,1,.056.057.412.412,0,0,0,.824,0,.057.057,0,0,1,.056-.057,4.647,4.647,0,0,1,3.5,1.594.412.412,0,1,0,.621-.542,5.471,5.471,0,0,0-4.124-1.877.876.876,0,0,0-.469.135.876.876,0,0,0-.469-.135,5.476,5.476,0,0,0-5.47,5.47v1.18a.41.41,0,0,0,.075.237,1.918,1.918,0,0,0-.333.532,2.084,2.084,0,0,0-.814-1.491V71.4a5.613,5.613,0,0,0-5.607-5.607,10.915,10.915,0,0,0-1.522.07,4.682,4.682,0,0,0-3.569,2.117l-1.241-.4a.412.412,0,0,0-.537.373,19.4,19.4,0,0,0,.373,4.807,2.092,2.092,0,0,0,.662,3.946,5.353,5.353,0,0,0,2.469,3.381H3.421A2.587,2.587,0,0,0,.837,82.674v3.612a.412.412,0,0,0,.412.412h.685a.412.412,0,1,0,0-.824H1.661v-3.2a1.762,1.762,0,0,1,1.76-1.76h1.2a2.463,2.463,0,0,0,4.857,0h1.2a1.762,1.762,0,0,1,1.76,1.76v3.2H3.857a.412.412,0,1,0,0,.824h8.991a.412.412,0,0,0,.412-.412V82.674a2.57,2.57,0,0,0-.19-.971h.662a3.064,3.064,0,0,0,1.172-.232,2.5,2.5,0,0,0-.4,1.363v3.451a.412.412,0,0,0,.412.412H25.656a.412.412,0,0,0,.412-.412V82.834a2.5,2.5,0,0,0-.393-1.349,3.064,3.064,0,0,0,1.135.217h.917a.412.412,0,0,0,.412-.412V78.766a3.1,3.1,0,0,0-1.707-2.757ZM17.7,74.1a2.989,2.989,0,0,0,2.575-1.474A2.989,2.989,0,0,0,22.846,74.1H24.7a1.091,1.091,0,1,1-.044,2.181.411.411,0,0,0-.424.344,4.019,4.019,0,0,1-7.445,1.334.413.413,0,0,0-.023-.05,3.99,3.99,0,0,1-.38-.949l0-.02c-.023-.093-.046-.192-.066-.316a.412.412,0,0,0-.424-.344,1.091,1.091,0,1,1-.044-2.181h.045a.408.408,0,0,0,.052,0H17.7Zm2.582,8.431a1.424,1.424,0,0,1-1.422-1.422V80.59a4.857,4.857,0,0,0,2.845,0v.526a1.424,1.424,0,0,1-1.349,1.42l-.073,0ZM17.02,80.316h0a2.507,2.507,0,0,0-.808.134,3.068,3.068,0,0,0,.533-1.176,4.784,4.784,0,0,0,1.287.977v.065Zm5.5-.072a4.8,4.8,0,0,0,1.273-.97,3.067,3.067,0,0,0,.524,1.164,5.3,5.3,0,0,0-1.8-.122v-.072ZM1.595,68.535l1.028.329a.412.412,0,0,0,.486-.193A3.861,3.861,0,0,1,6.2,66.683a10.355,10.355,0,0,1,1.458-.067A4.788,4.788,0,0,1,12.436,71.4v1.191c-.36-.078-.246-.047-5.9-.047a2.759,2.759,0,0,1-2.7-2.224.413.413,0,0,0-.705-.2,5.366,5.366,0,0,0-1.236,2.17,18.229,18.229,0,0,1-.3-3.751Zm.973,7.71a.412.412,0,0,0-.406-.344H2.093a1.268,1.268,0,0,1-.046-2.535h.005c.031,0,.061,0,.092,0h.006a.412.412,0,0,0,.418-.344,4.5,4.5,0,0,1,.575-1.565q.061-.1.128-.2a3.589,3.589,0,0,0,3.266,2.112h5.512a1.282,1.282,0,0,1,.588.177l.01.005A1.268,1.268,0,0,1,11.99,75.9h-.052a.413.413,0,0,0-.423.344,4.537,4.537,0,0,1-8.947,0Zm4.4,5.895a1.641,1.641,0,0,1-1.547-1.468c0-.006,0-.012,0-.018s0-.036,0-.054a5.395,5.395,0,0,0,3.271-.005,1.641,1.641,0,0,1-1.718,1.545Zm3.71-2.05H9.794a5.353,5.353,0,0,0,2.469-3.381,2.1,2.1,0,0,0,1.676-1.314,1.9,1.9,0,0,0,.172.615A3.1,3.1,0,0,0,12.4,78.766v1.987A2.574,2.574,0,0,0,10.676,80.089Zm2.552.789V78.766a2.272,2.272,0,0,1,1.4-2.089,1.932,1.932,0,0,0,.933.412,4.877,4.877,0,0,0,.426,1.128v.4a2.26,2.26,0,0,1-2.257,2.257h-.5Zm12.015,4.995H15.327V82.834a1.7,1.7,0,0,1,1.694-1.694h1.011a2.247,2.247,0,0,0,4.493,0H23.55a1.7,1.7,0,0,1,1.694,1.694v3.039Zm2.07-4.995h-.5a2.26,2.26,0,0,1-2.257-2.257v-.4a4.875,4.875,0,0,0,.426-1.128,1.914,1.914,0,0,0,.894-.382l.04-.03a2.271,2.271,0,0,1,1.4,2.089Z" fill="#072a40"/>
      <path id="Path_6247" data-name="Path 6247" d="M102.959,264.168a1.465,1.465,0,0,0,1.463-1.463.412.412,0,0,0-.824,0,.639.639,0,0,1-1.278,0,.412.412,0,0,0-.824,0A1.465,1.465,0,0,0,102.959,264.168Z" transform="translate(-95.918 -185.703)" fill="#072a40"/>
      <path id="Path_6248" data-name="Path 6248" d="M77.08,217.564a.412.412,0,0,0-.412.412v.911a.412.412,0,0,0,.824,0v-.911A.412.412,0,0,0,77.08,217.564Z" transform="translate(-72.454 -143.432)" fill="#072a40"/>
      <path id="Path_6249" data-name="Path 6249" d="M164.984,219.3a.412.412,0,0,0,.412-.412v-.911a.412.412,0,1,0-.824,0v.911A.412.412,0,0,0,164.984,219.3Z" transform="translate(-155.527 -143.432)" fill="#072a40"/>
    </g>
  </g>
</svg>
