<svg xmlns="http://www.w3.org/2000/svg" width="32" height="32" viewBox="0 0 32 32">
  <g id="agro" transform="translate(-3299 592.754)">
    <rect id="Rectangle_8277" data-name="Rectangle 8277" width="32" height="32" transform="translate(3299 -592.754)" fill="none"/>
    <g id="harvest" transform="translate(3300.525 -591.553)">
      <rect id="Rectangle_8476" data-name="Rectangle 8476" width="0.873" height="0.873" transform="translate(24.995 17.454)" fill="#072a40"/>
      <rect id="Rectangle_8477" data-name="Rectangle 8477" width="0.873" height="0.873" transform="translate(24.995 20.944)" fill="#072a40"/>
      <rect id="Rectangle_8478" data-name="Rectangle 8478" width="0.873" height="0.873" transform="translate(24.995 24.435)" fill="#072a40"/>
      <path id="Path_6099" data-name="Path 6099" d="M29.412,14.259H27.289a6.594,6.594,0,0,0-1.52-2.982,4.154,4.154,0,0,0-1.177-.923,3.312,3.312,0,0,0,1.431-2.724V7.156H23.655a3.313,3.313,0,0,0-2.841,1.616V7.629a1.9,1.9,0,0,1,1.894-1.894V4.788a2.844,2.844,0,0,0-2.841,2.841v2.628a3.669,3.669,0,0,0-3.983.992c-.122.135-.236.276-.345.42l.041-.2a4.857,4.857,0,0,0,.1-1A4.718,4.718,0,0,0,14.24,7.078L15.9,4.634a1.515,1.515,0,0,0,.1-.167A1.468,1.468,0,0,0,15.342,2.5l-.118-.059a1.467,1.467,0,0,0-1.971.662,1.4,1.4,0,0,0-.067.156l-.966,2.656c-.065-.018-.132-.036-.2-.051l.334-3.347a1.266,1.266,0,0,0,.008-.141A1.377,1.377,0,0,0,10.989,1H10.9A1.377,1.377,0,0,0,9.523,2.376a1.274,1.274,0,0,0,.007.137l.335,3.352c-.067.016-.133.033-.2.051L8.7,3.261A1.513,1.513,0,0,0,8.632,3.1a1.466,1.466,0,0,0-1.967-.656L6.546,2.5a1.469,1.469,0,0,0-.655,1.969,1.588,1.588,0,0,0,.1.166L7.65,7.08a4.775,4.775,0,0,0-1.342,4.391l.581,2.788H6.209a.948.948,0,0,0-.947.947v.038a3.327,3.327,0,0,0-.474-.038H2.421v.474A3.312,3.312,0,0,0,3.851,18.4a4.134,4.134,0,0,0-1.177.924A6.629,6.629,0,0,0,7.627,30.359c.089,0,.177,0,.266-.005a6.6,6.6,0,0,0,4.358-1.889H26.1A2.37,2.37,0,0,0,28.465,26.1v-9h.947a.948.948,0,0,0,.947-.947v-.947A.948.948,0,0,0,29.412,14.259ZM23.655,8.1h1.373A2.372,2.372,0,0,1,22.708,10H21.336A2.371,2.371,0,0,1,23.655,8.1Zm-7.068,3.779a2.766,2.766,0,0,1,3.1-.688c.057.024.117.043.176.063v1.011a3.484,3.484,0,0,1-1.086-.713l-.669.671a3.67,3.67,0,0,0,2.229,1.086,3.67,3.67,0,0,0,2.229-1.086l-.669-.671a3.5,3.5,0,0,1-1.086.713V10.944h1.894a3.288,3.288,0,0,0,.471-.037,2.9,2.9,0,0,1,1.882,1,5.651,5.651,0,0,1,1.252,2.353h-11A5.653,5.653,0,0,1,16.588,11.882Zm-2.511-8.3A.5.5,0,0,1,14.1,3.52a.519.519,0,0,1,.7-.232l.118.059a.519.519,0,0,1,.233.695.543.543,0,0,1-.036.061L13.5,6.488Q13.3,6.365,13.1,6.26ZM10.471,2.376a.429.429,0,0,1,.429-.429h.089a.437.437,0,0,1,.426.471l-.332,3.324c-.046,0-.091-.007-.138-.007s-.092.006-.139.007ZM6.773,4.1a.5.5,0,0,1-.036-.061.519.519,0,0,1,.232-.7l.118-.059a.517.517,0,0,1,.4-.028.524.524,0,0,1,.3.269.456.456,0,0,1,.023.054l.974,2.679q-.2.1-.393.227Zm4.171,2.578a3.82,3.82,0,0,1,3.709,4.6l-.621,2.981H8.757A1.876,1.876,0,0,1,10,13.785v-.947A2.836,2.836,0,0,0,7.782,13.9l-.547-2.626a3.942,3.942,0,0,1-.079-.807A3.793,3.793,0,0,1,10.944,6.682ZM6.209,15.206H7.2a2.84,2.84,0,0,0-.043.474v.526a3.321,3.321,0,0,0-.947-.675Zm-1.421.947a2.371,2.371,0,0,1,2.32,1.894H5.735a2.371,2.371,0,0,1-2.32-1.894ZM7.856,29.407a5.682,5.682,0,0,1-4.474-9.452,2.9,2.9,0,0,1,1.883-1,3.288,3.288,0,0,0,.471.037H7.156v1.324a3.484,3.484,0,0,1-1.086-.713l-.669.671a3.67,3.67,0,0,0,2.229,1.086,3.67,3.67,0,0,0,2.229-1.086l-.669-.671a3.5,3.5,0,0,1-1.086.713v-.892a2.761,2.761,0,0,0,.65-.183,2.764,2.764,0,0,1,3.1.688,5.682,5.682,0,0,1-4,9.476Zm6.4-5.678a6.6,6.6,0,0,0-.631-2.841h13.9v2.841ZM26.1,27.517H13.057a6.582,6.582,0,0,0,1.133-2.841H27.517V26.1A1.422,1.422,0,0,1,26.1,27.517Zm3.315-11.365H27.517v3.788H13.063a6.643,6.643,0,0,0-.5-.643,3.678,3.678,0,0,0-4.179-.925,1.847,1.847,0,0,1-.277.085V17.1H26.571v-.947H8.1v-.474a1.865,1.865,0,0,1,.067-.474H29.412Z" transform="translate(-1 -1)" fill="#072a40"/>
      <path id="Path_6100" data-name="Path 6100" d="M5.947,49H5a4.741,4.741,0,0,0,4.735,4.735v-.947A3.793,3.793,0,0,1,5.947,49Z" transform="translate(-3.106 -26.271)" fill="#072a40"/>
      <rect id="Rectangle_8479" data-name="Rectangle 8479" width="0.873" height="0.873" transform="translate(11.032 7.854)" fill="#072a40"/>
      <rect id="Rectangle_8480" data-name="Rectangle 8480" width="0.873" height="0.873" transform="translate(11.032 9.599)" fill="#072a40"/>
      <rect id="Rectangle_8481" data-name="Rectangle 8481" width="0.873" height="0.873" transform="translate(11.032 11.345)" fill="#072a40"/>
    </g>
  </g>
</svg>
