<svg xmlns="http://www.w3.org/2000/svg" width="32" height="32" viewBox="0 0 32 32">
  <g id="amor_ocasioes" transform="translate(-253 -578.583)">
    <rect id="Rectangle_8277" data-name="Rectangle 8277" width="32" height="32" transform="translate(253 578.583)" fill="none"/>
    <path id="heart" d="M12.372,22.015a1.451,1.451,0,0,1-.957-.359c-1-.874-1.963-1.7-2.814-2.42l0,0a52.331,52.331,0,0,1-6.144-5.766A9.21,9.21,0,0,1,0,7.437,7.734,7.734,0,0,1,1.963,2.154,6.654,6.654,0,0,1,6.913,0,6.224,6.224,0,0,1,10.8,1.342a7.954,7.954,0,0,1,1.572,1.641,7.955,7.955,0,0,1,1.572-1.641A6.224,6.224,0,0,1,17.832,0a6.654,6.654,0,0,1,4.95,2.154,7.734,7.734,0,0,1,1.963,5.282,9.209,9.209,0,0,1-2.454,6.029,52.319,52.319,0,0,1-6.143,5.766c-.852.726-1.817,1.548-2.819,2.425A1.452,1.452,0,0,1,12.372,22.015ZM6.913,1.45A5.22,5.22,0,0,0,3.029,3.137a6.291,6.291,0,0,0-1.579,4.3,7.749,7.749,0,0,0,2.121,5.1,51.5,51.5,0,0,0,5.968,5.588l0,0c.854.727,1.821,1.552,2.828,2.433,1.013-.882,1.982-1.708,2.837-2.437a51.5,51.5,0,0,0,5.967-5.588,7.75,7.75,0,0,0,2.121-5.1,6.291,6.291,0,0,0-1.579-4.3A5.22,5.22,0,0,0,17.832,1.45a4.807,4.807,0,0,0-3,1.039,7.034,7.034,0,0,0-1.673,1.935.915.915,0,0,1-1.572,0A7.027,7.027,0,0,0,9.914,2.489,4.807,4.807,0,0,0,6.913,1.45Zm0,0" transform="translate(256.158 583.737)" fill="#072a40"/>
  </g>
</svg>
