<svg xmlns="http://www.w3.org/2000/svg" width="32" height="32" viewBox="0 0 32 32">
  <g id="artesanato" transform="translate(-2244 663)">
    <rect id="Rectangle_8277" data-name="Rectangle 8277" width="32" height="32" transform="translate(2244 -663)" fill="none"/>
    <g id="Page-1" transform="translate(2249.829 -660.604)">
      <g id="_006---Vase" data-name="006---Vase" transform="translate(-0.006 0)">
        <path id="Shape" d="M22.018,8H17.456a.456.456,0,1,0,0,.912h4.561a.456.456,0,1,0,0-.912Z" transform="translate(-9.699 -4.351)" fill="#072a40"/>
        <path id="Shape-2" data-name="Shape" d="M6.039,24.11l-1.551.775a1.361,1.361,0,0,0-.754,1.223v.348a.912.912,0,0,0,.912.912H17.418a.912.912,0,0,0,.912-.912v-.348a1.361,1.361,0,0,0-.756-1.224l-1.549-.775c2.752-2.142,5.042-6.978,5.042-10.88A6.836,6.836,0,0,0,18.741,7.9l-.018-.017a19.222,19.222,0,0,0-3.11-2.195A4.105,4.105,0,0,1,16,4.309a5.358,5.358,0,0,1,1.15-1.591A1.365,1.365,0,0,0,16.962,0H5.1a1.365,1.365,0,0,0-.19,2.718,5.355,5.355,0,0,1,1.15,1.591,4.1,4.1,0,0,1,.39,1.375,19.2,19.2,0,0,0-3.11,2.195L3.324,7.9A6.836,6.836,0,0,0,1,13.228c0,3.9,2.289,8.738,5.042,10.881Zm11.379,2v.348H4.646v-.348A.453.453,0,0,1,4.9,25.7l2.136-1.068h8L17.166,25.7A.453.453,0,0,1,17.418,26.108ZM15.007,23.72H7.057a11.311,11.311,0,0,1-3.635-4.561h8.066a.456.456,0,0,0,0-.912H3.017a15.4,15.4,0,0,1-.9-3,3.065,3.065,0,0,1,.593.562,2.445,2.445,0,0,0,1.939,1.067,2.444,2.444,0,0,0,1.94-1.069c.421-.482.687-.755,1.248-.755s.831.274,1.253.757a2.444,2.444,0,0,0,1.94,1.068,2.444,2.444,0,0,0,1.94-1.068c.423-.483.689-.757,1.253-.757s.831.274,1.253.757a2.3,2.3,0,0,0,3.885,0,3.056,3.056,0,0,1,.593-.562,15.4,15.4,0,0,1-.9,3H13.313a.456.456,0,1,0,0,.912h5.33A11.293,11.293,0,0,1,15.007,23.72ZM1.909,13.228A6.723,6.723,0,0,1,2.2,11.2a3.608,3.608,0,0,1,.505.5,2.442,2.442,0,0,0,1.939,1.067A2.444,2.444,0,0,0,6.586,11.7c.421-.482.687-.755,1.248-.755s.831.274,1.253.757a2.444,2.444,0,0,0,1.94,1.068,2.444,2.444,0,0,0,1.94-1.068c.423-.483.689-.757,1.253-.757s.831.274,1.253.757a2.3,2.3,0,0,0,3.884,0,3.572,3.572,0,0,1,.5-.5,6.723,6.723,0,0,1,.292,2.026c0,.319-.023.644-.055.975a2.72,2.72,0,0,0-1.428,1c-.371.424-.664.759-1.259.759-.564,0-.83-.274-1.253-.757a2.3,2.3,0,0,0-3.88,0c-.422.483-.689.757-1.253.757s-.83-.274-1.253-.757a2.444,2.444,0,0,0-1.94-1.068A2.436,2.436,0,0,0,5.9,15.208c-.423.484-.69.757-1.253.757s-.831-.274-1.253-.756a2.719,2.719,0,0,0-1.428-1c-.032-.333-.055-.658-.055-.977Zm1.91-4.561H8.751a.456.456,0,1,0,0-.912H4.929C5.582,7.281,6.3,6.84,7.054,6.386H15.01c.751.454,1.472.9,2.125,1.368H10.576a.456.456,0,0,0,0,.912h7.669a6.211,6.211,0,0,1,1.272,1.67,3.673,3.673,0,0,0-.843.766c-.425.483-.692.757-1.259.757s-.83-.274-1.253-.757a2.3,2.3,0,0,0-3.88,0c-.422.483-.689.757-1.253.757s-.83-.274-1.253-.757a2.444,2.444,0,0,0-1.94-1.068A2.436,2.436,0,0,0,5.9,11.1c-.423.484-.69.757-1.253.757s-.83-.274-1.253-.755a3.66,3.66,0,0,0-.844-.768,6.211,6.211,0,0,1,1.27-1.67ZM15.183,3.9a5.022,5.022,0,0,0-.467,1.572H7.348A5.022,5.022,0,0,0,6.881,3.9a7.167,7.167,0,0,0-.727-1.165H15.91A7.167,7.167,0,0,0,15.183,3.9ZM5.1.912h11.86a.456.456,0,0,1,0,.912H5.1a.456.456,0,1,1,0-.912Z" transform="translate(-0.994 0)" fill="#072a40"/>
      </g>
    </g>
  </g>
</svg>
