<svg xmlns="http://www.w3.org/2000/svg" width="32" height="32" viewBox="0 0 32 32">
  <g id="artigos_lar" transform="translate(-16567 -886)">
    <g id="home" transform="translate(16569.656 888.657)">
      <path id="Path_6019" data-name="Path 6019" d="M29.3,11.223,25.632,7.986V2.835a.788.788,0,0,0-.788-.788h-3.15a.788.788,0,0,0-.788.788v.981L16.8.2a.788.788,0,0,0-1.042,0L3.266,11.223A.788.788,0,0,0,4.308,12.4l1.685-1.487v14.39H5.257a.788.788,0,1,0,0,1.575H27.31a.788.788,0,1,0,0-1.575h-.736V10.918L28.259,12.4A.788.788,0,1,0,29.3,11.223Zm-6.82-7.6h1.575V6.6l-1.575-1.39ZM25,25.308H7.568V9.528l8.715-7.69,8.726,7.7C25,9.578,25,25.308,25,25.308Z" transform="translate(-2.999 0)" fill="#072a40"/>
      <path id="Path_6020" data-name="Path 6020" d="M144.539,214a3.677,3.677,0,0,0-2.62,1.083A3.7,3.7,0,0,0,135.6,217.7c0,1.913,1.554,3.855,2.481,4.843,1.083,1.154,2.738,2.5,3.841,2.5,1.059,0,2.688-1.2,3.833-2.381.929-.962,2.489-2.887,2.489-4.963A3.705,3.705,0,0,0,144.539,214Zm.09,7.56a6.542,6.542,0,0,1-2.708,1.911,6.988,6.988,0,0,1-2.724-2.036,6.461,6.461,0,0,1-2.025-3.734,2.127,2.127,0,0,1,4.039-.93.788.788,0,0,0,1.416,0,2.127,2.127,0,0,1,4.039.93A6.212,6.212,0,0,1,144.629,221.56Z" transform="translate(-128.635 -202.764)" fill="#072a40"/>
    </g>
    <rect id="Rectangle_8088" data-name="Rectangle 8088" width="32" height="32" transform="translate(16567 886)" fill="none"/>
  </g>
</svg>
