<svg xmlns="http://www.w3.org/2000/svg" width="32" height="32" viewBox="0 0 32 32">
  <g id="artigos_festa" transform="translate(-2518 341)">
    <g id="balloons" transform="translate(2520 -339)">
      <path id="Path_6101" data-name="Path 6101" d="M21.313.841a7.345,7.345,0,0,0-2.562.457,8.112,8.112,0,0,0-8.8,0A7.387,7.387,0,0,0,0,8.225a10.236,10.236,0,0,0,2.534,6.269,8.937,8.937,0,0,0,3.572,2.744,1.674,1.674,0,0,0-.4,1.091.42.42,0,0,0,.32.408,1.145,1.145,0,0,1,.405.177,1.371,1.371,0,0,0,.536.223v2.415a1.5,1.5,0,0,0,.543,1.138c.206.206.3.307.3.544s-.091.337-.3.544a1.463,1.463,0,0,0,0,2.276c.206.206.3.307.3.543s-.091.337-.3.543a1.5,1.5,0,0,0-.544,1.138.42.42,0,0,0,.841,0c0-.236.091-.337.3-.543a1.463,1.463,0,0,0,0-2.276c-.206-.206-.3-.307-.3-.543s.091-.337.3-.544a1.463,1.463,0,0,0,0-2.276c-.206-.206-.3-.307-.3-.544V19.136a1.371,1.371,0,0,0,.536-.223,1.144,1.144,0,0,1,.405-.177.42.42,0,0,0,.32-.408,1.674,1.674,0,0,0-.4-1.087,6.648,6.648,0,0,0,1.612-.886,8.319,8.319,0,0,0,2.78,1.738,1.673,1.673,0,0,0-.39,1.076.42.42,0,0,0,.32.408,1.145,1.145,0,0,1,.405.177,1.371,1.371,0,0,0,.536.223v1.575a1.5,1.5,0,0,0,.543,1.138c.206.206.3.307.3.544s-.091.337-.3.544a1.463,1.463,0,0,0,0,2.276c.206.206.3.307.3.543s-.091.337-.3.543a1.5,1.5,0,0,0-.544,1.138.42.42,0,0,0,.841,0c0-.236.091-.337.3-.543a1.463,1.463,0,0,0,0-2.276c-.206-.206-.3-.307-.3-.543s.091-.337.3-.544a1.463,1.463,0,0,0,0-2.276c-.206-.206-.3-.307-.3-.544V19.976a1.371,1.371,0,0,0,.536-.223,1.144,1.144,0,0,1,.405-.177.42.42,0,0,0,.32-.408,1.674,1.674,0,0,0-.389-1.074,6.96,6.96,0,0,0,1.659-.853.42.42,0,0,0-.473-.695,4.637,4.637,0,0,1-2.479.94c-1.343,0-3.182-1.174-4.685-2.99a10.431,10.431,0,0,1-2.6-6.37,7.286,7.286,0,0,1,14.573,0A11.044,11.044,0,0,1,18.1,15.505a.42.42,0,0,0,.031.633,6.991,6.991,0,0,0,1.9,1.1,1.674,1.674,0,0,0-.4,1.087.42.42,0,0,0,.32.408,1.145,1.145,0,0,1,.405.177,1.371,1.371,0,0,0,.536.223v2.415a1.5,1.5,0,0,0,.543,1.138c.206.206.3.307.3.544s-.091.337-.3.544a1.463,1.463,0,0,0,0,2.276c.206.206.3.307.3.543s-.091.337-.3.543a1.5,1.5,0,0,0-.544,1.138.42.42,0,0,0,.841,0c0-.236.091-.337.3-.543a1.463,1.463,0,0,0,0-2.276c-.206-.206-.3-.307-.3-.543s.091-.337.3-.544a1.463,1.463,0,0,0,0-2.276c-.206-.206-.3-.307-.3-.544V19.136a1.371,1.371,0,0,0,.536-.223,1.144,1.144,0,0,1,.405-.177.42.42,0,0,0,.32-.408,1.674,1.674,0,0,0-.4-1.091,8.937,8.937,0,0,0,3.572-2.744A10.236,10.236,0,0,0,28.7,8.225,7.393,7.393,0,0,0,21.313.841ZM14.349,18.328a.842.842,0,0,1,.791.557,2.077,2.077,0,0,0-.288.161.714.714,0,0,1-.5.123.714.714,0,0,1-.5-.123,2.077,2.077,0,0,0-.288-.16A.842.842,0,0,1,14.349,18.328ZM7.888,18.2a.714.714,0,0,1-.5.123.714.714,0,0,1-.5-.123,2.077,2.077,0,0,0-.288-.16.841.841,0,0,1,1.583,0A2.068,2.068,0,0,0,7.888,18.2ZM6.221,8.127a11.275,11.275,0,0,0,2.794,6.906q.317.382.648.728a4.238,4.238,0,0,1-2.28.886c-1.2,0-2.852-1.055-4.2-2.689A9.525,9.525,0,0,1,.841,8.225,6.548,6.548,0,0,1,9.117,1.914a8.112,8.112,0,0,0-2.9,6.214ZM21.816,18.2a1.088,1.088,0,0,1-1.006,0,2.077,2.077,0,0,0-.288-.16.841.841,0,0,1,1.583,0A2.068,2.068,0,0,0,21.816,18.2Zm3.7-4.247c-1.351,1.633-3,2.689-4.2,2.689a4.238,4.238,0,0,1-2.28-.886,13.476,13.476,0,0,0,2.316-3.277,9.89,9.89,0,0,0,1.127-4.357,8.112,8.112,0,0,0-2.895-6.214,6.549,6.549,0,0,1,8.275,6.312,9.525,9.525,0,0,1-2.341,5.733Z" fill="#072a40"/>
    </g>
    <rect id="Rectangle_8277" data-name="Rectangle 8277" width="32" height="32" transform="translate(2518 -341)" fill="none"/>
  </g>
</svg>
