<svg xmlns="http://www.w3.org/2000/svg" width="32" height="32" viewBox="0 0 32 32">
  <g id="artigos_crianca" transform="translate(-1965 668)">
    <rect id="Rectangle_8277" data-name="Rectangle 8277" width="32" height="32" transform="translate(1965 -668)" fill="none"/>
    <g id="rattle" transform="translate(1966 -667.014)">
      <g id="Group_12896" data-name="Group 12896" transform="translate(0 0.014)">
        <path id="Path_6089" data-name="Path 6089" d="M28.145,15.67a9.878,9.878,0,0,0,1.663-7.713.439.439,0,1,0-.862.172,9.051,9.051,0,0,1,.081,3.078L18.807.987a9.022,9.022,0,0,1,9.551,5.279.439.439,0,0,0,.8-.354A9.9,9.9,0,0,0,14.344,1.869l-.3-.3a1.166,1.166,0,0,0-1.65,0l-.616.616a1.166,1.166,0,0,0,0,1.65l.3.3a9.885,9.885,0,0,0-1.344,8.906l-.609,2.2a6.845,6.845,0,0,1-1.753,3.005l-.246.246a.44.44,0,0,0,.622.622l.246-.246a7.727,7.727,0,0,0,1.978-3.392l.309-1.117a9.89,9.89,0,0,0,4.376,4.376l-1.118.31a7.725,7.725,0,0,0-3.392,1.978L7.824,24.344A4.094,4.094,0,0,0,5.67,22.19L7.3,20.563a.439.439,0,1,0-.621-.622L4.7,21.915a4.127,4.127,0,0,0-.628-.048A4.074,4.074,0,1,0,8.148,25.94a4.133,4.133,0,0,0-.048-.629l3.669-3.669a6.844,6.844,0,0,1,3.005-1.753l2.2-.609a9.943,9.943,0,0,0,3.146.511,9.838,9.838,0,0,0,5.76-1.855l.295.295a1.166,1.166,0,0,0,1.65,0l.617-.616a1.168,1.168,0,0,0,0-1.65ZM6.333,28.2a3.194,3.194,0,1,1,0-4.519A3.2,3.2,0,0,1,6.333,28.2Zm13.786-9.286A9.011,9.011,0,0,1,11.195,8.6L21.416,18.82A9.044,9.044,0,0,1,20.119,18.913Zm2.328-.305L11.407,7.567a8.933,8.933,0,0,1,1.3-2.8L25.249,17.307A8.933,8.933,0,0,1,22.447,18.608Zm5.372-1.614-.617.616a.287.287,0,0,1-.407,0L12.4,3.218a.287.287,0,0,1,0-.407L13.02,2.2a.288.288,0,0,1,.407,0L17.082,5.85a.439.439,0,1,0,.622-.621L14.974,2.5a8.933,8.933,0,0,1,2.8-1.3l11.04,11.04a8.964,8.964,0,0,1-1.3,2.8L19.153,6.678a.439.439,0,1,0-.622.621l9.287,9.287A.288.288,0,0,1,27.819,16.994Z" transform="translate(0 -0.014)" fill="#072a40"/>
        <path id="Path_6090" data-name="Path 6090" d="M41.455,412.638a1.746,1.746,0,1,0,1.236.511A1.736,1.736,0,0,0,41.455,412.638ZM42.07,415a.871.871,0,1,1,.254-.615A.863.863,0,0,1,42.07,415Z" transform="translate(-37.381 -388.46)" fill="#072a40"/>
      </g>
    </g>
  </g>
</svg>
