<svg xmlns="http://www.w3.org/2000/svg" width="32" height="32" viewBox="0 0 32 32">
  <g id="bebidas_alcoolicas" transform="translate(-2329 651)">
    <g id="manhattan" transform="translate(2301.267 -648.89)">
      <g id="Group_12920" data-name="Group 12920" transform="translate(31.468 0)">
        <g id="Group_12919" data-name="Group 12919">
          <path id="Path_6095" data-name="Path 6095" d="M55.585,3.212a.538.538,0,0,0-.485-.305H51.9a.538.538,0,0,0,0,1.076H53.98L47.269,12.37a4.976,4.976,0,0,1-3.708,1.646h0a4.979,4.979,0,0,1-3.907-1.878.536.536,0,0,0-.068-.07l-3.912-4.9h5.406a.538.538,0,1,0,0-1.076H34.914a.542.542,0,0,0-.095.009l-1.693-2.12H48.082l-2.226,2.87a2.9,2.9,0,0,0-3.5,4.506l-.43.554a.538.538,0,1,0,.851.66l.425-.549a2.9,2.9,0,0,0,3.5-4.516L51.86.868a.538.538,0,1,0-.851-.66l-2.093,2.7H32.007a.538.538,0,0,0-.421.874L41.938,16.741v7.627l-3.785,1.584a.835.835,0,0,0,.322,1.6H48.629a.835.835,0,0,0,.322-1.605l-3.783-1.58V23.087a.538.538,0,1,0-1.076,0V24.73a.538.538,0,0,0,.331.5l3,1.254H39.679l3.006-1.258a.538.538,0,0,0,.33-.5V16.553a.538.538,0,0,0-.118-.336l-1.106-1.384a6.106,6.106,0,0,0,1.767.26h0a6.108,6.108,0,0,0,1.729-.249L44.209,16.2a.538.538,0,0,0-.118.336v1.984a.538.538,0,0,0,1.076,0v-1.8h0L55.52,3.781A.538.538,0,0,0,55.585,3.212ZM44.546,11.276a1.83,1.83,0,1,1,1.83-1.83A1.832,1.832,0,0,1,44.546,11.276Z" transform="translate(-31.468 0)" fill="#072a40"/>
        </g>
      </g>
      <g id="Group_12922" data-name="Group 12922" transform="translate(44.091 20.38)">
        <g id="Group_12921" data-name="Group 12921">
          <path id="Path_6096" data-name="Path 6096" d="M266.919,378.8a.538.538,0,1,0,.158.38A.542.542,0,0,0,266.919,378.8Z" transform="translate(-266 -378.64)" fill="#072a40"/>
        </g>
      </g>
      <g id="Group_12924" data-name="Group 12924" transform="translate(38.924 8.462)">
        <g id="Group_12923" data-name="Group 12923">
          <path id="Path_6097" data-name="Path 6097" d="M170.919,157.368a.538.538,0,1,0,.158.38A.542.542,0,0,0,170.919,157.368Z" transform="translate(-170 -157.21)" fill="#072a40"/>
        </g>
      </g>
      <g id="Group_12926" data-name="Group 12926" transform="translate(48.505 7.428)">
        <g id="Group_12925" data-name="Group 12925">
          <path id="Path_6098" data-name="Path 6098" d="M348.919,138.158a.538.538,0,1,0,.158.381A.542.542,0,0,0,348.919,138.158Z" transform="translate(-348 -138)" fill="#072a40"/>
        </g>
      </g>
    </g>
    <rect id="Rectangle_8277" data-name="Rectangle 8277" width="32" height="32" transform="translate(2329 -651)" fill="none"/>
  </g>
</svg>
