<svg xmlns="http://www.w3.org/2000/svg" width="32" height="32" viewBox="0 0 32 32">
  <g id="bebidas_sem_alcool" transform="translate(-2334 627)">
    <rect id="Rectangle_8277" data-name="Rectangle 8277" width="32" height="32" transform="translate(2334 -627)" fill="none"/>
    <g id="Page-1" transform="translate(2335.5 -625.517)">
      <g id="_044---Fruity-Drink" data-name="044---Fruity-Drink" transform="translate(0 0.017)">
        <path id="Shape" d="M5.422,38.558a1.553,1.553,0,0,0-.928.8,5.354,5.354,0,0,0-.235,3.973.483.483,0,0,0,.931-.259,4.445,4.445,0,0,1,.141-3.23.7.7,0,0,1,.332-.344.484.484,0,1,0-.242-.936Z" transform="translate(-2.067 -19.927)" fill="#072a40"/>
        <path id="Shape-2" data-name="Shape" d="M22.691,32.382A1.691,1.691,0,1,0,21,30.691,1.691,1.691,0,0,0,22.691,32.382Zm0-2.416a.725.725,0,1,1-.725.725A.725.725,0,0,1,22.691,29.966Z" transform="translate(-10.853 -14.996)" fill="#072a40"/>
        <circle id="Oval" cx="0.483" cy="0.483" r="0.483" transform="translate(7.248 4.824)" fill="#072a40"/>
        <circle id="Oval-2" data-name="Oval" cx="0.483" cy="0.483" r="0.483" transform="translate(10.63 18.836)" fill="#072a40"/>
        <circle id="Oval-3" data-name="Oval" cx="0.483" cy="0.483" r="0.483" transform="translate(11.114 21.252)" fill="#072a40"/>
        <circle id="Oval-4" data-name="Oval" cx="0.483" cy="0.483" r="0.483" transform="translate(5.798 6.273)" fill="#072a40"/>
        <path id="Shape-3" data-name="Shape" d="M28.806,25.706,22.4,19.3,23.669,7.9A1.45,1.45,0,0,0,22.227,6.29H19.917L20.7,4.184,25.4.888A.483.483,0,0,0,24.85.1L20.018,3.479a.483.483,0,0,0-.176.228L18.886,6.29H10.769A7.809,7.809,0,0,0,9.145,3.44,3.354,3.354,0,0,0,7.737,2.6,3.922,3.922,0,0,0,8.1,1.042a.966.966,0,0,0-.28-.718A.953.953,0,0,0,7.1.044,3.327,3.327,0,0,0,4.877.879,3,3,0,0,0,4.1,2.528C2.8,1.358,2.157,1.249,1.972,1.249a.5.5,0,0,0-.5.483.466.466,0,0,0,.463.483,3.8,3.8,0,0,1,1.461.975A2.968,2.968,0,0,0,1.8,3.955,3.321,3.321,0,0,0,.966,6.18a.962.962,0,0,0,.962,1h.037a3.931,3.931,0,0,0,1.557-.365,3.316,3.316,0,0,0,.842,1.409A7.907,7.907,0,0,0,7.481,9.929l.507,4.564a3.894,3.894,0,0,0-.857.876,2.379,2.379,0,0,0-.177-.189,3.773,3.773,0,0,0-1.682-.873,9.3,9.3,0,0,0-3.42.208.807.807,0,0,0-.362,1.406c.349.3.758.623,1.181.921a3.489,3.489,0,0,0-1.92,1.635,7.29,7.29,0,0,0-.426,5.46C1.16,26.908,3.352,29,5.463,29a3.075,3.075,0,0,0,.769-.1,3.114,3.114,0,0,0,.526-.188,3.066,3.066,0,0,0,.525.188,3.583,3.583,0,0,0,2.556-.372A1.444,1.444,0,0,0,10.9,29h9.122a1.454,1.454,0,0,0,1.054-.459A7.716,7.716,0,0,0,23.687,29h.028a7.7,7.7,0,0,0,5.033-1.869.989.989,0,0,0,.342-.709.953.953,0,0,0-.281-.716Zm-6.292-4.926-3.645,0A4.788,4.788,0,0,1,19.931,18.2Zm0,.966L19.94,24.323a4.823,4.823,0,0,1-1.073-2.581Zm.683.682,0,3.649a4.826,4.826,0,0,1-2.581-1.073Zm.971,3.649,0-3.646,2.583,2.583a4.794,4.794,0,0,1-2.578,1.064ZM22.227,7.257a.487.487,0,0,1,.483.536l-.36,3.237-1.308.655a3.866,3.866,0,0,1-3.16.115l1.677-4.543Zm-5.24,4.172a4.82,4.82,0,0,0-1.525-.254,4.763,4.763,0,0,0-2.149.5,3.858,3.858,0,0,1-3.434,0l-1.3-.652L8.214,7.793A.486.486,0,0,1,8.7,7.257h9.832ZM5.56,1.561a2.485,2.485,0,0,1,1.577-.556,2.46,2.46,0,0,1-.552,1.581,2.416,2.416,0,0,1-1.577.552A2.416,2.416,0,0,1,5.56,1.561ZM1.933,6.213a2.456,2.456,0,0,1,.552-1.577,2.413,2.413,0,0,1,1.574-.551A2.425,2.425,0,0,1,3.51,5.662a2.453,2.453,0,0,1-1.577.551ZM5.047,7.537a2.358,2.358,0,0,1-.674-1.4A3.552,3.552,0,0,0,5.025,4.1a3.557,3.557,0,0,0,2.029-.655,2.378,2.378,0,0,1,1.405.676A6.662,6.662,0,0,1,9.745,6.29H8.7A1.45,1.45,0,0,0,7.256,7.9l.109.977A6.75,6.75,0,0,1,5.047,7.537Zm3.075,8.146.153,1.374a4.948,4.948,0,0,0-.543.294,1.757,1.757,0,0,1-.422.193A3.554,3.554,0,0,1,8.122,15.683Zm-3.08-.44a2.844,2.844,0,0,1,1.247.634.7.7,0,0,1,.29.577l0,.014c-.044.152-.237.29-.522.372a2.844,2.844,0,0,1-1.4-.022A7.248,7.248,0,0,1,2.375,15.4a7.519,7.519,0,0,1,2.666-.154ZM7.522,27.967A2.2,2.2,0,0,1,7,27.753a.483.483,0,0,0-.468,0,2.311,2.311,0,0,1-.536.217c-1.818.465-3.942-1.459-4.735-4.291a6.31,6.31,0,0,1,.331-4.716,2.5,2.5,0,0,1,1.529-1.248,2.416,2.416,0,0,1,1.524.131,3.729,3.729,0,0,1,.617.319,2.749,2.749,0,0,0,1.015.391v.778a.483.483,0,1,0,.966,0v-.778a2.733,2.733,0,0,0,1.007-.387c.045-.029.092-.052.139-.078l1.063,9.559a2.619,2.619,0,0,1-1.927.32Zm3.379.067a.483.483,0,0,1-.483-.431L8.7,12.173l.745.372a4.826,4.826,0,0,0,4.3,0,3.9,3.9,0,0,1,2.906-.209l-5.025,13.6a.483.483,0,0,0,.906.335l5.013-13.564a4.8,4.8,0,0,0,3.926-.156l.748-.375-.7,6.251-2.284-2.284a1,1,0,0,0-.716-.282.989.989,0,0,0-.71.342,7.753,7.753,0,0,0,2.131,11.833ZM28.113,26.4a6.765,6.765,0,0,1-4.423,1.635h0a6.749,6.749,0,0,1-2.58-.508H21.1a6.788,6.788,0,0,1-2.542-10.7l.69.69A5.809,5.809,0,0,0,27.431,25.7Z" transform="translate(0 -0.017)" fill="#072a40"/>
      </g>
    </g>
  </g>
</svg>
