<svg xmlns="http://www.w3.org/2000/svg" width="32" height="32" viewBox="0 0 32 32">
  <g id="florista" transform="translate(-2592 343)">
    <rect id="Rectangle_8277" data-name="Rectangle 8277" width="32" height="32" transform="translate(2592 -343)" fill="none"/>
    <g id="flower" transform="translate(2594.001 -341.001)">
      <path id="Path_6102" data-name="Path 6102" d="M28.645,14.042a10.684,10.684,0,0,0-4.861-3.58,10.754,10.754,0,0,0,.885-5.968.562.562,0,0,0-.481-.477,10.776,10.776,0,0,0-5.909.9A10.7,10.7,0,0,0,14.718.115a.562.562,0,0,0-.678,0,10.684,10.684,0,0,0-3.58,4.861,10.754,10.754,0,0,0-5.968-.885.562.562,0,0,0-.477.481,10.776,10.776,0,0,0,.9,5.909A10.7,10.7,0,0,0,.113,14.042a.562.562,0,0,0,0,.678A10.684,10.684,0,0,0,4.974,18.3a10.754,10.754,0,0,0-.885,5.968.562.562,0,0,0,.481.477,10.528,10.528,0,0,0,1.39.088,10.342,10.342,0,0,0,4.52-.991,10.7,10.7,0,0,0,3.561,4.805.562.562,0,0,0,.678,0,10.684,10.684,0,0,0,3.579-4.86,10.283,10.283,0,0,0,4.491.982,10.62,10.62,0,0,0,1.477-.1.562.562,0,0,0,.477-.481,10.776,10.776,0,0,0-.9-5.909,10.7,10.7,0,0,0,4.806-3.561A.562.562,0,0,0,28.645,14.042ZM23.606,5.084a9.371,9.371,0,0,1-.934,5.087,8.272,8.272,0,0,0-1.373-.144,9.8,9.8,0,0,0-2.308.244,6.185,6.185,0,0,0-.5-.5,9.794,9.794,0,0,0,.243-2.307,8.276,8.276,0,0,0-.155-1.432,9.4,9.4,0,0,1,5.029-.944Zm-12.458,2.4a8.619,8.619,0,0,1,3.231-6.2,8.619,8.619,0,0,1,3.231,6.2,8.36,8.36,0,0,1-.123,1.556c-.166-.1-.336-.187-.512-.268A.562.562,0,0,0,16.5,9.79a5.056,5.056,0,1,1-4.246,0,.562.562,0,0,0-.472-1.019c-.176.082-.347.172-.512.268a8.367,8.367,0,0,1-.123-1.556ZM5.082,5.153a9.371,9.371,0,0,1,5.087.934,8.272,8.272,0,0,0-.144,1.373,9.794,9.794,0,0,0,.244,2.308,6.194,6.194,0,0,0-.5.5,9.8,9.8,0,0,0-2.31-.244,8.275,8.275,0,0,0-1.432.155A9.4,9.4,0,0,1,5.082,5.153ZM1.28,14.38a8.619,8.619,0,0,1,6.2-3.231,8.385,8.385,0,0,1,1.56.124,6.174,6.174,0,0,0-.007,6.215,8.348,8.348,0,0,1-1.553.122,8.619,8.619,0,0,1-6.2-3.23Zm3.872,9.3a9.371,9.371,0,0,1,.934-5.087,8.272,8.272,0,0,0,1.373.144l.17,0a9.91,9.91,0,0,0,2.136-.245q.133.149.275.29.112.11.229.214a9.79,9.79,0,0,0-.243,2.306,8.276,8.276,0,0,0,.155,1.432,9.4,9.4,0,0,1-5.029.944Zm12.458-2.4a8.619,8.619,0,0,1-3.231,6.2,8.619,8.619,0,0,1-3.231-6.2,8.361,8.361,0,0,1,.122-1.553,6.137,6.137,0,0,0,3.107.836h.089a6.119,6.119,0,0,0,3.019-.841,8.366,8.366,0,0,1,.123,1.559Zm6.066,2.33a9.373,9.373,0,0,1-5.087-.934,8.271,8.271,0,0,0,.144-1.373,9.793,9.793,0,0,0-.245-2.314q.131-.117.257-.242t.241-.256a9.914,9.914,0,0,0,2.144.247l.17,0a8.275,8.275,0,0,0,1.432-.155,9.4,9.4,0,0,1,.944,5.029Zm-2.4-6a8.344,8.344,0,0,1-1.559-.123,6.161,6.161,0,0,0,0-6.215,8.353,8.353,0,0,1,1.557-.123,8.619,8.619,0,0,1,6.2,3.231,8.619,8.619,0,0,1-6.2,3.23Z" transform="translate(0 0)" fill="#072a40"/>
      <circle id="Ellipse_1127" data-name="Ellipse 1127" cx="0.562" cy="0.562" r="0.562" transform="translate(13.817 8.201)" fill="#072a40"/>
    </g>
  </g>
</svg>
