<svg xmlns="http://www.w3.org/2000/svg" width="32" height="32" viewBox="0 0 32 32">
  <g id="tecnologia" transform="translate(-2134 692)">
    <rect id="Rectangle_8277" data-name="Rectangle 8277" width="32" height="32" transform="translate(2134 -692)" fill="none"/>
    <g id="computer" transform="translate(2134.3 -744.5)">
      <g id="Group_12902" data-name="Group 12902" transform="translate(20.381 76.796)">
        <g id="Group_12901" data-name="Group 12901" transform="translate(0 0)">
          <rect id="Rectangle_8471" data-name="Rectangle 8471" height="1" transform="translate(0.398 0.159)" fill="#072a40"/>
        </g>
      </g>
      <g id="Group_12904" data-name="Group 12904" transform="translate(0 56)">
        <g id="Group_12903" data-name="Group 12903" transform="translate(0 0)">
          <path id="Path_6091" data-name="Path 6091" d="M30.363,77.628h-.416V66.4a1.664,1.664,0,0,0-1.664-1.664H24.956V59.327A3.331,3.331,0,0,0,21.628,56H3.327A3.331,3.331,0,0,0,0,59.327v13.31a3.331,3.331,0,0,0,3.327,3.327H7.37l-.624,2.5H2.912a1.248,1.248,0,1,0,0,2.5h26.2a1.664,1.664,0,0,0,1.664-1.664V78.044A.416.416,0,0,0,30.363,77.628Zm-2.08-12.062a.832.832,0,0,1,.832.832v11.23H24.54a.416.416,0,0,0-.294.122l-.71.71H18.057l-.71-.71a.416.416,0,0,0-.294-.122H12.478V66.4a.832.832,0,0,1,.832-.832ZM11.646,66.4v5.407h-7.9a.832.832,0,0,1-.832-.832V59.743a.832.832,0,0,1,.832-.832H21.194a.832.832,0,0,1,.832.832v4.991H13.31A1.664,1.664,0,0,0,11.646,66.4ZM3.327,75.133a2.5,2.5,0,0,1-2.5-2.5V59.327a2.5,2.5,0,0,1,2.5-2.5h18.3a2.5,2.5,0,0,1,2.5,2.5v5.407H22.858V59.743a1.664,1.664,0,0,0-1.664-1.664H3.743A1.664,1.664,0,0,0,2.08,59.743v11.23a1.664,1.664,0,0,0,1.664,1.664h7.9v2.5Zm-.416,4.991a.416.416,0,1,1,0-.832h7.9a1.647,1.647,0,0,0,.231.832Zm7.9-2.08v.416H7.6l.624-2.5h3.419v1.664H11.23A.416.416,0,0,0,10.814,78.044Zm19.133,1.248a.832.832,0,0,1-.832.832H12.478a.832.832,0,0,1-.832-.832V78.46h5.235l.71.71a.416.416,0,0,0,.294.122h5.823A.416.416,0,0,0,24,79.17l.71-.71h5.235Z" transform="translate(0 -56)" fill="#072a40"/>
        </g>
      </g>
      <g id="Group_12906" data-name="Group 12906" transform="translate(13.31 66.398)">
        <g id="Group_12905" data-name="Group 12905" transform="translate(0 0)">
          <path id="Path_6092" data-name="Path 6092" d="M270.557,256H256.416a.416.416,0,0,0-.416.416v8.734a.416.416,0,0,0,.416.416h14.142a.416.416,0,0,0,.416-.416v-8.734A.416.416,0,0,0,270.557,256Zm-.416,8.734h-13.31v-7.9h13.31Z" transform="translate(-256 -256)" fill="#072a40"/>
        </g>
      </g>
      <g id="Group_12908" data-name="Group 12908" transform="translate(4.159 60.159)">
        <g id="Group_12907" data-name="Group 12907" transform="translate(0 0)">
          <path id="Path_6093" data-name="Path 6093" d="M80.839,136a.84.84,0,0,0-.839.839v2.488h.832l.007-2.5h6.231V136Z" transform="translate(-80 -136)" fill="#072a40"/>
        </g>
      </g>
      <g id="Group_12910" data-name="Group 12910" transform="translate(12.062 60.159)">
        <g id="Group_12909" data-name="Group 12909" transform="translate(0 0)">
          <rect id="Rectangle_8472" data-name="Rectangle 8472" width="1" height="1" transform="translate(-0.283 -0.204)" fill="#072a40"/>
        </g>
      </g>
      <g id="Group_12912" data-name="Group 12912" transform="translate(14.973 68.062)">
        <g id="Group_12911" data-name="Group 12911" transform="translate(0 0)">
          <path id="Path_6094" data-name="Path 6094" d="M288.839,288a.84.84,0,0,0-.839.839v2.072h.832l.007-2.08h2.9V288Z" transform="translate(-288 -288)" fill="#072a40"/>
        </g>
      </g>
      <g id="Group_12914" data-name="Group 12914" transform="translate(19.549 68.062)">
        <g id="Group_12913" data-name="Group 12913" transform="translate(0 0)">
          <rect id="Rectangle_8473" data-name="Rectangle 8473" width="1" height="1" transform="translate(0.23 -0.106)" fill="#072a40"/>
        </g>
      </g>
    </g>
  </g>
</svg>
