<svg xmlns="http://www.w3.org/2000/svg" width="20" height="20" viewBox="0 0 20 20">
  <g id="apple" transform="translate(-127 -596)">
    <path id="_" data-name="" d="M15.71,14.885a3.727,3.727,0,0,0,2.573-1.353,4.317,4.317,0,0,0,1-2.657,1.79,1.79,0,0,0-.036-.374,4.224,4.224,0,0,0-2.79,1.449,4.1,4.1,0,0,0-1.039,2.573,1.658,1.658,0,0,0,.036.338A1.388,1.388,0,0,0,15.71,14.885ZM12.69,29.5c1.172,0,1.691-.785,3.153-.785,1.486,0,1.812.761,3.116.761,1.28,0,2.138-1.184,2.947-2.343a10.648,10.648,0,0,0,1.3-2.694A4.175,4.175,0,0,1,20.674,20.6a4.311,4.311,0,0,1,2.041-3.624,4.47,4.47,0,0,0-3.757-1.884c-1.437,0-2.609.87-3.346.87-.8,0-1.848-.821-3.092-.821-2.367,0-4.771,1.957-4.771,5.653a11.686,11.686,0,0,0,1.993,6.293C10.685,28.413,11.507,29.5,12.69,29.5Z" transform="translate(121.25 585.5)" fill="#fff"/>
    <rect id="Rectangle_8234" data-name="Rectangle 8234" width="20" height="20" transform="translate(127 596)" fill="none"/>
  </g>
</svg>
