<svg xmlns="http://www.w3.org/2000/svg" xmlns:xlink="http://www.w3.org/1999/xlink" width="58" height="58" viewBox="0 0 58 58">
  <defs>
    <filter id="Ellipse_200" x="0" y="0" width="58" height="58" filterUnits="userSpaceOnUse">
      <feOffset dx="1" dy="1" input="SourceAlpha"/>
      <feGaussianBlur stdDeviation="3" result="blur"/>
      <feFlood flood-opacity="0.161"/>
      <feComposite operator="in" in2="blur"/>
      <feComposite in="SourceGraphic"/>
    </filter>
  </defs>
  <g id="botao_logout" transform="translate(-1466 -306)">
    <g transform="matrix(1, 0, 0, 1, 1466, 306)" filter="url(#Ellipse_200)">
      <circle id="Ellipse_200-2" data-name="Ellipse 200" cx="20" cy="20" r="20" transform="translate(8 8)" fill="#fff"/>
    </g>
    <g id="Group_11401" data-name="Group 11401" transform="translate(-7624 -445)">
      <g id="off" transform="translate(9108.911 770)">
        <path id="Path_5331" data-name="Path 5331" d="M7.464,8.185V1.364a1.364,1.364,0,0,1,2.728,0V8.185a1.364,1.364,0,0,1-2.728,0ZM14.236,2a1.023,1.023,0,0,0-1.267,1.607,6.694,6.694,0,1,1-8.282,0A1.023,1.023,0,0,0,3.419,2,8.739,8.739,0,1,0,14.236,2Z" transform="translate(0)" fill="#687780"/>
      </g>
      <rect id="Rectangle_8353" data-name="Rectangle 8353" width="18" height="18" transform="translate(9109 770)" fill="none"/>
    </g>
  </g>
</svg>
