<svg xmlns="http://www.w3.org/2000/svg" width="32" height="32" viewBox="0 0 32 32">
  <g id="cat_comida" transform="translate(-42 -120.014)">
    <g id="fork" transform="translate(44.825 120.942)">
      <path id="Path_5855" data-name="Path 5855" d="M34.566,12.376v17.1a.889.889,0,0,0,1.778,0v-17.1A4.453,4.453,0,0,0,39.9,8.021h0V.906a.889.889,0,0,0-1.778,0V7.13H36.344V.906a.889.889,0,0,0-1.778,0V7.13H32.787V.906a.889.889,0,0,0-1.778,0V8.02a4.453,4.453,0,0,0,3.557,4.356Zm3.4-3.468a2.667,2.667,0,0,1-5.029,0Z" transform="translate(-31.009 -0.016)" fill="#072a40"/>
      <path id="Path_5856" data-name="Path 5856" d="M214.565,17.7V29.463a.889.889,0,0,0,1.778,0V.891a.89.89,0,0,0-1.287-.8,7.323,7.323,0,0,0-4.048,6.55v6.694a4.454,4.454,0,0,0,3.557,4.356Zm-1.778-11.05a5.513,5.513,0,0,1,1.778-4.074V15.854a2.672,2.672,0,0,1-1.778-2.515Z" transform="translate(-200.338 0)" fill="#072a40"/>
      <path id="Path_5857" data-name="Path 5857" d="M334.565,12.345V29.478a.889.889,0,0,0,1.778,0V12.345c2.369-.65,3.557-3.581,3.557-6.1,0-2.959-1.619-6.224-4.446-6.224s-4.446,3.276-4.446,6.224c0,2.512,1.181,5.452,3.557,6.1Zm.889-10.55c1.446,0,2.668,2.036,2.668,4.446s-1.222,4.446-2.668,4.446-2.667-2.036-2.667-4.446S334.008,1.8,335.454,1.8Z" transform="translate(-313.224 -0.016)" fill="#072a40"/>
    </g>
    <rect id="Rectangle_8229" data-name="Rectangle 8229" width="32" height="32" transform="translate(42 120.014)" fill="none"/>
  </g>
</svg>
