<svg xmlns="http://www.w3.org/2000/svg" width="32" height="32" viewBox="0 0 32 32">
  <g id="cat_vegetariana" transform="translate(-47 -555.939)">
    <rect id="Rectangle_8277" data-name="Rectangle 8277" width="32" height="32" transform="translate(47 555.939)" fill="none"/>
    <g id="vegetable" transform="translate(47 556.114)">
      <path id="Path_5903" data-name="Path 5903" d="M32.277,18.631a7.009,7.009,0,0,0-2.849-5.611,2.146,2.146,0,0,0-1.269-.417,2.124,2.124,0,0,0-1.494.614c-.073-.061-.14-.128-.215-.186a2.1,2.1,0,0,0-.961-.393l.222-2.446c.005-.059.008-.118.008-.177a1.954,1.954,0,0,0-1.952-1.952h-.131a1.954,1.954,0,0,0-1.952,1.952c0,.059,0,.118.008.177l.223,2.457a2.16,2.16,0,0,0-.89.379c-.09.068-.171.145-.257.216-.045-.046-.092-.09-.141-.132a2.948,2.948,0,0,0-.522-2.275A3.025,3.025,0,0,0,17.471,6.05a3.014,3.014,0,0,0-2.007-1.9,2.985,2.985,0,0,0-2.533-1.129,3.023,3.023,0,0,0-5.473-.509A3.041,3.041,0,0,0,4.637,4.787a4.054,4.054,0,0,0-2.628,3.78A4.013,4.013,0,0,0,3.774,11.9a3.013,3.013,0,0,0,.844,3.53,2.921,2.921,0,0,0-.087.7,3.032,3.032,0,0,0,2.664,3.005l1.116,3.125a5.578,5.578,0,0,0-1.433,1.554l-2.643-.587a1.367,1.367,0,0,0-.308-.034A1.415,1.415,0,0,0,2.513,24.61v.2a1.4,1.4,0,0,0,.066.4H2.513a1.513,1.513,0,0,0,0,3.027h.066a1.4,1.4,0,0,0-.066.4v.2a1.415,1.415,0,0,0,1.414,1.414,1.381,1.381,0,0,0,.307-.034l2.644-.588a5.545,5.545,0,0,0,4.716,2.639h.119a5.573,5.573,0,0,0,.843-.065l17.3-2.661a2.85,2.85,0,0,0,.786-5.4,6.977,6.977,0,0,0,1.636-4.464Zm-6.44-4.8a6.2,6.2,0,0,1,2.4,4.906v1.853a6.228,6.228,0,0,1-.744,2.95l-4.045-.623a10.059,10.059,0,0,1-.256-2.23V18.641a10.043,10.043,0,0,1,.128-1.52c.124.011.247.022.376.022,1.438,0,2.522-.651,2.522-1.513a1.372,1.372,0,0,0-.9-1.176l.074-.816a1.058,1.058,0,0,1,.439.2Zm-2.2-4.761h.132a.944.944,0,0,1,.943.943.807.807,0,0,1,0,.086l-.458,5.038.385.124c.442.141.581.327.581.367,0,.126-.537.5-1.513.5s-1.513-.379-1.513-.5c0-.04.139-.226.581-.368l.385-.124L22.7,10.1c0-.029,0-.058,0-.086a.944.944,0,0,1,.943-.943Zm-1.629,4.582.073.8a1.372,1.372,0,0,0-.9,1.176c0,.556.454,1.021,1.158,1.283a11.114,11.114,0,0,0-.149,1.729v2.048a11.086,11.086,0,0,0,.2,2.066L19.409,22.3a6.074,6.074,0,0,1-.249-1.706V18.738a6.145,6.145,0,0,1,2.467-4.9A1.128,1.128,0,0,1,22.006,13.653Zm-5.452,8.2a5.867,5.867,0,0,1-.42-2.167V18.63a6,6,0,0,1,2.439-4.8,1.137,1.137,0,0,1,.67-.219,1.115,1.115,0,0,1,.79.328,7.146,7.146,0,0,0-1.882,4.8v1.853a7.065,7.065,0,0,0,.175,1.539ZM16.6,6.7l.092.519.515-.115a2.014,2.014,0,0,1,1.878,3.378l-.347.354.347.354a2.006,2.006,0,0,1,.579,1.412c0,.015,0,.03,0,.046a2.09,2.09,0,0,0-1.688.371,7.033,7.033,0,0,0-2.131,2.562q-.287-.893-.6-1.707a7.155,7.155,0,0,1,2.215-3.906l-.316-.393-.315-.394a7.984,7.984,0,0,0-2.2,3.181,31.347,31.347,0,0,0-2.1-4.069l-.849.546A29.691,29.691,0,0,1,13.352,12a8.311,8.311,0,0,0-3.322-.4l.1,1c.759-.076,2.908-.039,3.912.985.354.869.7,1.822,1.01,2.843a8.539,8.539,0,0,0-3.458-.8v1.009a6.781,6.781,0,0,1,3.6,1.072,6.812,6.812,0,0,0-.068.92v1.061a6.883,6.883,0,0,0,.3,1.994l-2.869-.441c-.151-.023-.3-.039-.458-.05a2.015,2.015,0,0,1-1.879-2.75l.147-.386-.35-.221a2.007,2.007,0,0,1-.608-2.816l.314-.472-.505-.257a3.023,3.023,0,0,1,.535-5.605l.313-.09.047-.322A2.023,2.023,0,0,1,12.1,6.549a.4.4,0,0,1,.055.007c.035.005.071.01.107.012l.362.029.142-.334A2.014,2.014,0,0,1,16.6,6.7ZM7.914,18.152H7.558a2,2,0,0,1-1.879-2.735l.148-.386-.35-.221a2.007,2.007,0,0,1-.609-2.816l.314-.472-.505-.257a3.023,3.023,0,0,1,.534-5.605l.313-.09.047-.322A2.023,2.023,0,0,1,7.558,3.522a.421.421,0,0,1,.057.007c.034,0,.069.009.1.012l.363.03.143-.335a2.014,2.014,0,0,1,3.837.438l.092.519.515-.115a1.85,1.85,0,0,1,1.1.073A3.02,3.02,0,0,0,12,5.542,3.041,3.041,0,0,0,9.177,7.814a4.032,4.032,0,0,0-.863,7.113,3.014,3.014,0,0,0,.844,3.531,2.917,2.917,0,0,0-.087.7,3.036,3.036,0,0,0,.985,2.239,5.5,5.5,0,0,0-.864.333ZM3.522,24.81v-.2a.411.411,0,0,1,.493-.395l2.4.534c-.059.152-.111.307-.156.466H3.927A.405.405,0,0,1,3.522,24.81ZM2.009,26.728a.505.505,0,0,1,.5-.5H6.07c-.015.166-.025.334-.025.5s.011.338.026.5H2.513a.505.505,0,0,1-.5-.5ZM4.014,29.24a.415.415,0,0,1-.492-.395v-.2a.405.405,0,0,1,.4-.4H6.26c.045.158.1.313.156.466Zm27.254-2.513A1.838,1.838,0,0,1,29.7,28.554L12.4,31.215a4.55,4.55,0,0,1-.691.053h-.119a4.54,4.54,0,1,1,0-9.08h.119a4.6,4.6,0,0,1,.691.052L29.7,24.9A1.838,1.838,0,0,1,31.268,26.728Zm0-7.037a5.972,5.972,0,0,1-1.721,4.166l-1-.154a7.236,7.236,0,0,0,.705-3.111V18.738a7.237,7.237,0,0,0-1.856-4.819,1.115,1.115,0,0,1,.765-.308,1.13,1.13,0,0,1,.67.22,6,6,0,0,1,2.439,4.8Z" transform="translate(-1 -1)" fill="#041d2c"/>
      <path id="Path_5904" data-name="Path 5904" d="M21,47h1.009v5.045H21Z" transform="translate(-10.911 -23.795)" fill="#041d2c"/>
      <path id="Path_5905" data-name="Path 5905" d="M29,47h1.009v5.045H29Z" transform="translate(-14.875 -23.795)" fill="#041d2c"/>
      <path id="Path_5906" data-name="Path 5906" d="M37,47h1.009v5.045H37Z" transform="translate(-18.839 -23.795)" fill="#041d2c"/>
      <path id="Path_5907" data-name="Path 5907" d="M45,49h1.009v3.027H45Z" transform="translate(-22.804 -24.786)" fill="#041d2c"/>
      <path id="Path_5908" data-name="Path 5908" d="M53,50h1.009v2.018H53Z" transform="translate(-26.768 -25.281)" fill="#041d2c"/>
    </g>
  </g>
</svg>
