<svg xmlns="http://www.w3.org/2000/svg" width="32.2" height="32" viewBox="0 0 32.2 32">
  <g id="cat_lojas" transform="translate(-150.8 -132)">
    <rect id="Rectangle_8230" data-name="Rectangle 8230" width="32" height="32" transform="translate(151 132)" fill="none"/>
    <g id="shop" transform="translate(151 135)">
      <g id="Group_10672" data-name="Group 10672">
        <g id="Group_10671" data-name="Group 10671">
          <path id="Path_5860" data-name="Path 5860" d="M1.443,73.048h.523V59.2A4.349,4.349,0,0,1,0,55.549a.473.473,0,0,1,.061-.232l3.65-6.484A1.443,1.443,0,0,1,4.964,48.1H26.44a1.443,1.443,0,0,1,1.253.738l3.65,6.484a.473.473,0,0,1,.061.232A4.349,4.349,0,0,1,29.437,59.2V73.048h.523a.467.467,0,0,1,0,.934H1.443a.467.467,0,0,1,0-.934ZM30.452,56.016H28.977a.467.467,0,0,1,0-.934h1.174L26.894,49.3a.523.523,0,0,0-.454-.268H4.964a.523.523,0,0,0-.454.268L1.253,55.083H2.427a.467.467,0,0,1,0,.934H.952A3.372,3.372,0,0,0,4.271,58.95a3.372,3.372,0,0,0,3.318-2.934h-3.2a.467.467,0,0,1,0-.934H27.01a.467.467,0,0,1,0,.934h-3.2a3.344,3.344,0,0,0,6.637,0Zm-21.879,0a3.343,3.343,0,0,0,6.636,0Zm7.621,0a3.343,3.343,0,0,0,6.636,0ZM5.345,73.048h4.98V71.487H5.345Zm0-2.5h4.98V62H5.345Zm-2.458,2.5H4.425V61.538a.463.463,0,0,1,.46-.467h5.9a.463.463,0,0,1,.46.467v11.51H28.517v-13.4a4.193,4.193,0,0,1-1.384.235,4.269,4.269,0,0,1-3.81-2.379,4.242,4.242,0,0,1-7.621,0,4.242,4.242,0,0,1-7.621,0,4.269,4.269,0,0,1-3.81,2.379,4.2,4.2,0,0,1-1.384-.235Z" transform="translate(0 -48.096)" fill="#072a40" stroke="#072a40" stroke-width="0.4"/>
        </g>
      </g>
      <g id="Group_10674" data-name="Group 10674" transform="translate(12.505 12.975)">
        <g id="Group_10673" data-name="Group 10673">
          <path id="Path_5861" data-name="Path 5861" d="M72.612,256.516H86.086a.467.467,0,0,1,.467.467v9.482a.467.467,0,0,1-.467.467H72.612a.467.467,0,0,1-.467-.467v-9.482A.467.467,0,0,1,72.612,256.516ZM73.079,266h12.54V257.45H73.079Z" transform="translate(-72.145 -256.516)" fill="#072a40" stroke="#072a40" stroke-width="0.4"/>
        </g>
      </g>
    </g>
  </g>
</svg>
