<svg xmlns="http://www.w3.org/2000/svg" width="32" height="32" viewBox="0 0 32 32">
  <g id="cat_da_banda" transform="translate(-4911 190.035)">
    <rect id="Rectangle_8277" data-name="Rectangle 8277" width="32" height="32" transform="translate(4911 -190.035)" fill="none"/>
    <g id="eat" transform="translate(4913.555 -188.383)">
      <g id="Group_12868" data-name="Group 12868" transform="translate(0 0)">
        <g id="Group_12867" data-name="Group 12867">
          <g id="Group_12866" data-name="Group 12866">
            <path id="Path_6081" data-name="Path 6081" d="M59.471,12.741a12.723,12.723,0,0,0-1.841-6.6,2.719,2.719,0,0,1,1.305-1.075.542.542,0,0,0,0-1.014,3.221,3.221,0,0,1-1.8-2.126.542.542,0,0,0-1.034,0,3.906,3.906,0,0,1-.772,1.412,12.829,12.829,0,0,0-1.511-1.188.418.418,0,0,0-.466.695,11.932,11.932,0,0,1,1.323,1.031,2.475,2.475,0,0,1-.373.176.542.542,0,0,0,0,1.014,3.221,3.221,0,0,1,1.8,2.126.542.542,0,0,0,1.034,0c.015-.046.031-.1.049-.147a11.9,11.9,0,0,1-3.158,15.092l-.388-3.624a8.994,8.994,0,0,0-1.378-12.88L52.075,3.9a1.443,1.443,0,0,0-1.941-1.177,1.422,1.422,0,0,0-.464.295,1.523,1.523,0,0,0-.444,1.069,9,9,0,0,0-6.411.545l-1.6-.211a.709.709,0,0,0-.794.609l-.2,1.488a8.99,8.99,0,0,0-.22,12.212l-.462,3.495a11.9,11.9,0,0,1,12.165-20.3.418.418,0,1,0,.35-.76,12.744,12.744,0,0,0-18.07,11.576,12.657,12.657,0,0,0,3.732,9.009,12.867,12.867,0,0,0,1.7,1.426l-.1.726a.418.418,0,0,0,.83.11l1.21-9.157,1.313.173L41.061,27.236c-.1.791-1.416.611-1.313-.175l.147-1.115a.418.418,0,1,0-.83-.11l-.148,1.117a1.426,1.426,0,0,0,.284,1.061,1.52,1.52,0,0,0,2.688-.669l.353-2.674a12.833,12.833,0,0,0,9.036-.023l.285,2.662a1.527,1.527,0,0,0,2.671.735,1.426,1.426,0,0,0,.31-1.054l-.415-3.877a12.893,12.893,0,0,0,1.608-1.364,12.658,12.658,0,0,0,3.732-9.009ZM56.618,6.231a3.925,3.925,0,0,0-1.453-1.67,3.925,3.925,0,0,0,1.453-1.67,3.924,3.924,0,0,0,1.453,1.67A3.925,3.925,0,0,0,56.618,6.231ZM54.9,12.741A8.124,8.124,0,0,1,53.508,17.3l-.318-2.968-.8-7.477A8.148,8.148,0,0,1,54.9,12.741ZM50.066,4.021a.59.59,0,0,1,1.176-.035L52.314,14,51,14.145l-.122-1.138a1.42,1.42,0,0,0-.5-.936l-.45-.383a.594.594,0,0,1-.207-.478Zm-3.336.547a8.137,8.137,0,0,1,2.455.378l-.3,6.224a1.436,1.436,0,0,0,.5,1.156c.255.217.6.411.655.77l.166,1.554.556,5.193a8.152,8.152,0,0,1-7.9.1l.689-5.218.258-1.949a.259.259,0,0,1,.165-.213,2.322,2.322,0,0,0,1.5-1.886l.646-4.893a.708.708,0,0,0-.609-.794l-.957-.126a8.147,8.147,0,0,1,2.165-.291Zm-5.887,7.812-.257,1.949-.43,3.258a8.155,8.155,0,0,1-.137-9.5l-.243,1.837a2.322,2.322,0,0,0,.964,2.212A.259.259,0,0,1,40.843,12.381Zm.627,1.644.2-1.534a1.089,1.089,0,0,0-.462-1.049,1.479,1.479,0,0,1-.606-1.411l.629-4.766.781.1L41.49,9.349a.418.418,0,1,0,.83.11l.526-3.981.828.109-.526,3.981a.418.418,0,1,0,.83.11L44.5,5.7l.781.1-.63,4.766a1.479,1.479,0,0,1-.952,1.206,1.089,1.089,0,0,0-.718.893l-.2,1.534Zm5.26,10.62a11.84,11.84,0,0,1-4.373-.833l.4-2.991a8.987,8.987,0,0,0,8.11-.078l.325,3.034A11.839,11.839,0,0,1,46.73,24.645Zm6.854,2.875a.717.717,0,0,1-.529.233.6.6,0,0,1-.659-.531l-1.31-12.244,1.317-.141,1.31,12.244A.594.594,0,0,1,53.584,27.52Z" transform="translate(-33.303 0)" fill="#072a40"/>
            <path id="Path_6082" data-name="Path 6082" d="M25.771,385.027a2.472,2.472,0,0,1-1.376-1.632.516.516,0,0,0-.985,0h0a2.473,2.473,0,0,1-1.376,1.632.516.516,0,0,0,0,.966,2.473,2.473,0,0,1,1.376,1.633.516.516,0,0,0,.985,0,2.472,2.472,0,0,1,1.376-1.632.516.516,0,0,0,0-.966ZM23.9,386.646a3.177,3.177,0,0,0-.994-1.136,3.175,3.175,0,0,0,.994-1.136,3.177,3.177,0,0,0,.994,1.136A3.176,3.176,0,0,0,23.9,386.646Z" transform="translate(-21.699 -361.665)" fill="#072a40"/>
          </g>
        </g>
      </g>
    </g>
  </g>
</svg>
