<svg xmlns="http://www.w3.org/2000/svg" width="32" height="32" viewBox="0 0 32 32">
  <g id="cat_portuguesa" transform="translate(-194 -439.709)">
    <rect id="Rectangle_8277" data-name="Rectangle 8277" width="32" height="32" transform="translate(194 439.709)" fill="none"/>
    <g id="lunch" transform="translate(194 440)">
      <path id="Path_5898" data-name="Path 5898" d="M35.481,15.287A15.2,15.2,0,0,0,34.4,9.635a5.812,5.812,0,0,0-6.513-7.56A15.347,15.347,0,0,0,16.966.342a8.252,8.252,0,0,0-4.512.021A9.075,9.075,0,0,0,7.688,3.074a5.386,5.386,0,0,0-.838,4.75,15.287,15.287,0,0,0-1.943,7.463,15.48,15.48,0,0,0,.134,2.032.477.477,0,1,0,.945-.126,14.528,14.528,0,0,1-.126-1.907A14.357,14.357,0,0,1,7.126,9.392c.077,1.476-.156,2.99.431,4.395a4.1,4.1,0,0,0,2.957,2.458A9.735,9.735,0,0,0,11.7,20.022a6.52,6.52,0,0,1-.687.508l-2.03,1.3a.491.491,0,0,0-.075.743l1.439,1.4,1.4,1.361h0l1.439,1.4a.481.481,0,0,0,.591.059l2.062-1.331a7.516,7.516,0,0,0,1.211-.975,9.7,9.7,0,0,0,1.762.424l.107.013-1.878,1.2a.491.491,0,0,0-.075.743l2.808,2.736c-.285-.008-.57-.024-.852-.049a14.425,14.425,0,0,1-12.467-10.2.477.477,0,0,0-.914.271,15.3,15.3,0,0,0,13.3,10.881c.452.04.911.06,1.363.06.933-.214.87.878,1.631.528l1.236-.8a15.276,15.276,0,0,0,12.42-15.018ZM33.745,7.8a4.857,4.857,0,1,1-4.857-4.857A4.862,4.862,0,0,1,33.745,7.8ZM18.914,1.009A14.458,14.458,0,0,1,26.6,2.46a5.839,5.839,0,0,0-3.259,3.618,9.662,9.662,0,0,0-2.539-.5c.253-2.53-.59-3.729-2.119-4.545l.234-.023ZM8.843,14.129c-1.313-1.747-.421-4.088-.951-6.055-.954-3.536.446-5.506,4.832-6.8a7.229,7.229,0,0,1,4.68.217c1.832.731,2.712,1.56,2.44,4.064-.116,1.07.58,2.066,1.318,3.121.789,1.128,1.6,2.294,1.253,3.435l-1.7-1.66a.491.491,0,0,0-.749.109l-.919,1.641a6.527,6.527,0,0,1-1.76,2.018c-2.167.314-4.407,1.554-6.637,1.076A2.953,2.953,0,0,1,8.843,14.129Zm10.569,3.323A7.871,7.871,0,0,0,16.9,19.495c-.648.835-.99,1.837-1.7,2.637a13.945,13.945,0,0,1-3.067,2.259l-.7-.678c.6-.387,1.225-.756,1.811-1.171a7.5,7.5,0,0,0,1.8-1.816c.5-.714.8-1.539,1.367-2.206,1.048-1.223,2.616-1.741,3.732-2.889a12.156,12.156,0,0,0,1.778-2.657l.69.672a8.906,8.906,0,0,1-3.207,3.806Zm-7.865-1.111A14.047,14.047,0,0,0,15,15.752a6.31,6.31,0,0,0-1.643,2.122,6.539,6.539,0,0,1-.959,1.452,8.784,8.784,0,0,1-.921-2.986h.065Zm-.024,4.992a7.512,7.512,0,0,0,2.2-2.175,13.944,13.944,0,0,1,1.517-2.325,14.834,14.834,0,0,1,2.348-1.657,7.518,7.518,0,0,0,2.1-2.2c.285-.457.535-.938.8-1.407l.732.713a13.345,13.345,0,0,1-1.583,2.5c-1.158,1.287-2.865,1.828-3.989,3.167a18.283,18.283,0,0,0-1.239,2.019A6.569,6.569,0,0,1,12.6,21.832c-.608.416-1.241.8-1.862,1.2L10,22.31Zm3.792,3.335-1.742,1.124-.738-.719c.651-.417,1.329-.81,1.95-1.272a7.5,7.5,0,0,0,1.761-1.856c.428-.642.7-1.366,1.189-1.967,1.043-1.276,2.645-1.795,3.786-2.957a12.072,12.072,0,0,0,1.8-2.686l.733.714c-.292.525-.566,1.065-.885,1.575a8,8,0,0,1-2.833,2.517A7.045,7.045,0,0,0,17.873,21.6,7.955,7.955,0,0,1,15.315,24.667Zm2.415-.956a7.442,7.442,0,0,0,.8-1.3,6.158,6.158,0,0,1,2.82-2.747l.009-.005a7.48,7.48,0,0,0,2.824-2.859l.89-1.6a.477.477,0,0,0-.084-.573L23.158,12.84a3.894,3.894,0,0,0,.158-.412c.512-1.6-.49-3.03-1.374-4.294a9.8,9.8,0,0,1-.977-1.589,8.7,8.7,0,0,1,2.165.47,5.81,5.81,0,0,0,5.677,6.593,8.824,8.824,0,0,1,.154,1.342c-.215-.268-.628-.518-.945-.083L27.1,16.509a6.526,6.526,0,0,1-2.467,2.483,7.06,7.06,0,0,0-3.214,3.185,6.529,6.529,0,0,1-1.371,1.883,8.865,8.865,0,0,1-1.106-.086,8.732,8.732,0,0,1-1.21-.262Zm12.254-6.434.69.672a13.029,13.029,0,0,1-1.63,2.551c-1.139,1.24-2.793,1.772-3.9,3.064a14.583,14.583,0,0,0-1.217,1.969,6.552,6.552,0,0,1-1.779,1.9c-.633.449-1.307.847-1.96,1.266l-.7-.678c.651-.418,1.329-.81,1.95-1.272A7.5,7.5,0,0,0,23.2,24.887c.427-.642.7-1.366,1.189-1.967,1.034-1.264,2.617-1.781,3.754-2.925A11.954,11.954,0,0,0,29.984,17.277ZM19.578,25.636A7.553,7.553,0,0,0,22.2,22.742,6.461,6.461,0,0,1,24.617,20.1a9.239,9.239,0,0,0,2.856-2.41,18.621,18.621,0,0,0,1.072-1.816l.732.713A14.248,14.248,0,0,1,27.8,18.963c-1.159,1.355-2.92,1.9-4.078,3.267a19.664,19.664,0,0,0-1.292,2.094,6.571,6.571,0,0,1-1.787,1.816c-.606.414-1.236.8-1.854,1.192l-.738-.719ZM21.628,30.1l-.738-.719,1.524-.978a6.671,6.671,0,0,0,2.542-2.741,6.838,6.838,0,0,1,2.422-2.747,9.708,9.708,0,0,0,2.88-2.388,17.716,17.716,0,0,0,1.123-1.884l.733.714a12.807,12.807,0,0,1-1.6,2.514c-1.154,1.263-2.839,1.8-3.952,3.123A17.647,17.647,0,0,0,25.333,27a6.611,6.611,0,0,1-1.886,1.923c-.6.4-1.213.784-1.819,1.175Zm3.526-1.354.035-.035a7.455,7.455,0,0,0,1.392-2,6.158,6.158,0,0,1,2.82-2.747l.009-.005A7.48,7.48,0,0,0,32.235,21.1l.89-1.6a.477.477,0,0,0-.084-.573l-3.136-3.055c.011-.194.017-.389.017-.582a9.81,9.81,0,0,0-.156-1.744,5.822,5.822,0,0,0,4.063-2.69,14.355,14.355,0,0,1-8.675,17.888Z" transform="translate(-4.907 0)" fill="#072a40"/>
      <path id="Path_5899" data-name="Path 5899" d="M110.04,89.432a3.173,3.173,0,1,0-3.174-3.118A3.207,3.207,0,0,0,110.04,89.432Zm-.628-5.3a2.22,2.22,0,1,1-1.545,2.588A2.242,2.242,0,0,1,109.412,84.129Z" transform="translate(-100.657 -78.026)" fill="#072a40"/>
      <path id="Path_5900" data-name="Path 5900" d="M339.389,73.554a3.764,3.764,0,1,0-2.4-4.152A3.793,3.793,0,0,0,339.389,73.554Zm.333-6.162a2.811,2.811,0,1,1-1.778,3.17A2.834,2.834,0,0,1,339.722,67.392Z" transform="translate(-316.721 -62.228)" fill="#072a40"/>
    </g>
  </g>
</svg>
