<svg xmlns="http://www.w3.org/2000/svg" width="32" height="32" viewBox="0 0 32 32">
  <g id="cat_matabixos" transform="translate(-11726 -1828.689)">
    <rect id="Rectangle_8277" data-name="Rectangle 8277" width="32" height="32" transform="translate(11726 1828.689)" fill="none"/>
    <g id="Page-1" transform="translate(11726.806 1831.694)">
      <g id="_008---Coffee-and-Croissant" data-name="008---Coffee-and-Croissant" transform="translate(0)">
        <path id="Shape" d="M29.012,29.091H25.618a7,7,0,0,0,3.106-2.624.956.956,0,0,0,.055-.88c-.033-.075-.074-.166-.121-.265a9.19,9.19,0,0,0,1.316-2.835,10.46,10.46,0,0,0,.157-3.341,1.228,1.228,0,0,0-.82-1.027c-.51-2.449-1.2-2.84-1.43-2.969a1.116,1.116,0,0,0-.968-.068c-1.246.475-1.251,1.588-1.255,2.57,0,.235-.008.475-.023.715a1.429,1.429,0,0,0-1.031.94,3.455,3.455,0,0,1-.415.828,6.108,6.108,0,0,0-.641-.295.919.919,0,0,0-.645,0l-2.584.987a.937.937,0,0,0-.479.415,6.867,6.867,0,0,0-.323.673,3.463,3.463,0,0,1-.4-.148V16.006A1.006,1.006,0,0,0,18.117,15H6.039a1.006,1.006,0,0,0-1.006,1.006v.685a5.662,5.662,0,0,0-1.424-.182C0,16.51,0,20.475,0,21.779c0,2.913,1.416,4.8,3.608,4.8a6.366,6.366,0,0,0,1.717-.246,5.5,5.5,0,0,0,2.054,2.762H3.2A1.093,1.093,0,0,0,2.013,30.1V31.1a2.3,2.3,0,0,0,2.541,2.013h23.1A2.3,2.3,0,0,0,30.195,31.1V30.1a1.093,1.093,0,0,0-1.183-1.006ZM27.27,16.02a.115.115,0,0,1,.119.006c.086.048.5.365.879,2.032-.423.018-.972.055-1.61.137.007-.188.008-.371.009-.541C26.668,16.61,26.719,16.229,27.27,16.02Zm-1.7,3.592a.429.429,0,0,1,.337-.284c.093-.019.185-.033.287-.05a16.7,16.7,0,0,1,2.659-.233h.033a.236.236,0,0,1,.249.2,9.445,9.445,0,0,1-.134,3,7.577,7.577,0,0,1-.874,2.037,11.524,11.524,0,0,0-3.075-3.623A4.457,4.457,0,0,0,25.565,19.612Zm-4.856,2.144,2.523-.964c2.694,1.059,4.328,4.515,4.63,5.163a6.516,6.516,0,0,1-3.477,2.574,8.389,8.389,0,0,1-2.469.561h-.664a3.982,3.982,0,0,1-1.034-.186c-.029-.123-.067-.292-.106-.5-.24-1.247-.658-4.379.595-6.653Zm-3.065,6.558a9.547,9.547,0,0,0,1.542.59c.015.07.029.13.042.187H16.758A5.555,5.555,0,0,0,17.643,28.314Zm1.345-.532A6.72,6.72,0,0,1,17.1,26.8a8.671,8.671,0,0,1-1.889-2.219.3.3,0,0,1,.091-.367l.019-.018a17.879,17.879,0,0,1,2.21-1.626c.08-.05.16-.1.257-.161a.368.368,0,0,1,.388-.009,4.026,4.026,0,0,0,1.014.46A12.484,12.484,0,0,0,18.988,27.782ZM14.632,20.9a.168.168,0,0,1,.11-.112c.533-.2.778.039,1.4.836.107.136.221.282.344.429-.549.368-1,.709-1.341.984a3.6,3.6,0,0,1-.511-2.136Zm-9.6,2.338a3.6,3.6,0,0,1-1.424.316c-.382,0-.589-.915-.589-1.776,0-2.25.34-2.25.589-2.25a2.146,2.146,0,0,1,1.424.466ZM1.006,21.78c0-1.986.3-4.264,2.6-4.264a4.535,4.535,0,0,1,1.424.222V18.82a3.362,3.362,0,0,0-1.424-.3c-1.474,0-1.6,1.54-1.6,3.256,0,1.743.6,2.783,1.6,2.783a4.413,4.413,0,0,0,1.424-.252v.252a5.446,5.446,0,0,0,.063.786,5.4,5.4,0,0,1-1.488.221c-1.629,0-2.6-1.417-2.6-3.789Zm5.15,3.8a4.429,4.429,0,0,1-.117-1.019V16.006H18.117v5.357a1.369,1.369,0,0,0-.763.151c-.145-.166-.285-.337-.419-.508-.57-.731-1.278-1.642-2.55-1.157a1.17,1.17,0,0,0-.69.687c-.262.676-.034,1.741.684,3.236a1.268,1.268,0,0,0-.023,1.342A9.683,9.683,0,0,0,16.484,27.6c.088.068.179.13.27.192a4.491,4.491,0,0,1-3.166,1.3H10.568a4.5,4.5,0,0,1-4.412-3.512ZM29.188,31.1c0,.546-.7,1.006-1.535,1.006H4.554c-.83,0-1.535-.461-1.535-1.006v-.961A.321.321,0,0,1,3.2,30.1H29.012a.321.321,0,0,1,.176.046Z" transform="translate(0 -7.451)" fill="#072a40"/>
        <path id="Shape-2" data-name="Shape" d="M22,5.536a.5.5,0,0,0,1.006,0,1.3,1.3,0,0,1,.393-.944,2.322,2.322,0,0,0,0-3.145A1.3,1.3,0,0,1,23.006.5.5.5,0,0,0,22,.5a2.278,2.278,0,0,0,.613,1.573,1.329,1.329,0,0,1,0,1.887A2.278,2.278,0,0,0,22,5.536Z" transform="translate(-10.929)" fill="#072a40"/>
        <path id="Shape-3" data-name="Shape" d="M16,5.536a.5.5,0,0,0,1.006,0,1.3,1.3,0,0,1,.393-.944,2.322,2.322,0,0,0,0-3.145A1.3,1.3,0,0,1,17.006.5.5.5,0,0,0,16,.5a2.278,2.278,0,0,0,.613,1.573,1.329,1.329,0,0,1,0,1.887A2.278,2.278,0,0,0,16,5.536Z" transform="translate(-7.948)" fill="#072a40"/>
        <path id="Shape-4" data-name="Shape" d="M28,5.536a.5.5,0,0,0,1.006,0,1.3,1.3,0,0,1,.393-.944,2.322,2.322,0,0,0,0-3.145A1.3,1.3,0,0,1,29.006.5.5.5,0,0,0,28,.5a2.278,2.278,0,0,0,.613,1.573,1.329,1.329,0,0,1,0,1.887A2.278,2.278,0,0,0,28,5.536Z" transform="translate(-13.909)" fill="#072a40"/>
      </g>
    </g>
  </g>
</svg>
