<svg xmlns="http://www.w3.org/2000/svg" width="32" height="32" viewBox="0 0 32 32">
  <g id="cat_arabe" transform="translate(-7719 250)">
    <rect id="Rectangle_8088" data-name="Rectangle 8088" width="32" height="32" transform="translate(7719 -250)" fill="none"/>
    <g id="tajine" transform="translate(7720.5 -280)">
      <path id="Path_6131" data-name="Path 6131" d="M27.359,52.95H24.465L17.916,39.295a.419.419,0,0,0-.756.363l1.573,3.281H9.883l2.677-5.581h3.5l.33.688a.419.419,0,0,0,.756-.363l-.4-.84V33.919a.419.419,0,0,0-.419-.419H12.3a.419.419,0,0,0-.419.419v2.923L4.152,52.95H1.258a1.258,1.258,0,1,0,0,2.515H1.5l1.223,1.9a2.169,2.169,0,0,0,1.833,1h16.9a.419.419,0,1,0,0-.838H4.56a1.334,1.334,0,0,1-1.127-.616L2.5,55.465H26.116l-.932,1.452a1.334,1.334,0,0,1-1.127.616h-.793a.419.419,0,1,0,0,.838h.793a2.169,2.169,0,0,0,1.833-1l1.223-1.9h.246a1.258,1.258,0,0,0,0-2.515Zm-8.224-9.174,1.749,3.646H7.732l1.749-3.646Zm-6.42-9.438H15.9v2.18H12.715ZM27.359,54.627H1.258a.419.419,0,1,1,0-.838H6.324a.419.419,0,0,0,0-.838H5.081L7.33,48.261H21.286l2.249,4.689H8.113a.419.419,0,0,0,0,.838H27.359a.419.419,0,0,1,0,.838Z" fill="#072a40"/>
    </g>
  </g>
</svg>
