<svg xmlns="http://www.w3.org/2000/svg" width="32" height="32" viewBox="0 0 32 32">
  <g id="cat_sushi" transform="translate(-40 -439.925)">
    <rect id="Rectangle_8277" data-name="Rectangle 8277" width="32" height="32" transform="translate(40 439.925)" fill="none"/>
    <g id="sushi" transform="translate(40 442.279)">
      <path id="Path_5893" data-name="Path 5893" d="M233.411,340.105a.462.462,0,0,0-.462.462v.767a.462.462,0,0,0,.925,0v-.767A.462.462,0,0,0,233.411,340.105Zm0,0" transform="translate(-218.591 -319.174)" fill="#072a40"/>
      <path id="Path_5894" data-name="Path 5894" d="M138.591,340.105a.462.462,0,0,0-.462.462v.767a.462.462,0,0,0,.925,0v-.767A.462.462,0,0,0,138.591,340.105Zm0,0" transform="translate(-129.615 -319.174)" fill="#072a40"/>
      <path id="Path_5895" data-name="Path 5895" d="M176.267,349.256a.472.472,0,0,0-.64.132.381.381,0,0,1-.316.17.373.373,0,0,1-.316-.17.462.462,0,0,0-.773.508,1.3,1.3,0,0,0,2.177,0A.462.462,0,0,0,176.267,349.256Zm0,0" transform="translate(-163.413 -327.689)" fill="#072a40"/>
      <path id="Path_5896" data-name="Path 5896" d="M142.767,221.506a.462.462,0,0,0,.433-.817c-.341-.181-.545-.407-.545-.6s.2-.423.545-.6a4.1,4.1,0,0,1,3.385,0c.341.181.545.407.545.6s-.2.423-.545.6a3.749,3.749,0,0,1-1.693.366.462.462,0,1,0,0,.925c1.8,0,3.162-.815,3.162-1.894s-1.36-1.894-3.162-1.894-3.162.814-3.162,1.894A1.669,1.669,0,0,0,142.767,221.506Zm0,0" transform="translate(-132.995 -204.774)" fill="#072a40"/>
      <path id="Path_5897" data-name="Path 5897" d="M29.731,10.257A12.94,12.94,0,0,0,20.5,8.173l2.678-2.065a1.6,1.6,0,0,0-1.859-2.592L19.737,4.567l1.09-1.552A1.6,1.6,0,0,0,18.28,1.093l-7.832,9.661L8.423,12.1A6.336,6.336,0,0,0,5.568,14L1.087,16.99a2.436,2.436,0,0,0-.629,3.447,2.381,2.381,0,0,0,1.973,1.016,2.423,2.423,0,0,0,.969,2,2.352,2.352,0,0,0,2.074.415A4.886,4.886,0,0,0,7.066,25.28,9.719,9.719,0,0,0,11.9,26.458a9.721,9.721,0,0,0,4.833-1.178,4.516,4.516,0,0,0,1.829-1.818,2.2,2.2,0,0,0,2.184-.317.266.266,0,0,1,.33,0,2.363,2.363,0,0,0,2.785,0,.276.276,0,0,1,.33,0,2.365,2.365,0,0,0,3.553-.948.277.277,0,0,1,.243-.167,2.363,2.363,0,0,0,2.25-2.711.286.286,0,0,1,.117-.272,2.349,2.349,0,0,0,.939-1.869,2.307,2.307,0,0,0-.366-1.259A4.179,4.179,0,0,0,29.731,10.257ZM22.626,8.948a5.932,5.932,0,0,1,.481,2.952.653.653,0,0,1-.709.589.666.666,0,0,1-.589-.715,4.7,4.7,0,0,0-.623-2.759C21.61,8.97,22.573,8.948,22.626,8.948Zm-2.445.217a3.757,3.757,0,0,1,.708,2.536,1.464,1.464,0,0,0,1.571,1.714,1.578,1.578,0,0,0,1.568-1.432A6.866,6.866,0,0,0,23.645,9a11.94,11.94,0,0,1,2,.369,3.789,3.789,0,0,1,.057,2.49,1.564,1.564,0,0,0,1,1.986,1.51,1.51,0,0,0,1.992-1c.051-.153.1-.309.136-.463a.462.462,0,0,0-.9-.23c-.034.134-.074.269-.118.4a.653.653,0,0,1-.824.413.666.666,0,0,1-.411-.829,4.75,4.75,0,0,0,.124-2.424,12.021,12.021,0,0,1,2.5,1.3,3.254,3.254,0,0,1,.861,4.516,3.406,3.406,0,0,1-4.522.857,5.544,5.544,0,0,0-6.174,0,3.265,3.265,0,0,1-.511.284v-.872a2.9,2.9,0,0,0-.443-1.521,1.578,1.578,0,0,0,1.213-1.835,6.873,6.873,0,0,0-1.166-2.72A15.788,15.788,0,0,1,20.18,9.166Zm-2.66.847a5.94,5.94,0,0,1,1.207,2.615.653.653,0,0,1-.518.762.666.666,0,0,1-.763-.524,4.772,4.772,0,0,0-1.12-2.229A12.026,12.026,0,0,1,17.52,10.013Zm-1.977,1.14a3.805,3.805,0,0,1,.855,1.388,8.368,8.368,0,0,0-1.57-.609A3.229,3.229,0,0,1,15.543,11.153ZM19,1.675a.671.671,0,0,1,1.071.808l-2.455,3.5L13.036,9.03Zm2.829,2.61a.671.671,0,0,1,.782,1.09L18.27,8.721A12.929,12.929,0,0,0,15.2,10.257a4.158,4.158,0,0,0-1.322,1.459,13.92,13.92,0,0,0-3.021-.125ZM7.532,13.52A8.791,8.791,0,0,1,11.9,12.469a8.791,8.791,0,0,1,4.366,1.051,2.843,2.843,0,0,1,1.676,2.291A2.843,2.843,0,0,1,16.265,18.1,8.791,8.791,0,0,1,11.9,19.153,8.791,8.791,0,0,1,7.532,18.1a2.843,2.843,0,0,1-1.676-2.291A2.843,2.843,0,0,1,7.532,13.52ZM1.209,19.9A1.59,1.59,0,0,1,1.6,17.759L4.946,15.53C4.937,15.623,4.931,19,4.931,19L3.361,20.215A1.529,1.529,0,0,1,1.209,19.9Zm2.166,1.368c.194-.081,1.556-1.1,1.556-1.1v2.02a2.772,2.772,0,0,0,.123.816A1.431,1.431,0,0,1,3.375,21.267Zm12.889,3.215A8.791,8.791,0,0,1,11.9,25.533a8.791,8.791,0,0,1-4.366-1.051,2.843,2.843,0,0,1-1.676-2.291V17.958a5.39,5.39,0,0,0,1.21.942A9.719,9.719,0,0,0,11.9,20.078,9.721,9.721,0,0,0,16.731,18.9a5.38,5.38,0,0,0,1.209-.942v4.233A2.843,2.843,0,0,1,16.265,24.482Zm13.53-6.171a1.265,1.265,0,0,0-.473,1.146,1.439,1.439,0,0,1-1.37,1.65,1.2,1.2,0,0,0-1.053.714,1.442,1.442,0,0,1-1.316.854,1.426,1.426,0,0,1-.847-.276,1.2,1.2,0,0,0-1.42,0,1.439,1.439,0,0,1-1.694,0,1.224,1.224,0,0,0-1.42,0,1.53,1.53,0,0,1-1.362.181c.018-.129.028-4.907.028-4.907a4.174,4.174,0,0,0,1.031-.51,4.622,4.622,0,0,1,5.147,0,4.222,4.222,0,0,0,5.235-.486A1.333,1.333,0,0,1,29.794,18.311Zm0,0" transform="translate(0 -0.5)" fill="#072a40"/>
    </g>
  </g>
</svg>
