<svg xmlns="http://www.w3.org/2000/svg" width="32" height="32" viewBox="0 0 32 32">
  <g id="cat_hamburguer" transform="translate(-133 -350.65)">
    <g id="Group_11226" data-name="Group 11226" transform="translate(133 351)">
      <rect id="Rectangle_8088" data-name="Rectangle 8088" width="32" height="32" transform="translate(0 -0.35)" fill="none"/>
      <g id="burger" transform="translate(1.758 1.758)">
        <path id="Path_5878" data-name="Path 5878" d="M286.681,45.2a12.323,12.323,0,0,1,5,1.9,7.791,7.791,0,0,1,2.893,3.335.568.568,0,1,0,1.046-.441,8.917,8.917,0,0,0-3.3-3.834,13.462,13.462,0,0,0-5.461-2.078.568.568,0,0,0-.174,1.122Zm0,0" transform="translate(-269.959 -41.571)" fill="#072a40"/>
        <path id="Path_5879" data-name="Path 5879" d="M99.676,125.991a.567.567,0,1,0,.2-.68A.58.58,0,0,0,99.676,125.991Zm0,0" transform="translate(-93.981 -118.105)" fill="#072a40"/>
        <path id="Path_5880" data-name="Path 5880" d="M147.848,88.747a.567.567,0,1,0,.192-.677A.579.579,0,0,0,147.848,88.747Zm0,0" transform="translate(-139.418 -82.974)" fill="#072a40"/>
        <path id="Path_5881" data-name="Path 5881" d="M199.614,125.991a.567.567,0,1,0,.2-.68A.581.581,0,0,0,199.614,125.991Zm0,0" transform="translate(-188.248 -118.105)" fill="#072a40"/>
        <path id="Path_5882" data-name="Path 5882" d="M29.056,17.986a2.875,2.875,0,0,0-1.92-2.708v-1.42a2.437,2.437,0,0,0,.515-.263,2.241,2.241,0,0,0,1.017-1.881,2.217,2.217,0,0,0-.421-1.306,1.831,1.831,0,0,0,.113-1.051,10.59,10.59,0,0,0-4.7-6.7A16.424,16.424,0,0,0,14.528,0,16.424,16.424,0,0,0,5.395,2.658a10.589,10.589,0,0,0-4.7,6.7A1.83,1.83,0,0,0,.933,10.65a2.207,2.207,0,0,0-.269,1.064A2.241,2.241,0,0,0,1.681,13.6a2.47,2.47,0,0,0,.239.141v1.542A2.875,2.875,0,0,0,0,17.986V18.1a2.863,2.863,0,0,0,.915,2.1,2.238,2.238,0,0,0,.329,2.533v2.048a3.972,3.972,0,0,0,3.968,3.968H23.845a3.972,3.972,0,0,0,3.968-3.968V22.991a2.241,2.241,0,0,0,.5-2.968,2.859,2.859,0,0,0,.74-1.921Zm-1.135,0V18.1a1.738,1.738,0,0,1-1.736,1.736h-8.8L21,16.25h5.181A1.738,1.738,0,0,1,27.921,17.986ZM8.6,16.25l.09.09.582.582L8.055,18.141,6.164,16.25ZM13.96,20l-3.482-3.481h0l-.271-.271h9.183L15.6,20h0l-.818.818ZM1.811,9.566A9.47,9.47,0,0,1,6.031,3.6a15.279,15.279,0,0,1,8.5-2.463,15.279,15.279,0,0,1,8.5,2.463,9.471,9.471,0,0,1,4.219,5.968.713.713,0,0,1-.694.834H2.5A.713.713,0,0,1,1.811,9.566Zm.03,1.845a1.848,1.848,0,0,0,.664.123H26.551a1.851,1.851,0,0,0,.9-.235,1.1,1.1,0,0,1,.081.414,1.122,1.122,0,0,1-.515.939,1.337,1.337,0,0,1-1.143.158c-.189-.06-.368-.137-.563-.179a3.068,3.068,0,0,0-.643-.065,3.111,3.111,0,0,0-1.995.692,2.094,2.094,0,0,1-2.68,0,3.219,3.219,0,0,0-3.989,0,2.094,2.094,0,0,1-2.68,0,3.219,3.219,0,0,0-3.989,0,2.094,2.094,0,0,1-2.68,0,3.109,3.109,0,0,0-1.995-.692,2.873,2.873,0,0,0-1.106.208,1.339,1.339,0,0,1-1.243-.121,1.122,1.122,0,0,1-.515-.939A1.093,1.093,0,0,1,1.841,11.411Zm1.327,2.6a2.757,2.757,0,0,0,.854-.2,1.955,1.955,0,0,1,.871-.1A2.053,2.053,0,0,1,6,14.186a3.219,3.219,0,0,0,3.989,0,2.095,2.095,0,0,1,2.68,0,3.219,3.219,0,0,0,3.989,0,2.095,2.095,0,0,1,2.68,0,3.218,3.218,0,0,0,3.989,0,2.006,2.006,0,0,1,1.34-.485,1.837,1.837,0,0,1,.676.123,2.629,2.629,0,0,0,.656.169v1.121H3.055V14.01ZM1.135,17.986A1.738,1.738,0,0,1,2.871,16.25H4.559l3.095,3.095a.568.568,0,0,0,.8,0l1.62-1.62,2.112,2.112H2.871A1.738,1.738,0,0,1,1.135,18.1ZM1.893,20.8a2.879,2.879,0,0,0,.978.172H13.323l1.053,1.053a.573.573,0,0,0,.8,0l1.064-1.054h9.945a2.887,2.887,0,0,0,.942-.159,1.446,1.446,0,0,0,.188-.075c.019-.01.047-.032.07-.031s.04.042.051.068a1.1,1.1,0,0,1,.1.432,1.181,1.181,0,0,1-.879,1.129,1.344,1.344,0,0,1-.879-.048,2.867,2.867,0,0,0-1.1-.208,3.109,3.109,0,0,0-1.994.693,2.094,2.094,0,0,1-2.68,0,3.219,3.219,0,0,0-3.989,0,2.094,2.094,0,0,1-2.68,0,3.219,3.219,0,0,0-3.989,0,2.094,2.094,0,0,1-2.68,0,3.11,3.11,0,0,0-1.995-.693,2.867,2.867,0,0,0-1.105.208,1.338,1.338,0,0,1-1.152-.066,1.164,1.164,0,0,1-.594-.827,1.12,1.12,0,0,1,0-.317C1.813,21.049,1.865,20.79,1.893,20.8Zm24.785,3.981a2.836,2.836,0,0,1-2.833,2.833H5.211a2.836,2.836,0,0,1-2.833-2.833V23.435A2.458,2.458,0,0,0,3.827,23.4l.029-.01c.044-.015.087-.031.13-.049a1.757,1.757,0,0,1,.676-.124A2,2,0,0,1,6,23.7a3.219,3.219,0,0,0,3.989,0,2.095,2.095,0,0,1,2.68,0,3.219,3.219,0,0,0,3.989,0,2.095,2.095,0,0,1,2.68,0,3.219,3.219,0,0,0,3.989,0,2,2,0,0,1,1.34-.485,1.873,1.873,0,0,1,.5.064c.155.043.3.112.458.155a2.449,2.449,0,0,0,1.048.059v1.286Zm0,0" fill="#072a40"/>
        <path id="Path_5883" data-name="Path 5883" d="M225.226,88.746a.567.567,0,1,0,.2-.68A.58.58,0,0,0,225.226,88.746Zm0,0" transform="translate(-212.406 -82.973)" fill="#072a40"/>
        <path id="Path_5884" data-name="Path 5884" d="M270.345,132.831a.567.567,0,1,0,.2-.68A.58.58,0,0,0,270.345,132.831Zm0,0" transform="translate(-254.964 -124.556)" fill="#072a40"/>
        <path id="Path_5885" data-name="Path 5885" d="M241.338,38.746a.568.568,0,1,0-.215-.673A.579.579,0,0,0,241.338,38.746Zm0,0" transform="translate(-227.407 -35.567)" fill="#072a40"/>
      </g>
    </g>
  </g>
</svg>
