<svg xmlns="http://www.w3.org/2000/svg" width="32" height="32" viewBox="0 0 32 32">
  <g id="cat_gelados" transform="translate(-8605 36.79)">
    <rect id="Rectangle_8277" data-name="Rectangle 8277" width="32" height="32" transform="translate(8605 -36.79)" fill="none"/>
    <g id="ice-cream" transform="translate(8609.832 -35.39)">
      <g id="Group_11695" data-name="Group 11695" transform="translate(0 0)">
        <path id="Path_5973" data-name="Path 5973" d="M192.352,291.494a.428.428,0,0,0-.428.428v3.062a.428.428,0,0,0,.856,0v-3.062A.428.428,0,0,0,192.352,291.494Z" transform="translate(-184.35 -274.852)" fill="#072a40"/>
        <path id="Path_5974" data-name="Path 5974" d="M139.97,291.494a.428.428,0,0,0-.428.428v3.062a.428.428,0,0,0,.856,0v-3.062A.428.428,0,0,0,139.97,291.494Z" transform="translate(-134.959 -274.852)" fill="#072a40"/>
        <path id="Path_5975" data-name="Path 5975" d="M244.733,291.494a.428.428,0,0,0-.428.428v3.062a.428.428,0,0,0,.856,0v-3.062A.428.428,0,0,0,244.733,291.494Z" transform="translate(-233.741 -274.852)" fill="#072a40"/>
        <path id="Path_5976" data-name="Path 5976" d="M297.114,295.412a.428.428,0,0,0,.428-.428v-3.062a.428.428,0,0,0-.856,0v3.062A.428.428,0,0,0,297.114,295.412Z" transform="translate(-283.131 -274.852)" fill="#072a40"/>
        <path id="Path_5977" data-name="Path 5977" d="M349.5,295.412a.428.428,0,0,0,.428-.428v-3.062a.428.428,0,0,0-.856,0v3.062A.428.428,0,0,0,349.5,295.412Z" transform="translate(-332.522 -274.852)" fill="#072a40"/>
        <path id="Path_5978" data-name="Path 5978" d="M163.556,178.511a.428.428,0,1,0-.856,0v0a.428.428,0,1,0,.856,0Z" transform="translate(-156.795 -167.916)" fill="#072a40"/>
        <path id="Path_5979" data-name="Path 5979" d="M147.258,159.122a.428.428,0,1,0-.856,0v0a.428.428,0,0,0,.856,0Z" transform="translate(-141.427 -149.634)" fill="#072a40"/>
        <path id="Path_5980" data-name="Path 5980" d="M130.931,178.511a.428.428,0,0,0-.856,0v0a.428.428,0,0,0,.856,0Z" transform="translate(-126.032 -167.916)" fill="#072a40"/>
        <path id="Path_5981" data-name="Path 5981" d="M238.951,82.586a.428.428,0,0,0-.428.428v0a.428.428,0,1,0,.428-.43Z" transform="translate(-228.289 -77.871)" fill="#072a40"/>
        <path id="Path_5982" data-name="Path 5982" d="M222.624,63.2a.428.428,0,0,0-.428.428v0a.428.428,0,1,0,.428-.43Z" transform="translate(-212.894 -59.589)" fill="#072a40"/>
        <path id="Path_5983" data-name="Path 5983" d="M206.326,82.586a.428.428,0,0,0-.428.428v0a.428.428,0,1,0,.428-.43Z" transform="translate(-197.526 -77.871)" fill="#072a40"/>
        <path id="Path_5984" data-name="Path 5984" d="M80.766,12.675H80.06A5.3,5.3,0,0,0,77.676,7.5L78.8,5.844l0,0L81.27,2.218a.659.659,0,0,0-.175-.914L79.346.114a.659.659,0,0,0-.915.175l-2.379,3.5a.423.423,0,0,0-.029.043l-.669.984a5.332,5.332,0,0,0-1.1-1.636A5.22,5.22,0,0,0,70.5,1.626,5.313,5.313,0,0,0,65.2,6.75,5.285,5.285,0,0,0,62.6,8.061a.428.428,0,0,0,.581.629,4.449,4.449,0,0,1,7.467,3.272,4.491,4.491,0,0,1-.057.713H61.808a4.493,4.493,0,0,1-.057-.713,4.4,4.4,0,0,1,.4-1.854.428.428,0,0,0-.778-.358,5.249,5.249,0,0,0-.483,2.212,5.34,5.34,0,0,0,.048.713h-.706a.968.968,0,0,0-.967.967v1.113a.967.967,0,0,0,.539.866V18.84a3.978,3.978,0,0,0,3.974,3.974h5.1v2.575H66.557a1.923,1.923,0,0,0-1.92,1.922V28.57a.663.663,0,0,0,.661.663h9.925a.664.664,0,0,0,.663-.663V27.311a1.924,1.924,0,0,0-1.922-1.922H71.641V22.814h5.1a3.978,3.978,0,0,0,3.972-3.974V15.722h.052a.968.968,0,0,0,.967-.967V13.642A.968.968,0,0,0,80.766,12.675ZM79.029.934l.809.55-1.274.135Zm-1.1,1.613,2.24-.237L79.5,3.29l-2.24.238Zm-1.3,1.91,2.239-.238-.667.982-2.238.236Zm.941,1.672-.658.967a5.262,5.262,0,0,0-1.12-.347q-.011-.216-.037-.429Zm1.677,5.834a4.484,4.484,0,0,1-.058.713H71.459a5.368,5.368,0,0,0,.048-.713,5.277,5.277,0,0,0-.521-2.292,4.45,4.45,0,0,1,8.266,2.292ZM70.5,8.854a5.3,5.3,0,0,0-4.3-2.2c-.047,0-.095,0-.142,0A4.456,4.456,0,0,1,70.5,2.483a4.37,4.37,0,0,1,3.142,1.3,4.558,4.558,0,0,1,1.29,2.876l-.132,0A5.3,5.3,0,0,0,70.5,8.854Zm4.53,18.457v1.066H65.493V27.311a1.066,1.066,0,0,1,1.064-1.066h7.407A1.067,1.067,0,0,1,75.03,27.311Zm-4.245-1.922H69.737V22.814h1.048ZM80.877,14.755a.112.112,0,0,1-.111.111H71.072a.428.428,0,0,0,0,.856h8.785V18.84a3.12,3.12,0,0,1-3.116,3.118H63.782a3.121,3.121,0,0,1-3.118-3.118V15.722h8.43a.428.428,0,1,0,0-.856H60.236a.112.112,0,0,1-.111-.111V13.642a.112.112,0,0,1,.111-.111h20.53a.112.112,0,0,1,.111.111Z" transform="translate(-59.269 0)" fill="#072a40"/>
        <path id="Path_5985" data-name="Path 5985" d="M323.381,178.51v0a.428.428,0,1,0,.428-.43A.427.427,0,0,0,323.381,178.512Z" transform="translate(-308.302 -167.915)" fill="#072a40"/>
        <path id="Path_5986" data-name="Path 5986" d="M307.51,158.694a.428.428,0,0,0-.428.428v0a.428.428,0,1,0,.428-.43Z" transform="translate(-292.933 -149.634)" fill="#072a40"/>
        <path id="Path_5987" data-name="Path 5987" d="M291.184,178.083a.428.428,0,0,0-.428.428v0a.428.428,0,1,0,.428-.43Z" transform="translate(-277.539 -167.916)" fill="#072a40"/>
      </g>
    </g>
  </g>
</svg>
