<svg xmlns="http://www.w3.org/2000/svg" width="32" height="32" viewBox="0 0 32 32">
  <g id="cat_fusion" transform="translate(-8037 250)">
    <rect id="Rectangle_8277" data-name="Rectangle 8277" width="32" height="32" transform="translate(8037 -250)" fill="none"/>
    <g id="restaurant_copy_2" data-name="restaurant copy 2" transform="translate(8037.8 -326.2)">
      <g id="Group_13537" data-name="Group 13537" transform="translate(4.908 81.7)">
        <g id="Group_13536" data-name="Group 13536" transform="translate(0 0)">
          <path id="Path_6132" data-name="Path 6132" d="M92.171,81.7a10.469,10.469,0,1,0,10.469,10.469A10.481,10.481,0,0,0,92.171,81.7Zm9.442,9.539a.46.46,0,0,1-.459.44H99V90.527a.491.491,0,0,0-.491-.491H92.662v-.981h1.41a.491.491,0,0,0,.491-.491.46.46,0,0,1,.46-.46h.634a.491.491,0,0,0,.491-.491v-1.6H99.38A9.449,9.449,0,0,1,101.614,91.243Zm-9.442-8.557a9.528,9.528,0,0,1,1.286.088,1.411,1.411,0,0,1-2.573,0A9.527,9.527,0,0,1,92.171,82.686Zm-6.193,2.306V90.1H82.913A9.5,9.5,0,0,1,85.979,84.991Zm-3.158,8.792a.767.767,0,0,1,.481-.168h3.311v1.41a3.657,3.657,0,0,1-.694,1.933l-1.046,1.271A9.452,9.452,0,0,1,82.821,93.783Zm9.351,7.878a9.536,9.536,0,0,1-1.286-.088,1.411,1.411,0,0,1,2.573,0A9.538,9.538,0,0,1,92.171,101.661Zm2.267-.275a2.394,2.394,0,0,0-4.535,0,9.484,9.484,0,0,1-4.359-2.43l1.132-1.375a4.6,4.6,0,0,0,.917-2.557v-1.9a.491.491,0,0,0-.491-.491H83.3a1.756,1.756,0,0,0-.6.105c-.011-.187-.017-.375-.017-.565a9.538,9.538,0,0,1,.063-1.093h3.232v.143a.491.491,0,1,0,.981,0V84.249A9.439,9.439,0,0,1,89.9,82.96a2.394,2.394,0,0,0,4.535,0,9.473,9.473,0,0,1,3.97,2.07h-3.7a.491.491,0,0,0,0,.981h.46v1.111h-.143a1.444,1.444,0,0,0-1.355.95h-1.5a.491.491,0,0,0-.491.491v1.472H90.9a.491.491,0,0,0,0,.981h5.211V92H91.538a1.758,1.758,0,1,0,0,3.516h.143v1.727A1.76,1.76,0,0,0,93.439,99h2.217a.491.491,0,0,0,.491-.491V96.481a.491.491,0,1,0-.981,0v1.537H93.439a.777.777,0,0,1-.776-.776V95.025a.491.491,0,0,0-.491-.491h-.634a.776.776,0,0,1,0-1.553h3.627v1.537a.491.491,0,0,0,.981,0V92.981h.46a.491.491,0,0,0,.491-.491V91.018h.919v2.739a.491.491,0,0,0,.981,0V92.664h2.157a1.434,1.434,0,0,0,.5-.088A9.506,9.506,0,0,1,94.439,101.387Z" transform="translate(-81.702 -81.704)" fill="#072a40"/>
        </g>
      </g>
      <g id="Group_13539" data-name="Group 13539" transform="translate(20.272 95.987)">
        <g id="Group_13538" data-name="Group 13538" transform="translate(0 0)">
          <path id="Path_6133" data-name="Path 6133" d="M337.978,319.549a.491.491,0,0,0-.491.491v.654a.491.491,0,0,0,.981,0v-.654A.491.491,0,0,0,337.978,319.549Z" transform="translate(-337.487 -319.549)" fill="#072a40"/>
        </g>
      </g>
      <g id="Group_13541" data-name="Group 13541" transform="translate(13.619 85.65)">
        <g id="Group_13540" data-name="Group 13540" transform="translate(0 0)">
          <path id="Path_6134" data-name="Path 6134" d="M227.226,147.456a.491.491,0,0,0-.491.491v.654a.491.491,0,0,0,.981,0v-.654A.491.491,0,0,0,227.226,147.456Z" transform="translate(-226.735 -147.456)" fill="#072a40"/>
        </g>
      </g>
      <g id="Group_13543" data-name="Group 13543" transform="translate(0 81.7)">
        <g id="Group_13542" data-name="Group 13542">
          <path id="Path_6135" data-name="Path 6135" d="M4.417,81.7a.491.491,0,0,0-.491.491V85.3H2.945V82.191a.491.491,0,0,0-.981,0V85.3H.981V82.191a.491.491,0,0,0-.981,0V87.1a2.463,2.463,0,0,0,.981,1.962v12.106a1.472,1.472,0,1,0,2.945,0V89.061A2.463,2.463,0,0,0,4.908,87.1V82.191A.491.491,0,0,0,4.417,81.7Zm-.491,5.4a1.478,1.478,0,0,1-.737,1.275.491.491,0,0,0-.245.425v12.368a.491.491,0,1,1-.981,0V88.8a.491.491,0,0,0-.245-.425A1.478,1.478,0,0,1,.982,87.1V86.28H3.926V87.1Z" transform="translate(0 -81.7)" fill="#072a40"/>
        </g>
      </g>
      <g id="Group_13545" data-name="Group 13545" transform="translate(26.828 81.7)">
        <g id="Group_13544" data-name="Group 13544">
          <path id="Path_6136" data-name="Path 6136" d="M448.6,81.7a1.965,1.965,0,0,0-1.963,1.963v7.688a1.965,1.965,0,0,0,1.963,1.963h.981v7.852a.491.491,0,1,1-.981,0v-6.38a.491.491,0,0,0-.981,0v6.38a1.472,1.472,0,1,0,2.945,0v-17.5A1.965,1.965,0,0,0,448.6,81.7Zm.982,10.633H448.6a.983.983,0,0,1-.981-.981V83.663a.981.981,0,1,1,1.963,0Z" transform="translate(-446.638 -81.7)" fill="#072a40"/>
        </g>
      </g>
    </g>
  </g>
</svg>
