<svg xmlns="http://www.w3.org/2000/svg" width="32" height="32" viewBox="0 0 32 32">
  <g id="cat_mundo" transform="translate(-199 -493.414)">
    <rect id="Rectangle_8277" data-name="Rectangle 8277" width="32" height="32" transform="translate(199 493.414)" fill="none"/>
    <g id="globe" transform="translate(199 494.175)">
      <path id="Path_5902" data-name="Path 5902" d="M27.936,6.513c-.234-.331-.478-.653-.738-.964A15.352,15.352,0,0,0,15.382,0h-.037l-.053,0A15.358,15.358,0,0,0,3.565,5.549q-.388.467-.738.964a15.328,15.328,0,0,0,0,17.738c.234.331.48.653.738.964a15.356,15.356,0,0,0,11.726,5.547l.053,0h.037A15.353,15.353,0,0,0,27.2,25.215c.259-.31.5-.634.738-.964a15.328,15.328,0,0,0,0-17.738ZM10.885,2a14.389,14.389,0,0,0-3.4,5.75,14.671,14.671,0,0,1-2.9-1.445A14.157,14.157,0,0,1,10.885,2ZM3.843,7.27A16.2,16.2,0,0,0,7.128,8.928a24.515,24.515,0,0,0-.842,6.324H1.265A14.038,14.038,0,0,1,3.843,7.27ZM1.312,16.514h5a24.246,24.246,0,0,0,.816,5.322,16.109,16.109,0,0,0-3.283,1.658A14.024,14.024,0,0,1,1.312,16.514Zm3.276,7.941a14.758,14.758,0,0,1,2.9-1.442,14.376,14.376,0,0,0,3.4,5.749A14.153,14.153,0,0,1,4.588,24.455Zm10.163,5c-2.59-.355-4.825-3.011-6.092-6.836a23.327,23.327,0,0,1,6.092-.933Zm0-9.031A24.035,24.035,0,0,0,8.3,21.435a23.4,23.4,0,0,1-.73-4.921H14.75Zm0-5.173h-7.2A23.824,23.824,0,0,1,8.31,9.33a24.039,24.039,0,0,0,6.44,1.008v4.913Zm0-6.174a23.3,23.3,0,0,1-6.088-.932c1.267-3.824,3.5-6.482,6.088-6.838ZM29.5,15.252H24.4a24.5,24.5,0,0,0-.834-6.3,16.19,16.19,0,0,0,3.351-1.682A14.039,14.039,0,0,1,29.5,15.252ZM26.177,6.307a14.732,14.732,0,0,1-2.968,1.467,14.35,14.35,0,0,0-3.445-5.811A14.158,14.158,0,0,1,26.177,6.307ZM16.013,1.317c2.561.4,4.768,3.049,6.021,6.847a23.333,23.333,0,0,1-6.021.913Zm0,9.022a24.078,24.078,0,0,0,6.371-.988,23.767,23.767,0,0,1,.757,5.9H16.013Zm0,6.175h7.1a23.5,23.5,0,0,1-.724,4.9,24.081,24.081,0,0,0-6.376-.99V16.514Zm0,12.932v-7.76a23.371,23.371,0,0,1,6.025.913C20.782,26.4,18.573,29.05,16.013,29.446Zm3.752-.645a14.339,14.339,0,0,0,3.447-5.81,14.748,14.748,0,0,1,2.963,1.465A14.163,14.163,0,0,1,19.764,28.8Zm7.155-5.307a16.15,16.15,0,0,0-3.352-1.682,24.237,24.237,0,0,0,.808-5.3H29.45A14,14,0,0,1,26.919,23.494Z" fill="#072a40"/>
    </g>
  </g>
</svg>
