<svg xmlns="http://www.w3.org/2000/svg" width="32" height="32" viewBox="0 0 32 32">
  <g id="cat_massas_pizzas" transform="translate(-215 -390.815)">
    <rect id="Rectangle_8277" data-name="Rectangle 8277" width="32" height="32" transform="translate(215 390.815)" fill="none"/>
    <g id="pizza" transform="translate(216.768 392.768)">
      <g id="Group_11231" data-name="Group 11231" transform="translate(0 0)">
        <g id="Group_11230" data-name="Group 11230" transform="translate(0 0)">
          <path id="Path_5886" data-name="Path 5886" d="M28.117.159a.552.552,0,0,0-.574-.127L4.6,8.212a3.02,3.02,0,0,0-4.37,3.73A29.618,29.618,0,0,0,6.683,21.6a29.616,29.616,0,0,0,9.656,6.452,3.019,3.019,0,0,0,3.931-3.982L28.252.731A.552.552,0,0,0,28.117.159ZM8.075,8.147l2.431-.867a1.408,1.408,0,1,1-2.431.867ZM19.266,25.992a1.919,1.919,0,0,1-2.5,1.037A28.471,28.471,0,0,1,1.252,11.52a1.917,1.917,0,1,1,3.541-1.467,24.7,24.7,0,0,0,5.381,8.054,24.7,24.7,0,0,0,8.054,5.381A1.919,1.919,0,0,1,19.266,25.992Zm4.907-16.75a1.425,1.425,0,0,1-.15-.011A1.408,1.408,0,1,1,25.042,6.7ZM25.409,5.63a2.512,2.512,0,1,0-1.6,4.686l-1.1,3.21-1.263-.969a.552.552,0,1,0-.672.876l1.558,1.2-2.855,8.349a3.009,3.009,0,0,0-.824-.51A23.565,23.565,0,0,1,5.814,9.63a3.019,3.019,0,0,0-.31-.567l1.479-.527a2.515,2.515,0,0,0,2.168,2.2,2.547,2.547,0,0,0,.333.022A2.512,2.512,0,0,0,11.6,6.891l6.866-2.448.26.628a.552.552,0,1,0,1.021-.423L19.5,4.071l7.331-2.614Z" transform="translate(-0.001 0)" fill="#072a40"/>
        </g>
      </g>
      <g id="Group_11233" data-name="Group 11233" transform="translate(4.946 14.56)">
        <g id="Group_11232" data-name="Group 11232">
          <path id="Path_5887" data-name="Path 5887" d="M90.566,263.867l-.008-.012a.551.551,0,1,0,.008.012Z" transform="translate(-89.546 -263.609)" fill="#072a40"/>
        </g>
      </g>
      <g id="Group_11235" data-name="Group 11235" transform="translate(2.624 10.169)">
        <g id="Group_11234" data-name="Group 11234">
          <path id="Path_5888" data-name="Path 5888" d="M50.016,187.388a26.139,26.139,0,0,1-1.438-2.936.552.552,0,1,0-1.021.423,27.243,27.243,0,0,0,1.5,3.06.552.552,0,1,0,.96-.547Z" transform="translate(-47.515 -184.111)" fill="#072a40"/>
        </g>
      </g>
      <g id="Group_11237" data-name="Group 11237" transform="translate(14.444 7.048)">
        <g id="Group_11236" data-name="Group 11236">
          <path id="Path_5889" data-name="Path 5889" d="M264.343,127.615a2.513,2.513,0,1,0,2.163,2.819A2.53,2.53,0,0,0,264.343,127.615Zm1.068,2.675a1.408,1.408,0,1,1-1.4-1.592,1.427,1.427,0,0,1,.186.012A1.41,1.41,0,0,1,265.411,130.29Z" transform="translate(-261.502 -127.593)" fill="#072a40"/>
        </g>
      </g>
      <g id="Group_11239" data-name="Group 11239" transform="translate(14.3 13.918)">
        <g id="Group_11238" data-name="Group 11238">
          <path id="Path_5890" data-name="Path 5890" d="M261.737,252a2.511,2.511,0,0,0-2.819,2.163,2.513,2.513,0,0,0,2.163,2.819,2.513,2.513,0,0,0,.656-4.982Zm1.068,2.675a1.411,1.411,0,0,1-1.393,1.224,1.433,1.433,0,0,1-.186-.012,1.408,1.408,0,0,1,.181-2.8,1.425,1.425,0,0,1,.186.012A1.41,1.41,0,0,1,262.8,254.677Z" transform="translate(-258.896 -251.98)" fill="#072a40"/>
        </g>
      </g>
      <g id="Group_11241" data-name="Group 11241" transform="translate(11.176 11.423)">
        <g id="Group_11240" data-name="Group 11240">
          <path id="Path_5891" data-name="Path 5891" d="M204.654,207.039l-1.7-.224a.552.552,0,0,0-.144,1.1l1.7.224a.552.552,0,0,0,.144-1.1Z" transform="translate(-202.332 -206.811)" fill="#072a40"/>
        </g>
      </g>
      <g id="Group_11243" data-name="Group 11243" transform="translate(11.387 14.108)">
        <g id="Group_11242" data-name="Group 11242">
          <path id="Path_5892" data-name="Path 5892" d="M207.411,257.042l-.15-1.139a.552.552,0,1,0-1.1.144l.15,1.139a.552.552,0,1,0,1.1-.144Z" transform="translate(-206.161 -255.423)" fill="#072a40"/>
        </g>
      </g>
    </g>
  </g>
</svg>
