<svg xmlns="http://www.w3.org/2000/svg" width="32" height="32" viewBox="0 0 32 32">
  <g id="cat_sumos_batidos" transform="translate(-8619 138.315)">
    <rect id="Rectangle_8277" data-name="Rectangle 8277" width="32" height="32" transform="translate(8619 -138.315)" fill="none"/>
    <g id="milkshake" transform="translate(8624.228 -137.208)">
      <path id="Path_5970" data-name="Path 5970" d="M5.057,25.064v1.253a2.851,2.851,0,0,0,2.848,2.848H17.02a2.851,2.851,0,0,0,2.848-2.848V23.7a.57.57,0,1,0-1.139,0v2.62a1.711,1.711,0,0,1-1.709,1.709H7.905A1.711,1.711,0,0,1,6.2,26.317V17.658a3.972,3.972,0,0,1,1.2-2.848H17.532a3.993,3.993,0,0,1,1.2,2.848v1.481a.57.57,0,1,0,1.139,0V17.658a5.129,5.129,0,0,0-.978-3.011,1.709,1.709,0,0,0-.281-3.194,1.707,1.707,0,0,0-1.139-2.278A1.708,1.708,0,0,0,16.612,7L18.59,2.382a1.709,1.709,0,0,0-3.141-1.346l-2.485,5.8a2.067,2.067,0,0,1-2.21-1.668.57.57,0,0,0-.682-.541,3.427,3.427,0,0,0-2.736,3.35,2.265,2.265,0,0,0,.316,1.158,1.707,1.707,0,0,0-1.334,2.32,1.709,1.709,0,0,0-.282,3.193,5.085,5.085,0,0,0-.685,1.3H5.057a4.557,4.557,0,0,0,0,9.114Zm0-3.418a1.139,1.139,0,0,1,0-2.279ZM16.5,1.483a.57.57,0,0,1,1.047.45l-2.1,4.9H14.2Zm-8.591,8.77h3.418a.57.57,0,1,0,0-1.139H9.614A1.139,1.139,0,0,1,8.475,7.974,2.287,2.287,0,0,1,9.749,5.929a3.369,3.369,0,0,0,3.283,2.046H15.88a.57.57,0,0,1,0,1.139.57.57,0,1,0,0,1.139H17.02a.57.57,0,0,1,0,1.139H7.905a.57.57,0,0,1,0-1.139ZM6.363,12.7a.566.566,0,0,1,.4-.167H18.159a.57.57,0,1,1,0,1.139H6.766a.569.569,0,0,1-.4-.972Zm-1.306,4.39h.032a5.118,5.118,0,0,0-.032.57v.57a2.279,2.279,0,0,0,0,4.557v1.139a3.418,3.418,0,1,1,0-6.836Zm0,0" transform="translate(-0.5 0.001)" fill="#072a40"/>
      <path id="Path_5971" data-name="Path 5971" d="M155.627,297.143a.57.57,0,1,0,0-1.139,2.281,2.281,0,0,0-2.279,2.279v.009c-1.662.059-2.848.557-2.848,2.27,0,1.853,1.47,4.557,3.418,4.557s3.418-2.7,3.418-4.557c0-1.713-1.187-2.211-2.848-2.27v-.009A1.141,1.141,0,0,1,155.627,297.143Zm.57,3.418c0,1.322-1.106,3.418-2.279,3.418s-2.279-2.108-2.279-3.418c0-.841.344-1.139,2.279-1.139S156.2,299.72,156.2,300.561Zm0,0" transform="translate(-141.955 -279.142)" fill="#072a40"/>
      <path id="Path_5972" data-name="Path 5972" d="M321.635,366.574a.57.57,0,1,1-.57-.57A.57.57,0,0,1,321.635,366.574Zm0,0" transform="translate(-302.267 -345.154)" fill="#072a40"/>
    </g>
  </g>
</svg>
