<svg xmlns="http://www.w3.org/2000/svg" width="32" height="32" viewBox="0 0 32 32">
  <g id="cat_sobremesa" transform="translate(-50 -626.109)">
    <rect id="Rectangle_8277" data-name="Rectangle 8277" width="32" height="32" transform="translate(50 626.109)" fill="none"/>
    <g id="outline" transform="translate(50 628.665)">
      <path id="Path_5909" data-name="Path 5909" d="M33.442,28.251h-5.9l-.9-10.835a2.144,2.144,0,0,0-2.124-1.955H22.685a1.59,1.59,0,0,0-2.149-1.991A6.669,6.669,0,0,0,19.6,11.2a2.132,2.132,0,0,0,2.12-2.132V8H19.586a2.132,2.132,0,0,0-2.132,2.132v.11c-1.041.42-1.753,2-2.017,3.227a1.586,1.586,0,0,0-2.149,1.991H11.464A2.144,2.144,0,0,0,9.34,17.415l-.9,10.835h-5.9A.533.533,0,0,0,2,28.783v.533a2.668,2.668,0,0,0,2.665,2.665H5.2v1.6a.533.533,0,0,0,.533.533H30.244a.533.533,0,0,0,.533-.533v-1.6h.533a2.668,2.668,0,0,0,2.665-2.665v-.533A.533.533,0,0,0,33.442,28.251ZM21.185,14.395a.533.533,0,1,1-.533.533A.533.533,0,0,1,21.185,14.395Zm-1.6-5.329h1.066a1.066,1.066,0,0,1-1.066,1.066H18.52A1.066,1.066,0,0,1,19.586,9.066Zm-1.6,2.132c.675,0,1.6,2.04,1.6,3.2,0,.266,0,1.066-1.6,1.066s-1.6-.8-1.6-1.066C16.389,13.237,17.313,11.2,17.987,11.2Zm-3.2,3.2a.533.533,0,1,1-.533.533A.533.533,0,0,1,14.79,14.395ZM10.4,17.5a1.072,1.072,0,0,1,1.062-.977H24.51a1.072,1.072,0,0,1,1.062.977l.1,1.154H24.382a1.6,1.6,0,0,0-1.6,1.6V24.52a.534.534,0,0,1-.626.525.578.578,0,0,1-.44-.582v-3.73a1.6,1.6,0,0,0-1.865-1.577A1.642,1.642,0,0,0,18.52,20.79v1.6a.533.533,0,0,1-.626.525.578.578,0,0,1-.44-.582v-3.14a1.6,1.6,0,0,0-1.865-1.577,1.642,1.642,0,0,0-1.332,1.634v6.338a.533.533,0,0,1-.188.406.539.539,0,0,1-.438.119.578.578,0,0,1-.44-.582V20.257a1.6,1.6,0,0,0-1.6-1.6H10.306Zm-.185,2.22h1.375a.533.533,0,0,1,.533.533v5.272a1.642,1.642,0,0,0,1.332,1.634,1.6,1.6,0,0,0,1.865-1.577V19.248a.578.578,0,0,1,.44-.582.534.534,0,0,1,.626.525v3.14a1.642,1.642,0,0,0,1.332,1.634,1.6,1.6,0,0,0,1.865-1.577v-1.6a.578.578,0,0,1,.44-.582.533.533,0,0,1,.626.525v3.73A1.642,1.642,0,0,0,21.984,26.1a1.6,1.6,0,0,0,1.865-1.577V20.257a.533.533,0,0,1,.533-.533h1.375l.71,8.527H9.507ZM29.711,33.047H6.263V31.981H29.711Zm1.6-2.132H4.665a1.6,1.6,0,0,1-1.6-1.6H32.909A1.6,1.6,0,0,1,31.31,30.915Z" transform="translate(-2 -8)" fill="#072a40"/>
      <rect id="Rectangle_8339" data-name="Rectangle 8339" width="1.668" transform="translate(15.008 6.102)" fill="#072a40"/>
    </g>
  </g>
</svg>
