<svg xmlns="http://www.w3.org/2000/svg" width="32" height="32" viewBox="0 0 32 32">
  <g id="cat_supermercados" transform="translate(-336 -125.836)">
    <rect id="Rectangle_8230" data-name="Rectangle 8230" width="32" height="32" transform="translate(336 125.836)" fill="none"/>
    <path id="smart-cart" d="M26.543,5.21a2.669,2.669,0,0,0-2.043-.9H4.956l-.2-1.475C4.547,1.245,3.441,0,2.241,0H.8a.8.8,0,0,0,0,1.609H2.241c.258,0,.8.546.923,1.437l2.3,17.271a3.253,3.253,0,0,0,1.1,2.007,3.324,3.324,0,0,0,1.544.768,2.959,2.959,0,1,0,5.233.058H17.56a2.959,2.959,0,1,0,5.263,0h2.108a.8.8,0,0,0,0-1.609H8.7A1.727,1.727,0,0,1,7.061,20.1l-.168-1.262H22.777a3.34,3.34,0,0,0,3.236-2.833l1.154-8.654A2.669,2.669,0,0,0,26.543,5.21ZM12.063,24.5a1.35,1.35,0,1,1-1.35-1.35A1.351,1.351,0,0,1,12.063,24.5Zm9.478,0a1.35,1.35,0,1,1-1.35-1.35A1.351,1.351,0,0,1,21.542,24.5ZM25.333,6.27a1.081,1.081,0,0,1,.239.872l-.484,3.629H19.615l.323-4.854H24.5A1.082,1.082,0,0,1,25.333,6.27ZM13.908,17.233l-.324-4.854H17.9l-.324,4.854Zm-.431-6.462-.323-4.854h5.172L18,10.771ZM11.541,5.917l.323,4.854H5.817L5.17,5.917ZM6.032,12.38h5.941l.324,4.854H6.679Zm16.745,4.854H19.184l.324-4.854h5.366L24.418,15.8A1.727,1.727,0,0,1,22.777,17.233Zm0,0" transform="translate(337.873 127.873)" fill="#041d2c"/>
  </g>
</svg>
