<svg xmlns="http://www.w3.org/2000/svg" width="32" height="32" viewBox="0 0 32 32">
  <g id="cat_brasileira" transform="translate(-42 -494.06)">
    <rect id="Rectangle_8277" data-name="Rectangle 8277" width="32" height="32" transform="translate(42 494.06)" fill="none"/>
    <g id="leisure" transform="translate(46.002 495.74)">
      <path id="Path_5901" data-name="Path 5901" d="M62.9,18.827a.431.431,0,1,0-.862.017A8.5,8.5,0,0,0,70.5,27.13h0a.431.431,0,0,0,0-.862A7.632,7.632,0,0,1,62.9,18.827Zm17.587-4.133c-.011-.027-2.35-4.272-2.369-4.306a1.581,1.581,0,0,0-1.384-.818h-.883l1.285-6.248a.828.828,0,0,1,.35-.523L80.448.789a.431.431,0,1,0-.484-.713L77,2.085a1.685,1.685,0,0,0-.711,1.064L74.973,9.57H66.9L65.768,6.765a3.792,3.792,0,0,1,1.64-.079.433.433,0,0,0,.407-.152,4.16,4.16,0,0,1,1.526-1.164,8.359,8.359,0,0,1,1.971-.529.677.677,0,0,0,.162-1.293L63.3.075a.938.938,0,0,0-1.211.489L60.742,3.729a.431.431,0,1,0,.794.337L62.4,2.027l.495,5.44a5.1,5.1,0,0,0-1.48.218,7.939,7.939,0,0,0-1.775.842l1.107-2.606a.431.431,0,1,0-.794-.337L58.609,8.752a.677.677,0,0,0,1.011.82A7.87,7.87,0,0,1,61.665,8.51a4.284,4.284,0,0,1,1.663-.16.438.438,0,0,0,.39-.174,3.789,3.789,0,0,1,1.25-1.09l1,2.484H64.687a1.575,1.575,0,0,0-1.324.717c-.134.2-2.74,4.19-2.823,4.331a9.461,9.461,0,0,0-.8,4.27,10.781,10.781,0,0,0,10.753,10.54H70.5a10.751,10.751,0,0,0,9.242-5.261A.431.431,0,1,0,79,23.726a9.889,9.889,0,0,1-8.5,4.84h-.005a9.9,9.9,0,0,1-9.209-13.513s.394.122.585.2a7.637,7.637,0,0,0,5.966,0,6.776,6.776,0,0,1,5.315,0,7.638,7.638,0,0,0,5.966,0c.192-.078.579-.215.579-.215a9.931,9.931,0,0,1,.14,6.9.431.431,0,1,0,.814.284,10.793,10.793,0,0,0-.163-7.524ZM70.57,4.1a8.224,8.224,0,0,0-1.577.481A5.017,5.017,0,0,0,67.5,5.6L64.087,1.346ZM63.712,6.915l-.478-5.254,3.3,4.112a4.634,4.634,0,0,0-2.827,1.141Zm15.082,7.539a6.778,6.778,0,0,1-5.316,0,7.637,7.637,0,0,0-5.966,0,6.776,6.776,0,0,1-5.315,0c-.134-.055-.271-.11-.413-.164l2.3-3.532a.716.716,0,0,1,.6-.326H76.736a.718.718,0,0,1,.629.372l1.907,3.462C79.106,14.327,78.948,14.392,78.794,14.455Z" transform="translate(-58.554 -0.001)" fill="#072a40"/>
    </g>
  </g>
</svg>
