<svg xmlns="http://www.w3.org/2000/svg" width="24" height="24" viewBox="0 0 24 24">
  <g id="checkout_comida" transform="translate(-156 -928.52)">
    <g id="fork" transform="translate(157.998 929.47)">
      <path id="Path_5855" data-name="Path 5855" d="M33.634,9.139V21.763a.656.656,0,0,0,1.313,0V9.139a3.287,3.287,0,0,0,2.625-3.215h0V.673a.656.656,0,1,0-1.313,0V5.267H34.947V.673a.656.656,0,0,0-1.313,0V5.267H32.322V.673a.656.656,0,0,0-1.313,0v5.25A3.287,3.287,0,0,0,33.634,9.139Zm2.512-2.56a1.968,1.968,0,0,1-3.712,0Z" transform="translate(-31.009 -0.016)" fill="#072a40"/>
      <path id="Path_5856" data-name="Path 5856" d="M213.633,13.061v8.686a.656.656,0,1,0,1.313,0V.657A.657.657,0,0,0,214,.07a5.405,5.405,0,0,0-2.988,4.835V9.846a3.287,3.287,0,0,0,2.625,3.216Zm-1.313-8.156A4.069,4.069,0,0,1,213.633,1.9v9.8a1.972,1.972,0,0,1-1.313-1.856Z" transform="translate(-203.132 0)" fill="#072a40"/>
      <path id="Path_5857" data-name="Path 5857" d="M333.633,9.117V21.763a.656.656,0,0,0,1.313,0V9.117c1.749-.48,2.625-2.643,2.625-4.506,0-2.184-1.195-4.594-3.282-4.594s-3.281,2.418-3.281,4.594c0,1.854.872,4.024,2.625,4.506Zm.656-7.787c1.067,0,1.969,1.5,1.969,3.282s-.9,3.282-1.969,3.282-1.969-1.5-1.969-3.282S333.222,1.33,334.289,1.33Z" transform="translate(-317.882 -0.016)" fill="#072a40"/>
    </g>
    <rect id="Rectangle_8229" data-name="Rectangle 8229" width="24" height="24" transform="translate(156 928.52)" fill="none"/>
  </g>
</svg>
