<svg xmlns="http://www.w3.org/2000/svg" width="24" height="24.332" viewBox="0 0 24 24.332">
  <g id="checkout_farmacias" transform="translate(0 -0.081)">
    <g id="drug_copy" data-name="drug copy" transform="translate(0.708 0.251)">
      <g id="Group_10621" data-name="Group 10621" transform="translate(4.654 5.864)">
        <g id="Group_10620" data-name="Group 10620" transform="translate(0)">
          <path id="Path_5851" data-name="Path 5851" d="M116.161,125.994a.465.465,0,1,0,.465.465A.466.466,0,0,0,116.161,125.994Z" transform="translate(-115.696 -125.994)" fill="#072a40" stroke="#072a40" stroke-width="0.3"/>
        </g>
      </g>
      <g id="Group_10623" data-name="Group 10623" transform="translate(5.119 12.706)">
        <g id="Group_10622" data-name="Group 10622">
          <path id="Path_5852" data-name="Path 5852" d="M129.885,274.848h-1.4v-1.4a.465.465,0,1,0-.931,0v1.4h-1.4a.465.465,0,1,0,0,.931h1.4v1.4a.465.465,0,1,0,.931,0v-1.4h1.4a.465.465,0,1,0,0-.931Z" transform="translate(-125.696 -272.986)" fill="#072a40" stroke="#072a40" stroke-width="0.3"/>
        </g>
      </g>
      <g id="Group_10625" data-name="Group 10625" transform="translate(0)">
        <g id="Group_10624" data-name="Group 10624">
          <path id="Path_5853" data-name="Path 5853" d="M37.57,14.986a3.721,3.721,0,0,0-5.086-1.363l-1.89,1.091V10.673a2.344,2.344,0,0,0-.465-1.4L27.8,6.174V4.853a1.4,1.4,0,0,0,.931-1.316V1.4a1.4,1.4,0,0,0-1.4-1.4H18.959a1.4,1.4,0,0,0-1.4,1.4V3.537a1.4,1.4,0,0,0,.931,1.316V6.174l-2.327,3.1a2.344,2.344,0,0,0-.465,1.4v9.013a2.33,2.33,0,0,0,2.327,2.327h7.479a3.719,3.719,0,0,0,5.058,1.316l5.643-3.258A3.726,3.726,0,0,0,37.57,14.986ZM18.493,1.4a.466.466,0,0,1,.465-.465h8.377A.466.466,0,0,1,27.8,1.4V3.537A.466.466,0,0,1,27.336,4H18.959a.466.466,0,0,1-.465-.465V1.4ZM16.911,9.835l2.42-3.227a.465.465,0,0,0,.093-.279v-1.4h7.446v.931H22.682a.465.465,0,0,0,0,.931H27.1l2.28,3.04a1.408,1.408,0,0,1,.27.683H16.642A1.408,1.408,0,0,1,16.911,9.835Zm1.117,11.247a1.4,1.4,0,0,1-1.4-1.4v-.47h8.456a3.729,3.729,0,0,0,.022,1.866H18.028Zm7.424-2.792H16.632V11.449H29.663v3.8l-2.821,1.629A3.7,3.7,0,0,0,25.453,18.29ZM30.1,22.524a2.792,2.792,0,1,1-2.792-4.836l2.526-1.459,2.792,4.836Zm5.643-3.258L33.432,20.6,30.64,15.763l2.31-1.334a2.792,2.792,0,1,1,2.792,4.836Z" transform="translate(-15.701)" fill="#072a40" stroke="#072a40" stroke-width="0.3"/>
        </g>
      </g>
    </g>
    <rect id="Rectangle_8230" data-name="Rectangle 8230" width="24" height="24" transform="translate(0 0.081)" fill="none"/>
  </g>
</svg>
