<svg xmlns="http://www.w3.org/2000/svg" width="24" height="24" viewBox="0 0 24 24">
  <g id="checkout_entrega" transform="translate(170 -723.699)">
    <rect id="Rectangle_8087" data-name="Rectangle 8087" width="24" height="24" transform="translate(-170 723.699)" fill="none"/>
    <g id="food" transform="translate(-168.089 727.185)">
      <g id="Group_9524" data-name="Group 9524" transform="translate(0 0)">
        <g id="Group_9523" data-name="Group 9523" transform="translate(0 0)">
          <path id="Path_4681" data-name="Path 4681" d="M.053,43.96A4.72,4.72,0,0,1,2.12,40.8a1.742,1.742,0,0,1-.272-1.658h-.1A1.749,1.749,0,0,1,0,37.4V32.738a1.749,1.749,0,0,1,1.747-1.747H6.406a1.749,1.749,0,0,1,1.747,1.747V37.4a1.737,1.737,0,0,1-.123.644,1.75,1.75,0,0,1,1.288,1.685V40.89a.58.58,0,0,1-.171.412,2.715,2.715,0,0,0-.156,3.664h2.733v-.582h0V38.561a2.9,2.9,0,0,1,.584-1.747H11.142a.582.582,0,1,1,0-1.165h1.747v-.582a1.749,1.749,0,0,1,1.747-1.747H15.8a.582.582,0,0,1,.582.582v2.329a.582.582,0,0,1-.582.582h-.38L16.5,40.367a4.082,4.082,0,0,1,3.379,4.016v1.165a2.912,2.912,0,0,1-2.907,2.913,2.816,2.816,0,0,1-2.861-2.331H8.094a2.912,2.912,0,0,1-5.706,0H1.748A1.747,1.747,0,0,1,.053,43.96Zm15.165-9.475h-.582a.583.583,0,0,0-.582.582v.582h1.165V34.485Zm.859,12.6a1.77,1.77,0,0,0,2.635-1.532A1.749,1.749,0,0,0,16.965,43.8h0a1.749,1.749,0,0,0-1.747,1.747A1.673,1.673,0,0,0,16.076,47.08Zm-3.188-2.114h1.223a2.916,2.916,0,0,1,2.853-2.329h0a2.892,2.892,0,0,1,1.392.355,2.911,2.911,0,0,0-5.468,1.392Zm0-3.432a4.068,4.068,0,0,1,2.384-1.192l-1.054-3.478a1.75,1.75,0,0,0-1.33,1.7Zm-5.9-8.8a.583.583,0,0,0-.582-.582H1.748a.583.583,0,0,0-.582.582v.582H6.988Zm0,1.747H1.165V37.4a.583.583,0,0,0,.582.582H6.406a.583.583,0,0,0,.582-.582V34.485Zm1.165,5.823v-.582a.583.583,0,0,0-.582-.582H3.495a.582.582,0,1,0,0,1.165H8.153ZM5.241,47.295a1.757,1.757,0,0,0,1.647-1.172H3.595A1.757,1.757,0,0,0,5.241,47.295ZM1.748,44.966H7.6a3.894,3.894,0,0,1,0-3.494H4.068c-1.475,0-2.419.906-2.885,2.77A.582.582,0,0,0,1.748,44.966Z" transform="translate(0 -30.991)" fill="#072a40"/>
        </g>
      </g>
      <g id="Group_9526" data-name="Group 9526" transform="translate(16.382 13.975)">
        <g id="Group_9525" data-name="Group 9525" transform="translate(0 0)">
          <ellipse id="Ellipse_2" data-name="Ellipse 2" cx="0.582" cy="0.582" rx="0.582" ry="0.582" fill="#072a40"/>
        </g>
      </g>
      <g id="Group_9528" data-name="Group 9528" transform="translate(3.495 11.646)">
        <g id="Group_9527" data-name="Group 9527" transform="translate(0 0)">
          <path id="Path_4682" data-name="Path 4682" d="M362.565,330.978h1.164a.582.582,0,0,1,0,1.165h-1.164a.582.582,0,1,1,0-1.165Z" transform="translate(-361.983 -330.978)" fill="#072a40"/>
        </g>
      </g>
    </g>
  </g>
</svg>
