<svg xmlns="http://www.w3.org/2000/svg" width="24" height="24" viewBox="0 0 24 24">
  <g id="checkout_agendar" transform="translate(-16517 -1253)">
    <rect id="Rectangle_8088" data-name="Rectangle 8088" width="24" height="24" transform="translate(16517 1253)" fill="none"/>
    <g id="clock_copy" data-name="clock copy" transform="translate(16515.695 1254.6)">
      <path id="Path_6026" data-name="Path 6026" d="M22.688,1.2H18.713v-.6a.607.607,0,0,0-1.213,0v.6H13.956v-.6a.607.607,0,0,0-1.213,0v.6H9.349v-.6a.607.607,0,0,0-1.213,0v.6H4.011a.607.607,0,0,0-.607.607V15.519a.607.607,0,0,0,.607.607H7.734a5.767,5.767,0,0,0,11.231,0h3.723a.607.607,0,0,0,.607-.607V1.812a.607.607,0,0,0-.607-.607ZM8.136,2.418v.548a.607.607,0,1,0,1.213,0V2.418h3.393v.548a.607.607,0,1,0,1.213,0V2.418H17.5v.548a.607.607,0,0,0,1.213,0V2.418h3.368V4.9H4.617V2.418Zm5.213,16.948A4.555,4.555,0,1,1,17.9,14.811,4.56,4.56,0,0,1,13.349,19.366Zm5.766-4.454c0-.034,0-.067,0-.1a5.768,5.768,0,0,0-11.537,0c0,.034,0,.067,0,.1H4.617v-8.8H22.082v8.8Z" fill="#072a40"/>
      <path id="Path_6027" data-name="Path 6027" d="M96.984,116.519v-2.935a.607.607,0,1,0-1.213,0v3.186a.607.607,0,0,0,.178.429l1.394,1.394a.607.607,0,1,0,.858-.858l-1.217-1.217Z" transform="translate(-83.028 -101.555)" fill="#072a40"/>
    </g>
  </g>
</svg>
