<svg xmlns="http://www.w3.org/2000/svg" width="24.2" height="24" viewBox="0 0 24.2 24">
  <g id="checkout_lojas" transform="translate(-150.8 -132)">
    <rect id="Rectangle_8230" data-name="Rectangle 8230" width="24" height="24" transform="translate(151 132)" fill="none"/>
    <g id="shop" transform="translate(151 134.25)">
      <g id="Group_10672" data-name="Group 10672">
        <g id="Group_10671" data-name="Group 10671">
          <path id="Path_5860" data-name="Path 5860" d="M1.083,66.81h.392V56.421A3.262,3.262,0,0,1,0,53.686a.355.355,0,0,1,.045-.174L2.783,48.65a1.082,1.082,0,0,1,.94-.554H19.83a1.082,1.082,0,0,1,.94.554l2.738,4.863a.355.355,0,0,1,.045.174,3.262,3.262,0,0,1-1.475,2.735V66.81h.392a.35.35,0,0,1,0,.7H1.083a.35.35,0,0,1,0-.7ZM22.839,54.036H21.733a.35.35,0,0,1,0-.7h.88L20.171,49a.392.392,0,0,0-.341-.2H3.723a.392.392,0,0,0-.341.2L.94,53.336H1.82a.35.35,0,0,1,0,.7H.714a2.529,2.529,0,0,0,2.489,2.2,2.529,2.529,0,0,0,2.489-2.2h-2.4a.35.35,0,0,1,0-.7H20.258a.35.35,0,0,1,0,.7h-2.4a2.508,2.508,0,0,0,4.978,0Zm-16.409,0a2.507,2.507,0,0,0,4.977,0Zm5.716,0a2.507,2.507,0,0,0,4.977,0ZM4.009,66.81H7.744V65.639H4.009Zm0-1.871H7.744V58.528H4.009ZM2.165,66.81H3.319V58.177a.348.348,0,0,1,.345-.35H8.089a.348.348,0,0,1,.345.35V66.81H21.388V56.761a3.145,3.145,0,0,1-1.038.176,3.2,3.2,0,0,1-2.858-1.784,3.181,3.181,0,0,1-5.716,0,3.181,3.181,0,0,1-5.716,0A3.2,3.2,0,0,1,3.2,56.937a3.146,3.146,0,0,1-1.038-.176Z" transform="translate(0 -48.096)" fill="#072a40" stroke="#072a40" stroke-width="0.4"/>
        </g>
      </g>
      <g id="Group_10674" data-name="Group 10674" transform="translate(9.379 9.731)">
        <g id="Group_10673" data-name="Group 10673">
          <path id="Path_5861" data-name="Path 5861" d="M72.5,256.516H82.6a.35.35,0,0,1,.35.35v7.111a.35.35,0,0,1-.35.35H72.5a.35.35,0,0,1-.35-.35v-7.111A.35.35,0,0,1,72.5,256.516Zm.35,7.111H82.25v-6.411H72.845Z" transform="translate(-72.145 -256.516)" fill="#072a40" stroke="#072a40" stroke-width="0.4"/>
        </g>
      </g>
    </g>
  </g>
</svg>
