<svg xmlns="http://www.w3.org/2000/svg" width="24" height="24" viewBox="0 0 24 24">
  <g id="checkout_supermercados" transform="translate(-336 -126.199)">
    <rect id="Rectangle_8230" data-name="Rectangle 8230" width="24" height="24" transform="translate(336 126.199)" fill="none"/>
    <path id="smart-cart" d="M20.209,3.967a2.032,2.032,0,0,0-1.556-.687H3.773l-.15-1.123A2.271,2.271,0,0,0,1.706,0H.612a.612.612,0,0,0,0,1.225H1.706c.2,0,.613.415.7,1.094L4.162,15.469A2.477,2.477,0,0,0,5,17a2.531,2.531,0,0,0,1.176.585,2.253,2.253,0,1,0,3.984.044H13.37a2.253,2.253,0,1,0,4.007,0h1.6a.612.612,0,0,0,0-1.225H6.626a1.315,1.315,0,0,1-1.25-1.094l-.128-.961H17.341a2.543,2.543,0,0,0,2.464-2.157L20.684,5.6A2.032,2.032,0,0,0,20.209,3.967ZM9.184,18.653a1.028,1.028,0,1,1-1.028-1.027A1.029,1.029,0,0,1,9.184,18.653Zm7.216,0a1.028,1.028,0,1,1-1.028-1.027A1.029,1.029,0,0,1,16.4,18.653Zm2.886-13.88a.823.823,0,0,1,.182.664L19.1,8.2H14.934l.246-3.7h3.473A.824.824,0,0,1,19.287,4.774Zm-8.7,8.347-.246-3.7h3.282l-.246,3.7ZM10.261,8.2l-.246-3.7h3.938l-.246,3.7Zm-1.474-3.7.246,3.7h-4.6l-.493-3.7ZM4.592,9.425H9.115l.246,3.7H5.085Zm12.749,3.7H14.606l.246-3.7h4.086l-.347,2.6A1.315,1.315,0,0,1,17.341,13.121Zm0,0" transform="translate(337.426 127.387)" fill="#041d2c"/>
  </g>
</svg>
