<svg xmlns="http://www.w3.org/2000/svg" width="24" height="24" viewBox="0 0 24 24">
  <g id="checkout_morada_casa" transform="translate(-16567 -886)">
    <g id="home" transform="translate(16566 888)">
      <path id="Path_6019" data-name="Path 6019" d="M22.8,8.449,20.036,6.011V2.134a.593.593,0,0,0-.593-.593H17.072a.593.593,0,0,0-.593.593v.738L13.391.148a.593.593,0,0,0-.784,0L3.2,8.449a.593.593,0,0,0,.785.889L5.253,8.218V19.051H4.7a.593.593,0,1,0,0,1.186H21.3a.593.593,0,1,0,0-1.186h-.554V8.218l1.269,1.119a.593.593,0,1,0,.784-.889ZM17.664,2.727H18.85V4.965L17.664,3.919Zm1.895,16.323H6.439V7.172L13,1.384l6.568,5.8C19.562,7.21,19.559,19.051,19.559,19.051Z" transform="translate(0 0)" fill="#072a40"/>
      <path id="Path_6020" data-name="Path 6020" d="M142.328,214a2.768,2.768,0,0,0-1.973.815,2.789,2.789,0,0,0-4.759,1.971,6.119,6.119,0,0,0,1.867,3.646c.815.869,2.061,1.883,2.891,1.883a5.382,5.382,0,0,0,2.885-1.792,5.969,5.969,0,0,0,1.873-3.736A2.789,2.789,0,0,0,142.328,214Zm.068,5.691a4.924,4.924,0,0,1-2.038,1.438,5.26,5.26,0,0,1-2.051-1.532,4.863,4.863,0,0,1-1.524-2.81,1.6,1.6,0,0,1,3.04-.7.593.593,0,0,0,1.066,0,1.6,1.6,0,0,1,3.04.7A4.676,4.676,0,0,1,142.4,219.691Z" transform="translate(-127.357 -205.542)" fill="#072a40"/>
    </g>
    <rect id="Rectangle_8088" data-name="Rectangle 8088" width="24" height="24" transform="translate(16567 886)" fill="none"/>
  </g>
</svg>
