<svg xmlns="http://www.w3.org/2000/svg" width="18" height="18" viewBox="0 0 18 18">
  <g id="check_box_premium_selected" transform="translate(-52 -595)">
    <g id="Rectangle_8182" data-name="Rectangle 8182" transform="translate(54 597)" fill="#072a40" stroke="#072a40" stroke-width="1">
      <rect width="14" height="14" rx="4" stroke="none"/>
      <rect x="0.5" y="0.5" width="13" height="13" rx="3.5" fill="none"/>
    </g>
    <rect id="Rectangle_8234" data-name="Rectangle 8234" width="18" height="18" transform="translate(52 595)" fill="none"/>
    <g id="Group_10700" data-name="Group 10700" transform="translate(2 -35)">
      <path id="correct" d="M3.839,8.041a.512.512,0,0,1-.724,0L.225,5.15a.767.767,0,0,1,0-1.086L.587,3.7a.768.768,0,0,1,1.086,0l1.8,1.8L8.353.631a.768.768,0,0,1,1.086,0L9.8.993a.767.767,0,0,1,0,1.086Zm0,0" transform="translate(54 634.594)" fill="#e9de84"/>
      <rect id="Rectangle_8235" data-name="Rectangle 8235" width="14" height="14" transform="translate(52 632)" fill="none"/>
    </g>
  </g>
</svg>
