<svg xmlns="http://www.w3.org/2000/svg" width="24" height="24" viewBox="0 0 24 24">
  <g id="checkout_morada_trabalho" transform="translate(-16534 -936)">
    <rect id="Rectangle_8088" data-name="Rectangle 8088" width="24" height="24" transform="translate(16534 936)" fill="none"/>
    <path id="portfolio" d="M20.842,2.516H15.136V1.887A1.889,1.889,0,0,0,13.249,0H8.218A1.889,1.889,0,0,0,6.331,1.887v.629H.629A.631.631,0,0,0,0,3.145V16.981a1.889,1.889,0,0,0,1.887,1.887H19.58a1.889,1.889,0,0,0,1.887-1.887V3.155A.611.611,0,0,0,20.842,2.516ZM7.589,1.887a.63.63,0,0,1,.629-.629h5.031a.63.63,0,0,1,.629.629v.629H7.589ZM19.965,3.773,18.012,9.633a.628.628,0,0,1-.6.43H13.878V9.434a.629.629,0,0,0-.629-.629H8.218a.629.629,0,0,0-.629.629v.629H4.051a.628.628,0,0,1-.6-.43L1.5,3.773ZM12.62,10.063V11.32H8.847V10.063Zm7.589,6.918a.63.63,0,0,1-.629.629H1.887a.63.63,0,0,1-.629-.629V7.02l1,3.01a1.884,1.884,0,0,0,1.79,1.29H7.589v.629a.629.629,0,0,0,.629.629h5.031a.629.629,0,0,0,.629-.629V11.32h3.538a1.884,1.884,0,0,0,1.79-1.29l1-3.01Zm0,0" transform="translate(16535.301 938.4)" fill="#072a40"/>
  </g>
</svg>
