<svg xmlns="http://www.w3.org/2000/svg" width="24" height="24" viewBox="0 0 24 24">
  <g id="checkout_wallet" transform="translate(-16566 -1641)">
    <g id="carteira" transform="translate(16568 1607.037)">
      <g id="Group_12517" data-name="Group 12517" transform="translate(0 36.79)">
        <g id="Group_12516" data-name="Group 12516" transform="translate(0 0)">
          <path id="Path_6048" data-name="Path 6048" d="M19.947,44.842V41.225a1.593,1.593,0,0,0-1.591-1.591H18.29l-.109-1.022a.624.624,0,0,0-.687-.554l-.333.036L17,37.29a.625.625,0,0,0-.736-.487L2.381,39.634h-.79A1.593,1.593,0,0,0,0,41.225V52.832a1.593,1.593,0,0,0,1.591,1.591H18.356a1.593,1.593,0,0,0,1.591-1.591V49.215a.948.948,0,0,0,.645-.9V45.739A.948.948,0,0,0,19.947,44.842Zm-2.389-6.184a.02.02,0,0,1,.015,0,.02.02,0,0,1,.008.014l.1.958H8.446Zm-1.177-1.264a.021.021,0,0,1,.024.016l.153.748-8.264.885Zm2.963,15.437a.989.989,0,0,1-.988.988H1.591A.989.989,0,0,1,.6,52.832v-.021H16.1a.3.3,0,1,0,0-.6H.6V41.849H16.1a.3.3,0,1,0,0-.6H.6v-.021a.989.989,0,0,1,.988-.988H18.356a.989.989,0,0,1,.988.988v3.567H18.335V41.548a.3.3,0,0,0-.3-.3h-.645a.3.3,0,1,0,0,.6h.343v2.943h-2.6a.947.947,0,0,0-.946.946v2.579a.947.947,0,0,0,.946.946h2.6v2.943h-.343a.3.3,0,0,0,0,.6h.645a.3.3,0,0,0,.3-.3V49.265h1.009Zm.645-4.514h0a.344.344,0,0,1-.343.343H15.132a.344.344,0,0,1-.343-.343V45.739a.344.344,0,0,1,.343-.343h4.514a.344.344,0,0,1,.342.343Z" transform="translate(0 -36.79)" fill="#072a40"/>
        </g>
      </g>
      <g id="Group_12519" data-name="Group 12519" transform="translate(15.475 46.082)">
        <g id="Group_12518" data-name="Group 12518">
          <path id="Path_6049" data-name="Path 6049" d="M385.721,267.822a.946.946,0,1,0,.946.946A.947.947,0,0,0,385.721,267.822Zm0,1.29a.343.343,0,1,1,.343-.343A.344.344,0,0,1,385.721,269.112Z" transform="translate(-384.775 -267.822)" fill="#072a40"/>
        </g>
      </g>
    </g>
    <rect id="Rectangle_8088" data-name="Rectangle 8088" width="24" height="24" transform="translate(16566 1641)" fill="none"/>
  </g>
</svg>
