<svg xmlns="http://www.w3.org/2000/svg" width="24" height="24" viewBox="0 0 24 24">
  <g id="checkout_agendar_data" transform="translate(-1626.5 -535)">
    <g id="checkout_agendar_data-2" data-name="checkout_agendar_data" transform="translate(1628 537.5)">
      <path id="Path_6030" data-name="Path 6030" d="M19.283,1.551h-2.4v-1a.554.554,0,0,0-1.108,0v1h-4.8v-1a.554.554,0,0,0-1.108,0v1h-4.8v-1a.554.554,0,1,0-1.108,0v1h-2.4A.554.554,0,0,0,1,2.105V18.357a.554.554,0,0,0,.554.554H15.589a.554.554,0,0,0,.392-.162l3.694-3.694a.554.554,0,0,0,.162-.392V2.105A.554.554,0,0,0,19.283,1.551ZM16.328,3.767a.554.554,0,0,0,.554-.554V2.659h1.847V5.245h-4.8V2.659h1.847v.554A.554.554,0,0,0,16.328,3.767Zm-5.91,0a.554.554,0,0,0,.554-.554V2.659h1.847V5.245h-4.8V2.659H9.864v.554A.554.554,0,0,0,10.419,3.767ZM2.108,2.659H3.955v.554a.554.554,0,1,0,1.108,0V2.659H6.91V5.245h-4.8Zm0,3.694H18.729v7.756h-3.14a.554.554,0,0,0-.554.554V17.8H2.108Zm15.837,8.864-1.8,1.8v-1.8Z" fill="#072a40"/>
      <path id="Path_6031" data-name="Path 6031" d="M288.619,227h-1.263a.554.554,0,0,0,0,1.108h.709v5.356a.554.554,0,0,0,1.108,0v-5.91A.554.554,0,0,0,288.619,227Z" transform="translate(-275.246 -218.616)" fill="#072a40"/>
      <path id="Path_6032" data-name="Path 6032" d="M144.733,232.913h-.007c-.668.008-1.381.012-1.929.013.327-.434.811-1.089,1.5-2.072a4.3,4.3,0,0,0,.7-1.451c.017-.081.043-.326.043-.349a2.037,2.037,0,0,0-4.036-.394.554.554,0,0,0,1.087.214.93.93,0,0,1,.912-.748.908.908,0,0,1,.929.9,1.411,1.411,0,0,1-.02.155,2.928,2.928,0,0,1-.524,1.041c-.919,1.314-1.468,2.032-1.763,2.418-.127.166-.21.276-.267.359a.688.688,0,0,0-.133.605.582.582,0,0,0,.379.383,5.01,5.01,0,0,0,1.268.052c.44,0,1.042,0,1.868-.015a.554.554,0,0,0-.007-1.108Z" transform="translate(-134.824 -218.632)" fill="#072a40"/>
    </g>
    <rect id="Rectangle_8475" data-name="Rectangle 8475" width="24" height="24" transform="translate(1626.5 535)" fill="none"/>
  </g>
</svg>
