<svg xmlns="http://www.w3.org/2000/svg" width="20" height="20" viewBox="0 0 20 20">
  <g id="classificao" transform="translate(-7734 -440.741)">
    <g id="Group_10878" data-name="Group 10878" transform="translate(7735.316 442.316)">
      <path id="Path_4700" data-name="Path 4700" d="M2.685,316.813h5.38l1.715-5.368H11.2l1.976,5.368H18.2v1.12l-3.793,2.739,1.337,5.181-.81.939-4.561-3.119-4.32,3.119-.992-.939L6.3,320.672,2.4,317.933Z" transform="translate(-1.74 -310.713)" fill="#072a40"/>
      <g id="favorite">
        <path id="Path_4698" data-name="Path 4698" d="M17.323,16.6a1.507,1.507,0,0,0-1.454-1.055H11.522l-1.369-4.157A1.506,1.506,0,0,0,8.7,10.34H8.695A1.506,1.506,0,0,0,7.244,11.4L5.915,15.548H1.532a1.529,1.529,0,0,0-.9,2.769L4.183,20.88,2.818,25.025a1.506,1.506,0,0,0,.55,1.713,1.506,1.506,0,0,0,1.8.005l3.553-2.568,3.51,2.563a1.529,1.529,0,0,0,2.358-1.7L13.254,20.88l3.516-2.568a1.507,1.507,0,0,0,.552-1.709Zm-1.153.886-4.11,3,1.557,4.858a.51.51,0,0,1-.786.567l-4.108-3-4.153,3a.51.51,0,0,1-.783-.573l1.6-4.854-4.151-3a.51.51,0,0,1,.3-.923H6.659l1.556-4.854a.5.5,0,0,1,.483-.354h0a.494.494,0,0,1,.484.35l1.6,4.858h5.085a.51.51,0,0,1,.3.921Z" transform="translate(0 -10.34)" fill="#072a40"/>
      </g>
    </g>
    <rect id="Rectangle_8277" data-name="Rectangle 8277" width="20" height="20" transform="translate(7734 440.741)" fill="none"/>
  </g>
</svg>
