<svg xmlns="http://www.w3.org/2000/svg" width="20" height="20" viewBox="0 0 20 20">
  <g id="comida_mundo" transform="translate(-965 -416)">
    <rect id="Rectangle_8277" data-name="Rectangle 8277" width="20" height="20" transform="translate(965 416)" fill="none"/>
    <path id="Path_5902" data-name="Path 5902" d="M17.086,3.983c-.143-.2-.293-.4-.452-.589A9.39,9.39,0,0,0,9.407,0H9.352A9.393,9.393,0,0,0,2.18,3.394q-.237.285-.452.589a9.374,9.374,0,0,0,0,10.849c.143.2.293.4.452.589a9.392,9.392,0,0,0,7.172,3.393h.055a9.39,9.39,0,0,0,7.227-3.393c.158-.19.308-.388.452-.59a9.374,9.374,0,0,0,0-10.849ZM6.657,1.223A8.8,8.8,0,0,0,4.579,4.74,8.973,8.973,0,0,1,2.8,3.857,8.659,8.659,0,0,1,6.657,1.223ZM2.351,4.447A9.908,9.908,0,0,0,4.359,5.46a14.994,14.994,0,0,0-.515,3.868H.773A8.586,8.586,0,0,1,2.351,4.447ZM.8,10.1H3.86a14.829,14.829,0,0,0,.5,3.255,9.852,9.852,0,0,0-2.008,1.014A8.577,8.577,0,0,1,.8,10.1Zm2,4.857a9.026,9.026,0,0,1,1.772-.882,8.793,8.793,0,0,0,2.079,3.516A8.656,8.656,0,0,1,2.806,14.957Zm6.216,3.058C7.437,17.8,6.07,16.174,5.3,13.834a14.267,14.267,0,0,1,3.726-.571Zm0-5.523a14.7,14.7,0,0,0-3.943.618,14.312,14.312,0,0,1-.446-3.01H9.021Zm0-3.164h-4.4a14.571,14.571,0,0,1,.466-3.622,14.7,14.7,0,0,0,3.939.617V9.328Zm0-3.776A14.247,14.247,0,0,1,5.3,4.982C6.072,2.643,7.438,1.017,9.021.8ZM18.04,9.328H14.925a14.986,14.986,0,0,0-.51-3.852,9.9,9.9,0,0,0,2.049-1.029A8.587,8.587,0,0,1,18.04,9.328ZM16.01,3.857a9.01,9.01,0,0,1-1.815.9A8.777,8.777,0,0,0,12.088,1.2,8.659,8.659,0,0,1,16.01,3.857ZM9.793.806c1.567.242,2.916,1.865,3.682,4.188a14.271,14.271,0,0,1-3.682.558Zm0,5.518a14.726,14.726,0,0,0,3.9-.6,14.536,14.536,0,0,1,.463,3.609H9.793Zm0,3.777h4.344a14.371,14.371,0,0,1-.443,3,14.728,14.728,0,0,0-3.9-.605V10.1Zm0,7.91V13.264a14.294,14.294,0,0,1,3.685.558C12.71,16.146,11.36,17.767,9.793,18.009Zm2.295-.394A8.77,8.77,0,0,0,14.2,14.061a9.02,9.02,0,0,1,1.812.9A8.662,8.662,0,0,1,12.088,17.615Zm4.376-3.246a9.877,9.877,0,0,0-2.05-1.029,14.824,14.824,0,0,0,.494-3.24h3.1A8.564,8.564,0,0,1,16.464,14.369Z" transform="translate(965.6 416.6)" fill="#072a40"/>
  </g>
</svg>
