<svg xmlns="http://www.w3.org/2000/svg" width="20" height="20" viewBox="0 0 20 20">
  <g id="comida_portuguesa" transform="translate(-988 -381)">
    <rect id="Rectangle_8277" data-name="Rectangle 8277" width="20" height="20" transform="translate(988 381)" fill="none"/>
    <g id="lunch" transform="translate(988.5 381.5)">
      <path id="Path_5898" data-name="Path 5898" d="M23.492,9.292a9.241,9.241,0,0,0-.657-3.435,3.533,3.533,0,0,0-3.959-4.6A9.329,9.329,0,0,0,12.237.208,5.016,5.016,0,0,0,9.495.221,5.516,5.516,0,0,0,6.6,1.869a3.274,3.274,0,0,0-.51,2.887A9.293,9.293,0,0,0,4.907,9.292a9.41,9.41,0,0,0,.081,1.235.29.29,0,0,0,.287.252l.039,0a.29.29,0,0,0,.249-.325,8.831,8.831,0,0,1-.076-1.159,8.727,8.727,0,0,1,.769-3.583A7.745,7.745,0,0,0,6.518,8.38a2.49,2.49,0,0,0,1.8,1.494,5.918,5.918,0,0,0,.719,2.3,3.963,3.963,0,0,1-.418.309l-1.234.791a.3.3,0,0,0-.046.451l.875.852.849.827h0l.875.852a.293.293,0,0,0,.359.036l1.253-.809a4.569,4.569,0,0,0,.736-.593,5.9,5.9,0,0,0,1.071.258l.065.008-1.142.732a.3.3,0,0,0-.046.451L13.94,18c-.173-.005-.346-.015-.518-.03a8.768,8.768,0,0,1-7.578-6.2.29.29,0,0,0-.556.164,9.3,9.3,0,0,0,8.083,6.614c.275.024.554.036.828.036.567-.13.529.533.992.321l.751-.485a9.286,9.286,0,0,0,7.55-9.129ZM22.437,4.74a2.952,2.952,0,1,1-2.952-2.952A2.956,2.956,0,0,1,22.437,4.74ZM13.421.613a8.788,8.788,0,0,1,4.67.882,3.549,3.549,0,0,0-1.981,2.2,5.873,5.873,0,0,0-1.543-.3A2.42,2.42,0,0,0,13.279.627l.143-.014ZM7.3,8.588c-.8-1.062-.256-2.485-.578-3.68-.58-2.15.271-3.347,2.937-4.131A4.394,4.394,0,0,1,12.5.909a1.98,1.98,0,0,1,1.483,2.47,3.011,3.011,0,0,0,.8,1.9c.479.686.975,1.395.762,2.088L14.513,6.355a.3.3,0,0,0-.455.066l-.559,1a3.967,3.967,0,0,1-1.07,1.227c-1.317.191-2.679.945-4.034.654A1.8,1.8,0,0,1,7.3,8.588Zm6.425,2.02A4.785,4.785,0,0,0,12.2,11.85c-.394.507-.6,1.117-1.032,1.6A8.477,8.477,0,0,1,9.3,14.826l-.423-.412c.367-.235.745-.459,1.1-.712a4.557,4.557,0,0,0,1.1-1.1c.3-.434.484-.935.831-1.341.637-.744,1.59-1.058,2.269-1.756a7.389,7.389,0,0,0,1.081-1.615l.42.409a5.414,5.414,0,0,1-1.949,2.313ZM8.943,9.933a8.539,8.539,0,0,0,2.1-.358,3.836,3.836,0,0,0-1,1.29,3.975,3.975,0,0,1-.583.883A5.34,5.34,0,0,1,8.9,9.932h.04Zm-.014,3.034a4.566,4.566,0,0,0,1.339-1.322,8.476,8.476,0,0,1,.922-1.413,9.017,9.017,0,0,1,1.428-1.007,4.57,4.57,0,0,0,1.277-1.335c.173-.278.325-.57.485-.855l.445.433a8.112,8.112,0,0,1-.962,1.519c-.7.782-1.741,1.111-2.425,1.925a11.113,11.113,0,0,0-.753,1.228,3.993,3.993,0,0,1-1.1,1.132c-.37.253-.754.486-1.132.728L8,13.561Zm2.3,2.027-1.059.684-.448-.437c.4-.254.808-.492,1.185-.773a4.561,4.561,0,0,0,1.071-1.128c.26-.39.424-.83.723-1.2.634-.776,1.608-1.091,2.3-1.8a7.338,7.338,0,0,0,1.1-1.632l.446.434c-.177.319-.344.648-.538.957a4.864,4.864,0,0,1-1.722,1.53,4.282,4.282,0,0,0-1.5,1.494A4.835,4.835,0,0,1,11.233,14.994Zm1.468-.581a4.524,4.524,0,0,0,.484-.793A3.743,3.743,0,0,1,14.9,11.95l.006,0a4.547,4.547,0,0,0,1.717-1.738l.541-.973a.29.29,0,0,0-.051-.348L16,7.8a2.367,2.367,0,0,0,.1-.25,3.041,3.041,0,0,0-.835-2.61,5.956,5.956,0,0,1-.594-.966,5.288,5.288,0,0,1,1.316.286,3.532,3.532,0,0,0,3.451,4.007,5.364,5.364,0,0,1,.094.816c-.131-.163-.382-.315-.575-.05l-.559,1a3.967,3.967,0,0,1-1.5,1.51,4.291,4.291,0,0,0-1.954,1.936,3.969,3.969,0,0,1-.833,1.145,5.389,5.389,0,0,1-.672-.052,5.308,5.308,0,0,1-.736-.159ZM20.15,10.5l.42.409a7.92,7.92,0,0,1-.991,1.55c-.693.753-1.7,1.077-2.37,1.862a8.864,8.864,0,0,0-.74,1.2,3.983,3.983,0,0,1-1.081,1.152c-.385.273-.795.515-1.192.769l-.423-.412c.4-.254.808-.492,1.185-.773a4.556,4.556,0,0,0,1.07-1.129c.26-.39.424-.83.723-1.2.628-.769,1.591-1.083,2.282-1.778A7.266,7.266,0,0,0,20.15,10.5Zm-6.325,5.081a4.591,4.591,0,0,0,1.594-1.759,3.928,3.928,0,0,1,1.469-1.606,5.616,5.616,0,0,0,1.736-1.465,11.319,11.319,0,0,0,.652-1.1l.445.433a8.661,8.661,0,0,1-.9,1.444c-.7.824-1.775,1.156-2.479,1.986a11.953,11.953,0,0,0-.785,1.273,3.994,3.994,0,0,1-1.086,1.1c-.369.252-.752.484-1.127.725l-.449-.437Zm1.246,2.711-.448-.437.927-.594A4.055,4.055,0,0,0,17.094,15.6a4.157,4.157,0,0,1,1.472-1.67,5.9,5.9,0,0,0,1.751-1.452A10.769,10.769,0,0,0,21,11.329l.446.434a7.785,7.785,0,0,1-.972,1.528c-.7.768-1.726,1.093-2.4,1.9a10.727,10.727,0,0,0-.748,1.221,4.019,4.019,0,0,1-1.147,1.169C15.813,17.824,15.439,18.056,15.071,18.293Zm2.143-.823.022-.021a4.532,4.532,0,0,0,.846-1.213,3.743,3.743,0,0,1,1.714-1.67l.006,0a4.547,4.547,0,0,0,1.717-1.738l.541-.973a.29.29,0,0,0-.051-.348L20.1,9.646c.007-.118.011-.236.011-.354a5.963,5.963,0,0,0-.1-1.06A3.539,3.539,0,0,0,22.488,6.6,8.726,8.726,0,0,1,17.214,17.47Z" transform="translate(-4.907 0)" fill="#072a40"/>
      <path id="Path_5899" data-name="Path 5899" d="M108.8,86.943a1.929,1.929,0,1,0-1.93-1.9A1.949,1.949,0,0,0,108.8,86.943Zm-.382-3.224a1.349,1.349,0,1,1-.939,1.573A1.363,1.363,0,0,1,108.414,83.72Z" transform="translate(-103.091 -80.01)" fill="#072a40"/>
      <path id="Path_5900" data-name="Path 5900" d="M338.429,70.7a2.288,2.288,0,1,0-1.457-2.524A2.305,2.305,0,0,0,338.429,70.7Zm.2-3.746a1.709,1.709,0,1,1-1.081,1.927A1.723,1.723,0,0,1,338.631,66.95Z" transform="translate(-324.65 -63.811)" fill="#072a40"/>
    </g>
  </g>
</svg>
