<svg xmlns="http://www.w3.org/2000/svg" width="20" height="20" viewBox="0 0 20 20">
  <g id="comida_fusion" transform="translate(-9059 -1374)">
    <rect id="Rectangle_8277" data-name="Rectangle 8277" width="20" height="20" transform="translate(9059 1374)" fill="none"/>
    <g id="restaurant_copy_2" data-name="restaurant copy 2" transform="translate(9060 1296.3)">
      <g id="Group_13586" data-name="Group 13586" transform="translate(2.872 81.7)">
        <g id="Group_13585" data-name="Group 13585" transform="translate(0 0)">
          <path id="Path_6138" data-name="Path 6138" d="M87.829,81.7a6.127,6.127,0,1,0,6.127,6.127A6.134,6.134,0,0,0,87.829,81.7Zm5.526,5.583a.269.269,0,0,1-.268.257H91.825v-.676a.287.287,0,0,0-.287-.287H88.117v-.574h.825a.287.287,0,0,0,.287-.287.269.269,0,0,1,.269-.269h.371a.287.287,0,0,0,.287-.287v-.938h1.892A5.53,5.53,0,0,1,93.356,87.287Zm-5.526-5.008a5.576,5.576,0,0,1,.753.051.826.826,0,0,1-1.506,0A5.575,5.575,0,0,1,87.829,82.278ZM84.2,83.628v2.989H82.411A5.558,5.558,0,0,1,84.2,83.628Zm-1.848,5.146a.449.449,0,0,1,.281-.1h1.938V89.5a2.14,2.14,0,0,1-.406,1.132l-.612.744A5.532,5.532,0,0,1,82.357,88.773Zm5.473,4.611a5.581,5.581,0,0,1-.753-.051.826.826,0,0,1,1.506,0A5.583,5.583,0,0,1,87.829,93.384Zm1.327-.161a1.4,1.4,0,0,0-2.654,0A5.551,5.551,0,0,1,83.951,91.8l.662-.8a2.7,2.7,0,0,0,.537-1.5V88.388a.287.287,0,0,0-.287-.287H82.638a1.028,1.028,0,0,0-.352.062c-.006-.109-.01-.22-.01-.331a5.581,5.581,0,0,1,.037-.64H84.2v.084a.287.287,0,1,0,.574,0V83.193a5.524,5.524,0,0,1,1.723-.754,1.4,1.4,0,0,0,2.654,0,5.544,5.544,0,0,1,2.324,1.212H89.313a.287.287,0,0,0,0,.574h.269v.65H89.5a.845.845,0,0,0-.793.556h-.875a.287.287,0,0,0-.287.287v.862h-.454a.287.287,0,0,0,0,.574h3.05v.574H87.459a1.029,1.029,0,0,0,0,2.058h.084V90.8a1.03,1.03,0,0,0,1.029,1.029h1.3a.287.287,0,0,0,.287-.287V90.352a.287.287,0,0,0-.574,0v.9H88.571a.455.455,0,0,1-.454-.454V89.5a.287.287,0,0,0-.287-.287h-.371a.454.454,0,0,1,0-.909h2.123v.9a.287.287,0,0,0,.574,0v-.9h.269a.287.287,0,0,0,.287-.287v-.862h.538v1.6a.287.287,0,0,0,.574,0v-.64h1.263a.839.839,0,0,0,.29-.051A5.564,5.564,0,0,1,89.156,93.224Z" transform="translate(-81.702 -81.704)" fill="#072a40"/>
        </g>
      </g>
      <g id="Group_13588" data-name="Group 13588" transform="translate(11.864 90.061)">
        <g id="Group_13587" data-name="Group 13587" transform="translate(0 0)">
          <path id="Path_6139" data-name="Path 6139" d="M337.774,319.549a.287.287,0,0,0-.287.287v.383a.287.287,0,1,0,.574,0v-.383A.287.287,0,0,0,337.774,319.549Z" transform="translate(-337.487 -319.549)" fill="#072a40"/>
        </g>
      </g>
      <g id="Group_13590" data-name="Group 13590" transform="translate(7.971 84.012)">
        <g id="Group_13589" data-name="Group 13589" transform="translate(0 0)">
          <path id="Path_6140" data-name="Path 6140" d="M227.022,147.456a.287.287,0,0,0-.287.287v.383a.287.287,0,1,0,.574,0v-.383A.287.287,0,0,0,227.022,147.456Z" transform="translate(-226.735 -147.456)" fill="#072a40"/>
        </g>
      </g>
      <g id="Group_13592" data-name="Group 13592" transform="translate(0 81.7)">
        <g id="Group_13591" data-name="Group 13591" transform="translate(0 0)">
          <path id="Path_6141" data-name="Path 6141" d="M2.585,81.7a.287.287,0,0,0-.287.287v1.819H1.723V81.987a.287.287,0,0,0-.574,0v1.819H.574V81.987a.287.287,0,0,0-.574,0v2.872a1.442,1.442,0,0,0,.574,1.148v7.085a.862.862,0,0,0,1.723,0V86.008a1.442,1.442,0,0,0,.574-1.148V81.987A.287.287,0,0,0,2.585,81.7ZM2.3,84.859a.865.865,0,0,1-.431.746.287.287,0,0,0-.143.249v7.239a.287.287,0,1,1-.574,0V85.854a.287.287,0,0,0-.143-.249.865.865,0,0,1-.431-.746v-.479H2.3v.479Z" transform="translate(0 -81.7)" fill="#072a40"/>
        </g>
      </g>
      <g id="Group_13594" data-name="Group 13594" transform="translate(15.701 81.7)">
        <g id="Group_13593" data-name="Group 13593" transform="translate(0 0)">
          <path id="Path_6142" data-name="Path 6142" d="M447.787,81.7a1.15,1.15,0,0,0-1.149,1.149v4.5a1.15,1.15,0,0,0,1.149,1.149h.574v4.6a.287.287,0,1,1-.574,0V89.359a.287.287,0,1,0-.574,0v3.734a.862.862,0,1,0,1.723,0V82.849A1.15,1.15,0,0,0,447.787,81.7Zm.574,6.223h-.574a.575.575,0,0,1-.574-.574v-4.5a.574.574,0,0,1,1.149,0Z" transform="translate(-446.638 -81.7)" fill="#072a40"/>
        </g>
      </g>
    </g>
  </g>
</svg>
