<svg xmlns="http://www.w3.org/2000/svg" width="20" height="20" viewBox="0 0 20 20">
  <g id="comida_vegetariana" transform="translate(-47 -556)">
    <rect id="Rectangle_8277" data-name="Rectangle 8277" width="20" height="20" transform="translate(47 556)" fill="none"/>
    <g id="vegetable" transform="translate(47 556.071)">
      <path id="Path_5903" data-name="Path 5903" d="M20.585,12.04A4.389,4.389,0,0,0,18.8,8.527a1.344,1.344,0,0,0-.795-.261,1.33,1.33,0,0,0-.935.385c-.046-.038-.088-.08-.135-.117a1.314,1.314,0,0,0-.6-.246l.139-1.532c0-.037,0-.074,0-.111a1.224,1.224,0,0,0-1.223-1.223h-.082a1.224,1.224,0,0,0-1.223,1.223c0,.037,0,.074.005.111l.14,1.538a1.352,1.352,0,0,0-.558.237c-.057.042-.107.091-.161.136-.028-.029-.058-.056-.088-.082a1.846,1.846,0,0,0-.327-1.425,1.894,1.894,0,0,0-1.649-3,1.887,1.887,0,0,0-1.257-1.188,1.869,1.869,0,0,0-1.586-.707,1.893,1.893,0,0,0-3.427-.318A1.9,1.9,0,0,0,3.277,3.371,2.538,2.538,0,0,0,1.632,5.738,2.513,2.513,0,0,0,2.737,7.826a1.887,1.887,0,0,0,.529,2.211,1.829,1.829,0,0,0-.055.44,1.9,1.9,0,0,0,1.668,1.882l.7,1.957a3.493,3.493,0,0,0-.9.973l-1.655-.368a.856.856,0,0,0-.193-.021.886.886,0,0,0-.885.885v.125a.875.875,0,0,0,.041.253H1.948a.948.948,0,1,0,0,1.9h.041a.875.875,0,0,0-.041.253v.125a.886.886,0,0,0,.885.885.864.864,0,0,0,.192-.021l1.656-.368a3.472,3.472,0,0,0,2.953,1.653h.074a3.489,3.489,0,0,0,.528-.04l10.832-1.666a1.785,1.785,0,0,0,.492-3.379,4.369,4.369,0,0,0,1.024-2.8Zm-4.033-3a3.883,3.883,0,0,1,1.506,3.072v1.16a3.9,3.9,0,0,1-.466,1.847l-2.533-.39a6.3,6.3,0,0,1-.16-1.4V12.047a6.289,6.289,0,0,1,.08-.952c.077.007.154.014.236.014.9,0,1.579-.408,1.579-.948a.859.859,0,0,0-.564-.737l.046-.511a.662.662,0,0,1,.275.123ZM15.174,6.054h.082a.591.591,0,0,1,.591.591.505.505,0,0,1,0,.054l-.287,3.155.241.077c.277.088.364.205.364.23,0,.079-.336.316-.948.316s-.948-.237-.948-.316c0-.025.087-.142.364-.23l.241-.077L14.586,6.7c0-.018,0-.036,0-.054a.591.591,0,0,1,.591-.591Zm-1.02,2.869.045.5a.859.859,0,0,0-.564.737c0,.348.284.639.725.8a6.96,6.96,0,0,0-.094,1.083v1.283a6.942,6.942,0,0,0,.123,1.294l-1.862-.287a3.8,3.8,0,0,1-.156-1.068v-1.16a3.848,3.848,0,0,1,1.545-3.07A.706.706,0,0,1,14.154,8.924ZM10.74,14.061a3.674,3.674,0,0,1-.263-1.357V12.04A3.757,3.757,0,0,1,12,9.034a.712.712,0,0,1,.42-.137.7.7,0,0,1,.5.205,4.475,4.475,0,0,0-1.178,3.005v1.16a4.424,4.424,0,0,0,.109.964Zm.03-9.491.057.325.322-.072a1.261,1.261,0,0,1,1.176,2.115l-.217.221.217.221a1.256,1.256,0,0,1,.363.884c0,.009,0,.019,0,.029a1.309,1.309,0,0,0-1.057.232,4.4,4.4,0,0,0-1.335,1.6q-.18-.559-.375-1.069a4.48,4.48,0,0,1,1.387-2.446l-.2-.246-.2-.247A5,5,0,0,0,9.533,8.115,19.629,19.629,0,0,0,8.215,5.568l-.532.342A18.592,18.592,0,0,1,8.735,7.886a5.2,5.2,0,0,0-2.08-.251l.063.629a3.461,3.461,0,0,1,2.449.617c.221.544.44,1.141.632,1.78a5.347,5.347,0,0,0-2.165-.5v.632a4.246,4.246,0,0,1,2.254.671,4.266,4.266,0,0,0-.042.576V12.7a4.31,4.31,0,0,0,.188,1.248l-1.8-.276c-.095-.015-.19-.024-.287-.031a1.262,1.262,0,0,1-1.177-1.722l.092-.242-.219-.138a1.257,1.257,0,0,1-.381-1.764l.2-.3-.317-.161a1.893,1.893,0,0,1,.335-3.51l.2-.056.029-.2A1.267,1.267,0,0,1,7.95,4.475a.25.25,0,0,1,.034,0l.067.008.226.018L8.367,4.3a1.261,1.261,0,0,1,2.4.274Zm-5.44,7.17H5.107A1.254,1.254,0,0,1,3.93,10.028l.093-.242L3.8,9.648a1.257,1.257,0,0,1-.381-1.764l.2-.3L3.3,7.427a1.893,1.893,0,0,1,.335-3.51l.2-.056.029-.2a1.267,1.267,0,0,1,1.244-1.08.264.264,0,0,1,.035,0l.065.008.227.019.089-.21a1.261,1.261,0,0,1,2.4.275L7.984,3l.322-.072A1.158,1.158,0,0,1,9,2.973a1.891,1.891,0,0,0-1.11.871A1.9,1.9,0,0,0,6.12,5.267a2.525,2.525,0,0,0-.54,4.454,1.887,1.887,0,0,0,.529,2.211,1.827,1.827,0,0,0-.055.44,1.9,1.9,0,0,0,.617,1.4,3.441,3.441,0,0,0-.541.208ZM2.579,15.91v-.125a.258.258,0,0,1,.309-.247l1.5.334c-.037.1-.069.192-.1.292H2.833A.254.254,0,0,1,2.579,15.91Zm-.948,1.2a.316.316,0,0,1,.316-.316H4.175c-.009.1-.016.209-.016.316s.007.212.016.316H1.948a.316.316,0,0,1-.316-.316Zm1.256,1.573a.26.26,0,0,1-.308-.247v-.125a.254.254,0,0,1,.253-.253H4.294c.028.1.061.2.1.292Zm17.066-1.573a1.151,1.151,0,0,1-.981,1.144L8.141,19.92a2.849,2.849,0,0,1-.433.033H7.634a2.843,2.843,0,1,1,0-5.686h.074a2.882,2.882,0,0,1,.432.033l10.832,1.666A1.151,1.151,0,0,1,19.954,17.111Zm0-4.406a3.74,3.74,0,0,1-1.078,2.609l-.628-.1a4.531,4.531,0,0,0,.442-1.948v-1.16A4.532,4.532,0,0,0,17.528,9.09a.7.7,0,0,1,.479-.193.708.708,0,0,1,.42.138,3.755,3.755,0,0,1,1.527,3.005Z" transform="translate(-1 -1)" fill="#041d2c"/>
      <path id="Path_5904" data-name="Path 5904" d="M21,47h.632v3.159H21Z" transform="translate(-14.682 -32.469)" fill="#041d2c"/>
      <path id="Path_5905" data-name="Path 5905" d="M29,47h.632v3.159H29Z" transform="translate(-20.155 -32.469)" fill="#041d2c"/>
      <path id="Path_5906" data-name="Path 5906" d="M37,47h.632v3.159H37Z" transform="translate(-25.628 -32.469)" fill="#041d2c"/>
      <path id="Path_5907" data-name="Path 5907" d="M45,49h.632v1.9H45Z" transform="translate(-31.101 -33.837)" fill="#041d2c"/>
      <path id="Path_5908" data-name="Path 5908" d="M53,50h.632v1.264H53Z" transform="translate(-36.574 -34.521)" fill="#041d2c"/>
    </g>
  </g>
</svg>
