<svg xmlns="http://www.w3.org/2000/svg" width="20" height="20" viewBox="0 0 20 20">
  <g id="comida_sobremesa" transform="translate(-50 -626)">
    <rect id="Rectangle_8277" data-name="Rectangle 8277" width="20" height="20" transform="translate(50 626)" fill="none"/>
    <g id="outline" transform="translate(50 627.66)">
      <path id="Path_5909" data-name="Path 5909" d="M21.585,20.614H17.907l-.562-6.749a1.336,1.336,0,0,0-1.323-1.218H14.885a.991.991,0,0,0-1.338-1.24,4.154,4.154,0,0,0-.585-1.415,1.328,1.328,0,0,0,1.321-1.328V8H12.954a1.328,1.328,0,0,0-1.328,1.328V9.4a2.885,2.885,0,0,0-1.256,2.01.988.988,0,0,0-1.338,1.24H7.9a1.336,1.336,0,0,0-1.323,1.218L6.01,20.614H2.332A.332.332,0,0,0,2,20.946v.332a1.662,1.662,0,0,0,1.66,1.66h.332v1a.332.332,0,0,0,.332.332H19.593a.332.332,0,0,0,.332-.332v-1h.332a1.662,1.662,0,0,0,1.66-1.66v-.332A.332.332,0,0,0,21.585,20.614Zm-7.635-8.63a.332.332,0,1,1-.332.332A.332.332,0,0,1,13.95,11.983Zm-1-3.319h.664a.664.664,0,0,1-.664.664H12.29A.664.664,0,0,1,12.954,8.664Zm-1,1.328c.42,0,1,1.271,1,1.992,0,.166,0,.664-1,.664s-1-.5-1-.664C10.962,11.262,11.538,9.992,11.958,9.992ZM9.967,11.983a.332.332,0,1,1-.332.332A.332.332,0,0,1,9.967,11.983ZM7.234,13.92a.668.668,0,0,1,.661-.609h8.126a.668.668,0,0,1,.661.609l.06.719h-.8a1,1,0,0,0-1,1V18.29a.333.333,0,0,1-.39.327.36.36,0,0,1-.274-.363V15.931a1,1,0,0,0-1.162-.983,1.023,1.023,0,0,0-.83,1.018v1a.332.332,0,0,1-.39.327.36.36,0,0,1-.274-.363V14.971a1,1,0,0,0-1.162-.982,1.023,1.023,0,0,0-.83,1.018v3.948a.332.332,0,0,1-.117.253.336.336,0,0,1-.273.074.36.36,0,0,1-.274-.363V15.635a1,1,0,0,0-1-1h-.8ZM7.119,15.3h.856a.332.332,0,0,1,.332.332v3.284a1.023,1.023,0,0,0,.83,1.018,1,1,0,0,0,1.162-.982V15.006a.36.36,0,0,1,.274-.363.333.333,0,0,1,.39.327v1.956a1.023,1.023,0,0,0,.83,1.018,1,1,0,0,0,1.162-.982v-1a.36.36,0,0,1,.274-.363.332.332,0,0,1,.39.327v2.324a1.023,1.023,0,0,0,.83,1.018,1,1,0,0,0,1.162-.982V15.635a.332.332,0,0,1,.332-.332H16.8l.442,5.311H6.676Zm12.142,8.3H4.656v-.664H19.261Zm1-1.328H3.66a1,1,0,0,1-1-1H21.253A1,1,0,0,1,20.257,22.273Z" transform="translate(-2 -8)" fill="#072a40"/>
      <rect id="Rectangle_8339" data-name="Rectangle 8339" width="1.039" transform="translate(9.348 3.801)" fill="#072a40"/>
    </g>
  </g>
</svg>
