<svg xmlns="http://www.w3.org/2000/svg" width="20" height="20" viewBox="0 0 20 20">
  <g id="comida_da_banda" transform="translate(-4911 190)">
    <rect id="Rectangle_8277" data-name="Rectangle 8277" width="20" height="20" transform="translate(4911 -190)" fill="none"/>
    <g id="eat" transform="translate(4890.901 -189)">
      <g id="Group_12868" data-name="Group 12868" transform="translate(21.699 0)">
        <g id="Group_12867" data-name="Group 12867">
          <g id="Group_12866" data-name="Group 12866">
            <path id="Path_6081" data-name="Path 6081" d="M49.942,7.977A7.965,7.965,0,0,0,48.79,3.846a1.7,1.7,0,0,1,.817-.673.339.339,0,0,0,0-.635A2.016,2.016,0,0,1,48.48,1.207a.339.339,0,0,0-.647,0,2.445,2.445,0,0,1-.484.884,8.032,8.032,0,0,0-.946-.744.262.262,0,0,0-.292.435,7.47,7.47,0,0,1,.828.645,1.55,1.55,0,0,1-.233.11.339.339,0,0,0,0,.635A2.016,2.016,0,0,1,47.833,4.5a.339.339,0,0,0,.647,0c.009-.029.019-.06.031-.092a7.447,7.447,0,0,1-1.977,9.449l-.243-2.269a5.631,5.631,0,0,0-.863-8.064L45.312,2.44A.9.9,0,0,0,44.1,1.7a.89.89,0,0,0-.29.184.953.953,0,0,0-.278.669,5.637,5.637,0,0,0-4.014.341l-1-.132a.444.444,0,0,0-.5.381l-.123.932a5.628,5.628,0,0,0-.138,7.646l-.289,2.188A7.452,7.452,0,0,1,45.083,1.205.262.262,0,1,0,45.3.729,7.978,7.978,0,0,0,33.989,7.977a7.924,7.924,0,0,0,2.336,5.64,8.055,8.055,0,0,0,1.062.893l-.06.455a.262.262,0,1,0,.519.069L38.6,9.3l.822.109-1.01,7.643c-.065.5-.887.383-.822-.109l.092-.7a.262.262,0,1,0-.519-.069l-.092.7a.893.893,0,0,0,.178.664.952.952,0,0,0,1.683-.419l.221-1.674a8.034,8.034,0,0,0,5.657-.015l.178,1.666a.956.956,0,0,0,1.672.46.893.893,0,0,0,.194-.66l-.26-2.427a8.072,8.072,0,0,0,1.007-.854,7.925,7.925,0,0,0,2.336-5.64ZM48.157,3.9a2.457,2.457,0,0,0-.91-1.046,2.457,2.457,0,0,0,.91-1.046,2.457,2.457,0,0,0,.91,1.046A2.457,2.457,0,0,0,48.157,3.9ZM47.082,7.977a5.086,5.086,0,0,1-.872,2.854l-.2-1.858-.5-4.681A5.1,5.1,0,0,1,47.082,7.977ZM44.055,2.518a.369.369,0,0,1,.736-.022l.671,6.272-.824.088-.076-.713a.889.889,0,0,0-.31-.586l-.282-.24a.372.372,0,0,1-.13-.3Zm-2.089.343A5.1,5.1,0,0,1,43.5,3.1l-.186,3.9a.9.9,0,0,0,.314.723c.16.136.378.258.41.482l.1.973.348,3.251a5.1,5.1,0,0,1-4.944.061l.432-3.267L40.141,8a.162.162,0,0,1,.1-.133,1.454,1.454,0,0,0,.942-1.181l.4-3.064a.443.443,0,0,0-.381-.5l-.6-.079a5.1,5.1,0,0,1,1.355-.182ZM38.28,7.751l-.161,1.22-.269,2.04a5.105,5.105,0,0,1-.086-5.95l-.152,1.15a1.454,1.454,0,0,0,.6,1.385A.162.162,0,0,1,38.28,7.751Zm.393,1.029L38.8,7.82a.682.682,0,0,0-.289-.657.926.926,0,0,1-.379-.884L38.525,3.3l.489.065-.329,2.493a.262.262,0,0,0,.225.294l.035,0a.262.262,0,0,0,.259-.228l.329-2.493.519.068L39.723,5.99a.262.262,0,0,0,.225.294l.035,0a.262.262,0,0,0,.259-.228l.329-2.493.489.065-.394,2.984a.926.926,0,0,1-.6.755.682.682,0,0,0-.45.559l-.127.961Zm3.293,6.649a7.413,7.413,0,0,1-2.738-.521l.247-1.872a5.627,5.627,0,0,0,5.077-.049l.2,1.9A7.412,7.412,0,0,1,41.966,15.429Zm4.291,1.8a.449.449,0,0,1-.331.146.375.375,0,0,1-.412-.333l-.82-7.666.824-.088.82,7.666A.372.372,0,0,1,46.257,17.229Z" transform="translate(-33.56 0)" fill="#072a40"/>
            <path id="Path_6082" data-name="Path 6082" d="M24.248,384.281a1.548,1.548,0,0,1-.861-1.022.323.323,0,0,0-.617,0h0a1.548,1.548,0,0,1-.861,1.022.323.323,0,0,0,0,.6,1.548,1.548,0,0,1,.861,1.022.323.323,0,0,0,.617,0,1.548,1.548,0,0,1,.861-1.022.323.323,0,0,0,0-.6Zm-1.17,1.013a.717.717,0,0,1,0-1.422.717.717,0,0,1,0,1.422Z" transform="translate(-21.699 -369.655)" fill="#072a40"/>
          </g>
        </g>
      </g>
    </g>
  </g>
</svg>
