<svg xmlns="http://www.w3.org/2000/svg" width="20" height="20" viewBox="0 0 20 20">
  <g id="comida_sushi" transform="translate(-40 -440)">
    <rect id="Rectangle_8277" data-name="Rectangle 8277" width="20" height="20" transform="translate(40 440)" fill="none"/>
    <g id="sushi" transform="translate(40 441.428)">
      <path id="Path_5893" data-name="Path 5893" d="M233.239,340.105a.29.29,0,0,0-.29.29v.481a.29.29,0,0,0,.579,0V340.4A.29.29,0,0,0,233.239,340.105Zm0,0" transform="translate(-223.954 -326.992)" fill="#072a40"/>
      <path id="Path_5894" data-name="Path 5894" d="M138.419,340.105a.29.29,0,0,0-.29.29v.481a.29.29,0,0,0,.579,0V340.4A.29.29,0,0,0,138.419,340.105Zm0,0" transform="translate(-132.795 -326.992)" fill="#072a40"/>
      <path id="Path_5895" data-name="Path 5895" d="M175.475,349.228a.3.3,0,0,0-.4.083.239.239,0,0,1-.2.107.234.234,0,0,1-.2-.107.29.29,0,0,0-.484.318.816.816,0,0,0,1.364,0A.289.289,0,0,0,175.475,349.228Zm0,0" transform="translate(-167.422 -335.716)" fill="#072a40"/>
      <path id="Path_5896" data-name="Path 5896" d="M142.38,220.268a.29.29,0,0,0,.271-.512c-.214-.113-.341-.255-.341-.378s.128-.265.341-.378a2.57,2.57,0,0,1,2.121,0c.214.113.341.255.341.378s-.128.265-.341.378a2.349,2.349,0,0,1-1.06.229.29.29,0,1,0,0,.579c1.129,0,1.981-.51,1.981-1.187s-.852-1.187-1.981-1.187-1.981.51-1.981,1.187A1.046,1.046,0,0,0,142.38,220.268Zm0,0" transform="translate(-136.258 -209.786)" fill="#072a40"/>
      <path id="Path_5897" data-name="Path 5897" d="M18.626,6.612A8.107,8.107,0,0,0,12.84,5.307l1.678-1.294a1,1,0,0,0-1.165-1.624l-.989.659.683-.973a1,1,0,0,0-1.6-1.2L6.546,6.924l-1.269.845A3.97,3.97,0,0,0,3.489,8.96L.681,10.83a1.526,1.526,0,0,0-.394,2.16,1.492,1.492,0,0,0,1.236.637,1.518,1.518,0,0,0,.607,1.252,1.474,1.474,0,0,0,1.3.26,3.061,3.061,0,0,0,1,.886,6.089,6.089,0,0,0,3.028.738,6.09,6.09,0,0,0,3.028-.738,2.829,2.829,0,0,0,1.146-1.139,1.376,1.376,0,0,0,1.368-.2.167.167,0,0,1,.207,0,1.48,1.48,0,0,0,1.745,0,.173.173,0,0,1,.207,0,1.481,1.481,0,0,0,2.226-.594.173.173,0,0,1,.152-.1,1.48,1.48,0,0,0,1.41-1.7.179.179,0,0,1,.073-.171,1.471,1.471,0,0,0,.589-1.171,1.445,1.445,0,0,0-.229-.789A2.618,2.618,0,0,0,18.626,6.612Zm-4.451-.82a3.716,3.716,0,0,1,.3,1.849.409.409,0,0,1-.444.369.417.417,0,0,1-.369-.448,2.943,2.943,0,0,0-.39-1.729C13.538,5.806,14.141,5.792,14.175,5.793Zm-1.532.136a2.354,2.354,0,0,1,.443,1.589.917.917,0,0,0,.984,1.074.989.989,0,0,0,.983-.9,4.3,4.3,0,0,0-.24-1.867,7.48,7.48,0,0,1,1.253.231,2.374,2.374,0,0,1,.036,1.56.98.98,0,0,0,.627,1.244.946.946,0,0,0,1.248-.626c.032-.1.06-.193.085-.29A.29.29,0,0,0,17.5,7.8c-.022.084-.046.169-.074.252a.409.409,0,0,1-.516.259.417.417,0,0,1-.258-.52,2.976,2.976,0,0,0,.077-1.518,7.53,7.53,0,0,1,1.569.816,2.039,2.039,0,0,1,.54,2.829,2.134,2.134,0,0,1-2.833.537,3.473,3.473,0,0,0-3.868,0,2.045,2.045,0,0,1-.32.178v-.546a1.814,1.814,0,0,0-.278-.953.988.988,0,0,0,.76-1.15,4.305,4.305,0,0,0-.73-1.7A9.891,9.891,0,0,1,12.643,5.929Zm-1.667.531A3.721,3.721,0,0,1,11.732,8.1a.409.409,0,0,1-.324.477.417.417,0,0,1-.478-.328,2.99,2.99,0,0,0-.7-1.4A7.534,7.534,0,0,1,10.976,6.459Zm-1.238.714a2.384,2.384,0,0,1,.536.869,5.242,5.242,0,0,0-.984-.381A2.023,2.023,0,0,1,9.737,7.174ZM11.9,1.236a.421.421,0,0,1,.671.506L11.035,3.933,8.167,5.844Zm1.772,1.635a.421.421,0,0,1,.49.683l-2.718,2.1a8.1,8.1,0,0,0-1.922.962,2.605,2.605,0,0,0-.828.914A8.72,8.72,0,0,0,6.8,7.448ZM4.719,8.656A5.507,5.507,0,0,1,7.454,8a5.507,5.507,0,0,1,2.735.658,1.781,1.781,0,0,1,1.05,1.435,1.781,1.781,0,0,1-1.05,1.435,5.507,5.507,0,0,1-2.735.658,5.507,5.507,0,0,1-2.735-.658,1.781,1.781,0,0,1-1.05-1.435A1.781,1.781,0,0,1,4.719,8.656Zm-3.961,4A1,1,0,0,1,1,11.312l2.1-1.4c-.006.058-.009,2.176-.009,2.176l-.984.759A.958.958,0,0,1,.758,12.652Zm1.357.857c.121-.051.975-.686.975-.686v1.265a1.737,1.737,0,0,0,.077.511A.9.9,0,0,1,2.115,13.51Zm8.075,2.014a5.507,5.507,0,0,1-2.735.659,5.507,5.507,0,0,1-2.735-.659,1.781,1.781,0,0,1-1.05-1.435V11.437a3.377,3.377,0,0,0,.758.59,6.089,6.089,0,0,0,3.028.738,6.09,6.09,0,0,0,3.028-.738,3.37,3.37,0,0,0,.758-.59v2.652A1.781,1.781,0,0,1,10.189,15.524Zm8.476-3.866a.793.793,0,0,0-.3.718.9.9,0,0,1-.859,1.034.749.749,0,0,0-.66.447.9.9,0,0,1-.824.535.893.893,0,0,1-.531-.173.752.752,0,0,0-.89,0,.9.9,0,0,1-1.062,0,.766.766,0,0,0-.89,0,.958.958,0,0,1-.853.114c.011-.081.017-3.074.017-3.074a2.615,2.615,0,0,0,.646-.319,2.9,2.9,0,0,1,3.224,0,2.645,2.645,0,0,0,3.279-.3A.835.835,0,0,1,18.665,11.658Zm0,0" transform="translate(0 -0.5)" fill="#072a40"/>
    </g>
  </g>
</svg>
