<svg xmlns="http://www.w3.org/2000/svg" width="20" height="20" viewBox="0 0 20 20">
  <g id="comida_arabe" transform="translate(-675 -381)">
    <g id="Group_13582" data-name="Group 13582" transform="translate(-8466 -989)">
      <rect id="Rectangle_8088" data-name="Rectangle 8088" width="20" height="20" transform="translate(9141 1370)" fill="none"/>
    </g>
    <g id="tajine" transform="translate(675.5 382.5)">
      <path id="Path_6137" data-name="Path 6137" d="M18.174,46.42H16.251L11.9,37.349a.278.278,0,0,0-.5.241l1.045,2.179H6.565l1.778-3.707h2.323l.219.457a.278.278,0,1,0,.5-.241l-.268-.558V33.778a.278.278,0,0,0-.278-.278H8.168a.278.278,0,0,0-.278.278V35.72L2.758,46.42H.835a.835.835,0,1,0,0,1.671H1l.812,1.265a1.441,1.441,0,0,0,1.218.665H14.252a.278.278,0,0,0,0-.557H3.029a.886.886,0,0,1-.749-.409l-.619-.965H17.348l-.619.965a.886.886,0,0,1-.749.409h-.526a.278.278,0,0,0,0,.557h.526a1.441,1.441,0,0,0,1.218-.665l.812-1.265h.163a.835.835,0,0,0,0-1.671Zm-5.463-6.094,1.162,2.422H5.136L6.3,40.326ZM8.446,34.057h2.116V35.5H8.446Zm9.727,13.477H.835a.278.278,0,1,1,0-.557H4.2a.278.278,0,0,0,0-.557H3.375l1.494-3.115h9.27l1.494,3.115H5.389a.278.278,0,0,0,0,.557H18.174a.278.278,0,1,1,0,.557Z" transform="translate(0 -33.5)" fill="#072a40"/>
    </g>
  </g>
</svg>
