<svg xmlns="http://www.w3.org/2000/svg" width="20" height="20" viewBox="0 0 20 20">
  <g id="comida_massas_pizzas" transform="translate(-215 -391)">
    <rect id="Rectangle_8277" data-name="Rectangle 8277" width="20" height="20" transform="translate(215 391)" fill="none"/>
    <g id="pizza" transform="translate(216.095 392.095)">
      <g id="Group_11231" data-name="Group 11231">
        <g id="Group_11230" data-name="Group 11230" transform="translate(0 0)">
          <path id="Path_5886" data-name="Path 5886" d="M17.423.1A.342.342,0,0,0,17.067.02L2.852,5.089A1.871,1.871,0,0,0,.144,7.4a18.352,18.352,0,0,0,4,5.983,18.351,18.351,0,0,0,5.983,4,1.871,1.871,0,0,0,2.436-2.467L17.506.453A.342.342,0,0,0,17.423.1ZM5,5.048l1.507-.537A.872.872,0,1,1,5,5.048Zm6.934,11.058a1.189,1.189,0,0,1-1.552.643,17.642,17.642,0,0,1-9.61-9.61A1.188,1.188,0,0,1,2.97,6.229,15.306,15.306,0,0,0,6.3,11.219,15.306,15.306,0,0,0,11.3,14.554,1.189,1.189,0,0,1,11.938,16.106ZM14.979,5.727a.883.883,0,0,1-.093-.007.872.872,0,1,1,.631-1.566Zm.766-2.239a1.557,1.557,0,1,0-.993,2.9l-.68,1.989-.782-.6a.342.342,0,1,0-.417.543l.965.741-1.769,5.173a1.864,1.864,0,0,0-.511-.316A14.6,14.6,0,0,1,3.6,5.967a1.871,1.871,0,0,0-.192-.351l.917-.327A1.558,1.558,0,0,0,5.671,6.651a1.579,1.579,0,0,0,.206.014A1.556,1.556,0,0,0,7.186,4.27l4.254-1.517.161.389a.342.342,0,0,0,.632-.262l-.148-.357L16.629.9Z" transform="translate(-0.001 0)" fill="#072a40"/>
        </g>
      </g>
      <g id="Group_11233" data-name="Group 11233" transform="translate(3.065 9.022)">
        <g id="Group_11232" data-name="Group 11232">
          <path id="Path_5887" data-name="Path 5887" d="M90.178,263.769l0-.007a.342.342,0,1,0,0,.007Z" transform="translate(-89.546 -263.609)" fill="#072a40"/>
        </g>
      </g>
      <g id="Group_11235" data-name="Group 11235" transform="translate(1.626 6.301)">
        <g id="Group_11234" data-name="Group 11234">
          <path id="Path_5888" data-name="Path 5888" d="M49.064,186.141a16.2,16.2,0,0,1-.891-1.819.342.342,0,0,0-.632.262,16.881,16.881,0,0,0,.929,1.9.342.342,0,1,0,.595-.339Z" transform="translate(-47.515 -184.111)" fill="#072a40"/>
        </g>
      </g>
      <g id="Group_11237" data-name="Group 11237" transform="translate(8.95 4.367)">
        <g id="Group_11236" data-name="Group 11236">
          <path id="Path_5889" data-name="Path 5889" d="M263.263,127.606a1.557,1.557,0,1,0,1.34,1.747A1.568,1.568,0,0,0,263.263,127.606Zm.662,1.657a.873.873,0,1,1-.751-.979A.874.874,0,0,1,263.924,129.264Z" transform="translate(-261.502 -127.593)" fill="#072a40"/>
        </g>
      </g>
      <g id="Group_11239" data-name="Group 11239" transform="translate(8.861 8.624)">
        <g id="Group_11238" data-name="Group 11238">
          <path id="Path_5890" data-name="Path 5890" d="M260.656,251.993a1.556,1.556,0,0,0-1.747,1.34,1.557,1.557,0,0,0,1.34,1.747,1.582,1.582,0,0,0,.2.013,1.557,1.557,0,0,0,.2-3.1Zm.662,1.657a.874.874,0,0,1-.863.759.887.887,0,0,1-.115-.008.872.872,0,0,1,.112-1.737.883.883,0,0,1,.115.008A.873.873,0,0,1,261.318,253.651Z" transform="translate(-258.896 -251.98)" fill="#072a40"/>
        </g>
      </g>
      <g id="Group_11241" data-name="Group 11241" transform="translate(6.925 7.078)">
        <g id="Group_11240" data-name="Group 11240">
          <path id="Path_5891" data-name="Path 5891" d="M203.771,206.953l-1.052-.138a.342.342,0,1,0-.089.679l1.052.139.045,0a.342.342,0,0,0,.044-.682Z" transform="translate(-202.332 -206.811)" fill="#072a40"/>
        </g>
      </g>
      <g id="Group_11243" data-name="Group 11243" transform="translate(7.056 8.742)">
        <g id="Group_11242" data-name="Group 11242">
          <path id="Path_5892" data-name="Path 5892" d="M206.936,256.426l-.093-.706a.342.342,0,1,0-.679.089l.093.706a.342.342,0,1,0,.679-.089Z" transform="translate(-206.161 -255.423)" fill="#072a40"/>
        </g>
      </g>
    </g>
  </g>
</svg>
