<svg xmlns="http://www.w3.org/2000/svg" width="20" height="20" viewBox="0 0 20 20">
  <g id="comida_gelados" transform="translate(-8605 37)">
    <rect id="Rectangle_8277" data-name="Rectangle 8277" width="20" height="20" transform="translate(8605 -37)" fill="none"/>
    <g id="ice-cream" transform="translate(8548.731 -36)">
      <g id="Group_11695" data-name="Group 11695" transform="translate(59.269 0)">
        <path id="Path_5973" data-name="Path 5973" d="M192.19,291.494a.266.266,0,0,0-.266.266v1.9a.266.266,0,0,0,.532,0v-1.9A.266.266,0,0,0,192.19,291.494Z" transform="translate(-187.221 -281.16)" fill="#072a40"/>
        <path id="Path_5974" data-name="Path 5974" d="M139.808,291.494a.266.266,0,0,0-.266.266v1.9a.266.266,0,0,0,.532,0v-1.9A.266.266,0,0,0,139.808,291.494Z" transform="translate(-136.696 -281.16)" fill="#072a40"/>
        <path id="Path_5975" data-name="Path 5975" d="M244.571,291.494a.266.266,0,0,0-.266.266v1.9a.266.266,0,1,0,.532,0v-1.9A.266.266,0,0,0,244.571,291.494Z" transform="translate(-237.745 -281.16)" fill="#072a40"/>
        <path id="Path_5976" data-name="Path 5976" d="M296.952,293.927a.266.266,0,0,0,.266-.266v-1.9a.266.266,0,0,0-.532,0v1.9A.266.266,0,0,0,296.952,293.927Z" transform="translate(-288.269 -281.16)" fill="#072a40"/>
        <path id="Path_5977" data-name="Path 5977" d="M349.334,293.927a.266.266,0,0,0,.266-.266v-1.9a.266.266,0,0,0-.532,0v1.9A.266.266,0,0,0,349.334,293.927Z" transform="translate(-338.794 -281.16)" fill="#072a40"/>
        <path id="Path_5978" data-name="Path 5978" d="M163.232,178.349a.266.266,0,1,0-.532,0h0a.266.266,0,0,0,.532,0Z" transform="translate(-159.033 -171.77)" fill="#072a40"/>
        <path id="Path_5979" data-name="Path 5979" d="M146.934,158.96a.266.266,0,1,0-.532,0h0a.266.266,0,0,0,.532,0Z" transform="translate(-143.313 -153.068)" fill="#072a40"/>
        <path id="Path_5980" data-name="Path 5980" d="M130.607,178.349a.266.266,0,1,0-.532,0h0a.266.266,0,0,0,.532,0Z" transform="translate(-127.565 -171.77)" fill="#072a40"/>
        <path id="Path_5981" data-name="Path 5981" d="M238.789,82.586a.266.266,0,0,0-.266.266h0a.266.266,0,1,0,.266-.267Z" transform="translate(-232.168 -79.658)" fill="#072a40"/>
        <path id="Path_5982" data-name="Path 5982" d="M222.462,63.2a.266.266,0,0,0-.266.266h0a.266.266,0,1,0,.266-.267Z" transform="translate(-216.42 -60.957)" fill="#072a40"/>
        <path id="Path_5983" data-name="Path 5983" d="M206.164,82.586a.266.266,0,0,0-.266.266h0a.266.266,0,1,0,.266-.267Z" transform="translate(-200.7 -79.658)" fill="#072a40"/>
        <path id="Path_5984" data-name="Path 5984" d="M72.617,7.87h-.438A3.292,3.292,0,0,0,70.7,4.659l.7-1.03,0,0L72.93,1.378A.409.409,0,0,0,72.821.81L71.735.071a.409.409,0,0,0-.568.109L69.69,2.353a.262.262,0,0,0-.018.027l-.415.611a3.311,3.311,0,0,0-.683-1.016,3.241,3.241,0,0,0-2.33-.965A3.3,3.3,0,0,0,62.95,4.191a3.282,3.282,0,0,0-1.611.814A.266.266,0,0,0,61.7,5.4a2.763,2.763,0,0,1,4.636,2.032,2.788,2.788,0,0,1-.035.443H60.845a2.79,2.79,0,0,1-.036-.443,2.73,2.73,0,0,1,.251-1.151.266.266,0,0,0-.483-.223,3.259,3.259,0,0,0-.3,1.373,3.316,3.316,0,0,0,.03.443h-.438a.6.6,0,0,0-.6.6v.691A.6.6,0,0,0,59.6,9.7v2a2.47,2.47,0,0,0,2.468,2.468h3.166v1.6H63.795A1.194,1.194,0,0,0,62.6,16.958v.782a.412.412,0,0,0,.411.412h6.163a.412.412,0,0,0,.412-.412v-.782a1.2,1.2,0,0,0-1.193-1.193H66.951v-1.6h3.167A2.47,2.47,0,0,0,72.585,11.7V9.763h.033a.6.6,0,0,0,.6-.6V8.471A.6.6,0,0,0,72.617,7.87ZM71.538.58l.5.342-.791.084Zm-.681,1,1.391-.147-.414.609-1.391.148Zm-.806,1.186,1.39-.148-.414.609-1.39.147Zm.584,1.038-.408.6a3.268,3.268,0,0,0-.7-.215q-.007-.134-.023-.266Zm1.041,3.623a2.784,2.784,0,0,1-.036.443h-4.8a3.333,3.333,0,0,0,.03-.443A3.277,3.277,0,0,0,66.545,6a2.763,2.763,0,0,1,5.132,1.423ZM66.242,5.5a3.292,3.292,0,0,0-2.669-1.366l-.088,0a2.767,2.767,0,0,1,2.758-2.593,2.714,2.714,0,0,1,1.951.806A2.83,2.83,0,0,1,69,4.133h-.082A3.293,3.293,0,0,0,66.242,5.5Zm2.813,11.46v.662H63.134v-.662a.662.662,0,0,1,.661-.662h4.6A.662.662,0,0,1,69.055,16.958ZM66.42,15.765h-.651v-1.6h.651Zm6.266-6.6a.07.07,0,0,1-.069.069H66.6a.266.266,0,0,0,0,.532h5.455V11.7a1.938,1.938,0,0,1-1.935,1.936H62.071A1.938,1.938,0,0,1,60.135,11.7V9.763H65.37a.266.266,0,1,0,0-.532h-5.5a.07.07,0,0,1-.069-.069V8.471a.07.07,0,0,1,.069-.069H72.617a.07.07,0,0,1,.069.069Z" transform="translate(-59.269 0)" fill="#072a40"/>
        <path id="Path_5985" data-name="Path 5985" d="M323.381,178.348h0a.266.266,0,1,0,.266-.267A.265.265,0,0,0,323.381,178.349Z" transform="translate(-314.018 -171.769)" fill="#072a40"/>
        <path id="Path_5986" data-name="Path 5986" d="M307.348,158.694a.266.266,0,0,0-.266.266h0a.266.266,0,1,0,.266-.267Z" transform="translate(-298.297 -153.068)" fill="#072a40"/>
        <path id="Path_5987" data-name="Path 5987" d="M291.022,178.083a.266.266,0,0,0-.266.266h0a.266.266,0,1,0,.266-.267Z" transform="translate(-282.549 -171.77)" fill="#072a40"/>
      </g>
    </g>
  </g>
</svg>
