<svg xmlns="http://www.w3.org/2000/svg" width="20" height="20" viewBox="0 0 20 20">
  <g id="comida_hamburger" transform="translate(-848 -381)">
    <rect id="Rectangle_8088" data-name="Rectangle 8088" width="20" height="20" transform="translate(848 381)" fill="none"/>
    <g id="burger" transform="translate(849.5 382.5)">
      <path id="Path_5878" data-name="Path 5878" d="M286.482,44.733a7.214,7.214,0,0,1,2.926,1.11A4.561,4.561,0,0,1,291.1,47.8a.332.332,0,1,0,.612-.258,5.22,5.22,0,0,0-1.933-2.245,7.88,7.88,0,0,0-3.2-1.216.332.332,0,0,0-.1.657Zm0,0" transform="translate(-276.693 -42.608)" fill="#072a40"/>
      <path id="Path_5879" data-name="Path 5879" d="M99.659,125.667a.332.332,0,1,0,.114-.4A.34.34,0,0,0,99.659,125.667Zm0,0" transform="translate(-96.325 -121.051)" fill="#072a40"/>
      <path id="Path_5880" data-name="Path 5880" d="M147.831,88.423a.332.332,0,1,0,.112-.4A.339.339,0,0,0,147.831,88.423Zm0,0" transform="translate(-142.896 -85.044)" fill="#072a40"/>
      <path id="Path_5881" data-name="Path 5881" d="M199.6,125.667a.332.332,0,1,0,.114-.4A.34.34,0,0,0,199.6,125.667Zm0,0" transform="translate(-192.944 -121.051)" fill="#072a40"/>
      <path id="Path_5882" data-name="Path 5882" d="M17.009,10.529a1.683,1.683,0,0,0-1.124-1.585V8.112a1.427,1.427,0,0,0,.3-.154,1.312,1.312,0,0,0,.6-1.1,1.3,1.3,0,0,0-.246-.764,1.072,1.072,0,0,0,.066-.615,6.2,6.2,0,0,0-2.751-3.922A9.614,9.614,0,0,0,8.5,0,9.614,9.614,0,0,0,3.158,1.556,6.2,6.2,0,0,0,.407,5.478a1.071,1.071,0,0,0,.139.757,1.292,1.292,0,0,0-.157.623,1.312,1.312,0,0,0,.6,1.1,1.446,1.446,0,0,0,.14.082v.9A1.683,1.683,0,0,0,0,10.529V10.6a1.676,1.676,0,0,0,.536,1.229,1.31,1.31,0,0,0,.192,1.483v1.2a2.325,2.325,0,0,0,2.323,2.323H13.958a2.325,2.325,0,0,0,2.323-2.323V13.458a1.312,1.312,0,0,0,.295-1.737,1.673,1.673,0,0,0,.433-1.125Zm-.664,0V10.6a1.018,1.018,0,0,1-1.016,1.016H10.177l2.118-2.1h3.033A1.017,1.017,0,0,1,16.345,10.529ZM5.035,9.513l.053.053.341.341-.713.713L3.608,9.513Zm3.137,2.2L6.134,9.672h0l-.159-.159H11.35l-2.22,2.2h0l-.479.479ZM1.06,5.6A5.544,5.544,0,0,1,3.53,2.106,8.944,8.944,0,0,1,8.5.664a8.944,8.944,0,0,1,4.974,1.442A5.544,5.544,0,0,1,15.949,5.6a.417.417,0,0,1-.406.488H1.466A.417.417,0,0,1,1.06,5.6Zm.017,1.08a1.082,1.082,0,0,0,.389.072H15.543a1.084,1.084,0,0,0,.528-.137.644.644,0,0,1,.047.242.657.657,0,0,1-.3.55.783.783,0,0,1-.669.092c-.111-.035-.215-.08-.329-.1a1.8,1.8,0,0,0-.376-.038,1.821,1.821,0,0,0-1.168.405,1.226,1.226,0,0,1-1.569,0,1.884,1.884,0,0,0-2.335,0,1.226,1.226,0,0,1-1.569,0,1.885,1.885,0,0,0-2.335,0,1.226,1.226,0,0,1-1.569,0A1.82,1.82,0,0,0,2.73,7.356a1.682,1.682,0,0,0-.647.122.784.784,0,0,1-.728-.071.657.657,0,0,1-.3-.55A.64.64,0,0,1,1.078,6.68ZM1.854,8.2a1.614,1.614,0,0,0,.5-.114,1.144,1.144,0,0,1,.51-.059,1.2,1.2,0,0,1,.65.278,1.884,1.884,0,0,0,2.335,0,1.226,1.226,0,0,1,1.569,0,1.884,1.884,0,0,0,2.335,0,1.226,1.226,0,0,1,1.569,0,1.884,1.884,0,0,0,2.335,0,1.174,1.174,0,0,1,.784-.284,1.076,1.076,0,0,1,.4.072,1.539,1.539,0,0,0,.384.1v.656H1.788V8.2ZM.664,10.529A1.017,1.017,0,0,1,1.681,9.513h.988L4.48,11.325a.332.332,0,0,0,.47,0l.948-.948,1.236,1.236H1.681A1.018,1.018,0,0,1,.664,10.6Zm.444,1.647a1.685,1.685,0,0,0,.573.1H7.8l.616.616a.336.336,0,0,0,.469,0l.623-.617h5.822a1.69,1.69,0,0,0,.552-.093.846.846,0,0,0,.11-.044c.011-.006.028-.019.041-.018s.023.025.03.04a.643.643,0,0,1,.057.253.691.691,0,0,1-.515.661.787.787,0,0,1-.514-.028,1.678,1.678,0,0,0-.647-.122,1.82,1.82,0,0,0-1.168.405,1.226,1.226,0,0,1-1.569,0,1.884,1.884,0,0,0-2.335,0,1.226,1.226,0,0,1-1.569,0,1.884,1.884,0,0,0-2.335,0,1.226,1.226,0,0,1-1.569,0,1.821,1.821,0,0,0-1.168-.405,1.678,1.678,0,0,0-.647.122.783.783,0,0,1-.674-.038.681.681,0,0,1-.348-.484.656.656,0,0,1,0-.186C1.061,12.322,1.092,12.17,1.108,12.176Zm14.509,2.33a1.66,1.66,0,0,1-1.658,1.658H3.051a1.66,1.66,0,0,1-1.658-1.658v-.788A1.439,1.439,0,0,0,2.24,13.7l.017-.006.076-.029a1.028,1.028,0,0,1,.4-.072,1.173,1.173,0,0,1,.784.284,1.884,1.884,0,0,0,2.335,0,1.226,1.226,0,0,1,1.569,0,1.884,1.884,0,0,0,2.335,0,1.226,1.226,0,0,1,1.569,0,1.884,1.884,0,0,0,2.335,0,1.174,1.174,0,0,1,.784-.284,1.1,1.1,0,0,1,.294.038c.091.025.177.065.268.091a1.433,1.433,0,0,0,.613.035v.753Zm0,0" transform="translate(0 0)" fill="#072a40"/>
      <path id="Path_5883" data-name="Path 5883" d="M225.209,88.422a.332.332,0,1,0,.115-.4A.339.339,0,0,0,225.209,88.422Zm0,0" transform="translate(-217.704 -85.043)" fill="#072a40"/>
      <path id="Path_5884" data-name="Path 5884" d="M270.328,132.507a.332.332,0,1,0,.114-.4A.34.34,0,0,0,270.328,132.507Zm0,0" transform="translate(-261.324 -127.663)" fill="#072a40"/>
      <path id="Path_5885" data-name="Path 5885" d="M241.235,38.315a.332.332,0,1,0-.126-.394A.339.339,0,0,0,241.235,38.315Zm0,0" transform="translate(-233.08 -36.454)" fill="#072a40"/>
    </g>
  </g>
</svg>
