<svg xmlns="http://www.w3.org/2000/svg" width="20" height="20" viewBox="0 0 20 20">
  <g id="comida_matabixo_lanche" transform="translate(-8616 200)">
    <rect id="Rectangle_8277" data-name="Rectangle 8277" width="20" height="20" transform="translate(8616 -200)" fill="none"/>
    <g id="Page-1" transform="translate(8616.5 -198)">
      <g id="_008---Coffee-and-Croissant" data-name="008---Coffee-and-Croissant" transform="translate(0)">
        <path id="Shape" d="M18.01,23.747H15.9a4.342,4.342,0,0,0,1.928-1.629.594.594,0,0,0,.034-.546c-.021-.047-.046-.1-.075-.164a5.7,5.7,0,0,0,.817-1.76,6.493,6.493,0,0,0,.1-2.074.763.763,0,0,0-.509-.638c-.317-1.52-.743-1.763-.888-1.843a.693.693,0,0,0-.6-.042c-.774.295-.776.986-.779,1.6,0,.146,0,.295-.014.444a.887.887,0,0,0-.64.583,2.145,2.145,0,0,1-.257.514,3.791,3.791,0,0,0-.4-.183.57.57,0,0,0-.4,0l-1.6.613a.581.581,0,0,0-.3.258,4.263,4.263,0,0,0-.2.418,2.15,2.15,0,0,1-.246-.092V15.625A.625.625,0,0,0,11.247,15h-7.5a.625.625,0,0,0-.625.625v.425a3.515,3.515,0,0,0-.884-.113C0,15.937,0,18.4,0,19.208c0,1.809.879,2.977,2.24,2.977a3.952,3.952,0,0,0,1.066-.152,3.413,3.413,0,0,0,1.275,1.714h-2.6a.679.679,0,0,0-.734.625V25a1.427,1.427,0,0,0,1.578,1.25H17.167A1.427,1.427,0,0,0,18.744,25v-.625a.679.679,0,0,0-.734-.625Zm-1.082-8.114a.071.071,0,0,1,.074,0c.053.03.31.227.546,1.261-.263.011-.6.034-1,.085,0-.117,0-.23.005-.336C16.555,16,16.587,15.763,16.929,15.633Zm-1.058,2.23a.266.266,0,0,1,.209-.177c.058-.012.115-.02.178-.031a10.368,10.368,0,0,1,1.651-.145h.021a.146.146,0,0,1,.155.125A5.863,5.863,0,0,1,18,19.5a4.7,4.7,0,0,1-.543,1.264,7.154,7.154,0,0,0-1.909-2.249A2.767,2.767,0,0,0,15.87,17.863Zm-3.015,1.331,1.566-.6c1.672.658,2.687,2.8,2.874,3.205a4.045,4.045,0,0,1-2.158,1.6,5.208,5.208,0,0,1-1.533.348h-.412a2.472,2.472,0,0,1-.642-.116c-.018-.077-.042-.182-.066-.308a6.675,6.675,0,0,1,.369-4.13Zm-1.9,4.071a5.926,5.926,0,0,0,.958.366c.009.044.018.081.026.116H10.4a3.448,3.448,0,0,0,.55-.482Zm.835-.33a4.171,4.171,0,0,1-1.172-.608A5.383,5.383,0,0,1,9.443,20.95a.187.187,0,0,1,.056-.228l.012-.011A11.1,11.1,0,0,1,10.883,19.7c.05-.031.1-.065.16-.1a.229.229,0,0,1,.241-.005,2.5,2.5,0,0,0,.629.286A7.75,7.75,0,0,0,11.788,22.935Zm-2.7-4.271a.1.1,0,0,1,.068-.07c.331-.125.483.024.868.519.066.085.137.175.213.266-.341.228-.621.44-.833.611a2.235,2.235,0,0,1-.317-1.326ZM3.124,20.115a2.236,2.236,0,0,1-.884.2c-.237,0-.366-.568-.366-1.1,0-1.4.211-1.4.366-1.4a1.332,1.332,0,0,1,.884.289Zm-2.5-.906c0-1.233.184-2.647,1.615-2.647a2.815,2.815,0,0,1,.884.138v.671a2.087,2.087,0,0,0-.884-.184c-.915,0-.99.956-.99,2.021,0,1.082.37,1.728.99,1.728a2.739,2.739,0,0,0,.884-.156v.156a3.381,3.381,0,0,0,.039.488,3.352,3.352,0,0,1-.923.137c-1.011,0-1.615-.879-1.615-2.352Zm3.2,2.359a2.749,2.749,0,0,1-.073-.632V15.625h7.5V18.95a.85.85,0,0,0-.474.094c-.09-.1-.177-.209-.26-.316-.354-.454-.794-1.019-1.583-.719a.726.726,0,0,0-.428.426,2.822,2.822,0,0,0,.425,2.009.787.787,0,0,0-.014.833,6.011,6.011,0,0,0,1.321,1.543c.055.042.111.081.168.119a2.788,2.788,0,0,1-1.966.807H6.56a2.8,2.8,0,0,1-2.739-2.18ZM18.119,25c0,.339-.437.625-.953.625H2.827c-.515,0-.953-.286-.953-.625v-.6a.2.2,0,0,1,.109-.028H18.01a.2.2,0,0,1,.109.028Z" transform="translate(0 -10.314)" fill="#072a40"/>
        <path id="Shape-2" data-name="Shape" d="M22,3.436a.312.312,0,0,0,.625,0,.807.807,0,0,1,.244-.586,1.442,1.442,0,0,0,0-1.953.807.807,0,0,1-.244-.586.312.312,0,0,0-.625,0,1.414,1.414,0,0,0,.381.976.825.825,0,0,1,0,1.172A1.414,1.414,0,0,0,22,3.436Z" transform="translate(-15.127)" fill="#072a40"/>
        <path id="Shape-3" data-name="Shape" d="M16,3.436a.312.312,0,1,0,.625,0,.807.807,0,0,1,.244-.586,1.442,1.442,0,0,0,0-1.953.807.807,0,0,1-.244-.586.312.312,0,1,0-.625,0,1.414,1.414,0,0,0,.381.976.825.825,0,0,1,0,1.172A1.414,1.414,0,0,0,16,3.436Z" transform="translate(-11.001)" fill="#072a40"/>
        <path id="Shape-4" data-name="Shape" d="M28,3.436a.312.312,0,0,0,.625,0,.807.807,0,0,1,.244-.586,1.442,1.442,0,0,0,0-1.953.807.807,0,0,1-.244-.586.312.312,0,0,0-.625,0,1.414,1.414,0,0,0,.381.976.825.825,0,0,1,0,1.172A1.414,1.414,0,0,0,28,3.436Z" transform="translate(-19.253)" fill="#072a40"/>
      </g>
    </g>
  </g>
</svg>
