<svg xmlns="http://www.w3.org/2000/svg" width="20" height="20" viewBox="0 0 20 20">
  <g id="comida_petiscos" transform="translate(-8647 434.148)">
    <g id="sandwich" transform="translate(8648.388 -428.738)">
      <path id="Path_6079" data-name="Path 6079" d="M16.409,6.728V5.248a.974.974,0,0,0,.57-1.1C16.267,1.091,11.676,0,8.538,0a14.7,14.7,0,0,0-4.76.786A.334.334,0,0,0,4,1.414l.173-.06.438,1.2a1,1,0,0,0,1.88-.684l-.364-1C6.508.808,6.893.758,7.282.724l.667,1.832a1,1,0,1,0,1.88-.684L9.4.694c.417.026.837.07,1.253.131l.63,1.73a1,1,0,1,0,1.88-.684l-.177-.487c1.294.453,2.975,1.334,3.342,2.91A.327.327,0,0,1,16,4.669H1.08a.327.327,0,0,1-.333-.375A3.164,3.164,0,0,1,1.791,2.642a.334.334,0,1,0-.441-.5,3.816,3.816,0,0,0-1.253,2,.974.974,0,0,0,.57,1.1v1.48A1,1,0,0,0,0,7.671a2.337,2.337,0,0,0,2.335,2.335H14.741a2.337,2.337,0,0,0,2.335-2.335A1,1,0,0,0,16.409,6.728ZM5.668,2.527a.334.334,0,0,1-.427-.2L4.815,1.159c.212-.058.43-.112.652-.16l.4,1.1A.334.334,0,0,1,5.668,2.527ZM9,2.527a.334.334,0,0,1-.427-.2L7.975.679c.19-.008.378-.012.563-.012h.143L9.2,2.1A.334.334,0,0,1,9,2.527Zm3.335,0a.334.334,0,0,1-.427-.2l-.5-1.37c.265.054.524.114.776.181l.35.96A.334.334,0,0,1,12.338,2.527ZM12.011,6.67l1.334-1.334h2.4V6.67ZM7.2,7.866l-2.53-2.53h5.06Zm-5.87-2.53h2.4L5.065,6.67H1.334Zm9.343,0H12.4l-2.53,2.53L9.01,7Zm4.064,4H2.335A1.669,1.669,0,0,1,.667,7.671.334.334,0,0,1,1,7.337H5.732L6.968,8.574a.333.333,0,0,0,.472,0l1.1-1.1,1.1,1.1a.333.333,0,0,0,.472,0l1.236-1.236h4.731a.334.334,0,0,1,.334.334A1.669,1.669,0,0,1,14.741,9.338Zm0,0" fill="#072a40"/>
      <path id="Path_6080" data-name="Path 6080" d="M70.667,39.334a.334.334,0,1,0-.334.334A.334.334,0,0,0,70.667,39.334Zm0,0" transform="translate(-67.665 -37.699)" fill="#072a40"/>
    </g>
    <rect id="Rectangle_8277" data-name="Rectangle 8277" width="20" height="20" transform="translate(8647 -434.148)" fill="none"/>
  </g>
</svg>
