<svg xmlns="http://www.w3.org/2000/svg" width="20" height="20" viewBox="0 0 20 20">
  <g id="comida_sumos_batidos" transform="translate(-8619 138)">
    <rect id="Rectangle_8277" data-name="Rectangle 8277" width="20" height="20" transform="translate(8619 -138)" fill="none"/>
    <g id="milkshake" transform="translate(8621.8 -137.499)">
      <path id="Path_5970" data-name="Path 5970" d="M3.377,15.82v.791a1.8,1.8,0,0,0,1.8,1.8h5.753a1.8,1.8,0,0,0,1.8-1.8V14.957a.36.36,0,1,0-.719,0v1.654a1.08,1.08,0,0,1-1.079,1.079H5.174A1.08,1.08,0,0,1,4.1,16.611V11.146a2.507,2.507,0,0,1,.756-1.8h6.4a2.52,2.52,0,0,1,.756,1.8v.935a.36.36,0,1,0,.719,0v-.935a3.237,3.237,0,0,0-.618-1.9,1.079,1.079,0,0,0-.178-2.016,1.078,1.078,0,0,0-.719-1.438,1.078,1.078,0,0,0-.541-1.373L11.919,1.5A1.079,1.079,0,0,0,9.936.653L8.367,4.313A1.3,1.3,0,0,1,6.973,3.26a.36.36,0,0,0-.431-.341A2.163,2.163,0,0,0,4.815,5.033a1.43,1.43,0,0,0,.2.731,1.078,1.078,0,0,0-.842,1.464,1.078,1.078,0,0,0-.178,2.016,3.21,3.21,0,0,0-.432.823H3.376a2.877,2.877,0,0,0,0,5.753Zm0-2.157a.719.719,0,0,1,0-1.438ZM10.6.936a.36.36,0,0,1,.661.284L9.932,4.314H9.15ZM5.174,6.471H7.332a.36.36,0,1,0,0-.719H6.253a.719.719,0,0,1-.719-.719,1.444,1.444,0,0,1,.8-1.291A2.127,2.127,0,0,0,8.41,5.033h1.8a.36.36,0,0,1,0,.719.36.36,0,1,0,0,.719h.719a.36.36,0,0,1,0,.719H5.174a.36.36,0,0,1,0-.719ZM4.2,8.015a.357.357,0,0,1,.254-.105h7.191a.36.36,0,1,1,0,.719H4.455A.359.359,0,0,1,4.2,8.015Zm-.824,2.771H3.4a3.231,3.231,0,0,0-.02.36v.36a1.438,1.438,0,0,0,0,2.877V15.1a2.157,2.157,0,1,1,0-4.315Zm0,0" transform="translate(0 0)" fill="#072a40"/>
      <path id="Path_5971" data-name="Path 5971" d="M153.736,296.723a.36.36,0,1,0,0-.719,1.44,1.44,0,0,0-1.438,1.438v.006c-1.049.037-1.8.352-1.8,1.433,0,1.17.928,2.876,2.157,2.876s2.157-1.707,2.157-2.876c0-1.081-.749-1.4-1.8-1.433v-.006A.72.72,0,0,1,153.736,296.723Zm.36,2.157c0,.834-.7,2.157-1.438,2.157s-1.438-1.33-1.438-2.157c0-.531.217-.719,1.438-.719S154.1,298.35,154.1,298.881Zm0,0" transform="translate(-144.606 -285.362)" fill="#072a40"/>
      <path id="Path_5972" data-name="Path 5972" d="M321.215,366.364a.359.359,0,1,1-.36-.36A.36.36,0,0,1,321.215,366.364Zm0,0" transform="translate(-308.49 -352.845)" fill="#072a40"/>
    </g>
  </g>
</svg>
