<svg xmlns="http://www.w3.org/2000/svg" width="44" height="44" viewBox="0 0 44 44">
  <g id="covid_pagamentos" transform="translate(-5904 -725.741)">
    <rect id="Rectangle_8230" data-name="Rectangle 8230" width="44" height="44" transform="translate(5904 725.741)" fill="none"/>
    <g id="pay" transform="translate(5904.82 732.014)">
      <g id="Group_11582" data-name="Group 11582" transform="translate(27.358 20.311)">
        <g id="Group_11581" data-name="Group 11581">
          <path id="Path_5934" data-name="Path 5934" d="M283.086,258.8a3.607,3.607,0,0,0-4.053,0,3.567,3.567,0,0,0-2.021-.62,3.617,3.617,0,0,0,0,7.235,3.566,3.566,0,0,0,2.021-.62,3.618,3.618,0,1,0,4.053-5.994Zm-.811,4.043a1.6,1.6,0,0,1-2.261.2,1.392,1.392,0,0,1-.21-.21.967.967,0,0,0-.771-.35.993.993,0,0,0-.771.36,1.566,1.566,0,0,1-1.241.58,1.619,1.619,0,0,1-1.621-1.611,1.607,1.607,0,0,1,2.852-1.031,1,1,0,0,0,1.411.15,1.058,1.058,0,0,0,.15-.15,1.605,1.605,0,0,1,2.462,2.061Z" transform="translate(-273.4 -258.175)" fill="#072a40"/>
        </g>
      </g>
      <g id="Group_11584" data-name="Group 11584" transform="translate(0)">
        <g id="Group_11583" data-name="Group 11583">
          <path id="Path_5935" data-name="Path 5935" d="M42.627,67.648c0-.09.04-.19.04-.29s-.04-.19-.04-.28V64.936A4.258,4.258,0,0,0,38.345,60.7H37.124V59.493A4.258,4.258,0,0,0,32.9,55.2H4.242A4.275,4.275,0,0,0,0,59.493V77.084a4.224,4.224,0,0,0,4.213,4.233H5.4v1.211a4.3,4.3,0,0,0,4.273,4.293H38.345a4.316,4.316,0,0,0,4.283-4.293V72.341c0-.09.04-.19.04-.28s-.04-.19-.04-.28ZM5.4,64.936V79.316H4.242A2.221,2.221,0,0,1,2,77.124V59.493A2.274,2.274,0,0,1,4.242,57.2H32.911a2.258,2.258,0,0,1,2.221,2.291V60.7H9.676A4.249,4.249,0,0,0,5.4,64.936ZM40.626,82.528a2.3,2.3,0,0,1-2.281,2.292H9.676A2.287,2.287,0,0,1,7.4,82.528V73.012H40.626Zm0-11.518H7.4v-2.6H40.626Zm.01-4.6H7.4V64.936A2.249,2.249,0,0,1,9.676,62.7H38.355a2.251,2.251,0,0,1,2.281,2.231Z" transform="translate(0 -55.2)" fill="#072a40"/>
        </g>
      </g>
    </g>
  </g>
</svg>
