<svg xmlns="http://www.w3.org/2000/svg" width="44" height="44" viewBox="0 0 44 44">
  <g id="covid_entregas" transform="translate(-5839 -728.594)">
    <rect id="Rectangle_8370" data-name="Rectangle 8370" width="44" height="44" transform="translate(5839 728.594)" fill="none"/>
    <g id="no-touch" transform="translate(5840.395 729.356)">
      <circle id="Ellipse_211" data-name="Ellipse 211" cx="0.822" cy="0.822" r="0.822" transform="translate(35.026 34.007)" fill="#072a40"/>
      <path id="Path_5936" data-name="Path 5936" d="M41.022,14.423A21.076,21.076,0,0,0,21.042,0h0a21.047,21.047,0,0,0,.018,42.095,20.929,20.929,0,0,0,6.635-1.08,21.15,21.15,0,0,0,5.892-3.066.822.822,0,0,0-.978-1.322,19.538,19.538,0,0,1-11.547,3.823h0a19.378,19.378,0,1,1,16.359-8.984.822.822,0,0,0,1.388.882,21.024,21.024,0,0,0,2.219-17.926Z" transform="translate(0 0)" fill="#072a40"/>
      <path id="Path_5937" data-name="Path 5937" d="M76.862,53.038a.822.822,0,0,0-.128-.659A17.378,17.378,0,0,0,62.535,45h0A17.29,17.29,0,0,0,48.4,52.329a16.147,16.147,0,0,0-2.462,5.137h0a16.505,16.505,0,0,0-.723,4.888,17.187,17.187,0,0,0,1.28,6.555.818.818,0,0,0,.483.463.8.8,0,0,0,.274.048.817.817,0,0,0,.393-.1L76.455,53.574A.825.825,0,0,0,76.862,53.038ZM54.949,63.452c-.159-1.032-.4-2.638-.427-2.836a1.433,1.433,0,0,1,1.5,1.143l.24.976Zm4.879-2.666-1.448.791s.142-7.25.142-7.255a.66.66,0,0,1,.195-.47.634.634,0,0,1,.457-.194.655.655,0,0,1,.653.661v6.467Zm2.96-1.617-1.315.719V50.61a.67.67,0,0,1,.2-.47.593.593,0,0,1,.485-.194.63.63,0,0,1,.626.7Zm2.96-3.881-.033,2.281-1.283.7V53.582a.674.674,0,0,1,.209-.47.63.63,0,0,1,.455-.194.655.655,0,0,1,.651.664Zm2.992.628-1.341.733c.013-.522.028-1.084.028-1.1a1.521,1.521,0,0,1,.2-.717.657.657,0,0,1,.468-.194.665.665,0,0,1,.663.658Zm1.64-.9a2.309,2.309,0,0,0-3-1.917,2.327,2.327,0,0,0-2.271-1.829,2.6,2.6,0,0,0-.676.1v-.726a2.3,2.3,0,0,0-3.926-1.666,2.3,2.3,0,0,0-.678,1.632v1.5a2.02,2.02,0,0,0-.653-.1,2.3,2.3,0,0,0-2.3,2.3l-.108,5.536a3.064,3.064,0,0,0-2.361-.873,1.652,1.652,0,0,0-1.531,1.642c0,.087.35,2.452.541,3.671l-5.734,3.133a15.59,15.59,0,0,1-.837-5.068,16.193,16.193,0,0,1,.648-4.424h0a15.688,15.688,0,0,1,27.343-5.345Z" transform="translate(-41.493 -41.3)" fill="#072a40"/>
      <path id="Path_5938" data-name="Path 5938" d="M85.7,191.1a17.434,17.434,0,0,0,10.2,3.309h0A17.336,17.336,0,0,0,111.949,170.5a.822.822,0,0,0-1.155-.409L81.98,185.832a.821.821,0,0,0-.279,1.194A17.263,17.263,0,0,0,85.7,191.1Zm17.925-15.221,7.123-3.893a15.64,15.64,0,0,1,.207,9.494A15.793,15.793,0,0,1,100.98,191.9l-.134-2.919a6.389,6.389,0,0,0,2.621-5.421Zm-1.664.909-.141,6.76c0,.006,0,.012,0,.017A4.783,4.783,0,0,1,99.67,187.8a11.787,11.787,0,0,1-1.148.312.822.822,0,0,0,.073,1.641c.025,0,.05,0,.075,0a3.751,3.751,0,0,0,.56-.105l.125,2.721a15.376,15.376,0,0,1-6.226.121l.129-2.816a4.1,4.1,0,0,0,.623.115q.038,0,.075,0a.822.822,0,0,0,.073-1.641,5.551,5.551,0,0,1-1.2-.342,6.582,6.582,0,0,1-.659-.549,9.286,9.286,0,0,1-2.312-3.1c-.083-.189-.167-.4-.254-.628Zm-13.814,7.542c.069.175.136.338.2.492a10.908,10.908,0,0,0,2.65,3.6,6.987,6.987,0,0,0,.64.555L91.5,192.11l-.024-.007h0a15.491,15.491,0,0,1-7.877-5.292Z" transform="translate(-74.847 -156.01)" fill="#072a40"/>
    </g>
  </g>
</svg>
