<svg xmlns="http://www.w3.org/2000/svg" width="80" height="80" viewBox="0 0 80 80">
  <g id="covid_logo" transform="translate(-107.912 -100)">
    <g id="Group_10637" data-name="Group 10637" transform="translate(112.495 100)">
      <g id="Group_9070" data-name="Group 9070" transform="translate(0 0)">
        <path id="Path_5313" data-name="Path 5313" d="M199.788,491.913c-17.114,0-30.985,12.854-30.985,28.711a26.767,26.767,0,0,0,1.184,7.889,41.5,41.5,0,0,0,4.875,11.812q.206.344.406.632h0s2.585,3.9,7.025,9.669,8.162,10.027,8.569,10.593,8.875,10.3,8.875,10.3V549.336h.053c17.114,0,30.985-12.854,30.985-28.712S216.9,491.913,199.788,491.913Z" transform="translate(-168.803 -491.605)" fill="#072a40"/>
        <path id="Path_5317" data-name="Path 5317" d="M276.671,490.939c-.412,0-.821.01-1.229.026,16.2.616,29.141,13.353,29.141,28.978s-12.938,28.362-29.141,28.978c.408.016.817.026,1.229.026,16.773,0,30.37-12.985,30.37-29S293.444,490.939,276.671,490.939Z" transform="translate(-241.747 -490.939)" fill="#f01f1f"/>
        <g id="Group_9069" data-name="Group 9069" transform="translate(49.42 2.816)">
          <path id="Path_5318" data-name="Path 5318" d="M325.209,499.851a28.827,28.827,0,0,1,0,52.375c11.06-4.007,18.923-14.219,18.923-26.188S336.269,503.858,325.209,499.851Z" transform="translate(-325.209 -499.851)" fill="#f77415"/>
          <path id="Path_5319" data-name="Path 5319" d="M356.259,515.215a27.816,27.816,0,0,1-.008,42.747,25.219,25.219,0,0,0,.008-42.747Z" transform="translate(-346.443 -510.361)" fill="#ffe414"/>
        </g>
      </g>
      <g id="Group_9083" data-name="Group 9083" transform="translate(10.6 20.571)">
        <rect id="Rectangle_8134" data-name="Rectangle 8134" width="2.649" height="10.559" transform="translate(0.394 4.251)" fill="#ffe414"/>
        <path id="Path_5314" data-name="Path 5314" d="M206.674,563.988a1.337,1.337,0,0,1-.344.447,1.661,1.661,0,0,1-.541.3,2.16,2.16,0,0,1-.721.112,2.127,2.127,0,0,1-.711-.112,1.658,1.658,0,0,1-.541-.3,1.337,1.337,0,0,1-.344-.447,1.246,1.246,0,0,1-.121-.541,1.271,1.271,0,0,1,.121-.551,1.3,1.3,0,0,1,.344-.443,1.713,1.713,0,0,1,.541-.3,2.121,2.121,0,0,1,.711-.112,2.154,2.154,0,0,1,.721.112,1.716,1.716,0,0,1,.541.3,1.3,1.3,0,0,1,.344.443,1.271,1.271,0,0,1,.121.551A1.245,1.245,0,0,1,206.674,563.988Z" transform="translate(-203.35 -562.042)" fill="#f01f1f"/>
        <path id="Path_5315" data-name="Path 5315" d="M241.463,572.454a6.219,6.219,0,0,1-.465,1.915,6.042,6.042,0,0,1-1.042,1.651,6.446,6.446,0,0,1-1.584,1.293,8.064,8.064,0,0,1-2.094.841,10.367,10.367,0,0,1-2.568.3,10,10,0,0,1-3.494-.573,7.8,7.8,0,0,1-2.618-1.566,6.731,6.731,0,0,1-1.642-2.327,7.183,7.183,0,0,1-.568-2.846,6.881,6.881,0,0,1,.555-2.76,6.31,6.31,0,0,1,1.62-2.233,7.746,7.746,0,0,1,2.618-1.495,10.7,10.7,0,0,1,3.557-.546,14.075,14.075,0,0,1,1.454.076,12.325,12.325,0,0,1,1.441.237,11.439,11.439,0,0,1,1.387.407,8.831,8.831,0,0,1,1.284.586L238,567.564a5.427,5.427,0,0,0-.832-.389,7.686,7.686,0,0,0-1-.3,9.757,9.757,0,0,0-1.1-.184,10.44,10.44,0,0,0-1.141-.063,7.666,7.666,0,0,0-2.363.335,5.144,5.144,0,0,0-1.754.939,4.02,4.02,0,0,0-1.092,1.445,4.468,4.468,0,0,0-.376,1.843,4.558,4.558,0,0,0,.394,1.906,4.3,4.3,0,0,0,1.119,1.494,5.267,5.267,0,0,0,1.754.98,7.647,7.647,0,0,0,4.152.125,4.92,4.92,0,0,0,1.468-.649,3.64,3.64,0,0,0,1.02-1.015,3.431,3.431,0,0,0,.519-1.338h-4.886v-2.335h7.436v.009l.009-.009A7.258,7.258,0,0,1,241.463,572.454Z" transform="translate(-218.424 -563.457)" fill="#fff"/>
        <path id="Path_5316" data-name="Path 5316" d="M296.33,574.116A6.67,6.67,0,0,1,294.7,576.4a7.455,7.455,0,0,1-2.528,1.49,10.242,10.242,0,0,1-6.519,0,7.47,7.47,0,0,1-2.524-1.49,6.673,6.673,0,0,1-1.633-2.286,7.208,7.208,0,0,1-.582-2.922,7.091,7.091,0,0,1,.582-2.9,6.57,6.57,0,0,1,1.633-2.26,7.413,7.413,0,0,1,2.524-1.463,10.49,10.49,0,0,1,6.519,0,7.4,7.4,0,0,1,2.528,1.463,6.567,6.567,0,0,1,1.633,2.26,7.091,7.091,0,0,1,.582,2.9A7.208,7.208,0,0,1,296.33,574.116Z" transform="translate(-256.405 -563.418)" fill="#fff"/>
        <path id="Path_5320" data-name="Path 5320" d="M298.74,573.261a4.762,4.762,0,0,0-1.633-.908,6.884,6.884,0,0,0-4.107,0,4.809,4.809,0,0,0-1.638.908,4.142,4.142,0,0,0-1.083,1.454,4.656,4.656,0,0,0-.389,1.942,4.716,4.716,0,0,0,.389,1.95,4.3,4.3,0,0,0,1.083,1.481,4.878,4.878,0,0,0,1.638.944,6.536,6.536,0,0,0,4.107,0,4.83,4.83,0,0,0,1.633-.944,4.388,4.388,0,0,0,1.083-1.481,4.673,4.673,0,0,0,.394-1.95,4.614,4.614,0,0,0-.394-1.942A4.223,4.223,0,0,0,298.74,573.261Z" transform="translate(-262.546 -568.88)" fill="#072a40"/>
      </g>
    </g>
    <rect id="Rectangle_8233" data-name="Rectangle 8233" width="80" height="80" transform="translate(107.912 100)" fill="none"/>
  </g>
</svg>
