<svg xmlns="http://www.w3.org/2000/svg" width="44" height="44" viewBox="0 0 44 44">
  <g id="covid_embalagens" transform="translate(-5903 -797.603)">
    <rect id="Rectangle_8370" data-name="Rectangle 8370" width="44" height="44" transform="translate(5903 797.603)" fill="none"/>
    <g id="order" transform="translate(5909.404 799.868)">
      <g id="Group_11588" data-name="Group 11588">
        <g id="Group_11587" data-name="Group 11587" transform="translate(0)">
          <path id="Path_5939" data-name="Path 5939" d="M84.318,32.571,82.554,10.345A2.778,2.778,0,0,0,79.8,7.791H76.313V7.635a7.635,7.635,0,1,0-15.269,0v.157H57.56A2.777,2.777,0,0,0,54.8,10.342L53.039,32.574A6.431,6.431,0,0,0,59.451,39.5H77.906a6.431,6.431,0,0,0,6.412-6.926ZM63.357,7.635A5.321,5.321,0,1,1,74,7.635v.157H63.357ZM80.927,35.864a4.075,4.075,0,0,1-3.021,1.32H59.451a4.117,4.117,0,0,1-4.106-4.429L57.11,10.522a.454.454,0,0,1,.45-.417h3.484v2.849a1.157,1.157,0,0,0,2.313,0V10.1H74v2.849a1.157,1.157,0,1,0,2.313,0V10.1H79.8a.454.454,0,0,1,.451.42L82.011,32.75A4.075,4.075,0,0,1,80.927,35.864Z" transform="translate(-53.02)" fill="#072a40"/>
        </g>
      </g>
      <g id="Group_11590" data-name="Group 11590" transform="translate(10.108 19.277)">
        <g id="Group_11589" data-name="Group 11589" transform="translate(0)">
          <path id="Path_5940" data-name="Path 5940" d="M194.814,250.232a1.157,1.157,0,0,0-1.636,0l-5.165,5.165-1.986-1.986a1.157,1.157,0,1,0-1.636,1.636l2.8,2.8a1.156,1.156,0,0,0,1.636,0l5.983-5.983A1.157,1.157,0,0,0,194.814,250.232Z" transform="translate(-184.052 -249.893)" fill="#072a40"/>
        </g>
      </g>
    </g>
  </g>
</svg>
