<svg xmlns="http://www.w3.org/2000/svg" width="32" height="32" viewBox="0 0 32 32">
  <g id="default_32" transform="translate(-195 -331)">
    <rect id="Rectangle_8277" data-name="Rectangle 8277" width="32" height="32" transform="translate(195 331)" fill="none"/>
    <g id="Group_13517" data-name="Group 13517" transform="translate(196.616 342.314)">
      <path id="Path_5314" data-name="Path 5314" d="M205.746,563.445a.962.962,0,0,1-.248.322,1.2,1.2,0,0,1-.39.219,1.555,1.555,0,0,1-.52.081,1.531,1.531,0,0,1-.513-.081,1.194,1.194,0,0,1-.39-.219.962.962,0,0,1-.248-.322.9.9,0,0,1-.087-.39.916.916,0,0,1,.087-.4.938.938,0,0,1,.248-.319,1.233,1.233,0,0,1,.39-.216,1.528,1.528,0,0,1,.513-.081,1.552,1.552,0,0,1,.52.081,1.235,1.235,0,0,1,.39.216.938.938,0,0,1,.248.319.916.916,0,0,1,.087.4A.9.9,0,0,1,205.746,563.445Z" transform="translate(-203.35 -562.042)" fill="#072a40"/>
      <g id="Group_11649" data-name="Group 11649" transform="translate(0.284 0.506)">
        <rect id="Rectangle_8134" data-name="Rectangle 8134" width="1.909" height="7.612" transform="translate(0 2.558)" fill="#072a40"/>
        <path id="Path_5315" data-name="Path 5315" d="M236.976,570.125a4.484,4.484,0,0,1-.336,1.38,4.356,4.356,0,0,1-.751,1.19,4.65,4.65,0,0,1-1.142.932,5.812,5.812,0,0,1-1.509.606,7.473,7.473,0,0,1-1.851.216,7.2,7.2,0,0,1-2.519-.413,5.623,5.623,0,0,1-1.887-1.129,4.853,4.853,0,0,1-1.184-1.677,5.176,5.176,0,0,1-.41-2.051,4.961,4.961,0,0,1,.4-1.99,4.549,4.549,0,0,1,1.168-1.609,5.582,5.582,0,0,1,1.887-1.077,7.713,7.713,0,0,1,2.564-.393,10.116,10.116,0,0,1,1.048.055,8.852,8.852,0,0,1,1.039.171,8.246,8.246,0,0,1,1,.293,6.371,6.371,0,0,1,.925.422l-.942,1.548a3.916,3.916,0,0,0-.6-.281,5.549,5.549,0,0,0-.719-.213,7.027,7.027,0,0,0-.793-.132,7.46,7.46,0,0,0-.822-.045,5.528,5.528,0,0,0-1.7.242,3.708,3.708,0,0,0-1.264.677,2.9,2.9,0,0,0-.787,1.042,3.221,3.221,0,0,0-.271,1.329,3.286,3.286,0,0,0,.284,1.374,3.1,3.1,0,0,0,.806,1.077,3.8,3.8,0,0,0,1.264.706,5.515,5.515,0,0,0,2.993.09,3.55,3.55,0,0,0,1.058-.468,2.624,2.624,0,0,0,.735-.732,2.471,2.471,0,0,0,.374-.964h-3.522v-1.683h5.361v.006l.007-.006A5.231,5.231,0,0,1,236.976,570.125Z" transform="translate(-220.651 -564.11)" fill="#072a40"/>
        <path id="Subtraction_8" data-name="Subtraction 8" d="M5.767,10.36a6.9,6.9,0,0,1-2.351-.384A5.4,5.4,0,0,1,1.6,8.9,4.831,4.831,0,0,1,.419,7.254,5.217,5.217,0,0,1,0,5.148a5.133,5.133,0,0,1,.419-2.09A4.757,4.757,0,0,1,1.6,1.429,5.369,5.369,0,0,1,3.416.374,7.062,7.062,0,0,1,5.767,0,7.072,7.072,0,0,1,8.115.374,5.359,5.359,0,0,1,9.937,1.429a4.754,4.754,0,0,1,1.177,1.629,5.133,5.133,0,0,1,.419,2.09,5.217,5.217,0,0,1-.419,2.106A4.828,4.828,0,0,1,9.937,8.9,5.393,5.393,0,0,1,8.115,9.976,6.906,6.906,0,0,1,5.767,10.36Zm0-8.541a4.688,4.688,0,0,0-1.481.226,3.482,3.482,0,0,0-1.18.655,3,3,0,0,0-.781,1.048,3.373,3.373,0,0,0-.28,1.4,3.416,3.416,0,0,0,.28,1.406,3.119,3.119,0,0,0,.781,1.068,3.53,3.53,0,0,0,1.18.68,4.464,4.464,0,0,0,1.481.239A4.463,4.463,0,0,0,7.247,8.3a3.5,3.5,0,0,0,1.177-.68,3.18,3.18,0,0,0,.78-1.068,3.382,3.382,0,0,0,.284-1.406,3.339,3.339,0,0,0-.284-1.4A3.055,3.055,0,0,0,8.425,2.7a3.449,3.449,0,0,0-1.177-.655A4.687,4.687,0,0,0,5.767,1.819Z" transform="translate(17.383)" fill="#072a40" stroke="rgba(0,0,0,0)" stroke-miterlimit="10" stroke-width="1"/>
      </g>
    </g>
  </g>
</svg>
