<svg xmlns="http://www.w3.org/2000/svg" width="18" height="18" viewBox="0 0 18 18">
  <g id="distancia_local" transform="translate(-5539 -748)">
    <rect id="Rectangle_8088" data-name="Rectangle 8088" width="18" height="18" transform="translate(5539 748)" fill="none"/>
    <g id="pin" transform="translate(5481 749)">
      <g id="Group_10763" data-name="Group 10763" transform="translate(61)">
        <g id="Group_10762" data-name="Group 10762">
          <path id="Path_5864" data-name="Path 5864" d="M67.023,0A6.03,6.03,0,0,0,61,6.023c0,2.144.652,3,3.786,7.136.544.717,1.161,1.53,1.866,2.471a.463.463,0,0,0,.741,0c.7-.936,1.315-1.745,1.857-2.46,3.142-4.144,3.8-5.006,3.8-7.147A6.03,6.03,0,0,0,67.023,0Zm1.489,12.61c-.445.587-.939,1.238-1.49,1.97-.555-.737-1.051-1.392-1.5-1.981-3.049-4.019-3.6-4.743-3.6-6.576a5.1,5.1,0,0,1,10.194,0C72.12,7.852,71.569,8.579,68.513,12.61Z" transform="translate(-61)" fill="#072a40"/>
        </g>
      </g>
      <g id="Group_10765" data-name="Group 10765" transform="translate(63.78 2.78)">
        <g id="Group_10764" data-name="Group 10764">
          <path id="Path_5865" data-name="Path 5865" d="M154.243,90a3.243,3.243,0,1,0,3.243,3.243A3.247,3.247,0,0,0,154.243,90Zm0,5.56a2.317,2.317,0,1,1,2.317-2.317A2.319,2.319,0,0,1,154.243,95.56Z" transform="translate(-151 -90)" fill="#072a40"/>
        </g>
      </g>
    </g>
  </g>
</svg>
