<svg xmlns="http://www.w3.org/2000/svg" width="20" height="20" viewBox="0 0 20 20">
  <g id="editar_sem_dados" transform="translate(-22863 -338)">
    <g id="Writer_1_" transform="translate(22864 340)">
      <g id="Group_12696" data-name="Group 12696" transform="translate(5.138 0)">
        <path id="Path_6069" data-name="Path 6069" d="M116.844,85.791l1.568,1.568-8.2,8.2-1.568-1.568Z" transform="translate(-108.642 -84.128)" fill="#687780"/>
        <path id="Path_6070" data-name="Path 6070" d="M53.211,149.432,54.779,151l-8.2,8.2-1.568-1.568Z" transform="translate(-42.657 -145.417)" fill="#687780"/>
        <path id="Path_6071" data-name="Path 6071" d="M3.92,45.6,0,41.684l.392-.392a1.665,1.665,0,0,1,2.352,0L4.312,42.86a1.662,1.662,0,0,1,0,2.352Z" transform="translate(8.986 -40.806)" fill="#687780"/>
      </g>
      <path id="Path_6072" data-name="Path 6072" d="M292.744,336.977h2.616l1.333-4,3.621,3.621-4.379,1.46a.547.547,0,0,1-.175.029h-3.016a.554.554,0,0,1,0-1.109Z" transform="translate(-292.19 -322.178)" fill="#687780"/>
    </g>
    <rect id="Rectangle_8250" data-name="Rectangle 8250" width="20" height="20" transform="translate(22863 338)" fill="none"/>
  </g>
</svg>
