<svg xmlns="http://www.w3.org/2000/svg" width="24" height="24" viewBox="0 0 24 24">
  <g id="etiqueta_novidade" transform="translate(-62 -771)">
    <g id="meagfone-01" transform="translate(63.6 772.396)">
      <path id="Path_5927" data-name="Path 5927" d="M17.541,17.409a1.153,1.153,0,0,1-.921-.43,19.123,19.123,0,0,0-2.255-2.263c-1.721-1.429-3.253-2.186-4.535-2.186H2.824a1.4,1.4,0,0,1-1.394-1.4V6.909A1.4,1.4,0,0,1,2.824,5.515H9.83c1.282,0,2.857-.757,4.553-2.195a19.381,19.381,0,0,0,2.246-2.255A1.213,1.213,0,0,1,18.014.687a1.334,1.334,0,0,1,.912,1.239V16.118a1.282,1.282,0,0,1-.921,1.179A1.463,1.463,0,0,1,17.541,17.409ZM2.824,6.909v4.2H9.83c3.442,0,6.885,3.77,7.694,4.768V2.167c-.861.99-4.3,4.742-7.694,4.742ZM17.171,1.5Z" transform="translate(-0.115 0)" fill="#072a40"/>
      <path id="Path_5928" data-name="Path 5928" d="M2.012,12.134a.594.594,0,0,1-.207-.043,2.074,2.074,0,0,1-1.2-2.057,2.41,2.41,0,0,1,.516-1.575,1.592,1.592,0,0,1,.68-.465.688.688,0,0,1,.861.4.7.7,0,0,1-.379.861c-.043,0-.275.181-.275.749a1.024,1.024,0,0,0,.189.68l.06.069a.7.7,0,0,1-.25,1.351ZM2.261,9.294ZM2.261,9.294Z" transform="translate(0 -1.025)" fill="#072a40"/>
      <path id="Path_5929" data-name="Path 5929" d="M21.618,11.7l-.172-1.394h0a.323.323,0,0,0,.181-.508l-.095-.017A.7.7,0,1,1,22.091,8.5a1.721,1.721,0,0,1-.473,3.245Z" transform="translate(-2.859 -1.092)" fill="#072a40"/>
      <path id="Path_5930" data-name="Path 5930" d="M11.887,13.307a.7.7,0,0,1-.7-.7v-5.6a.7.7,0,0,1,1.394,0v5.6A.7.7,0,0,1,11.887,13.307Z" transform="translate(-1.476 -0.795)" fill="#072a40"/>
      <path id="Path_5931" data-name="Path 5931" d="M4.567,13.307a.7.7,0,0,1-.7-.7v-5.6a.7.7,0,0,1,1.394,0v5.6A.7.7,0,0,1,4.567,13.307Z" transform="translate(-0.456 -0.795)" fill="#072a40"/>
      <path id="Path_5932" data-name="Path 5932" d="M8.864,21.915H6.54a1.05,1.05,0,0,1-1.05-1.05v-7.35a.7.7,0,1,1,1.4,0v7H8.864c-.086-.284-.215-.594-.353-.921a9.837,9.837,0,0,1-.921-3.976A.706.706,0,0,1,8.3,14.91h.7v-.7H8.3a.7.7,0,1,1,0-1.4h.7a1.4,1.4,0,0,1,1.4,1.4v.7a1.4,1.4,0,0,1-1.368,1.4A9.553,9.553,0,0,0,9.8,19.058a9.82,9.82,0,0,1,.43,1.041,1.334,1.334,0,0,1,.06.413,1.394,1.394,0,0,1-1.394,1.4Z" transform="translate(-0.681 -1.701)" fill="#072a40"/>
    </g>
    <rect id="Rectangle_8361" data-name="Rectangle 8361" width="24" height="24" transform="translate(62 771)" fill="none"/>
  </g>
</svg>
