<svg xmlns="http://www.w3.org/2000/svg" width="24" height="24" viewBox="0 0 24 24">
  <g id="etiqueta_desconto" transform="translate(-176 -771)">
    <g id="etiqueta-01" transform="translate(176.052 770.841)">
      <path id="Path_5924" data-name="Path 5924" d="M7.72,21.386a1.909,1.909,0,0,1-1.382-.577l-5.121-5.2a2.038,2.038,0,0,1,0-2.824L11.935,1.858a1.312,1.312,0,0,1,.994-.4h5.379a1.909,1.909,0,0,1,1.382.587,1.989,1.989,0,0,1,.567,1.412v5.5a1.372,1.372,0,0,1-.388.994L9.131,20.889A1.989,1.989,0,0,1,7.72,21.386Zm5.21-18.5L2.211,13.819a.567.567,0,0,0,0,.8l5.111,5.21a.567.567,0,0,0,.8,0L18.826,8.887V3.459a.6.6,0,0,0-.159-.408.517.517,0,0,0-.388-.169ZM12.93,2.882Z" transform="translate(0)" fill="#072a40"/>
      <path id="Path_5925" data-name="Path 5925" d="M16.112,7.174A1.422,1.422,0,1,1,17.5,5.752a1.422,1.422,0,0,1-1.392,1.422Z" transform="translate(-0.08 -0.016)" fill="#072a40"/>
      <path id="Path_5926" data-name="Path 5926" d="M10.756,22.83a.7.7,0,0,1-.5-.209.706.706,0,0,1,0-.994L21.673,9.964V4.326a.7.7,0,1,1,1.4,0v5.687a1.342,1.342,0,0,1-.378.945L11.243,22.621a.666.666,0,0,1-.487.209Z" transform="translate(-0.054 -0.012)" fill="#072a40"/>
    </g>
    <rect id="Rectangle_8360" data-name="Rectangle 8360" width="24" height="24" transform="translate(176 771)" fill="none"/>
  </g>
</svg>
