<svg xmlns="http://www.w3.org/2000/svg" width="24" height="24" viewBox="0 0 24 24">
  <g id="etiqueta_desconto" transform="translate(-289 -771)">
    <rect id="Rectangle_8153" data-name="Rectangle 8153" width="24" height="24" transform="translate(289 771)" fill="none"/>
    <g id="birthday" transform="translate(289.2 771.201)">
      <g id="Group_11269" data-name="Group 11269" transform="translate(0 -0.001)">
        <g id="Group_11268" data-name="Group 11268" transform="translate(0 0)">
          <path id="Path_5910" data-name="Path 5910" d="M15.537,12.66a12.029,12.029,0,0,1,2.558-.867.449.449,0,1,0-.186-.879,13.059,13.059,0,0,0-2.953,1.027c-.553-.659-1.185-1.348-1.868-2.031-.725-.725-1.458-1.395-2.154-1.971A10.15,10.15,0,0,0,12.4,5.391,13.316,13.316,0,0,0,13.275.448a.449.449,0,0,0-.9,0,10.853,10.853,0,0,1-2.144,6.932c-.269-.2-.529-.393-.778-.561-1.331-.9-2.124-1.108-2.568-.681l-.009.009h0a.739.739,0,0,0-.21.416L.035,22.376a.449.449,0,0,0,.588.588h0l15.81-6.63a.738.738,0,0,0,.385-.182l.022-.02.009-.008h0l.009-.01c.427-.443.217-1.236-.681-2.567C15.989,13.263,15.774,12.967,15.537,12.66ZM3.563,19.8a3.022,3.022,0,0,1-.4,1.127l-1.872.785,1.9-4.534A4.991,4.991,0,0,1,3.563,19.8Zm2.764-1.52a2.878,2.878,0,0,1-.8,1.654l-1.184.5a5.883,5.883,0,0,0-.685-4.376l1.346-3.21C6.4,15.491,6.508,17.246,6.327,18.279Zm1.6.647-.968.406a4.535,4.535,0,0,0,.233-.8c.36-1.835-.227-4.1-1.744-6.747l.486-1.159a7.626,7.626,0,0,1,1,1.531.449.449,0,1,0,.825-.355A8.524,8.524,0,0,0,6.32,9.712l.743-1.771c.13.239.291.5.484.786q.2.3.436.612a8.449,8.449,0,0,1,1.2,6.311A9.122,9.122,0,0,1,7.93,18.926Zm3.461-1.451-2.133.894a11.323,11.323,0,0,0,.809-2.552,9.768,9.768,0,0,0-.086-4.13q.319.337.656.675c.672.672,1.35,1.3,2,1.842A4.451,4.451,0,0,1,11.391,17.474Zm1.548-.649a6.068,6.068,0,0,0,.548-1.939c.271.207.534.4.785.566.287.193.548.354.787.484Zm1.58-2.294a26.618,26.618,0,0,1-3.246-2.8,26.613,26.613,0,0,1-2.8-3.246,5.235,5.235,0,0,1-.9-1.636,5.237,5.237,0,0,1,1.636.9c.14.1.284.205.431.316l-.095.1a.449.449,0,1,0,.635.635q.085-.085.167-.171c.681.563,1.4,1.221,2.108,1.927.607.607,1.178,1.225,1.685,1.82l-.243.138a.449.449,0,1,0,.449.778c.125-.072.249-.141.374-.209.2.248.376.489.54.72a5.234,5.234,0,0,1,.9,1.636A5.237,5.237,0,0,1,14.519,14.531Z" transform="translate(0 0.001)" fill="#072a40"/>
          <path id="Path_5911" data-name="Path 5911" d="M162.621,282.9a.451.451,0,1,0,.015.039C162.632,282.925,162.626,282.91,162.621,282.9Z" transform="translate(-154.495 -269.937)" fill="#072a40"/>
          <path id="Path_5912" data-name="Path 5912" d="M370.636,102.466a.449.449,0,0,0,.635,0,6.393,6.393,0,0,1,3.817-1.56.449.449,0,1,0-.072-.9,7.321,7.321,0,0,0-4.38,1.82A.449.449,0,0,0,370.636,102.466Z" transform="translate(-353.861 -95.517)" fill="#072a40"/>
          <path id="Path_5913" data-name="Path 5913" d="M491.905,101.463l-.039-.01a.449.449,0,1,0-.217.872l.023.006a.449.449,0,1,0,.233-.868Z" transform="translate(-469.238 -96.883)" fill="#072a40"/>
          <path id="Path_5914" data-name="Path 5914" d="M63.953,45.418H64.4v.449a.449.449,0,0,0,.9,0v-.449h.449a.449.449,0,1,0,0-.9H65.3V44.07a.449.449,0,1,0-.9,0v.449h-.449a.449.449,0,1,0,0,.9Z" transform="translate(-60.651 -41.661)" fill="#072a40"/>
          <path id="Path_5915" data-name="Path 5915" d="M297.951,142.416h.449v.449a.449.449,0,1,0,.9,0v-.449h.449a.449.449,0,0,0,0-.9H299.3v-.449a.449.449,0,1,0-.9,0v.449h-.449a.449.449,0,1,0,0,.9Z" transform="translate(-284.138 -134.302)" fill="#072a40"/>
          <path id="Path_5916" data-name="Path 5916" d="M398.747,398.516H398.3v-.449a.449.449,0,1,0-.9,0v.449h-.449a.449.449,0,0,0,0,.9h.449v.449a.449.449,0,0,0,.9,0v-.449h.449a.449.449,0,1,0,0-.9Z" transform="translate(-378.689 -379.756)" fill="#072a40"/>
          <path id="Path_5917" data-name="Path 5917" d="M361.317,2.7a1.348,1.348,0,1,0-1.348-1.348A1.349,1.349,0,0,0,361.317,2.7Zm0-1.8a.449.449,0,1,1-.449.449A.45.45,0,0,1,361.317.9Z" transform="translate(-343.799 -0.001)" fill="#072a40"/>
          <path id="Path_5918" data-name="Path 5918" d="M423.849,173.619a1.348,1.348,0,1,0,1.348,1.348A1.349,1.349,0,0,0,423.849,173.619Zm0,1.8a.449.449,0,1,1,.449-.449A.45.45,0,0,1,423.849,175.416Z" transform="translate(-403.521 -165.82)" fill="#072a40"/>
          <path id="Path_5919" data-name="Path 5919" d="M169.851,38.315a1.348,1.348,0,1,0-1.348-1.348A1.349,1.349,0,0,0,169.851,38.315Zm0-1.8a.449.449,0,1,1-.449.449A.45.45,0,0,1,169.851,36.518Z" transform="translate(-160.934 -34.02)" fill="#072a40"/>
          <path id="Path_5920" data-name="Path 5920" d="M430.088,284.507a.449.449,0,1,0-.449.449A.45.45,0,0,0,430.088,284.507Z" transform="translate(-409.91 -271.298)" fill="#072a40"/>
          <path id="Path_5921" data-name="Path 5921" d="M325.638,75.958a.449.449,0,1,0-.449-.449A.45.45,0,0,0,325.638,75.958Z" transform="translate(-310.581 -71.688)" fill="#072a40"/>
          <path id="Path_5922" data-name="Path 5922" d="M459.637,359.057a.449.449,0,1,0,.449.449A.45.45,0,0,0,459.637,359.057Z" transform="translate(-438.56 -342.927)" fill="#072a40"/>
          <path id="Path_5923" data-name="Path 5923" d="M129.641,10.9a.449.449,0,1,0-.449-.449A.45.45,0,0,0,129.641,10.9Z" transform="translate(-123.388 -9.552)" fill="#072a40"/>
        </g>
      </g>
    </g>
  </g>
</svg>
