<svg xmlns="http://www.w3.org/2000/svg" width="24" height="24" viewBox="0 0 24 24">
  <g id="fatura_NIF_data" transform="translate(-16629 -1772)">
    <rect id="Rectangle_8088" data-name="Rectangle 8088" width="24" height="24" transform="translate(16629 1772)" fill="none"/>
    <g id="numeros" transform="translate(16630 1680.5)">
      <path id="Path_6054" data-name="Path 6054" d="M21.1,96.5H.69a.69.69,0,0,0-.69.69v12.082a.69.69,0,0,0,.69.69H21.1a.69.69,0,0,0,.69-.69V97.19A.69.69,0,0,0,21.1,96.5Zm-.69,12.082H1.38V97.88H20.406Z" transform="translate(0 0)" fill="#072a40"/>
      <path id="Path_6055" data-name="Path 6055" d="M68.423,185.028v3.609a.69.69,0,0,0,1.38,0V184.05a.691.691,0,0,0-1.076-.572l-.477.322A.691.691,0,0,0,68.423,185.028Z" transform="translate(-65.016 -83.112)" fill="#072a40"/>
      <path id="Path_6056" data-name="Path 6056" d="M181.658,184.478,182.69,184a.677.677,0,0,1,.781.351.669.669,0,0,1-.347.913c-.061.025.06-.041-1.661.944a1.275,1.275,0,0,0,.62,2.382c2.773.029,2.011.023,2.147.023a.69.69,0,0,0,.007-1.38l-1.754-.019,1.21-.693a2.048,2.048,0,0,0-1.542-3.793l-1.073.5a.69.69,0,0,0,.58,1.252Z" transform="translate(-172.885 -82.373)" fill="#072a40"/>
      <path id="Path_6057" data-name="Path 6057" d="M336.23,182.751h1.584l-.574.583a.691.691,0,0,0,.492,1.174.812.812,0,1,1-.73,1.168.69.69,0,0,0-1.239.607,2.192,2.192,0,1,0,3.227-2.759l.376-.382a1.042,1.042,0,0,0-.742-1.771H336.23a.69.69,0,1,0,0,1.38Z" transform="translate(-321.068 -81.211)" fill="#072a40"/>
    </g>
  </g>
</svg>
