<svg xmlns="http://www.w3.org/2000/svg" width="24" height="24" viewBox="0 0 24 24">
  <g id="fatura_nome" transform="translate(-16500 -1785)">
    <rect id="Rectangle_8088" data-name="Rectangle 8088" width="24" height="24" transform="translate(16500 1785)" fill="none"/>
    <g id="nome" transform="translate(16508.582 1786)">
      <path id="Path_6050" data-name="Path 6050" d="M145.8,177.019a2.51,2.51,0,1,0-2.51-2.51A2.51,2.51,0,0,0,145.8,177.019Zm0-4.044a1.539,1.539,0,1,1-1.539,1.539A1.539,1.539,0,0,1,145.8,172.976Zm0,0" transform="translate(-142.132 -165.32)" fill="#516979"/>
      <path id="Path_6051" data-name="Path 6051" d="M112.522,325.122a3.767,3.767,0,0,0-2.728,1.141,4.026,4.026,0,0,0-1.126,2.85.487.487,0,0,0,.485.485h6.738a.487.487,0,0,0,.485-.485,4.026,4.026,0,0,0-1.126-2.85A3.766,3.766,0,0,0,112.522,325.122Zm-2.85,3.5a2.969,2.969,0,0,1,.816-1.684,2.86,2.86,0,0,1,4.068,0,2.985,2.985,0,0,1,.816,1.684Zm0,0" transform="translate(-108.852 -312.496)" fill="#516979"/>
      <path id="Path_6052" data-name="Path 6052" d="M9.5,0H-2.155A2.428,2.428,0,0,0-4.582,2.427V19.612a2.428,2.428,0,0,0,2.427,2.427H9.5a2.428,2.428,0,0,0,2.427-2.427V2.427A2.428,2.428,0,0,0,9.5,0Zm1.456,19.612A1.461,1.461,0,0,1,9.5,21.068H-2.155a1.461,1.461,0,0,1-1.456-1.456V2.427A1.461,1.461,0,0,1-2.155.971H9.5a1.461,1.461,0,0,1,1.456,1.456Zm0,0" fill="#516979"/>
      <path id="Path_6053" data-name="Path 6053" d="M143.778,59.846h3.884a.485.485,0,1,0,0-.971h-3.884a.485.485,0,0,0,0,.971Zm0,0" transform="translate(-142.132 -56.589)" fill="#516979"/>
    </g>
  </g>
</svg>
