<svg xmlns="http://www.w3.org/2000/svg" width="20" height="20" viewBox="0 0 20 20">
  <g id="filtros" transform="translate(-10522 138)">
    <rect id="Rectangle_8384" data-name="Rectangle 8384" width="20" height="20" transform="translate(10522 -138)" fill="none"/>
    <g id="filter" transform="translate(10520.2 -140.5)">
      <line id="Line_15" y1="6.5" transform="translate(12 13.8)" fill="none" stroke="#072a40" stroke-linecap="round" stroke-linejoin="round" stroke-width="2"/>
      <line id="Line_16" y1="2.4" transform="translate(12 4.5)" fill="none" stroke="#072a40" stroke-linecap="round" stroke-linejoin="round" stroke-width="2"/>
      <path id="Path_5999" data-name="Path 5999" d="M12,6.5A2.689,2.689,0,0,0,9.3,9.2,2.775,2.775,0,0,0,12,12a2.689,2.689,0,0,0,2.7-2.7A2.775,2.775,0,0,0,12,6.5Zm0,3.9a1.1,1.1,0,1,1,1.1-1.1A1.11,1.11,0,0,1,12,10.4Z" fill="#072a40"/>
      <line id="Line_13" y1="3.3" transform="translate(5.5 17)" fill="none" stroke="#072a40" stroke-linecap="round" stroke-linejoin="round" stroke-width="2"/>
      <line id="Line_14" y1="5.8" transform="translate(5.5 4.5)" fill="none" stroke="#072a40" stroke-linecap="round" stroke-linejoin="round" stroke-width="2"/>
      <path id="Path_6000" data-name="Path 6000" d="M5.5,11.6a2.7,2.7,0,1,0,2.7,2.7A2.689,2.689,0,0,0,5.5,11.6Zm0,3.8a1.1,1.1,0,1,1,1.1-1.1A1.11,1.11,0,0,1,5.5,15.4Z" fill="#072a40"/>
      <line id="Line_13_1_" y1="3.3" transform="translate(18.6 17)" fill="none" stroke="#072a40" stroke-linecap="round" stroke-linejoin="round" stroke-width="2"/>
      <line id="Line_14_1_" y1="5.8" transform="translate(18.6 4.5)" fill="none" stroke="#072a40" stroke-linecap="round" stroke-linejoin="round" stroke-width="2"/>
      <path id="Path_6001" data-name="Path 6001" d="M18.6,11.6a2.7,2.7,0,1,0,2.7,2.7A2.689,2.689,0,0,0,18.6,11.6Zm0,3.8a1.1,1.1,0,1,1,1.1-1.1A1.11,1.11,0,0,1,18.6,15.4Z" fill="#072a40"/>
    </g>
  </g>
</svg>
