<svg xmlns="http://www.w3.org/2000/svg" width="18" height="18" viewBox="0 0 18 18">
  <g id="gosto" transform="translate(-7704 -716)">
    <g id="Group_10898" data-name="Group 10898" transform="translate(-21.4 37.597)">
      <path id="Path_5866" data-name="Path 5866" d="M7294.439,144.349h2.381l1.193.679.967.968,1.651-1.647h2.087l1.473.364L7305.46,146l.314,2.289-1.583,3.007-5.212,4.444-5.771-5.076s-1.065-3.659-.721-4.155S7294.439,144.349,7294.439,144.349Z" transform="translate(435.27 537.446)" fill="none"/>
      <g id="Group_10803" data-name="Group 10803" transform="translate(7726 679)">
        <rect id="Rectangle_8257" data-name="Rectangle 8257" width="17" height="17" transform="translate(0 0.003)" fill="none" opacity="0.18"/>
        <path id="heart" d="M7.151,12.724a.839.839,0,0,1-.553-.208c-.578-.505-1.135-.98-1.626-1.4l0,0A30.245,30.245,0,0,1,1.418,7.782,5.323,5.323,0,0,1,0,4.3,4.47,4.47,0,0,1,1.135,1.245,3.846,3.846,0,0,1,4,0,3.6,3.6,0,0,1,6.242.776a4.6,4.6,0,0,1,.908.949A4.6,4.6,0,0,1,8.059.776,3.6,3.6,0,0,1,10.306,0a3.846,3.846,0,0,1,2.861,1.245A4.47,4.47,0,0,1,14.3,4.3a5.322,5.322,0,0,1-1.418,3.484,30.239,30.239,0,0,1-3.55,3.333c-.492.419-1.05.895-1.629,1.4A.839.839,0,0,1,7.151,12.724ZM4,.838a3.017,3.017,0,0,0-2.245.975A3.636,3.636,0,0,0,.838,4.3a4.479,4.479,0,0,0,1.226,2.95,29.763,29.763,0,0,0,3.449,3.23l0,0c.493.42,1.052.9,1.634,1.406.585-.51,1.146-.987,1.64-1.408a29.768,29.768,0,0,0,3.449-3.229A4.479,4.479,0,0,0,13.464,4.3a3.636,3.636,0,0,0-.913-2.485A3.017,3.017,0,0,0,10.306.838a2.778,2.778,0,0,0-1.735.6,4.065,4.065,0,0,0-.967,1.119.529.529,0,0,1-.908,0A4.061,4.061,0,0,0,5.73,1.438,2.778,2.778,0,0,0,4,.838Zm0,0" transform="translate(1.179 2.004)" fill="#072a40"/>
      </g>
    </g>
    <rect id="Rectangle_8281" data-name="Rectangle 8281" width="18" height="18" transform="translate(7704 716)" fill="none"/>
  </g>
</svg>
