<svg xmlns="http://www.w3.org/2000/svg" width="20" height="20" viewBox="0 0 20 20">
  <g id="icon_mapa_botao" transform="translate(-21649 -473.079)">
    <g id="mapa" transform="translate(21649.838 473.817)">
      <g id="Group_12548" data-name="Group 12548" transform="translate(0 0)">
        <path id="Path_6059" data-name="Path 6059" d="M17.512,0a.649.649,0,0,0-.29.068L12.308,2.526,6.752.056c-.009,0-.019,0-.029-.008A.648.648,0,0,0,6.646.024.673.673,0,0,0,6.568.008a.965.965,0,0,0-.158,0,.673.673,0,0,0-.078.016.648.648,0,0,0-.077.023c-.01,0-.02,0-.029.008L.389,2.65A.648.648,0,0,0,0,3.243V17.508a.649.649,0,0,0,.912.593l5.573-2.477L12.061,18.1c.01,0,.02,0,.03.006a.573.573,0,0,0,.491-.011c.01,0,.022,0,.032-.007L17.8,15.495a.648.648,0,0,0,.359-.58V.649A.648.648,0,0,0,17.512,0ZM5.84,14.493,1.3,16.51V3.664L5.84,1.647Zm5.836,2.017L7.137,14.493V1.647l4.539,2.017Zm5.188-2-3.891,1.945V3.643L16.864,1.7Z" transform="translate(-0.004 0)" fill="#072a40"/>
      </g>
    </g>
    <rect id="Rectangle_8447" data-name="Rectangle 8447" width="20" height="20" transform="translate(21649 473.079)" fill="none"/>
  </g>
</svg>
