<svg xmlns="http://www.w3.org/2000/svg" width="160" height="160" viewBox="0 0 160 160">
  <g id="logo_igo" transform="translate(-108 -100)">
    <rect id="Rectangle_8233" data-name="Rectangle 8233" width="160" height="160" transform="translate(108 100)" fill="none"/>
    <g id="Group_11643" data-name="Group 11643" transform="translate(-254.899 -303.315)">
      <g id="Group_9070" data-name="Group 9070" transform="translate(371.899 403.315)">
        <path id="Path_5313" data-name="Path 5313" d="M433.938,403.752c-34.266,0-62.039,25.736-62.039,57.486a53.625,53.625,0,0,0,2.371,15.8,83.061,83.061,0,0,0,9.761,23.649q.412.689.813,1.266h-.006s5.175,7.808,14.066,19.359,16.34,20.075,17.155,21.209,17.771,20.62,17.771,20.62V518.724h.106c34.264,0,62.038-25.736,62.038-57.486S468.2,403.752,433.938,403.752Z" transform="translate(-371.899 -403.136)" fill="#072a40"/>
        <path id="Path_5317" data-name="Path 5317" d="M422.22,403.315c-.825,0-1.645.02-2.461.051,32.442,1.233,58.347,26.736,58.347,58.02S452.2,518.171,419.759,519.4c.818.031,1.635.052,2.461.052,33.582,0,60.807-26,60.807-58.071S455.8,403.315,422.22,403.315Z" transform="translate(-352.296 -403.315)" fill="#f01f1f"/>
        <g id="Group_9069" data-name="Group 9069" transform="translate(98.948 5.638)">
          <path id="Path_5318" data-name="Path 5318" d="M442.095,407.315c19.94,9.749,33.589,29.568,33.589,52.433s-13.651,42.684-33.589,52.433c22.146-8.022,37.888-28.47,37.888-52.433S464.241,415.338,442.095,407.315Z" transform="translate(-442.095 -407.315)" fill="#f77415"/>
          <path id="Path_5319" data-name="Path 5319" d="M456.042,414.21a55.693,55.693,0,0,1-.016,85.588,50.494,50.494,0,0,0,.016-85.588Z" transform="translate(-436.389 -404.491)" fill="#ffe414"/>
        </g>
      </g>
      <rect id="Rectangle_8134" data-name="Rectangle 8134" width="5.303" height="21.142" transform="translate(393.91 453.012)" fill="#ffe414"/>
      <path id="Path_5314" data-name="Path 5314" d="M393.612,436.43a2.682,2.682,0,0,1-.691.9,3.327,3.327,0,0,1-1.083.609,4.3,4.3,0,0,1-1.445.224,4.25,4.25,0,0,1-1.424-.224,3.322,3.322,0,0,1-1.084-.609,2.7,2.7,0,0,1-.689-.9,2.5,2.5,0,0,1-.242-1.083,2.54,2.54,0,0,1,.242-1.1,2.584,2.584,0,0,1,.689-.887,3.407,3.407,0,0,1,1.084-.6,4.217,4.217,0,0,1,1.424-.226,4.339,4.339,0,0,1,1.445.226,3.442,3.442,0,0,1,1.083.6,2.605,2.605,0,0,1,.691.887,2.543,2.543,0,0,1,.241,1.1A2.5,2.5,0,0,1,393.612,436.43Z" transform="translate(6.166 11.968)" fill="#f01f1f"/>
      <path id="Path_5315" data-name="Path 5315" d="M429.033,450.169A12.452,12.452,0,0,1,428.1,454a12.1,12.1,0,0,1-2.086,3.307,12.894,12.894,0,0,1-3.172,2.588,16.153,16.153,0,0,1-4.192,1.684,20.792,20.792,0,0,1-5.142.6,20.009,20.009,0,0,1-7-1.146,15.621,15.621,0,0,1-5.24-3.136,13.431,13.431,0,0,1-3.287-4.659,14.356,14.356,0,0,1-1.139-5.7,13.792,13.792,0,0,1,1.111-5.527,12.659,12.659,0,0,1,3.242-4.47,15.511,15.511,0,0,1,5.242-2.991,21.4,21.4,0,0,1,7.121-1.092,27.878,27.878,0,0,1,2.911.152,24.67,24.67,0,0,1,2.885.475,22.966,22.966,0,0,1,2.777.815,17.689,17.689,0,0,1,2.57,1.173l-2.615,4.3a11,11,0,0,0-1.666-.78,15.171,15.171,0,0,0-2-.591,19.463,19.463,0,0,0-2.2-.368,20.992,20.992,0,0,0-2.285-.125,15.364,15.364,0,0,0-4.731.672,10.307,10.307,0,0,0-3.511,1.879,8.068,8.068,0,0,0-2.186,2.894,8.962,8.962,0,0,0-.751,3.692,9.118,9.118,0,0,0,.788,3.816,8.606,8.606,0,0,0,2.24,2.993,10.527,10.527,0,0,0,3.511,1.961,15.313,15.313,0,0,0,8.312.251,9.859,9.859,0,0,0,2.939-1.3,7.291,7.291,0,0,0,2.044-2.033,6.863,6.863,0,0,0,1.039-2.678H413.85v-4.674h14.888V446l.018-.017A14.57,14.57,0,0,1,429.033,450.169Z" transform="translate(10.218 12.347)" fill="#fff"/>
      <path id="Path_5960" data-name="Path 5960" d="M453.408,441.929a13.171,13.171,0,0,0-3.269-4.523,14.823,14.823,0,0,0-5.062-2.929,21.008,21.008,0,0,0-13.051,0,14.86,14.86,0,0,0-5.052,2.929,13.17,13.17,0,0,0-3.27,4.523,14.214,14.214,0,0,0-1.164,5.8,14.453,14.453,0,0,0,1.164,5.85,13.361,13.361,0,0,0,3.27,4.577,14.942,14.942,0,0,0,5.055,2.983,20.513,20.513,0,0,0,13.051,0,14.921,14.921,0,0,0,5.06-2.983,13.325,13.325,0,0,0,3.269-4.577,14.429,14.429,0,0,0,1.163-5.85A14.192,14.192,0,0,0,453.408,441.929Zm-5.3,9.709a8.774,8.774,0,0,1-2.168,2.966,9.67,9.67,0,0,1-3.269,1.89,13.085,13.085,0,0,1-8.224,0,9.78,9.78,0,0,1-3.28-1.89A8.646,8.646,0,0,1,429,451.639a9.439,9.439,0,0,1-.778-3.9,9.337,9.337,0,0,1,.778-3.889,8.31,8.31,0,0,1,2.168-2.911,9.632,9.632,0,0,1,3.28-1.818,13.776,13.776,0,0,1,8.224,0,9.522,9.522,0,0,1,3.269,1.818,8.449,8.449,0,0,1,2.168,2.911,9.226,9.226,0,0,1,.788,3.889A9.354,9.354,0,0,1,448.105,451.639Z" transform="translate(20.741 12.338)" fill="#fff"/>
      <g id="É_só_pedir_" data-name="É só pedir " transform="translate(394.478 482.193)">
        <g id="É_só_pedir_2" data-name="É só pedir 2" style="isolation: isolate">
          <g id="Group_11642" data-name="Group 11642" style="isolation: isolate">
            <path id="Path_5961" data-name="Path 5961" d="M387.917,461.523h6.412v1.339h-4.886v1.5h4.327v1.257h-4.327v2.1h4.987v1.335h-6.514Zm1.465-1.339,3.246-.911.338,1.2-3.287.765Z" transform="translate(-387.917 -459.273)" fill="none"/>
            <path id="Path_5962" data-name="Path 5962" d="M396.4,466.15a4.466,4.466,0,0,0,1.271.51,6.212,6.212,0,0,0,1.421.164,4.156,4.156,0,0,0,.82-.068,1.963,1.963,0,0,0,.524-.173.713.713,0,0,0,.281-.241.522.522,0,0,0,.082-.275.435.435,0,0,0-.176-.347.922.922,0,0,0-.581-.145,3.5,3.5,0,0,0-.4.025l-.455.051c-.159.017-.324.035-.5.049s-.347.025-.523.025a3.39,3.39,0,0,1-.985-.125,1.881,1.881,0,0,1-.663-.343,1.289,1.289,0,0,1-.372-.512,1.773,1.773,0,0,1-.116-.64,1.621,1.621,0,0,1,.2-.8,1.893,1.893,0,0,1,.578-.633,2.871,2.871,0,0,1,.908-.417,4.373,4.373,0,0,1,1.187-.151,6.339,6.339,0,0,1,.716.042c.25.027.493.063.736.109s.471.1.693.156a5.324,5.324,0,0,1,.586.19l-.447,1.108a7.837,7.837,0,0,0-1.087-.32,5.213,5.213,0,0,0-1.115-.118,3.183,3.183,0,0,0-.677.061,1.59,1.59,0,0,0-.453.159.661.661,0,0,0-.251.226.486.486,0,0,0-.08.266.408.408,0,0,0,.041.183.374.374,0,0,0,.135.144.708.708,0,0,0,.245.09,1.851,1.851,0,0,0,.372.032,3.872,3.872,0,0,0,.43-.025l.472-.049q.245-.027.507-.051c.175-.017.355-.025.537-.025a2.994,2.994,0,0,1,.9.121,1.747,1.747,0,0,1,.633.338,1.392,1.392,0,0,1,.376.51,1.62,1.62,0,0,1,.125.64,1.74,1.74,0,0,1-.207.834,1.929,1.929,0,0,1-.616.667,3.257,3.257,0,0,1-1.021.441,5.618,5.618,0,0,1-1.408.158,7.186,7.186,0,0,1-.95-.059,7.926,7.926,0,0,1-.873-.164,7.1,7.1,0,0,1-.778-.244,5.92,5.92,0,0,1-.661-.3Z" transform="translate(-384.693 -458.113)" fill="none"/>
            <path id="Path_5963" data-name="Path 5963" d="M401.138,465.957a2.693,2.693,0,0,1,.248-1.146,2.75,2.75,0,0,1,.709-.935,3.38,3.38,0,0,1,1.112-.631,4.745,4.745,0,0,1,2.935,0,3.379,3.379,0,0,1,1.112.631,2.749,2.749,0,0,1,.709.935,2.775,2.775,0,0,1,0,2.293,2.776,2.776,0,0,1-.709.935,3.428,3.428,0,0,1-1.112.63,4.772,4.772,0,0,1-2.935,0,3.429,3.429,0,0,1-1.112-.63,2.777,2.777,0,0,1-.709-.935A2.7,2.7,0,0,1,401.138,465.957Zm1.5,0a1.592,1.592,0,0,0,.135.648,1.62,1.62,0,0,0,.4.54,1.96,1.96,0,0,0,.64.371,2.772,2.772,0,0,0,1.72,0,1.96,1.96,0,0,0,.64-.371,1.62,1.62,0,0,0,.4-.54,1.592,1.592,0,0,0,.135-.648,1.551,1.551,0,0,0-.537-1.191,1.913,1.913,0,0,0-.64-.372,2.746,2.746,0,0,0-1.72,0,1.913,1.913,0,0,0-.64.372,1.551,1.551,0,0,0-.537,1.191Zm.12-4.519,3.3-1.546.534,1.1-3.362,1.439Z" transform="translate(-382.502 -459.019)" fill="none"/>
            <path id="Path_5964" data-name="Path 5964" d="M411.027,470.215H409.6v-8.006h1.427v.534a2.631,2.631,0,0,1,.443-.245,4.107,4.107,0,0,1,.548-.2,4.963,4.963,0,0,1,.609-.137,3.87,3.87,0,0,1,.624-.052,4,4,0,0,1,1.328.213,3.074,3.074,0,0,1,1.039.6,2.707,2.707,0,0,1,.677.923,3.035,3.035,0,0,1-.013,2.413,2.767,2.767,0,0,1-.706.935,3.158,3.158,0,0,1-1.068.6,4.166,4.166,0,0,1-1.342.209,4.847,4.847,0,0,1-.609-.038,5.063,5.063,0,0,1-.578-.106,4.2,4.2,0,0,1-.522-.162,2.717,2.717,0,0,1-.43-.2Zm0-4.11a2.5,2.5,0,0,0,.457.295,3.113,3.113,0,0,0,.492.2,3.329,3.329,0,0,0,.5.114,3.549,3.549,0,0,0,.5.035,2.693,2.693,0,0,0,.874-.131,1.949,1.949,0,0,0,.646-.365,1.588,1.588,0,0,0,.4-.544,1.668,1.668,0,0,0,.138-.679,1.549,1.549,0,0,0-.531-1.177,1.892,1.892,0,0,0-.622-.362,2.361,2.361,0,0,0-.816-.133,3.083,3.083,0,0,0-.578.055,3.48,3.48,0,0,0-.558.158,2.837,2.837,0,0,0-.5.244,2.134,2.134,0,0,0-.406.324Z" transform="translate(-379.035 -458.113)" fill="none"/>
            <path id="Path_5965" data-name="Path 5965" d="M415.348,465.032a2.69,2.69,0,0,1,.235-1.107,2.81,2.81,0,0,1,.679-.933,3.346,3.346,0,0,1,1.087-.646,4.545,4.545,0,0,1,2.929,0,3.292,3.292,0,0,1,1.108.668,2.887,2.887,0,0,1,.7,1,3.086,3.086,0,0,1,.244,1.229c0,.054,0,.113,0,.176s-.006.118-.011.171h-5.378a1.309,1.309,0,0,0,.3.467,1.83,1.83,0,0,0,.512.366,2.96,2.96,0,0,0,.713.24,4.514,4.514,0,0,0,.9.083,4.674,4.674,0,0,0,.977-.1,7.447,7.447,0,0,0,.93-.262l.482,1.088a5.876,5.876,0,0,1-.567.228,4.652,4.652,0,0,1-.6.164,6.037,6.037,0,0,1-.65.1c-.227.021-.465.032-.716.032a5.5,5.5,0,0,1-1.682-.231,3.627,3.627,0,0,1-1.208-.63,2.594,2.594,0,0,1-.733-.94A2.767,2.767,0,0,1,415.348,465.032Zm5.468-.555a1.409,1.409,0,0,0-.238-.44,1.572,1.572,0,0,0-.4-.357,2.024,2.024,0,0,0-.56-.238,2.641,2.641,0,0,0-.7-.087,2.774,2.774,0,0,0-.736.092,2.254,2.254,0,0,0-.584.245,1.7,1.7,0,0,0-.417.357,1.425,1.425,0,0,0-.244.428Z" transform="translate(-376.681 -458.113)" fill="none"/>
            <path id="Path_5966" data-name="Path 5966" d="M421.139,465.716a2.873,2.873,0,0,1,.255-1.225,2.741,2.741,0,0,1,.706-.935,3.141,3.141,0,0,1,1.07-.6,4.126,4.126,0,0,1,1.342-.211,4.85,4.85,0,0,1,.609.039,5.5,5.5,0,0,1,.579.106,4.229,4.229,0,0,1,.52.162,2.911,2.911,0,0,1,.43.2v-2.718h1.427v7.994h-1.427V468a2.8,2.8,0,0,1-.443.247,4.175,4.175,0,0,1-.55.2,4.85,4.85,0,0,1-.609.138,4.1,4.1,0,0,1-.624.049,3.991,3.991,0,0,1-1.326-.211,3.066,3.066,0,0,1-1.039-.6,2.716,2.716,0,0,1-.677-.922A2.847,2.847,0,0,1,421.139,465.716Zm1.5,0a1.569,1.569,0,0,0,.135.646,1.616,1.616,0,0,0,.4.533,1.953,1.953,0,0,0,.622.362,2.4,2.4,0,0,0,.816.131,3.077,3.077,0,0,0,.578-.055,3.281,3.281,0,0,0,.557-.157,2.789,2.789,0,0,0,.5-.247,2.093,2.093,0,0,0,.407-.321v-1.972a2.554,2.554,0,0,0-.458-.293,3.192,3.192,0,0,0-.491-.2,3.354,3.354,0,0,0-.506-.113A3.557,3.557,0,0,0,424.7,464a2.672,2.672,0,0,0-.877.133,1.89,1.89,0,0,0-.646.364,1.587,1.587,0,0,0-.4.544A1.65,1.65,0,0,0,422.639,465.716Z" transform="translate(-374.309 -458.754)" fill="none"/>
            <path id="Path_5967" data-name="Path 5967" d="M428.164,462.068a1.164,1.164,0,0,1-.383-.059.891.891,0,0,1-.29-.164.721.721,0,0,1-.186-.241.7.7,0,0,1,0-.588.665.665,0,0,1,.186-.24.886.886,0,0,1,.29-.161,1.252,1.252,0,0,1,.77,0,.893.893,0,0,1,.292.161.7.7,0,0,1,.186.24.7.7,0,0,1,0,.588.76.76,0,0,1-.186.241.9.9,0,0,1-.292.164A1.175,1.175,0,0,1,428.164,462.068Zm-.713.777h1.427v5.685H427.45Z" transform="translate(-371.811 -458.748)" fill="none"/>
            <path id="Path_5968" data-name="Path 5968" d="M429.759,462.231h1.427v.819a6.079,6.079,0,0,1,1-.608,5.607,5.607,0,0,1,1.046-.39l.419,1.307a4.479,4.479,0,0,0-1.448.368,2.575,2.575,0,0,0-1.013.808v3.382h-1.427Z" transform="translate(-370.779 -458.135)" fill="none"/>
            <path id="Path_5969" data-name="Path 5969" d="M433.352,467.566a.866.866,0,0,1,.08-.364.881.881,0,0,1,.228-.3,1.094,1.094,0,0,1,.362-.2,1.585,1.585,0,0,1,.953,0,1.053,1.053,0,0,1,.359.2.874.874,0,0,1,.226.3.866.866,0,0,1,0,.729.863.863,0,0,1-.226.3,1.127,1.127,0,0,1-.359.2,1.556,1.556,0,0,1-.953,0,1.174,1.174,0,0,1-.362-.2.856.856,0,0,1-.309-.661Zm.382-6.7h1.527v4.79h-1.527Z" transform="translate(-369.307 -458.619)" fill="none"/>
          </g>
        </g>
      </g>
    </g>
  </g>
</svg>
