<svg xmlns="http://www.w3.org/2000/svg" width="48" height="48" viewBox="0 0 48 48">
  <g id="mapa_logo_estafeta" transform="translate(-18587 -87.154)">
    <g id="Group_10637" data-name="Group 10637" transform="translate(18590.283 88.094)">
      <g id="Group_9070" data-name="Group 9070" transform="translate(0 0)">
        <path id="Path_5313" data-name="Path 5313" d="M186.978,491.913c-10.038,0-18.175,7.54-18.175,16.841a15.7,15.7,0,0,0,.695,4.628,24.343,24.343,0,0,0,2.86,6.928q.121.2.238.371h0s1.516,2.287,4.121,5.671,4.787,5.881,5.026,6.214,5.206,6.041,5.206,6.041V525.6h.031c10.038,0,18.175-7.54,18.175-16.841S197.016,491.913,186.978,491.913Z" transform="translate(-168.803 -491.733)" fill="#072a40"/>
        <path id="Path_5317" data-name="Path 5317" d="M276.163,490.939c-.242,0-.482.006-.721.015,9.5.361,17.093,7.832,17.093,17s-7.589,16.636-17.093,17c.239.009.479.015.721.015,9.838,0,17.814-7.617,17.814-17.013S286,490.939,276.163,490.939Z" transform="translate(-255.678 -490.939)" fill="#f01f1f"/>
        <g id="Group_9069" data-name="Group 9069" transform="translate(28.988 1.652)">
          <path id="Path_5318" data-name="Path 5318" d="M325.209,499.851a16.909,16.909,0,0,1,0,30.722,16.179,16.179,0,0,0,0-30.722Z" transform="translate(-325.209 -499.851)" fill="#f77415"/>
          <path id="Path_5319" data-name="Path 5319" d="M356.255,515.215a16.316,16.316,0,0,1,0,25.074,14.792,14.792,0,0,0,0-25.074Z" transform="translate(-350.498 -512.368)" fill="#ffe414"/>
        </g>
      </g>
      <g id="Group_9083" data-name="Group 9083" transform="translate(6.218 12.066)">
        <rect id="Rectangle_8134" data-name="Rectangle 8134" width="1.554" height="6.194" transform="translate(0.231 2.493)" fill="#ffe414"/>
        <path id="Path_5314" data-name="Path 5314" d="M205.3,563.184a.786.786,0,0,1-.2.262.976.976,0,0,1-.317.179,1.269,1.269,0,0,1-.423.066,1.249,1.249,0,0,1-.417-.066.975.975,0,0,1-.318-.179.785.785,0,0,1-.2-.262.73.73,0,0,1-.071-.317.745.745,0,0,1,.071-.323.763.763,0,0,1,.2-.26,1,1,0,0,1,.318-.176,1.241,1.241,0,0,1,.417-.066,1.261,1.261,0,0,1,.423.066,1,1,0,0,1,.317.176.764.764,0,0,1,.2.26.745.745,0,0,1,.071.323A.73.73,0,0,1,205.3,563.184Z" transform="translate(-203.35 -562.042)" fill="#f01f1f"/>
        <path id="Path_5315" data-name="Path 5315" d="M234.817,569a3.645,3.645,0,0,1-.273,1.123,3.542,3.542,0,0,1-.611.969,3.779,3.779,0,0,1-.929.759,4.725,4.725,0,0,1-1.228.493,6.077,6.077,0,0,1-1.506.176,5.862,5.862,0,0,1-2.05-.336,4.578,4.578,0,0,1-1.535-.918,3.949,3.949,0,0,1-.963-1.365,4.212,4.212,0,0,1-.333-1.669,4.036,4.036,0,0,1,.325-1.619,3.7,3.7,0,0,1,.95-1.31,4.547,4.547,0,0,1,1.535-.877,6.277,6.277,0,0,1,2.086-.32,8.257,8.257,0,0,1,.853.044,7.271,7.271,0,0,1,.845.139,6.7,6.7,0,0,1,.814.239,5.2,5.2,0,0,1,.753.344l-.766,1.26a3.206,3.206,0,0,0-.488-.228,4.52,4.52,0,0,0-.585-.173,5.711,5.711,0,0,0-.646-.108,6.1,6.1,0,0,0-.669-.037,4.5,4.5,0,0,0-1.386.2,3.015,3.015,0,0,0-1.029.551,2.358,2.358,0,0,0-.64.848,2.621,2.621,0,0,0-.22,1.081,2.674,2.674,0,0,0,.231,1.118,2.523,2.523,0,0,0,.656.876,3.088,3.088,0,0,0,1.029.575,4.489,4.489,0,0,0,2.435.074,2.9,2.9,0,0,0,.861-.381,2.134,2.134,0,0,0,.6-.6,2.012,2.012,0,0,0,.3-.785h-2.866v-1.37h4.362v.005l.005-.005A4.254,4.254,0,0,1,234.817,569Z" transform="translate(-221.303 -563.727)" fill="#fff"/>
        <path id="Path_5316" data-name="Path 5316" d="M289.956,569.955A3.912,3.912,0,0,1,289,571.3a4.373,4.373,0,0,1-1.483.874,6.008,6.008,0,0,1-3.824,0,4.381,4.381,0,0,1-1.48-.874,3.913,3.913,0,0,1-.958-1.341,4.229,4.229,0,0,1-.341-1.714,4.16,4.16,0,0,1,.341-1.7,3.855,3.855,0,0,1,.958-1.326,4.348,4.348,0,0,1,1.48-.858,6.153,6.153,0,0,1,3.824,0,4.341,4.341,0,0,1,1.483.858,3.854,3.854,0,0,1,.958,1.326,4.159,4.159,0,0,1,.341,1.7A4.228,4.228,0,0,1,289.956,569.955Z" transform="translate(-266.537 -563.68)" fill="#fff"/>
        <path id="Path_5320" data-name="Path 5320" d="M295.081,572.756a2.792,2.792,0,0,0-.958-.533,4.037,4.037,0,0,0-2.409,0,2.822,2.822,0,0,0-.961.533,2.43,2.43,0,0,0-.635.853,2.73,2.73,0,0,0-.228,1.139,2.766,2.766,0,0,0,.228,1.144,2.525,2.525,0,0,0,.635.869,2.864,2.864,0,0,0,.961.554,3.832,3.832,0,0,0,2.409,0,2.833,2.833,0,0,0,.958-.554,2.574,2.574,0,0,0,.635-.869,2.742,2.742,0,0,0,.231-1.144,2.706,2.706,0,0,0-.231-1.139A2.476,2.476,0,0,0,295.081,572.756Z" transform="translate(-273.851 -570.186)" fill="#072a40"/>
      </g>
    </g>
    <rect id="Rectangle_8233" data-name="Rectangle 8233" width="48" height="48" transform="translate(18587 87.154)" fill="none"/>
  </g>
</svg>
