<svg xmlns="http://www.w3.org/2000/svg" width="36" height="36" viewBox="0 0 36 36">
  <g id="mapa_telf_estafeta" transform="translate(-22452 -686)">
    <circle id="Ellipse_200" data-name="Ellipse 200" cx="18" cy="18" r="18" transform="translate(22452 686)" fill="#ffe414"/>
    <g id="Group_12587" data-name="Group 12587" transform="translate(155 11.54)">
      <rect id="Rectangle_8250" data-name="Rectangle 8250" width="20" height="20" transform="translate(22305 682.46)" fill="none"/>
      <g id="telefone" transform="translate(22307.111 685.085)">
        <g id="Group_12586" data-name="Group 12586">
          <path id="Path_6064" data-name="Path 6064" d="M11.707,54.842a1.078,1.078,0,0,0-1.63,0c-.381.378-.762.756-1.137,1.14a.225.225,0,0,1-.314.058c-.247-.135-.509-.243-.746-.391a11.824,11.824,0,0,1-2.851-2.594,6.753,6.753,0,0,1-1.022-1.637.234.234,0,0,1,.058-.3c.381-.368.753-.746,1.127-1.124a1.083,1.083,0,0,0,0-1.669c-.3-.3-.6-.6-.894-.9s-.612-.618-.922-.922a1.085,1.085,0,0,0-1.63,0c-.384.378-.753.765-1.143,1.137A1.856,1.856,0,0,0,.017,48.9a5.306,5.306,0,0,0,.41,2.284,13.877,13.877,0,0,0,2.463,4.1,15.242,15.242,0,0,0,5.048,3.949,7.3,7.3,0,0,0,2.8.814,2.049,2.049,0,0,0,1.758-.669c.327-.365.7-.7,1.041-1.047a1.09,1.09,0,0,0,.006-1.659Q12.627,55.753,11.707,54.842Z" transform="translate(-0.006 -44.66)" fill="#072a40"/>
          <path id="Path_6065" data-name="Path 6065" d="M241.326,100.555l1.182-.2A5.3,5.3,0,0,0,238.021,96l-.167,1.188a4.1,4.1,0,0,1,3.472,3.366Z" transform="translate(-230.236 -92.925)" fill="#072a40"/>
          <path id="Path_6066" data-name="Path 6066" d="M247.917,2.492a8.715,8.715,0,0,0-5-2.492l-.167,1.188a7.6,7.6,0,0,1,6.435,6.236l1.182-.2A8.778,8.778,0,0,0,247.917,2.492Z" transform="translate(-234.979)" fill="#072a40"/>
        </g>
      </g>
    </g>
  </g>
</svg>
