<svg xmlns="http://www.w3.org/2000/svg" width="30" height="30" viewBox="0 0 30 30">
  <g id="menu_entregas_selected" transform="translate(170 -724)">
    <rect id="Rectangle_8087" data-name="Rectangle 8087" width="30" height="30" transform="translate(-170 724)" fill="none"/>
    <g id="food" transform="translate(-167.556 728)">
      <g id="Group_9524" data-name="Group 9524" transform="translate(0 0)">
        <g id="Group_9523" data-name="Group 9523" transform="translate(0 0)">
          <path id="Path_4681" data-name="Path 4681" d="M.068,47.576a6.037,6.037,0,0,1,2.643-4.039,2.227,2.227,0,0,1-.348-2.121H2.235A2.237,2.237,0,0,1,0,39.182V33.225a2.237,2.237,0,0,1,2.234-2.234H8.192a2.237,2.237,0,0,1,2.234,2.234v5.957a2.221,2.221,0,0,1-.158.823,2.238,2.238,0,0,1,1.647,2.155V43.65a.742.742,0,0,1-.218.527,3.472,3.472,0,0,0-.2,4.686h3.5v-.745h0V40.672a3.7,3.7,0,0,1,.747-2.234H14.249a.745.745,0,1,1,0-1.489h2.234V36.2a2.237,2.237,0,0,1,2.234-2.234h1.489a.745.745,0,0,1,.745.745v2.979a.745.745,0,0,1-.745.745h-.486L21.1,42.982a5.221,5.221,0,0,1,4.321,5.136v1.489A3.724,3.724,0,0,1,21.7,53.333a3.6,3.6,0,0,1-3.659-2.981H10.351a3.724,3.724,0,0,1-7.3,0h-.82A2.234,2.234,0,0,1,.068,47.576ZM19.462,35.459h-.745a.745.745,0,0,0-.745.745v.745h1.489V35.459Zm1.1,16.107a2.263,2.263,0,0,0,3.37-1.959A2.237,2.237,0,0,0,21.7,47.374h0a2.237,2.237,0,0,0-2.234,2.234A2.139,2.139,0,0,0,20.56,51.566Zm-4.077-2.7h1.564A3.73,3.73,0,0,1,21.7,45.884h0a3.7,3.7,0,0,1,1.78.454,3.723,3.723,0,0,0-6.993,1.78Zm0-4.389a5.2,5.2,0,0,1,3.049-1.525L18.184,38.5a2.238,2.238,0,0,0-1.7,2.17ZM8.937,33.225a.745.745,0,0,0-.745-.745H2.235a.745.745,0,0,0-.745.745v.745H8.937Zm0,2.234H1.49v3.723a.745.745,0,0,0,.745.745H8.192a.745.745,0,0,0,.745-.745V35.459Zm1.489,7.447v-.745a.745.745,0,0,0-.745-.745H4.469a.745.745,0,1,0,0,1.489h5.957ZM6.7,51.841a2.246,2.246,0,0,0,2.106-1.5H4.6A2.246,2.246,0,0,0,6.7,51.841ZM2.235,48.863H9.724a4.98,4.98,0,0,1,0-4.468H5.2c-1.887,0-3.094,1.159-3.69,3.543A.744.744,0,0,0,2.235,48.863Z" transform="translate(0 -30.991)" fill="#ffe414"/>
        </g>
      </g>
      <g id="Group_9526" data-name="Group 9526" transform="translate(20.951 17.872)">
        <g id="Group_9525" data-name="Group 9525" transform="translate(0 0)">
          <ellipse id="Ellipse_2" data-name="Ellipse 2" cx="0.745" cy="0.745" rx="0.745" ry="0.745" fill="#ffe414"/>
        </g>
      </g>
      <g id="Group_9528" data-name="Group 9528" transform="translate(4.469 14.893)">
        <g id="Group_9527" data-name="Group 9527" transform="translate(0 0)">
          <path id="Path_4682" data-name="Path 4682" d="M362.728,330.978h1.489a.745.745,0,0,1,0,1.489h-1.489a.745.745,0,0,1,0-1.489Z" transform="translate(-361.983 -330.978)" fill="#ffe414"/>
        </g>
      </g>
    </g>
  </g>
</svg>
