<svg xmlns="http://www.w3.org/2000/svg" width="20" height="20" viewBox="0 0 20 20">
  <g id="moradas_NIF" transform="translate(-16629 -1771.855)">
    <rect id="Rectangle_8088" data-name="Rectangle 8088" width="20" height="20" transform="translate(16629 1771.855)" fill="none"/>
    <g id="numeros" transform="translate(16629.828 1776.137)">
      <path id="Path_6054" data-name="Path 6054" d="M17.453,96.5H.571A.571.571,0,0,0,0,97.071v10a.571.571,0,0,0,.571.571H17.453a.571.571,0,0,0,.571-.571v-10A.571.571,0,0,0,17.453,96.5Zm-.571,10H1.142V97.642h15.74Z" transform="translate(0 -96.5)" fill="#072a40"/>
      <path id="Path_6055" data-name="Path 6055" d="M68.341,184.74v2.986a.571.571,0,0,0,1.142,0v-3.8a.571.571,0,0,0-.89-.473l-.395.266A.572.572,0,0,0,68.341,184.74Z" transform="translate(-65.522 -180.259)" fill="#072a40"/>
      <path id="Path_6056" data-name="Path 6056" d="M181.489,184.151l.854-.4a.56.56,0,0,1,.646.29.553.553,0,0,1-.287.755c-.05.021.05-.034-1.374.781a1.055,1.055,0,0,0,.513,1.971c2.294.024,1.663.019,1.776.019a.571.571,0,0,0,.006-1.142l-1.451-.015,1-.573A1.694,1.694,0,0,0,181.9,182.7l-.888.411a.571.571,0,0,0,.48,1.036Z" transform="translate(-174.231 -179.514)" fill="#072a40"/>
      <path id="Path_6057" data-name="Path 6057" d="M336.111,182.513h1.31l-.474.482a.571.571,0,0,0,.407.971.672.672,0,1,1-.6.966.571.571,0,0,0-1.025.5,1.814,1.814,0,1,0,2.669-2.282l.311-.316a.862.862,0,0,0-.614-1.465h-1.98a.571.571,0,1,0,0,1.142Z" transform="translate(-323.567 -178.343)" fill="#072a40"/>
    </g>
  </g>
</svg>
