<svg xmlns="http://www.w3.org/2000/svg" width="20" height="20" viewBox="0 0 20 20">
  <g id="moradas_rua" transform="translate(-5586 -727)">
    <rect id="Rectangle_8088" data-name="Rectangle 8088" width="20" height="20" transform="translate(5586 727)" fill="none"/>
    <g id="browser" transform="translate(5587.2 728.4)">
      <path id="Path_4678" data-name="Path 4678" d="M53.407,202.523H41.6a1.6,1.6,0,0,1-1.6-1.6v-8.406a.556.556,0,0,1,1.111,0v8.406a.487.487,0,0,0,.486.486H53.407a.487.487,0,0,0,.486-.486v-8.406a.556.556,0,0,1,1.111,0v8.406A1.6,1.6,0,0,1,53.407,202.523Z" transform="translate(-38.611 -185.852)" fill="#072a40"/>
      <path id="Path_4679" data-name="Path 4679" d="M17.228,24.629a.554.554,0,0,1-.393-.163L9.923,17.555a1.46,1.46,0,0,0-2.063,0L.949,24.466a.556.556,0,0,1-.786-.786l6.911-6.912a2.573,2.573,0,0,1,3.635,0l6.911,6.911a.556.556,0,0,1-.393.949Z" transform="translate(0 -16.017)" fill="#072a40"/>
      <path id="Path_4680" data-name="Path 4680" d="M181,295.208h-4.446a.556.556,0,0,1-.556-.556V289.72a1.739,1.739,0,0,1,1.737-1.737h2.084a1.739,1.739,0,0,1,1.737,1.737v4.932A.556.556,0,0,1,181,295.208Zm-3.89-1.112h3.334V289.72a.626.626,0,0,0-.625-.625h-2.084a.626.626,0,0,0-.625.625Z" transform="translate(-169.887 -278.537)" fill="#072a40"/>
    </g>
  </g>
</svg>
