<svg xmlns="http://www.w3.org/2000/svg" width="20" height="20" viewBox="0 0 20 20">
  <g id="moradas_empresa" transform="translate(-16500 -1784.914)">
    <rect id="Rectangle_8088" data-name="Rectangle 8088" width="20" height="20" transform="translate(16500 1784.914)" fill="none"/>
    <g id="nome" transform="translate(16503.318 1785.83)">
      <path id="Path_6050" data-name="Path 6050" d="M145.375,176.165a2.082,2.082,0,1,0-2.082-2.082A2.082,2.082,0,0,0,145.375,176.165Zm0-3.355a1.277,1.277,0,1,1-1.277,1.277A1.277,1.277,0,0,1,145.375,172.81Zm0,0" transform="translate(-138.528 -166.458)" fill="#072a40"/>
      <path id="Path_6051" data-name="Path 6051" d="M111.866,325.122a3.126,3.126,0,0,0-2.264.947,3.341,3.341,0,0,0-.934,2.364.4.4,0,0,0,.4.4h5.591a.4.4,0,0,0,.4-.4,3.341,3.341,0,0,0-.934-2.364A3.125,3.125,0,0,0,111.866,325.122Zm-2.364,2.908a2.463,2.463,0,0,1,.677-1.4,2.373,2.373,0,0,1,3.375,0,2.476,2.476,0,0,1,.677,1.4Zm0,0" transform="translate(-105.019 -314.646)" fill="#072a40"/>
      <path id="Path_6052" data-name="Path 6052" d="M7.1,0H-2.568A2.015,2.015,0,0,0-4.582,2.014V16.273a2.015,2.015,0,0,0,2.014,2.014H7.1a2.015,2.015,0,0,0,2.014-2.014V2.014A2.015,2.015,0,0,0,7.1,0ZM8.307,16.273A1.212,1.212,0,0,1,7.1,17.481H-2.568a1.212,1.212,0,0,1-1.208-1.208V2.014A1.212,1.212,0,0,1-2.568.806H7.1A1.212,1.212,0,0,1,8.307,2.014Zm0,0" transform="translate(4.582)" fill="#072a40"/>
      <path id="Path_6053" data-name="Path 6053" d="M143.7,59.681h3.222a.4.4,0,1,0,0-.806H143.7a.4.4,0,0,0,0,.806Zm0,0" transform="translate(-138.528 -56.978)" fill="#072a40"/>
    </g>
  </g>
</svg>
