<svg xmlns="http://www.w3.org/2000/svg" width="20" height="20" viewBox="0 0 20 20">
  <g id="morada" transform="translate(-16567 -885.837)">
    <g id="home" transform="translate(16568.652 887.653)">
      <path id="Path_6019" data-name="Path 6019" d="M19.364,6.983,17.081,4.969v-3.2a.49.49,0,0,0-.49-.49h-1.96a.49.49,0,0,0-.49.49v.61L11.589.123a.49.49,0,0,0-.648,0L3.165,6.983a.49.49,0,0,0,.648.735l1.049-.925v8.954H4.4a.49.49,0,1,0,0,.98H18.125a.49.49,0,1,0,0-.98h-.458V6.793l1.049.925a.49.49,0,1,0,.648-.735ZM15.121,2.254h.98V4.1l-.98-.865Zm1.566,13.492H5.842V5.928l5.422-4.784,5.429,4.79C16.69,5.959,16.687,15.747,16.687,15.747Z" transform="translate(-2.999 0)" fill="#072a40"/>
      <path id="Path_6020" data-name="Path 6020" d="M141.161,214a2.288,2.288,0,0,0-1.63.674A2.305,2.305,0,0,0,135.6,216.3a5.057,5.057,0,0,0,1.544,3.013,4.527,4.527,0,0,0,2.39,1.556,4.448,4.448,0,0,0,2.385-1.482,4.933,4.933,0,0,0,1.548-3.088A2.305,2.305,0,0,0,141.161,214Zm.056,4.7a4.07,4.07,0,0,1-1.685,1.189,4.348,4.348,0,0,1-1.695-1.267,4.02,4.02,0,0,1-1.26-2.323,1.323,1.323,0,0,1,2.513-.579.49.49,0,0,0,.881,0,1.323,1.323,0,0,1,2.513.579A3.865,3.865,0,0,1,141.217,218.7Z" transform="translate(-131.265 -207.009)" fill="#072a40"/>
    </g>
    <rect id="Rectangle_8088" data-name="Rectangle 8088" width="20" height="20" transform="translate(16567 885.837)" fill="none"/>
  </g>
</svg>
