<svg xmlns="http://www.w3.org/2000/svg" width="20" height="20" viewBox="0 0 20 20">
  <g id="moradas_bairro" transform="translate(-2960 -715)">
    <rect id="Rectangle_8088" data-name="Rectangle 8088" width="20" height="20" transform="translate(2960 715)" fill="none"/>
    <path id="neighborhood" d="M18.1,7.422l-.915-.52h0L14.568,5.418a.542.542,0,0,0-.536,0l-1.8,1.024V4.36l.181.1a.542.542,0,1,0,.536-.943L6.878.072a.543.543,0,0,0-.536,0L.274,3.519a.542.542,0,1,0,.536.943l.181-.1v7.2a.542.542,0,0,0,.542.542h15.38a.542.542,0,0,0,.542-.542V8.306l.1.059a.543.543,0,0,0,.536-.943ZM2.076,3.743,6.61,1.167l4.534,2.576V7.385h0v3.634h-2.2V6.974A.542.542,0,0,0,8.4,6.432H4.821a.542.542,0,0,0-.542.542v4.045h-2.2V3.743Zm3.288,7.276v-3.5H7.856v3.5Zm8.626,0V9.754h.62v1.266Zm2.381,0h-.676V9.211a.542.542,0,0,0-.542-.542h-1.7a.542.542,0,0,0-.542.542v1.808h-.676V7.69L14.3,6.513,16.371,7.69Zm0,0" transform="translate(2961 718.999)" fill="#072a40"/>
  </g>
</svg>
