<svg xmlns="http://www.w3.org/2000/svg" width="24" height="24" viewBox="0 0 24 24">
  <g id="notificacao_def" transform="translate(-20331 -726)">
    <g id="definicoes" transform="translate(20331.4 726.7)">
      <path id="Path_6039" data-name="Path 6039" d="M11.346,22.693a2.485,2.485,0,0,1-2.482-2.482v-.722a8.428,8.428,0,0,1-1.52-.63l-.511.511a2.482,2.482,0,1,1-3.51-3.51l.511-.511a8.433,8.433,0,0,1-.63-1.52H2.482a2.482,2.482,0,0,1,0-4.964H3.2a8.428,8.428,0,0,1,.63-1.52l-.511-.511a2.482,2.482,0,1,1,3.51-3.51l.511.511a8.432,8.432,0,0,1,1.52-.63V2.482A2.483,2.483,0,0,1,11.346,0a2.517,2.517,0,0,1,.494.049,2.49,2.49,0,0,1,1.988,2.433V3.2a8.428,8.428,0,0,1,1.52.63l.511-.511a2.482,2.482,0,1,1,3.51,3.51l-.511.511a8.433,8.433,0,0,1,.63,1.52h.722a2.482,2.482,0,0,1,0,4.964h-.722a8.428,8.428,0,0,1-.63,1.52l.511.511a2.482,2.482,0,0,1-3.51,3.51l-.511-.511a8.431,8.431,0,0,1-1.52.63v.722a2.484,2.484,0,0,1-1.986,2.432h0a2.517,2.517,0,0,1-.494.049Zm.355-.745h0ZM7.228,17.263a.707.707,0,0,1,.375.107,7.029,7.029,0,0,0,2.131.883.709.709,0,0,1,.549.691v1.266a1.065,1.065,0,0,0,1.064,1.064,1.094,1.094,0,0,0,.214-.021,1.066,1.066,0,0,0,.85-1.042V18.944a.709.709,0,0,1,.549-.691,7.029,7.029,0,0,0,2.131-.883.709.709,0,0,1,.876.1l.9.9a1.064,1.064,0,0,0,1.5-1.5l-.9-.9a.709.709,0,0,1-.1-.876,7.029,7.029,0,0,0,.883-2.131.709.709,0,0,1,.691-.549h1.266a1.064,1.064,0,0,0,0-2.127H18.944a.709.709,0,0,1-.691-.549A7.028,7.028,0,0,0,17.371,7.6a.709.709,0,0,1,.1-.876l.9-.9a1.064,1.064,0,0,0-1.5-1.5l-.9.9a.709.709,0,0,1-.876.1,7.029,7.029,0,0,0-2.131-.883.709.709,0,0,1-.549-.691V2.482a1.066,1.066,0,0,0-.85-1.042,1.093,1.093,0,0,0-.213-.021,1.064,1.064,0,0,0-1.064,1.064V3.748a.709.709,0,0,1-.549.691A7.029,7.029,0,0,0,7.6,5.322a.709.709,0,0,1-.876-.1l-.9-.9a1.064,1.064,0,0,0-1.5,1.5l.9.9a.709.709,0,0,1,.1.876,7.029,7.029,0,0,0-.883,2.131.709.709,0,0,1-.691.549H2.482a1.064,1.064,0,0,0,0,2.127H3.748a.709.709,0,0,1,.691.549,7.028,7.028,0,0,0,.883,2.131.709.709,0,0,1-.1.876l-.9.9a1.064,1.064,0,0,0,1.5,1.5l.9-.9a.709.709,0,0,1,.5-.208Z" fill="#072a40"/>
      <path id="Path_6040" data-name="Path 6040" d="M148.964,153.928a4.964,4.964,0,1,1,0-9.928c.141,0,.281.006.416.018a4.964,4.964,0,0,1,0,9.893C149.245,153.922,149.105,153.928,148.964,153.928Zm0-8.51a3.546,3.546,0,1,0,0,7.091c.1,0,.2,0,.293-.012a3.545,3.545,0,0,0,0-7.066C149.163,145.422,149.064,145.418,148.964,145.418Z" transform="translate(-137.618 -137.618)" fill="#072a40"/>
    </g>
    <rect id="Rectangle_8428" data-name="Rectangle 8428" width="24" height="24" transform="translate(20331 726)" fill="none"/>
  </g>
</svg>
