<svg xmlns="http://www.w3.org/2000/svg" width="32" height="32" viewBox="0 0 32 32">
  <g id="notificacoes_parcelas" transform="translate(-3702 116)">
    <rect id="Rectangle_8473" data-name="Rectangle 8473" width="32" height="32" transform="translate(3702 -116)" fill="none"/>
    <g id="folder" transform="translate(3704 -135.007)">
      <g id="Group_13222" data-name="Group 13222" transform="translate(8.509 36.014)">
        <g id="Group_13221" data-name="Group 13221">
          <path id="Path_6085" data-name="Path 6085" d="M165.951,277.994h-9.9a.547.547,0,0,0,0,1.094h9.9a.547.547,0,1,0,0-1.094Z" transform="translate(-155.5 -277.994)" fill="#072a40" stroke="#072a40" stroke-width="0.3"/>
        </g>
      </g>
      <g id="Group_13224" data-name="Group 13224" transform="translate(8.509 38.641)">
        <g id="Group_13223" data-name="Group 13223">
          <path id="Path_6086" data-name="Path 6086" d="M163.708,325.993h-7.661a.547.547,0,0,0,0,1.094h7.661a.547.547,0,1,0,0-1.094Z" transform="translate(-155.5 -325.993)" fill="#072a40" stroke="#072a40" stroke-width="0.3"/>
        </g>
      </g>
      <g id="Group_13226" data-name="Group 13226" transform="translate(18.38 38.641)">
        <g id="Group_13225" data-name="Group 13225">
          <path id="Path_6087" data-name="Path 6087" d="M336.457,325.993h-.006a.547.547,0,1,0,0,1.094h.006a.547.547,0,0,0,0-1.094Z" transform="translate(-335.904 -325.993)" fill="#072a40" stroke="#072a40" stroke-width="0.3"/>
        </g>
      </g>
      <g id="Group_13228" data-name="Group 13228" transform="translate(13.389 33.278)">
        <g id="Group_13227" data-name="Group 13227">
          <path id="Path_6088" data-name="Path 6088" d="M245.248,227.995h-.007a.547.547,0,0,0,0,1.094h.007a.547.547,0,1,0,0-1.094Z" transform="translate(-244.694 -227.995)" fill="#072a40" stroke="#072a40" stroke-width="0.3"/>
        </g>
      </g>
      <g id="Group_13230" data-name="Group 13230" transform="translate(5.362 33.278)">
        <g id="Group_13229" data-name="Group 13229">
          <path id="Path_6089" data-name="Path 6089" d="M113.43,227.995h-5.023a.547.547,0,0,0,0,1.094h5.023a.767.767,0,0,1,.766.766v5.472a.767.767,0,0,1-.766.766H99.86a.767.767,0,0,1-.766-.766v-5.472a.767.767,0,0,1,.766-.766h4.833a.547.547,0,1,0,0-1.094H99.86a1.862,1.862,0,0,0-1.86,1.86v5.472a1.863,1.863,0,0,0,1.86,1.86h13.57a1.863,1.863,0,0,0,1.86-1.86v-5.472A1.863,1.863,0,0,0,113.43,227.995Z" transform="translate(-98 -227.995)" fill="#072a40" stroke="#072a40" stroke-width="0.3"/>
        </g>
      </g>
      <g id="Group_13232" data-name="Group 13232" transform="translate(0 22.007)">
        <g id="Group_13231" data-name="Group 13231">
          <path id="Path_6090" data-name="Path 6090" d="M25.717,25.089h-1.8a.549.549,0,0,0-.1.009l-1.263-2.763a.547.547,0,0,0-.725-.27l-6.652,3.041a.548.548,0,0,0-.132-.017H11.03L8.53,22.2a.547.547,0,0,0-.414-.189H2.3a2.3,2.3,0,0,0-2.3,2.3V45.316a2.3,2.3,0,0,0,2.3,2.3H25.717a2.3,2.3,0,0,0,2.3-2.3V27.387A2.3,2.3,0,0,0,25.717,25.089Zm-3.929-1.8L24,28.135H11.185ZM1.094,24.305a1.205,1.205,0,0,1,1.2-1.2H7.866l2.5,2.893a.547.547,0,0,0,.414.189h2.042L8.553,28.135H2.3a2.284,2.284,0,0,0-1.2.342Zm25.827,7.313v13.7a1.205,1.205,0,0,1-1.2,1.2H2.3a1.205,1.205,0,0,1-1.2-1.2V30.433a1.205,1.205,0,0,1,1.2-1.2H8.643l.026,0,.034,0H25.717a1.205,1.205,0,0,1,1.2,1.2Zm0-3.141a2.284,2.284,0,0,0-1.2-.342h-.51l-.892-1.951h1.4a1.205,1.205,0,0,1,1.2,1.2Z" transform="translate(0 -22.007)" fill="#072a40" stroke="#072a40" stroke-width="0.3"/>
        </g>
      </g>
    </g>
  </g>
</svg>
