<svg xmlns="http://www.w3.org/2000/svg" width="32" height="32" viewBox="0 0 32 32">
  <g id="notificacoes_destaques" transform="translate(-19880 -731)">
    <rect id="Rectangle_8153" data-name="Rectangle 8153" width="32" height="32" transform="translate(19880 731)" fill="none"/>
    <g id="birthday" transform="translate(19880.271 731.606)">
      <g id="Group_11269" data-name="Group 11269" transform="translate(0 0)">
        <g id="Group_11268" data-name="Group 11268">
          <path id="Path_5910" data-name="Path 5910" d="M21.147,17.233a16.373,16.373,0,0,1,3.482-1.181.611.611,0,1,0-.253-1.2,17.774,17.774,0,0,0-4.019,1.4c-.752-.9-1.613-1.835-2.542-2.764-.987-.987-1.985-1.9-2.933-2.683a13.815,13.815,0,0,0,2-3.469A18.124,18.124,0,0,0,18.068.61a.611.611,0,0,0-1.223,0,14.772,14.772,0,0,1-2.918,9.436c-.366-.279-.72-.535-1.059-.763C11.056,8.06,9.977,7.774,9.374,8.356l-.013.012,0,0h0a1.006,1.006,0,0,0-.286.566L.047,30.457a.611.611,0,0,0,.8.8h0l21.519-9.024a1,1,0,0,0,.524-.248l.031-.028.012-.011,0,0,.012-.013c.582-.6.3-1.683-.927-3.495C21.763,18.053,21.47,17.65,21.147,17.233Zm-16.3,9.716A4.114,4.114,0,0,1,4.3,28.483L1.753,29.551l2.588-6.172A6.793,6.793,0,0,1,4.849,26.949ZM8.612,24.88a3.918,3.918,0,0,1-1.086,2.251l-1.611.676a8.008,8.008,0,0,0-.932-5.956l1.832-4.369C8.716,21.085,8.859,23.474,8.612,24.88Zm2.181.88-1.318.553a6.173,6.173,0,0,0,.317-1.088c.489-2.5-.31-5.586-2.373-9.183l.662-1.578a10.38,10.38,0,0,1,1.362,2.084.611.611,0,1,0,1.124-.483A11.6,11.6,0,0,0,8.6,13.219l1.011-2.411c.177.325.4.68.659,1.07q.272.4.593.833A11.5,11.5,0,0,1,12.5,21.3,12.416,12.416,0,0,1,10.793,25.76ZM15.5,23.785,12.6,25a15.412,15.412,0,0,0,1.1-3.474,13.3,13.3,0,0,0-.117-5.621q.434.459.893.918c.915.915,1.838,1.763,2.722,2.507A6.058,6.058,0,0,1,15.5,23.785Zm2.108-.884a8.259,8.259,0,0,0,.745-2.64c.369.282.727.541,1.068.771.39.263.746.482,1.071.659Zm2.151-3.123a36.229,36.229,0,0,1-4.419-3.818,36.224,36.224,0,0,1-3.818-4.419,7.125,7.125,0,0,1-1.221-2.226,7.128,7.128,0,0,1,2.226,1.221c.191.135.387.279.586.431-.043.044-.085.089-.129.132a.611.611,0,1,0,.865.865q.115-.115.227-.233c.927.767,1.908,1.662,2.869,2.623.827.827,1.6,1.667,2.293,2.477q-.166.092-.331.187a.611.611,0,1,0,.611,1.059c.17-.1.34-.192.509-.284.266.337.512.665.735.98A7.124,7.124,0,0,1,21.989,21,7.129,7.129,0,0,1,19.763,19.778Z" transform="translate(0 0.001)" fill="#072a40"/>
          <path id="Path_5911" data-name="Path 5911" d="M162.931,282.994a.614.614,0,1,0,.021.053C162.946,283.03,162.938,283.01,162.931,282.994Z" transform="translate(-151.871 -265.352)" fill="#072a40"/>
          <path id="Path_5912" data-name="Path 5912" d="M370.683,103.353a.611.611,0,0,0,.865,0,8.7,8.7,0,0,1,5.2-2.123.611.611,0,1,0-.1-1.219,9.965,9.965,0,0,0-5.962,2.477A.611.611,0,0,0,370.683,103.353Z" transform="translate(-347.85 -93.894)" fill="#072a40"/>
          <path id="Path_5913" data-name="Path 5913" d="M492.121,101.472l-.053-.014a.611.611,0,1,0-.3,1.187l.031.008a.611.611,0,1,0,.317-1.181Z" transform="translate(-461.268 -95.237)" fill="#072a40"/>
          <path id="Path_5914" data-name="Path 5914" d="M64.115,46.067h.611v.611a.611.611,0,1,0,1.223,0v-.611h.611a.611.611,0,1,0,0-1.223H65.95v-.611a.611.611,0,1,0-1.223,0v.611h-.611a.611.611,0,1,0,0,1.223Z" transform="translate(-59.621 -40.954)" fill="#072a40"/>
          <path id="Path_5915" data-name="Path 5915" d="M298.113,143.065h.612v.611a.611.611,0,1,0,1.223,0v-.611h.611a.611.611,0,1,0,0-1.223h-.611v-.611a.611.611,0,1,0-1.223,0v.611h-.612a.611.611,0,1,0,0,1.223Z" transform="translate(-279.312 -132.021)" fill="#072a40"/>
          <path id="Path_5916" data-name="Path 5916" d="M399.558,398.841h-.612v-.611a.611.611,0,1,0-1.223,0v.611h-.611a.611.611,0,1,0,0,1.223h.611v.611a.611.611,0,1,0,1.223,0v-.611h.612a.611.611,0,0,0,0-1.223Z" transform="translate(-372.257 -373.306)" fill="#072a40"/>
          <path id="Path_5917" data-name="Path 5917" d="M361.8,3.67a1.834,1.834,0,1,0-1.834-1.834A1.836,1.836,0,0,0,361.8,3.67Zm0-2.446a.611.611,0,1,1-.611.611A.612.612,0,0,1,361.8,1.224Z" transform="translate(-337.959 -0.001)" fill="#072a40"/>
          <path id="Path_5918" data-name="Path 5918" d="M424.335,173.619a1.834,1.834,0,1,0,1.834,1.834A1.836,1.836,0,0,0,424.335,173.619Zm0,2.446a.611.611,0,1,1,.611-.611A.612.612,0,0,1,424.335,176.065Z" transform="translate(-396.668 -163.003)" fill="#072a40"/>
          <path id="Path_5919" data-name="Path 5919" d="M170.337,39.289a1.834,1.834,0,1,0-1.834-1.834A1.836,1.836,0,0,0,170.337,39.289Zm0-2.446a.611.611,0,1,1-.611.611A.612.612,0,0,1,170.337,36.843Z" transform="translate(-158.2 -33.442)" fill="#072a40"/>
          <path id="Path_5920" data-name="Path 5920" d="M430.413,284.669a.611.611,0,1,0-.611.611A.613.613,0,0,0,430.413,284.669Z" transform="translate(-402.948 -266.69)" fill="#072a40"/>
          <path id="Path_5921" data-name="Path 5921" d="M325.8,76.283a.611.611,0,1,0-.611-.611A.613.613,0,0,0,325.8,76.283Z" transform="translate(-305.306 -70.471)" fill="#072a40"/>
          <path id="Path_5922" data-name="Path 5922" d="M459.8,359.057a.612.612,0,1,0,.611.612A.613.613,0,0,0,459.8,359.057Z" transform="translate(-431.112 -337.103)" fill="#072a40"/>
          <path id="Path_5923" data-name="Path 5923" d="M129.8,11.224a.611.611,0,1,0-.611-.611A.613.613,0,0,0,129.8,11.224Z" transform="translate(-121.293 -9.389)" fill="#072a40"/>
        </g>
      </g>
    </g>
  </g>
</svg>
