<svg xmlns="http://www.w3.org/2000/svg" width="20" height="20" viewBox="0 0 20 20">
  <g id="notificacoes_mais" transform="translate(-20246 -127)">
    <g id="XMLID_86_" transform="translate(20264.102 55) rotate(90)">
      <path id="XMLID_87_" d="M82.717,0H81.164A1.164,1.164,0,0,0,80,1.164V2.717a1.164,1.164,0,0,0,1.164,1.164h1.553a1.164,1.164,0,0,0,1.164-1.164V1.164A1.164,1.164,0,0,0,82.717,0Z" fill="#072a40"/>
      <path id="XMLID_88_" d="M82.717,80H81.164A1.164,1.164,0,0,0,80,81.164v1.553a1.164,1.164,0,0,0,1.164,1.164h1.553a1.164,1.164,0,0,0,1.164-1.164V81.164A1.164,1.164,0,0,0,82.717,80Z" transform="translate(0 -73.79)" fill="#072a40"/>
      <path id="XMLID_89_" d="M82.717,160H81.164A1.164,1.164,0,0,0,80,161.164v1.553a1.164,1.164,0,0,0,1.164,1.164h1.553a1.164,1.164,0,0,0,1.164-1.164v-1.553A1.164,1.164,0,0,0,82.717,160Z" transform="translate(0 -147.58)" fill="#072a40"/>
    </g>
    <rect id="Rectangle_8424" data-name="Rectangle 8424" width="20" height="20" transform="translate(20246 127)" fill="none"/>
  </g>
</svg>
