<svg xmlns="http://www.w3.org/2000/svg" width="32" height="32" viewBox="0 0 32 32">
  <g id="notificacoes_novidades" transform="translate(-62 -771.271)">
    <g id="meagfone-01" transform="translate(64.96 773.692)">
      <path id="Path_5927" data-name="Path 5927" d="M23.093,23.2a1.551,1.551,0,0,1-1.238-.579,25.714,25.714,0,0,0-3.032-3.044c-2.314-1.921-4.374-2.939-6.1-2.939H3.3A1.886,1.886,0,0,1,1.43,14.752V9.081A1.886,1.886,0,0,1,3.3,7.207h9.42c1.724,0,3.842-1.018,6.122-2.951a26.061,26.061,0,0,0,3.02-3.032A1.632,1.632,0,0,1,23.73.715a1.794,1.794,0,0,1,1.227,1.666V21.464a1.724,1.724,0,0,1-1.238,1.585A1.967,1.967,0,0,1,23.093,23.2ZM3.3,9.081v5.647h9.42c4.629,0,9.258,5.069,10.346,6.411V2.705c-1.157,1.331-5.786,6.376-10.346,6.376ZM22.6,1.8Z" transform="translate(-0.471 -0.606)" fill="#072a40"/>
      <path id="Path_5928" data-name="Path 5928" d="M2.5,13.573a.8.8,0,0,1-.278-.058A2.789,2.789,0,0,1,.611,10.749a3.24,3.24,0,0,1,.694-2.118,2.141,2.141,0,0,1,.914-.625.926.926,0,0,1,1.157.544.937.937,0,0,1-.509,1.157c-.058,0-.37.243-.37,1.007a1.377,1.377,0,0,0,.255.914l.081.093A.937.937,0,0,1,2.5,13.538ZM2.833,9.754ZM2.833,9.754Z" transform="translate(-0.601 0.55)" fill="#072a40"/>
      <path id="Path_5929" data-name="Path 5929" d="M21.792,12.826l-.231-1.875h0a.434.434,0,0,0,.243-.683l-.127-.023a.941.941,0,1,1,.752-1.724,2.314,2.314,0,0,1-.636,4.363Z" transform="translate(2.623 0.626)" fill="#072a40"/>
      <path id="Path_5930" data-name="Path 5930" d="M12.127,15.718a.937.937,0,0,1-.937-.937V7.247a.937.937,0,0,1,1.875,0v7.534A.937.937,0,0,1,12.127,15.718Z" transform="translate(1.063 0.291)" fill="#072a40"/>
      <path id="Path_5931" data-name="Path 5931" d="M4.807,15.718a.937.937,0,0,1-.937-.937V7.247a.937.937,0,0,1,1.875,0v7.534A.937.937,0,0,1,4.807,15.718Z" transform="translate(-0.088 0.291)" fill="#072a40"/>
      <path id="Path_5932" data-name="Path 5932" d="M10.026,25.053H6.9A1.412,1.412,0,0,1,5.49,23.642V13.759a.943.943,0,1,1,1.886,0v9.408h2.65c-.116-.382-.289-.8-.474-1.238a13.227,13.227,0,0,1-1.238-5.346.949.949,0,0,1,.949-.949H10.2V14.7H9.263a.943.943,0,1,1,0-1.886H10.2A1.886,1.886,0,0,1,12.086,14.7v.937a1.886,1.886,0,0,1-1.84,1.886,12.845,12.845,0,0,0,1.042,3.692,13.2,13.2,0,0,1,.579,1.4,1.794,1.794,0,0,1,.081.555,1.875,1.875,0,0,1-1.875,1.886Z" transform="translate(0.167 1.312)" fill="#072a40"/>
    </g>
    <rect id="Rectangle_8361" data-name="Rectangle 8361" width="32" height="32" transform="translate(62 771.271)" fill="none"/>
  </g>
</svg>
