<svg xmlns="http://www.w3.org/2000/svg" width="32" height="32" viewBox="0 0 32 32">
  <g id="notificacoes_descontos" transform="translate(-176 -770.563)">
    <g id="etiqueta-01" transform="translate(176.921 772.71)">
      <path id="Path_5924" data-name="Path 5924" d="M9.948,27.665a2.511,2.511,0,0,1-1.818-.758L1.4,20.068a2.681,2.681,0,0,1,0-3.714l14.1-14.371A1.726,1.726,0,0,1,16.8,1.46h7.074a2.511,2.511,0,0,1,1.818.771,2.615,2.615,0,0,1,.745,1.857V11.32a1.8,1.8,0,0,1-.51,1.308L11.8,27.011A2.615,2.615,0,0,1,9.948,27.665ZM16.8,3.33,2.7,17.714a.745.745,0,0,0,0,1.046l6.721,6.852a.745.745,0,0,0,1.046,0L24.554,11.228V4.089a.785.785,0,0,0-.209-.536.68.68,0,0,0-.51-.222ZM16.8,3.33Z" transform="translate(-0.649 -1.459)" fill="#072a40"/>
      <path id="Path_5925" data-name="Path 5925" d="M16.569,8.07A1.87,1.87,0,1,1,18.4,6.2a1.87,1.87,0,0,1-1.831,1.87Z" transform="translate(3.662 -0.576)" fill="#072a40"/>
      <path id="Path_5926" data-name="Path 5926" d="M10.977,28.886a.915.915,0,0,1-.654-.275.928.928,0,0,1,0-1.308L25.335,11.966V4.551a.922.922,0,1,1,1.844,0v7.48a1.765,1.765,0,0,1-.5,1.242L11.618,28.612a.876.876,0,0,1-.641.275Z" transform="translate(2.245 -0.797)" fill="#072a40"/>
    </g>
    <rect id="Rectangle_8360" data-name="Rectangle 8360" width="32" height="32" transform="translate(176 770.563)" fill="none"/>
  </g>
</svg>
