<svg xmlns="http://www.w3.org/2000/svg" width="32" height="32.161" viewBox="0 0 32 32.161">
  <g id="notificacoes_farmacias" transform="translate(0 -0.081)">
    <g id="drug_copy" data-name="drug copy" transform="translate(0.944 0.307)">
      <g id="Group_10621" data-name="Group 10621" transform="translate(6.205 7.819)">
        <g id="Group_10620" data-name="Group 10620" transform="translate(0)">
          <path id="Path_5851" data-name="Path 5851" d="M116.317,125.994a.621.621,0,1,0,.621.621A.621.621,0,0,0,116.317,125.994Z" transform="translate(-115.696 -125.994)" fill="#072a40" stroke="#072a40" stroke-width="0.3"/>
        </g>
      </g>
      <g id="Group_10623" data-name="Group 10623" transform="translate(6.826 16.941)">
        <g id="Group_10622" data-name="Group 10622">
          <path id="Path_5852" data-name="Path 5852" d="M131.281,275.468h-1.862v-1.862a.621.621,0,1,0-1.241,0v1.862h-1.862a.621.621,0,1,0,0,1.241h1.862v1.862a.621.621,0,1,0,1.241,0v-1.862h1.862a.621.621,0,1,0,0-1.241Z" transform="translate(-125.696 -272.986)" fill="#072a40" stroke="#072a40" stroke-width="0.3"/>
        </g>
      </g>
      <g id="Group_10625" data-name="Group 10625" transform="translate(0)">
        <g id="Group_10624" data-name="Group 10624">
          <path id="Path_5853" data-name="Path 5853" d="M44.86,19.981a4.961,4.961,0,0,0-6.781-1.817L35.558,19.62V14.231a3.125,3.125,0,0,0-.621-1.862l-3.1-4.137V6.471a1.865,1.865,0,0,0,1.241-1.755V1.862A1.864,1.864,0,0,0,31.214,0H20.045a1.864,1.864,0,0,0-1.862,1.862V4.716a1.865,1.865,0,0,0,1.241,1.755V8.233l-3.1,4.137a3.125,3.125,0,0,0-.62,1.861V26.249a3.106,3.106,0,0,0,3.1,3.1h9.973a4.959,4.959,0,0,0,6.743,1.755l7.524-4.344A4.968,4.968,0,0,0,44.86,19.981ZM19.424,1.862a.621.621,0,0,1,.621-.621h11.17a.621.621,0,0,1,.621.621V4.716a.621.621,0,0,1-.621.621H20.045a.621.621,0,0,1-.621-.621V1.862Zm-2.11,11.252,3.227-4.3a.62.62,0,0,0,.124-.372V6.578h9.929V7.819H25.009a.621.621,0,0,0,0,1.241h5.9l3.04,4.054a1.878,1.878,0,0,1,.359.911H16.955A1.877,1.877,0,0,1,17.314,13.114Zm1.489,15a1.864,1.864,0,0,1-1.862-1.862v-.627H28.216a4.972,4.972,0,0,0,.03,2.488H18.8Zm9.9-3.723H16.942V15.265H34.317v5.071l-3.762,2.172A4.927,4.927,0,0,0,28.7,24.387Zm6.2,5.644a3.723,3.723,0,1,1-3.723-6.449l3.368-1.945,3.723,6.449Zm7.523-4.344-3.08,1.778-3.723-6.449,3.08-1.778a3.723,3.723,0,1,1,3.723,6.449Z" transform="translate(-15.701)" fill="#072a40" stroke="#072a40" stroke-width="0.3"/>
        </g>
      </g>
    </g>
    <rect id="Rectangle_8230" data-name="Rectangle 8230" width="32" height="32" transform="translate(0 0.081)" fill="none"/>
  </g>
</svg>
