<svg xmlns="http://www.w3.org/2000/svg" width="20" height="20" viewBox="0 0 20 20">
  <g id="password" transform="translate(-40 -466)">
    <g id="password-2" data-name="password" transform="translate(43.6 467)">
      <path id="Path_5335" data-name="Path 5335" d="M14.111,19.938H4.587A1.617,1.617,0,0,1,3,18.3V10.641A1.617,1.617,0,0,1,4.587,9h9.524A1.617,1.617,0,0,1,15.7,10.641V18.3A1.617,1.617,0,0,1,14.111,19.938ZM4.587,10.094a.539.539,0,0,0-.529.547V18.3a.539.539,0,0,0,.529.547h9.524a.539.539,0,0,0,.529-.547V10.641a.539.539,0,0,0-.529-.547Z" transform="translate(-3 -2.438)" fill="#072a40"/>
      <path id="Path_5336" data-name="Path 5336" d="M13.8,7.656a.534.534,0,0,1-.52-.547V4.375a3.208,3.208,0,0,0-3.121-3.281A3.208,3.208,0,0,0,7.04,4.375V7.109a.521.521,0,1,1-1.04,0V4.375A4.277,4.277,0,0,1,10.162,0a4.277,4.277,0,0,1,4.162,4.375V7.109A.534.534,0,0,1,13.8,7.656Z" transform="translate(-3.813)" fill="#072a40"/>
      <path id="Path_5337" data-name="Path 5337" d="M11.458,15.917a1.458,1.458,0,1,1,1.458-1.458A1.46,1.46,0,0,1,11.458,15.917Zm0-1.823a.365.365,0,1,0,.365.365A.365.365,0,0,0,11.458,14.094Z" transform="translate(-5.109 -3.521)" fill="#072a40"/>
      <path id="Path_5338" data-name="Path 5338" d="M11.8,18.849a.547.547,0,0,1-.547-.547V16.3a.547.547,0,0,1,1.094,0V18.3A.547.547,0,0,1,11.8,18.849Z" transform="translate(-5.448 -4.266)" fill="#072a40"/>
    </g>
    <rect id="Rectangle_8181" data-name="Rectangle 8181" width="20" height="20" transform="translate(40 466)" fill="none"/>
  </g>
</svg>
