<svg xmlns="http://www.w3.org/2000/svg" width="66" height="19" viewBox="0 0 66 19">
  <g id="pedido_curso" transform="translate(-1789 -381)">
    <g id="Group_12925" data-name="Group 12925" transform="translate(1609 79)">
      <path id="Rectangle_8094" data-name="Rectangle 8094" d="M9.5,0h47A9.5,9.5,0,0,1,66,9.5v0A9.5,9.5,0,0,1,56.5,19H0a0,0,0,0,1,0,0V9.5A9.5,9.5,0,0,1,9.5,0Z" transform="translate(180 302)" fill="#f77415"/>
      <path id="MAPA" d="M-16.545-3.174h-2.92V-.986h3.413V0H-20.7V-7.109h4.614v1h-3.379V-4.15h2.92Zm2.62-2.109.034.552a1.9,1.9,0,0,1,1.523-.649,1.46,1.46,0,0,1,1.45.811A1.874,1.874,0,0,1-9.3-5.381,1.647,1.647,0,0,1-8-4.9a2.128,2.128,0,0,1,.437,1.426V0H-8.745V-3.437a1.051,1.051,0,0,0-.22-.737.962.962,0,0,0-.728-.234.988.988,0,0,0-.662.217,1.146,1.146,0,0,0-.359.569l0,3.623h-1.187V-3.477a.846.846,0,0,0-.952-.933,1.044,1.044,0,0,0-1.011.581V0h-1.187V-5.283ZM-1.439-.85A1.073,1.073,0,0,0-.7-1.108a.884.884,0,0,0,.313-.64H.729a1.743,1.743,0,0,1-.308.92A2.018,2.018,0,0,1-.36-.151,2.328,2.328,0,0,1-1.425.1,2.253,2.253,0,0,1-3.183-.62,2.847,2.847,0,0,1-3.832-2.6v-.122a2.8,2.8,0,0,1,.645-1.931A2.232,2.232,0,0,1-1.43-5.381a2.171,2.171,0,0,1,1.536.549A1.968,1.968,0,0,1,.729-3.389H-.39A1.087,1.087,0,0,0-.7-4.136a1,1,0,0,0-.74-.293,1.044,1.044,0,0,0-.889.417,2.13,2.13,0,0,0-.317,1.267v.19a2.166,2.166,0,0,0,.31,1.282A1.043,1.043,0,0,0-1.439-.85Zm6.385.332A1.84,1.84,0,0,1,3.461.1a1.64,1.64,0,0,1-1.3-.5A2.139,2.139,0,0,1,1.718-1.86V-5.283H2.9v3.408q0,1.006.835,1.006a1.173,1.173,0,0,0,1.167-.62V-5.283H6.093V0H4.975ZM10.187-4.2A2.936,2.936,0,0,0,9.7-4.238a1.088,1.088,0,0,0-1.1.625V0H7.419V-5.283H8.552l.029.591a1.337,1.337,0,0,1,1.191-.688,1.111,1.111,0,0,1,.42.068Zm3.831,2.764a.538.538,0,0,0-.261-.483,2.778,2.778,0,0,0-.867-.293,4.455,4.455,0,0,1-1.011-.322,1.349,1.349,0,0,1-.889-1.245,1.406,1.406,0,0,1,.576-1.143,2.278,2.278,0,0,1,1.465-.459,2.37,2.37,0,0,1,1.531.469A1.487,1.487,0,0,1,15.146-3.7H13.96a.731.731,0,0,0-.254-.569.973.973,0,0,0-.674-.227,1.051,1.051,0,0,0-.637.181.57.57,0,0,0-.247.483.481.481,0,0,0,.229.425,3.156,3.156,0,0,0,.928.305,4.392,4.392,0,0,1,1.1.366,1.552,1.552,0,0,1,.591.51,1.3,1.3,0,0,1,.193.723,1.377,1.377,0,0,1-.591,1.155A2.519,2.519,0,0,1,13.047.1a2.732,2.732,0,0,1-1.157-.234A1.9,1.9,0,0,1,11.1-.781a1.526,1.526,0,0,1-.283-.884h1.152a.836.836,0,0,0,.317.647,1.233,1.233,0,0,0,.776.227,1.2,1.2,0,0,0,.713-.178A.552.552,0,0,0,14.018-1.436Zm2.1-1.255a3.115,3.115,0,0,1,.308-1.4,2.247,2.247,0,0,1,.864-.957,2.435,2.435,0,0,1,1.279-.334,2.308,2.308,0,0,1,1.736.688,2.708,2.708,0,0,1,.72,1.826l0,.278a3.143,3.143,0,0,1-.3,1.4,2.22,2.22,0,0,1-.859.952A2.453,2.453,0,0,1,18.577.1a2.292,2.292,0,0,1-1.79-.745,2.852,2.852,0,0,1-.671-1.985Zm1.187.1a2.129,2.129,0,0,0,.337,1.277,1.1,1.1,0,0,0,.938.461,1.083,1.083,0,0,0,.935-.469,2.351,2.351,0,0,0,.334-1.372A2.1,2.1,0,0,0,19.5-3.96a1.1,1.1,0,0,0-.935-.469,1.089,1.089,0,0,0-.923.461A2.307,2.307,0,0,0,17.3-2.588Z" transform="translate(213 315)" fill="#fff"/>
    </g>
  </g>
</svg>
