<svg xmlns="http://www.w3.org/2000/svg" width="72" height="19" viewBox="0 0 72 19">
  <g id="pedido_cancelado_tab" transform="translate(-1519 -490)">
    <path id="Rectangle_8094" data-name="Rectangle 8094" d="M9.5,0h53A9.5,9.5,0,0,1,72,9.5v0A9.5,9.5,0,0,1,62.5,19H0a0,0,0,0,1,0,0V9.5A9.5,9.5,0,0,1,9.5,0Z" transform="translate(1519 490)" fill="#f01f1f"/>
    <path id="MAPA" d="M-18.034-2.314a2.567,2.567,0,0,1-.84,1.775A2.863,2.863,0,0,1-20.822.1a2.772,2.772,0,0,1-1.5-.4,2.644,2.644,0,0,1-1-1.145,4.132,4.132,0,0,1-.366-1.724v-.664a4.162,4.162,0,0,1,.356-1.772A2.686,2.686,0,0,1-22.3-6.792a2.853,2.853,0,0,1,1.541-.415,2.741,2.741,0,0,1,1.895.64,2.672,2.672,0,0,1,.835,1.807h-1.23a1.756,1.756,0,0,0-.447-1.106,1.477,1.477,0,0,0-1.052-.339A1.443,1.443,0,0,0-22-5.618a2.939,2.939,0,0,0-.442,1.726v.63A3.117,3.117,0,0,0-22.03-1.5,1.37,1.37,0,0,0-20.822-.9a1.6,1.6,0,0,0,1.094-.327,1.706,1.706,0,0,0,.464-1.089ZM-13.768,0A1.831,1.831,0,0,1-13.9-.493,1.847,1.847,0,0,1-15.292.1a1.864,1.864,0,0,1-1.3-.454,1.453,1.453,0,0,1-.5-1.123,1.5,1.5,0,0,1,.627-1.3,3.041,3.041,0,0,1,1.794-.452h.728v-.347a.925.925,0,0,0-.229-.657.91.91,0,0,0-.7-.247,1.045,1.045,0,0,0-.664.2.627.627,0,0,0-.259.515h-1.187a1.317,1.317,0,0,1,.288-.813,1.919,1.919,0,0,1,.784-.593A2.753,2.753,0,0,1-14.8-5.381a2.217,2.217,0,0,1,1.479.466A1.663,1.663,0,0,1-12.757-3.6v2.383a2.7,2.7,0,0,0,.2,1.138V0Zm-1.3-.854a1.35,1.35,0,0,0,.662-.171,1.142,1.142,0,0,0,.466-.459v-1h-.64a1.749,1.749,0,0,0-.991.229.743.743,0,0,0-.332.649.693.693,0,0,0,.227.544A.879.879,0,0,0-15.072-.854Zm4.778-4.429.034.61a1.9,1.9,0,0,1,1.538-.708q1.65,0,1.68,1.89V0H-8.228V-3.423a1.088,1.088,0,0,0-.217-.745.914.914,0,0,0-.71-.242,1.143,1.143,0,0,0-1.069.649V0h-1.187V-5.283ZM-3.543-.85a1.073,1.073,0,0,0,.737-.259.884.884,0,0,0,.313-.64h1.118a1.743,1.743,0,0,1-.308.92,2.018,2.018,0,0,1-.781.676A2.328,2.328,0,0,1-3.528.1,2.253,2.253,0,0,1-5.286-.62,2.847,2.847,0,0,1-5.935-2.6v-.122a2.8,2.8,0,0,1,.645-1.931,2.232,2.232,0,0,1,1.758-.725A2.171,2.171,0,0,1-2-4.832a1.968,1.968,0,0,1,.623,1.443H-2.493a1.087,1.087,0,0,0-.31-.747,1,1,0,0,0-.74-.293,1.044,1.044,0,0,0-.889.417,2.13,2.13,0,0,0-.317,1.267v.19a2.166,2.166,0,0,0,.31,1.282A1.043,1.043,0,0,0-3.543-.85ZM1.968.1A2.455,2.455,0,0,1,.139-.613,2.577,2.577,0,0,1-.562-2.5v-.146A3.17,3.17,0,0,1-.256-4.065,2.323,2.323,0,0,1,.6-5.034a2.265,2.265,0,0,1,1.23-.347A2.074,2.074,0,0,1,3.5-4.692a2.911,2.911,0,0,1,.588,1.948v.479H.635A1.587,1.587,0,0,0,1.072-1.23a1.312,1.312,0,0,0,.964.381,1.607,1.607,0,0,0,1.328-.659L4-.9a2.136,2.136,0,0,1-.847.735A2.652,2.652,0,0,1,1.968.1ZM1.826-4.429a1,1,0,0,0-.789.342,1.772,1.772,0,0,0-.383.952H2.915v-.088a1.442,1.442,0,0,0-.317-.9A.992.992,0,0,0,1.826-4.429ZM6.39,0H5.2V-7.5H6.39Zm4.568,0a1.831,1.831,0,0,1-.137-.493A1.847,1.847,0,0,1,9.434.1a1.864,1.864,0,0,1-1.3-.454,1.453,1.453,0,0,1-.5-1.123,1.5,1.5,0,0,1,.627-1.3,3.041,3.041,0,0,1,1.794-.452h.728v-.347a.925.925,0,0,0-.229-.657.91.91,0,0,0-.7-.247,1.045,1.045,0,0,0-.664.2.627.627,0,0,0-.259.515H7.745a1.317,1.317,0,0,1,.288-.813,1.919,1.919,0,0,1,.784-.593,2.753,2.753,0,0,1,1.106-.215,2.217,2.217,0,0,1,1.479.466A1.663,1.663,0,0,1,11.969-3.6v2.383a2.7,2.7,0,0,0,.2,1.138V0Zm-1.3-.854a1.35,1.35,0,0,0,.662-.171,1.142,1.142,0,0,0,.466-.459v-1h-.64a1.749,1.749,0,0,0-.991.229.743.743,0,0,0-.332.649.693.693,0,0,0,.227.544A.879.879,0,0,0,9.654-.854Zm3.455-1.826a3.141,3.141,0,0,1,.566-1.96,1.815,1.815,0,0,1,1.519-.74,1.724,1.724,0,0,1,1.357.586V-7.5h1.187V0H16.664l-.059-.547A1.749,1.749,0,0,1,15.184.1a1.8,1.8,0,0,1-1.5-.747A3.256,3.256,0,0,1,13.109-2.681Zm1.187.1a2.2,2.2,0,0,0,.31,1.257,1.006,1.006,0,0,0,.881.452,1.121,1.121,0,0,0,1.064-.649V-3.774A1.1,1.1,0,0,0,15.5-4.409a1.013,1.013,0,0,0-.889.457A2.449,2.449,0,0,0,14.3-2.578Zm4.578-.112a3.115,3.115,0,0,1,.308-1.4,2.247,2.247,0,0,1,.864-.957,2.435,2.435,0,0,1,1.279-.334,2.308,2.308,0,0,1,1.736.688,2.708,2.708,0,0,1,.72,1.826l0,.278a3.143,3.143,0,0,1-.3,1.4,2.22,2.22,0,0,1-.859.952A2.453,2.453,0,0,1,21.334.1a2.292,2.292,0,0,1-1.79-.745,2.852,2.852,0,0,1-.671-1.985Zm1.187.1A2.129,2.129,0,0,0,20.4-1.311a1.1,1.1,0,0,0,.938.461,1.083,1.083,0,0,0,.935-.469A2.351,2.351,0,0,0,22.6-2.69a2.1,2.1,0,0,0-.344-1.27,1.1,1.1,0,0,0-.935-.469,1.089,1.089,0,0,0-.923.461A2.307,2.307,0,0,0,20.06-2.588Z" transform="translate(1555 503)" fill="#fff"/>
  </g>
</svg>
