<svg xmlns="http://www.w3.org/2000/svg" width="64" height="19" viewBox="0 0 64 19">
  <g id="pedido_entregue_tab" transform="translate(-1488 -375)">
    <path id="Rectangle_8094" data-name="Rectangle 8094" d="M9.5,0h45A9.5,9.5,0,0,1,64,9.5v0A9.5,9.5,0,0,1,54.5,19H0a0,0,0,0,1,0,0V9.5A9.5,9.5,0,0,1,9.5,0Z" transform="translate(1488 375)" fill="#47ad08"/>
    <path id="MAPA" d="M-15.5-3.174h-2.92V-.986h3.413V0h-4.648V-7.109h4.614v1h-3.379V-4.15h2.92ZM-12.9-5.283l.034.61a1.9,1.9,0,0,1,1.538-.708q1.65,0,1.68,1.89V0h-1.187V-3.423a1.088,1.088,0,0,0-.217-.745.914.914,0,0,0-.71-.242,1.143,1.143,0,0,0-1.069.649V0h-1.187V-5.283ZM-6.83-6.567v1.284H-5.9V-4.4H-6.83v2.949a.649.649,0,0,0,.12.437.555.555,0,0,0,.427.134,1.828,1.828,0,0,0,.415-.049v.918A2.922,2.922,0,0,1-6.65.1Q-8.017.1-8.017-1.411V-4.4h-.869v-.879h.869V-6.567ZM-2.106-4.2a2.936,2.936,0,0,0-.483-.039,1.088,1.088,0,0,0-1.1.625V0H-4.874V-5.283h1.133l.029.591a1.337,1.337,0,0,1,1.191-.688,1.111,1.111,0,0,1,.42.068ZM1,.1A2.455,2.455,0,0,1-.831-.613a2.577,2.577,0,0,1-.7-1.892v-.146a3.17,3.17,0,0,1,.305-1.414A2.323,2.323,0,0,1-.37-5.034a2.265,2.265,0,0,1,1.23-.347,2.074,2.074,0,0,1,1.667.688,2.911,2.911,0,0,1,.588,1.948v.479H-.336A1.587,1.587,0,0,0,.1-1.23a1.312,1.312,0,0,0,.964.381,1.607,1.607,0,0,0,1.328-.659l.64.61a2.136,2.136,0,0,1-.847.735A2.652,2.652,0,0,1,1,.1ZM.856-4.429a1,1,0,0,0-.789.342,1.772,1.772,0,0,0-.383.952H1.945v-.088a1.442,1.442,0,0,0-.317-.9A.992.992,0,0,0,.856-4.429ZM3.95-2.681a3.09,3.09,0,0,1,.579-1.965,1.857,1.857,0,0,1,1.536-.735,1.74,1.74,0,0,1,1.421.63l.054-.532H8.608V-.161a2.129,2.129,0,0,1-.647,1.641,2.464,2.464,0,0,1-1.746.6A2.814,2.814,0,0,1,5.08,1.838a2.017,2.017,0,0,1-.842-.632L4.8.493a1.7,1.7,0,0,0,1.348.649,1.311,1.311,0,0,0,.933-.32,1.226,1.226,0,0,0,.342-.94V-.474A1.747,1.747,0,0,1,6.054.1,1.853,1.853,0,0,1,4.538-.64,3.19,3.19,0,0,1,3.95-2.681Zm1.182.1a2.127,2.127,0,0,0,.325,1.252,1.044,1.044,0,0,0,.9.457,1.142,1.142,0,0,0,1.064-.615V-3.809a1.125,1.125,0,0,0-1.055-.6,1.048,1.048,0,0,0-.911.464A2.382,2.382,0,0,0,5.131-2.578ZM13.147-.518A1.84,1.84,0,0,1,11.662.1a1.64,1.64,0,0,1-1.3-.5A2.139,2.139,0,0,1,9.919-1.86V-5.283h1.187v3.408q0,1.006.835,1.006a1.173,1.173,0,0,0,1.167-.62V-5.283h1.187V0H13.176Zm4.8.615a2.455,2.455,0,0,1-1.829-.71,2.577,2.577,0,0,1-.7-1.892v-.146a3.17,3.17,0,0,1,.305-1.414,2.323,2.323,0,0,1,.857-.969,2.265,2.265,0,0,1,1.23-.347,2.074,2.074,0,0,1,1.667.688,2.911,2.911,0,0,1,.588,1.948v.479H16.616a1.587,1.587,0,0,0,.437,1.035,1.312,1.312,0,0,0,.964.381,1.607,1.607,0,0,0,1.328-.659l.64.61a2.136,2.136,0,0,1-.847.735A2.652,2.652,0,0,1,17.949.1Zm-.142-4.526a1,1,0,0,0-.789.342,1.772,1.772,0,0,0-.383.952H18.9v-.088a1.442,1.442,0,0,0-.317-.9A.992.992,0,0,0,17.808-4.429Z" transform="translate(1520 388)" fill="#fff"/>
  </g>
</svg>
