<svg xmlns="http://www.w3.org/2000/svg" width="20" height="20" viewBox="0 0 20 20">
  <g id="perfil_aniversario" transform="translate(-23551 -849)">
    <g id="cake" transform="translate(23552.4 850.086)">
      <g id="Group_12712" data-name="Group 12712" transform="translate(0 0.114)">
        <path id="Path_6073" data-name="Path 6073" d="M14.38,9.513h-.548V6.191a1.611,1.611,0,0,0-1.609-1.609h-3.1V4.061a1.425,1.425,0,0,0,.911-1.327A7.444,7.444,0,0,0,9.058.371a.509.509,0,0,0-.885,0,7.445,7.445,0,0,0-.981,2.362,1.425,1.425,0,0,0,.917,1.329v.519h-3.1A1.611,1.611,0,0,0,3.4,6.191V9.513H2.85A2.854,2.854,0,0,0,0,12.364v4.464a.509.509,0,0,0,.509.509H16.722a.509.509,0,0,0,.509-.509V12.364A2.854,2.854,0,0,0,14.38,9.513Zm-5.765-7.8a4.37,4.37,0,0,1,.4,1.022.4.4,0,0,1-.81,0A4.353,4.353,0,0,1,8.615,1.712ZM4.421,6.191A.592.592,0,0,1,5.013,5.6h7.21a.592.592,0,0,1,.591.591v.856H4.421Zm0,1.874h8.393V9.513H4.421Zm11.791,8.254H1.018V14.339A2.126,2.126,0,0,0,3.751,13.9a2.126,2.126,0,0,0,3.243,0,2.126,2.126,0,0,0,3.243,0,2.126,2.126,0,0,0,3.243,0,2.126,2.126,0,0,0,2.733.437v1.981ZM15.1,13.635a1.114,1.114,0,0,1-1.113-1.113.509.509,0,0,0-1.017,0,1.113,1.113,0,1,1-2.225,0,.509.509,0,0,0-1.017,0,1.113,1.113,0,1,1-2.225,0,.509.509,0,0,0-1.017,0,1.113,1.113,0,1,1-2.225,0,.509.509,0,0,0-1.018,0,1.113,1.113,0,0,1-2.225,0h0v-.159a1.835,1.835,0,0,1,1.832-1.832h11.53a1.835,1.835,0,0,1,1.832,1.832v.159h0A1.114,1.114,0,0,1,15.1,13.635Z" transform="translate(0 -0.114)" fill="#072a40"/>
      </g>
    </g>
    <rect id="Rectangle_8088" data-name="Rectangle 8088" width="20" height="20" transform="translate(23551 849)" fill="none"/>
  </g>
</svg>
