<svg xmlns="http://www.w3.org/2000/svg" width="20" height="20" viewBox="0 0 20 20">
  <g id="porta" transform="translate(-41 -607)">
    <g id="key" transform="translate(42 608)">
      <g id="Group_12819" data-name="Group 12819" transform="translate(0 7.323)">
        <g id="Group_12818" data-name="Group 12818">
          <path id="Path_6076" data-name="Path 6076" d="M8.433,213.428a.406.406,0,0,0-.576,0l-1.51,1.511H5.294a.407.407,0,0,0-.407.408v.815H4.073a.407.407,0,0,0-.407.408v.815H2.851a.407.407,0,0,0-.407.408v1.054l-.169.169H.815v-1.461l6.8-6.809a.408.408,0,0,0,0-.576l-.119-.12a.569.569,0,0,1-.168-.406v0a.407.407,0,1,0-.814,0,1.379,1.379,0,0,0,.253.8L.119,217.1a.407.407,0,0,0-.119.288v2.038a.407.407,0,0,0,.407.407H2.444a.408.408,0,0,0,.288-.119l.407-.408a.407.407,0,0,0,.119-.288V218.2h.815a.407.407,0,0,0,.407-.408v-.815h.815a.407.407,0,0,0,.407-.408v-.815h.815a.407.407,0,0,0,.288-.119L8.433,214A.407.407,0,0,0,8.433,213.428Z" transform="translate(0 -209.233)" fill="#072a40"/>
        </g>
      </g>
      <g id="Group_12821" data-name="Group 12821" transform="translate(10.947 2.803)">
        <g id="Group_12820" data-name="Group 12820">
          <path id="Path_6077" data-name="Path 6077" d="M316.588,82.063l-1.629-1.63a1.3,1.3,0,0,0-1.8,0,1.274,1.274,0,0,0,0,1.8l1.629,1.63a1.272,1.272,0,0,0,1.8-1.8Zm-.576,1.222a.467.467,0,0,1-.646,0l-1.629-1.63a.459.459,0,0,1,0-.646.456.456,0,0,1,.646,0l1.629,1.63A.458.458,0,0,1,316.012,83.285Z" transform="translate(-312.789 -80.072)" fill="#072a40"/>
        </g>
      </g>
      <g id="Group_12823" data-name="Group 12823" transform="translate(5.701 0)">
        <g id="Group_12822" data-name="Group 12822">
          <path id="Path_6078" data-name="Path 6078" d="M174.715,5.117,170,.394a1.423,1.423,0,0,0-1.966,0l-3.9,3.907a1.392,1.392,0,0,0,0,1.968l3.9,3.907-.239.24a.57.57,0,0,1-.406.168h0a.572.572,0,0,1-.407-.169L165.84,9.276a.407.407,0,0,0-.576,0l-2.24,2.242a.407.407,0,1,0,.576.576l1.952-1.953.85.851a1.38,1.38,0,0,0,.983.407h0a1.379,1.379,0,0,0,.98-.407l.527-.528a.407.407,0,0,0,0-.576l-4.192-4.2a.577.577,0,0,1,0-.815l3.9-3.906a.589.589,0,0,1,.814,0l4.718,4.722a.577.577,0,0,1,0,.815l-3.9,3.906a.571.571,0,0,1-.407.169.408.408,0,0,0,0,.815,1.38,1.38,0,0,0,.983-.408l3.9-3.907a1.392,1.392,0,0,0,0-1.968Z" transform="translate(-162.904 0)" fill="#072a40"/>
        </g>
      </g>
    </g>
    <rect id="Rectangle_8088" data-name="Rectangle 8088" width="20" height="20" transform="translate(41 607)" fill="none"/>
  </g>
</svg>
