<svg xmlns="http://www.w3.org/2000/svg" width="24" height="24" viewBox="0 0 24 24">
  <g id="rating_servico_selected" transform="translate(-7734 -440.286)">
    <g id="Group_10878" data-name="Group 10878" transform="translate(7735.552 442.573)">
      <path id="Path_4700" data-name="Path 4700" d="M2.736,317.771h6.34l2.021-6.326h1.67l2.329,6.326h5.925v1.32l-4.471,3.227,1.576,6.106-.955,1.107L11.8,325.857,6.7,329.532l-1.17-1.107,1.458-6.106L2.4,319.092Z" transform="translate(-1.622 -310.582)" fill="#072a40"/>
      <g id="favorite">
        <path id="Path_4698" data-name="Path 4698" d="M20.415,17.721A1.776,1.776,0,0,0,18.7,16.478H13.579l-1.613-4.9a1.775,1.775,0,0,0-1.711-1.239h-.008a1.775,1.775,0,0,0-1.709,1.252L6.971,16.478H1.806A1.8,1.8,0,0,0,.75,19.74L4.93,22.761,3.321,27.647a1.775,1.775,0,0,0,.648,2.018,1.775,1.775,0,0,0,2.12.006l4.187-3.026,4.137,3.021a1.8,1.8,0,0,0,2.779-2.006l-1.571-4.9,4.144-3.026a1.776,1.776,0,0,0,.651-2.014Zm-1.359,1.044L14.212,22.3l1.835,5.725a.6.6,0,0,1-.926.668L10.279,25.16,5.385,28.7a.6.6,0,0,1-.922-.675L6.346,22.3,1.454,18.767a.6.6,0,0,1,.352-1.088H7.848l1.834-5.72a.583.583,0,0,1,.57-.417h0a.583.583,0,0,1,.571.413l1.885,5.725H18.7a.6.6,0,0,1,.354,1.086Z" transform="translate(0 -10.34)" fill="#072a40"/>
      </g>
    </g>
    <rect id="Rectangle_8277" data-name="Rectangle 8277" width="24" height="24" transform="translate(7734 440.286)" fill="none"/>
  </g>
</svg>
