<svg xmlns="http://www.w3.org/2000/svg" width="12" height="12" viewBox="0 0 12 12">
  <g id="star_review" transform="translate(-7734 -441)">
    <g id="Group_10878" data-name="Group 10878" transform="translate(6.8 -11.2)">
      <path id="Path_4700" data-name="Path 4700" d="M2.574,314.708h3.27l1.042-3.263h.861l1.2,3.263h3.056v.681L9.7,317.054l.813,3.149-.493.571-2.773-1.9-2.626,1.9-.6-.571.752-3.149L2.4,315.389Z" transform="translate(7726 142)" fill="#072a40"/>
      <g id="favorite" transform="translate(7728 453)">
        <path id="Path_4698" data-name="Path 4698" d="M10.53,14.147a.916.916,0,0,0-.884-.641H7l-.832-2.527a.916.916,0,0,0-.883-.639h0a.916.916,0,0,0-.882.646L3.6,13.506H.932a.93.93,0,0,0-.545,1.683l2.156,1.558-.83,2.52a.916.916,0,0,0,.334,1.041.916.916,0,0,0,1.093,0L5.3,18.75l2.134,1.558a.93.93,0,0,0,1.433-1.035l-.81-2.527,2.137-1.561a.916.916,0,0,0,.336-1.039Zm-.7.539L7.33,16.51l.947,2.953a.31.31,0,0,1-.478.345L5.3,17.984,2.777,19.809a.31.31,0,0,1-.476-.348l.972-2.95L.75,14.687a.31.31,0,0,1,.182-.561H4.048l.946-2.951a.3.3,0,0,1,.294-.215h0a.3.3,0,0,1,.294.213l.972,2.953H9.646a.31.31,0,0,1,.183.56Z" transform="translate(0 -10.34)" fill="#072a40"/>
      </g>
    </g>
    <rect id="Rectangle_8277" data-name="Rectangle 8277" width="12" height="12" transform="translate(7734 441)" fill="none"/>
  </g>
</svg>
