<svg xmlns="http://www.w3.org/2000/svg" xmlns:xlink="http://www.w3.org/1999/xlink" width="55.3" height="37.6" viewBox="0 0 55.3 37.6">
  <defs>
    <filter id="Knob" x="17.7" y="0" width="37.6" height="37.6" filterUnits="userSpaceOnUse">
      <feOffset dx="1" dy="2" input="SourceAlpha"/>
      <feGaussianBlur stdDeviation="1.5" result="blur"/>
      <feFlood flood-opacity="0.29"/>
      <feComposite operator="in" in2="blur"/>
      <feComposite in="SourceGraphic"/>
    </filter>
  </defs>
  <g id="Switch_on" transform="translate(0 1.3)">
    <g id="Track" transform="translate(0 0)" fill="#687780" stroke-linecap="round" stroke-linejoin="round" stroke-miterlimit="10">
      <path d="M 29.89265251159668 30.00015068054199 C 29.82015228271484 30.00014305114746 21.08595085144043 29.9991512298584 21.07399940490723 29.9991512298584 L 20.67547035217285 29.99925231933594 L 20.27786064147949 29.99936103820801 C 18.79916000366211 29.99936103820801 17.35275077819824 29.99251174926758 15.91440963745117 29.9098014831543 C 14.17298030853271 29.80957221984863 12.76150989532471 29.59487152099609 11.47249031066895 29.23415184020996 C 8.42473030090332 28.38225173950195 5.811850070953369 26.61853218078613 3.916039943695068 24.13360214233398 C 2.035589933395386 21.66905212402344 1 18.60262107849121 1 15.4991512298584 C 1 12.39697170257568 2.035589933395386 9.331252098083496 3.916009902954102 6.86674165725708 C 5.810989856719971 4.381971836090088 8.423830032348633 2.618301630020142 11.47220039367676 1.766231656074524 C 12.76644992828369 1.404051661491394 14.17772006988525 1.189361691474915 15.9138298034668 1.090531587600708 C 17.36982917785645 1.006811618804932 18.7960090637207 1.000001668930054 20.37589073181152 1.000001668930054 L 20.74068069458008 1.00007164478302 L 21.10799980163574 1.000151634216309 L 29.92499923706055 1.000151634216309 L 30.28531074523926 1.00007164478302 L 30.64489936828613 1.000001668930054 C 32.15518951416016 1.000001668930054 33.63127899169922 1.006921648979187 35.08562088012695 1.090501666069031 C 36.82168960571289 1.189391613006592 38.23265075683594 1.404081583023071 39.52650833129883 1.766151666641235 C 42.57516860961914 2.618301630020142 45.18801116943359 4.381971836090088 47.08285140991211 6.866561412811279 C 48.96405029296875 9.332101821899414 50 12.39817142486572 50 15.50015163421631 C 50 18.60213088989258 48.96405029296875 21.6682014465332 47.08298873901367 24.1335620880127 C 45.18714904785156 26.61853218078613 42.57426834106445 28.38225173950195 39.52679824829102 29.23407173156738 C 38.23759841918945 29.59484100341797 36.82643890380859 29.80954170227051 35.08549880981445 29.9098014831543 C 33.52042007446289 29.99975204467773 31.97497940063477 29.99989128112793 30.33880996704102 30.00004196166992 L 29.89265251159668 30.00015068054199 Z" stroke="none"/>
      <path d="M 20.37588882446289 1.999996185302734 C 18.8117790222168 1.999996185302734 17.40078735351562 2.006685256958008 15.97066497802734 2.088918685913086 C 14.30839920043945 2.183540344238281 12.9647102355957 2.386985778808594 11.74140167236328 2.729318618774414 C 8.904167175292969 3.522373199462891 6.473201751708984 5.16270637512207 4.711021423339844 7.47334098815918 C 2.962787628173828 9.764596939086914 2 12.6148853302002 2 15.4991512298584 C 2 18.38470840454102 2.962787628173828 21.2357063293457 4.711090087890625 23.52704048156738 C 6.473957061767578 25.83773994445801 8.904998779296875 27.47816276550293 11.74197769165039 28.27114105224609 C 12.95997619628906 28.61199569702148 14.3040771484375 28.81546211242676 15.97182083129883 28.91145133972168 C 17.38363265991211 28.99264144897461 18.81427764892578 28.99936294555664 20.27785491943359 28.99936294555664 L 21.07399940490723 28.9991512298584 C 21.08600044250488 28.9991512298584 29.89322280883789 29.00015258789062 29.89186668395996 29.00015258789062 L 30.33872222900391 29.00004005432129 C 31.96015548706055 28.99989700317383 33.49166870117188 28.99975204467773 35.02799987792969 28.91146278381348 C 36.69532012939453 28.8154296875 38.03912353515625 28.61196327209473 39.25759887695312 28.2709846496582 C 42.09400177001953 27.47816276550293 44.52504348754883 25.83773994445801 46.28797912597656 23.52696228027344 C 48.0368537902832 21.23486328125 49 18.38421821594238 49 15.50015163421631 C 49 12.61608505249023 48.0368537902832 9.765439987182617 46.28770065307617 7.47297477722168 C 44.52579879760742 5.16270637512207 42.09483337402344 3.522373199462891 39.25702285766602 2.729162216186523 C 38.03438949584961 2.387006759643555 36.69098663330078 2.183574676513672 35.02824401855469 2.088851928710938 C 33.60040283203125 2.006795883178711 32.14007568359375 1.999996185302734 30.64489936828613 1.999996185302734 L 21.10799980163574 2.000150680541992 L 20.37588882446289 1.999996185302734 M 20.37588882446289 0 C 20.61921310424805 0 20.8634033203125 0.0001506805419921875 21.10799980163574 0.0001506805419921875 C 21.10799980163574 0.0001506805419921875 29.91300010681152 0.0001506805419921875 29.92499923706055 0.0001506805419921875 C 31.66500473022461 0.0001544952392578125 33.40299987792969 -0.007848739624023438 35.14299774169922 0.09215164184570312 C 36.72299957275391 0.1821517944335938 38.26300048828125 0.3741512298583984 39.79599761962891 0.8031520843505859 C 43.02299880981445 1.70515251159668 45.84099960327148 3.589151382446289 47.87799835205078 6.260150909423828 C 49.90299987792969 8.914152145385742 51 12.16315078735352 51 15.50015163421631 C 51 18.83915138244629 49.90299987792969 22.08615112304688 47.87799835205078 24.74015045166016 C 45.84099960327148 27.41015243530273 43.02299880981445 29.29515075683594 39.79599761962891 30.19715118408203 C 38.26300048828125 30.62615203857422 36.72299957275391 30.81715202331543 35.14299774169922 30.90815162658691 C 33.40299987792969 31.00815200805664 31.66500091552734 30.9991512298584 29.89299964904785 31.00015258789062 C 29.89299964904785 31.00015258789062 21.08600044250488 30.9991512298584 21.07399940490723 30.9991512298584 C 19.3339958190918 30.9991512298584 17.59600067138672 31.00815200805664 15.85699844360352 30.90815162658691 C 14.2760009765625 30.81715202331543 12.73600006103516 30.62615203857422 11.20299911499023 30.19715118408203 C 7.976001739501953 29.29515075683594 5.158000946044922 27.41015243530273 3.120998382568359 24.74015045166016 C 1.096000671386719 22.08615112304688 0 18.83915138244629 0 15.4991512298584 C 0 12.16315078735352 1.096000671386719 8.914152145385742 3.120998382568359 6.260150909423828 C 5.158000946044922 3.589151382446289 7.976001739501953 1.70515251159668 11.20299911499023 0.8031520843505859 C 12.73600006103516 0.3741512298583984 14.2760009765625 0.1821517944335938 15.85699844360352 0.09215164184570312 C 17.35622787475586 0.005939483642578125 18.85443878173828 0 20.37588882446289 0 Z" stroke="none" fill="#687780"/>
    </g>
    <g transform="matrix(1, 0, 0, 1, 0, -1.3)" filter="url(#Knob)">
      <g id="Knob-2" data-name="Knob" transform="translate(22 3.3)" fill="#fffad3" stroke="#687780" stroke-miterlimit="10" stroke-width="0.8">
        <circle cx="13.5" cy="13.5" r="13.5" stroke="none"/>
        <circle cx="13.5" cy="13.5" r="13.9" fill="none"/>
      </g>
    </g>
  </g>
</svg>
