<svg xmlns="http://www.w3.org/2000/svg" xmlns:xlink="http://www.w3.org/1999/xlink" width="53.3" height="37.6" viewBox="0 0 53.3 37.6">
  <defs>
    <filter id="Knob" x="0" y="0" width="37.6" height="37.6" filterUnits="userSpaceOnUse">
      <feOffset dx="1" dy="2" input="SourceAlpha"/>
      <feGaussianBlur stdDeviation="1.5" result="blur"/>
      <feFlood flood-opacity="0.29"/>
      <feComposite operator="in" in2="blur"/>
      <feComposite in="SourceGraphic"/>
    </filter>
  </defs>
  <g id="Switch_off" transform="translate(2.3 1.3)">
    <g id="Track" fill="#fffad3" stroke-linecap="round" stroke-linejoin="round" stroke-miterlimit="10">
      <path d="M 21.10734748840332 30.00015068054199 L 20.66119003295898 30.00004196166992 C 19.02502059936523 29.99989128112793 17.47957992553711 29.99975204467773 15.91438007354736 29.9098014831543 C 14.17356014251709 29.80954170227051 12.76239967346191 29.59484100341797 11.47348976135254 29.23415184020996 C 8.425729751586914 28.38225173950195 5.812849998474121 26.61853218078613 3.917040109634399 24.13360214233398 C 2.035949945449829 21.6682014465332 1 18.60213088989258 1 15.50015163421631 C 1 12.39817142486572 2.035949945449829 9.332101821899414 3.917010068893433 6.86674165725708 C 5.811989784240723 4.381971836090088 8.424830436706543 2.618301630020142 11.47319984436035 1.766231656074524 C 12.76735019683838 1.404081583023071 14.17831039428711 1.189391613006592 15.91386985778809 1.090531587600708 C 17.36871910095215 1.006921648979187 18.84481048583984 1.000001668930054 20.35510063171387 1.000001668930054 L 20.71468925476074 1.00007164478302 L 21.07500076293945 1.000151634216309 L 29.89200019836426 1.000151634216309 L 30.25931930541992 1.00007164478302 L 30.62410926818848 1.000001668930054 C 32.2039909362793 1.000001668930054 33.63016891479492 1.006811618804932 35.08559036254883 1.090501666069031 C 36.82228088378906 1.189361691474915 38.23355102539062 1.404051661491394 39.52751159667969 1.766151666641235 C 42.576171875 2.618301630020142 45.18901062011719 4.381971836090088 47.0838508605957 6.866561412811279 C 48.96440887451172 9.331252098083496 50 12.39697170257568 50 15.4991512298584 C 50 18.60262107849121 48.96440887451172 21.66905212402344 47.08398818969727 24.1335620880127 C 45.18814849853516 26.61853218078613 42.57527160644531 28.38225173950195 39.52780151367188 29.23407173156738 C 38.23849105834961 29.59487152099609 36.82701873779297 29.80957221984863 35.08554077148438 29.9098014831543 C 33.64728164672852 29.99251174926758 32.20085906982422 29.99936103820801 30.72213935852051 29.99936103820801 L 30.32440948486328 29.99925231933594 L 29.92600059509277 29.9991512298584 C 29.91404914855957 29.9991512298584 21.17984771728516 30.00014305114746 21.10734748840332 30.00015068054199 Z" stroke="none"/>
      <path d="M 20.35510063171387 1.999996185302734 C 18.85992050170898 1.999996185302734 17.39960098266602 2.006795883178711 15.97074508666992 2.088918685913086 C 14.30900955200195 2.183574676513672 12.96561050415039 2.387006759643555 11.74240112304688 2.729318618774414 C 8.905166625976562 3.522373199462891 6.474201202392578 5.16270637512207 4.712020874023438 7.47334098815918 C 2.963146209716797 9.765439987182617 2 12.61608505249023 2 15.50015163421631 C 2 18.38421821594238 2.963146209716797 21.23486328125 4.712089538574219 23.52704048156738 C 6.474956512451172 25.83773994445801 8.905998229980469 27.47816276550293 11.74297714233398 28.27114105224609 C 12.96087646484375 28.61196327209473 14.3046760559082 28.8154296875 15.97175598144531 28.91145133972168 C 17.50833511352539 28.99975204467773 19.03984451293945 28.99989700317383 20.66127777099609 29.00004005432129 L 21.10677719116211 29.00015258789062 C 21.10677719116211 29.00015258789062 29.91399955749512 28.9991512298584 29.92600059509277 28.9991512298584 L 30.72214508056641 28.99936294555664 C 32.18572235107422 28.99936294555664 33.61636734008789 28.99264144897461 35.028076171875 28.91145133972168 C 36.6959228515625 28.81546211242676 38.04002380371094 28.61199569702148 39.25859832763672 28.2709846496582 C 42.09500122070312 27.47816276550293 44.52604293823242 25.83773994445801 46.28897857666016 23.52696228027344 C 48.03721237182617 21.2357063293457 49 18.38470840454102 49 15.4991512298584 C 49 12.6148853302002 48.03721237182617 9.764596939086914 46.28870010375977 7.47297477722168 C 44.52680206298828 5.16270637512207 42.09583282470703 3.522373199462891 39.25802230834961 2.729162216186523 C 38.0352897644043 2.386985778808594 36.69160079956055 2.183540344238281 35.02817916870117 2.088851928710938 C 33.59921264648438 2.006685256958008 32.18822479248047 1.999996185302734 30.62411117553711 1.999996185302734 L 21.07500076293945 2.000150680541992 L 20.35510063171387 1.999996185302734 M 20.35510444641113 0 C 20.59505271911621 0 20.83498573303223 0.0001506805419921875 21.07500076293945 0.0001506805419921875 C 21.08699989318848 0.0001506805419921875 29.89200019836426 0.0001506805419921875 29.89200019836426 0.0001506805419921875 C 31.6660099029541 0.0001583099365234375 33.40399932861328 -0.007846832275390625 35.14299774169922 0.09215164184570312 C 36.7239990234375 0.1821517944335938 38.26399993896484 0.3741512298583984 39.79700088500977 0.8031520843505859 C 43.02400207519531 1.70515251159668 45.84199905395508 3.589151382446289 47.87900161743164 6.260150909423828 C 49.90399932861328 8.914152145385742 51 12.16315078735352 51 15.4991512298584 C 51 18.83915138244629 49.90399932861328 22.08615112304688 47.87900161743164 24.74015045166016 C 45.84199905395508 27.41015243530273 43.02400207519531 29.29515075683594 39.79700088500977 30.19715118408203 C 38.26399993896484 30.62615203857422 36.7239990234375 30.81715202331543 35.14299774169922 30.90815162658691 C 33.40399932861328 31.00815200805664 31.6659984588623 30.9991512298584 29.92600059509277 30.9991512298584 C 29.91399955749512 30.9991512298584 21.10700035095215 31.00015258789062 21.10700035095215 31.00015258789062 C 19.33499908447266 30.9991512298584 17.59700012207031 31.00815200805664 15.85699844360352 30.90815162658691 C 14.27700042724609 30.81715202331543 12.73699951171875 30.62615203857422 11.20399856567383 30.19715118408203 C 7.977001190185547 29.29515075683594 5.159000396728516 27.41015243530273 3.122001647949219 24.74015045166016 C 1.097000122070312 22.08615112304688 0 18.83915138244629 0 15.50015163421631 C 0 12.16315078735352 1.097000122070312 8.914152145385742 3.122001647949219 6.260150909423828 C 5.159000396728516 3.589151382446289 7.977001190185547 1.70515251159668 11.20399856567383 0.8031520843505859 C 12.73699951171875 0.3741512298583984 14.27700042724609 0.1821517944335938 15.85699844360352 0.09215164184570312 C 17.35698699951172 0.005945205688476562 18.85552978515625 0 20.35510444641113 0 Z" stroke="none" fill="#687780"/>
    </g>
    <g transform="matrix(1, 0, 0, 1, -2.3, -1.3)" filter="url(#Knob)">
      <g id="Knob-2" data-name="Knob" transform="translate(4.3 3.3)" fill="#687780" stroke="#687780" stroke-miterlimit="10" stroke-width="0.8">
        <circle cx="13.5" cy="13.5" r="13.5" stroke="none"/>
        <circle cx="13.5" cy="13.5" r="13.9" fill="none"/>
      </g>
    </g>
  </g>
</svg>
