<svg xmlns="http://www.w3.org/2000/svg" xmlns:xlink="http://www.w3.org/1999/xlink" width="65.992" height="79.648" viewBox="0 0 65.992 79.648">
  <defs>
    <filter id="Path_5397" x="0" y="0" width="65.992" height="79.648" filterUnits="userSpaceOnUse">
      <feOffset dx="1" dy="1" input="SourceAlpha"/>
      <feGaussianBlur stdDeviation="3" result="blur"/>
      <feFlood flood-opacity="0.161"/>
      <feComposite operator="in" in2="blur"/>
      <feComposite in="SourceGraphic"/>
    </filter>
  </defs>
  <g id="tag_novo" transform="translate(-107 -126)">
    <g transform="matrix(1, 0, 0, 1, 107, 126)" filter="url(#Path_5397)">
      <path id="Path_5397-2" data-name="Path 5397" d="M24,61.648c-13.254,0-24-9.955-24-22.235A20.73,20.73,0,0,1,.917,33.3a32.143,32.143,0,0,1,3.776-9.147q.16-.267.314-.489h0s2-3.02,5.44-7.488,6.321-7.765,6.636-8.2S23.955,0,23.955,0V17.178H24c13.253,0,24,9.955,24,22.235S37.249,61.648,24,61.648Z" transform="translate(55.99 69.65) rotate(180)" fill="#f77415"/>
    </g>
    <path id="MAPA" d="M-14.291-6.869H-12.9l4.28,2.241V-6.869h1.393V0H-8.618V-3.151L-12.9-5.379V0h-1.393Zm8.534,4.276a2.455,2.455,0,0,1,.226-1.046,2.533,2.533,0,0,1,.646-.853,3.112,3.112,0,0,1,1.015-.576,3.989,3.989,0,0,1,1.338-.211,3.989,3.989,0,0,1,1.338.211,3.112,3.112,0,0,1,1.015.576,2.533,2.533,0,0,1,.646.853A2.455,2.455,0,0,1,.694-2.593,2.455,2.455,0,0,1,.468-1.547a2.533,2.533,0,0,1-.646.853,3.112,3.112,0,0,1-1.015.576A3.989,3.989,0,0,1-2.531.092,3.989,3.989,0,0,1-3.869-.119,3.112,3.112,0,0,1-4.885-.694a2.533,2.533,0,0,1-.646-.853A2.455,2.455,0,0,1-5.757-2.593Zm1.367,0A1.427,1.427,0,0,0-4.265-2,1.448,1.448,0,0,0-3.9-1.51a1.783,1.783,0,0,0,.584.338,2.289,2.289,0,0,0,.784.125,2.289,2.289,0,0,0,.784-.125,1.783,1.783,0,0,0,.584-.338A1.448,1.448,0,0,0-.8-2a1.427,1.427,0,0,0,.125-.591A1.442,1.442,0,0,0-.8-3.186a1.442,1.442,0,0,0-.365-.494,1.783,1.783,0,0,0-.584-.338,2.289,2.289,0,0,0-.784-.125,2.289,2.289,0,0,0-.784.125A1.783,1.783,0,0,0-3.9-3.68a1.442,1.442,0,0,0-.365.494A1.442,1.442,0,0,0-4.39-2.593Zm5.682-2.6H2.8L4.148-2.07,4.5-1.2l.352-.875L6.2-5.19H7.708L5.251,0h-1.5Zm7.014,2.6a2.455,2.455,0,0,1,.226-1.046,2.533,2.533,0,0,1,.646-.853,3.112,3.112,0,0,1,1.015-.576,3.989,3.989,0,0,1,1.338-.211,3.989,3.989,0,0,1,1.338.211,3.112,3.112,0,0,1,1.015.576,2.533,2.533,0,0,1,.646.853,2.455,2.455,0,0,1,.226,1.046,2.455,2.455,0,0,1-.226,1.046,2.533,2.533,0,0,1-.646.853,3.112,3.112,0,0,1-1.015.576,3.989,3.989,0,0,1-1.338.211,3.989,3.989,0,0,1-1.338-.211A3.112,3.112,0,0,1,9.178-.694a2.533,2.533,0,0,1-.646-.853A2.455,2.455,0,0,1,8.306-2.593Zm1.367,0A1.427,1.427,0,0,0,9.8-2a1.448,1.448,0,0,0,.365.492,1.783,1.783,0,0,0,.584.338,2.289,2.289,0,0,0,.784.125,2.289,2.289,0,0,0,.784-.125A1.783,1.783,0,0,0,12.9-1.51,1.448,1.448,0,0,0,13.265-2a1.427,1.427,0,0,0,.125-.591,1.442,1.442,0,0,0-.125-.593A1.442,1.442,0,0,0,12.9-3.68a1.783,1.783,0,0,0-.584-.338,2.289,2.289,0,0,0-.784-.125,2.289,2.289,0,0,0-.784.125,1.783,1.783,0,0,0-.584.338,1.442,1.442,0,0,0-.365.494A1.442,1.442,0,0,0,9.672-2.593Z" transform="translate(139 159.5)" fill="#fff"/>
    <rect id="Rectangle_8276" data-name="Rectangle 8276" width="48" height="62" transform="translate(115 134)" fill="none"/>
  </g>
</svg>
