<svg xmlns="http://www.w3.org/2000/svg" xmlns:xlink="http://www.w3.org/1999/xlink" width="65.992" height="79.648" viewBox="0 0 65.992 79.648">
  <defs>
    <filter id="Path_5397" x="0" y="0" width="65.992" height="79.648" filterUnits="userSpaceOnUse">
      <feOffset dx="1" dy="1" input="SourceAlpha"/>
      <feGaussianBlur stdDeviation="3" result="blur"/>
      <feFlood flood-opacity="0.161"/>
      <feComposite operator="in" in2="blur"/>
      <feComposite in="SourceGraphic"/>
    </filter>
  </defs>
  <g id="tag_desconto" transform="translate(-107 -126)">
    <g transform="matrix(1, 0, 0, 1, 107, 126)" filter="url(#Path_5397)">
      <path id="Path_5397-2" data-name="Path 5397" d="M24,61.648c-13.254,0-24-9.955-24-22.235A20.73,20.73,0,0,1,.917,33.3a32.143,32.143,0,0,1,3.776-9.147q.16-.267.314-.489h0s2-3.02,5.44-7.488,6.321-7.765,6.636-8.2S23.955,0,23.955,0V17.178H24c13.253,0,24,9.955,24,22.235S37.249,61.648,24,61.648Z" transform="translate(55.99 69.65) rotate(180)" fill="#ffe414"/>
    </g>
    <text id="MAPA" transform="translate(139 159.5)" fill="#072a40" font-size="9" font-family="KronaOne-Regular, Krona One"><tspan x="-12.377" y="0">30%</tspan></text>
    <rect id="Rectangle_8276" data-name="Rectangle 8276" width="48" height="62" transform="translate(115 134)" fill="none"/>
  </g>
</svg>
