<svg xmlns="http://www.w3.org/2000/svg" xmlns:xlink="http://www.w3.org/1999/xlink" width="65.988" height="79.643" viewBox="0 0 65.988 79.643">
  <defs>
    <filter id="Path_5397" x="0" y="0" width="65.988" height="79.643" filterUnits="userSpaceOnUse">
      <feOffset dx="1" dy="1" input="SourceAlpha"/>
      <feGaussianBlur stdDeviation="3" result="blur"/>
      <feFlood flood-opacity="0.161"/>
      <feComposite operator="in" in2="blur"/>
      <feComposite in="SourceGraphic"/>
    </filter>
    <clipPath id="clip-path">
      <path id="Path_5397-2" data-name="Path 5397" d="M23.994,61.643C10.742,61.643,0,51.69,0,39.41A20.728,20.728,0,0,1,.917,33.3a32.14,32.14,0,0,1,3.775-9.147q.16-.267.314-.489H5s2-3.02,5.44-7.487,6.32-7.765,6.635-8.2S23.953,0,23.953,0V17.177h.041c13.252,0,23.994,9.954,23.994,22.234S37.246,61.643,23.994,61.643Z" transform="translate(47.988 61.643) rotate(180)" fill="#041d2c"/>
    </clipPath>
    <linearGradient id="linear-gradient" x1="0.032" y1="0.215" x2="0.895" y2="0.544" gradientUnits="objectBoundingBox">
      <stop offset="0" stop-color="#ad9c13"/>
      <stop offset="0.443" stop-color="#fff49d"/>
      <stop offset="0.504" stop-color="#fffdea"/>
      <stop offset="0.633" stop-color="#fff49d"/>
      <stop offset="1" stop-color="#9b8d25"/>
    </linearGradient>
  </defs>
  <g id="tag_premium" transform="translate(-108 -302)">
    <g id="Group_11148" data-name="Group 11148" transform="translate(40 -25)">
      <g id="Group_11147" data-name="Group 11147" transform="translate(85 -87)">
        <g transform="matrix(1, 0, 0, 1, -17, 414)" filter="url(#Path_5397)">
          <path id="Path_5397-3" data-name="Path 5397" d="M23.994,61.643C10.742,61.643,0,51.69,0,39.41A20.728,20.728,0,0,1,.917,33.3a32.14,32.14,0,0,1,3.775-9.147q.16-.267.314-.489H5s2-3.02,5.44-7.487,6.32-7.765,6.635-8.2S23.953,0,23.953,0V17.177h.041c13.252,0,23.994,9.954,23.994,22.234S37.246,61.643,23.994,61.643Z" transform="translate(55.99 69.64) rotate(180)" fill="#ccd1d4"/>
        </g>
        <g id="Mask_Group_76" data-name="Mask Group 76" transform="translate(-9 422)" clip-path="url(#clip-path)">
          <rect id="Rectangle_8275" data-name="Rectangle 8275" width="49" height="64" rx="20" transform="translate(-0.607 -2)" fill="url(#linear-gradient)"/>
        </g>
      </g>
      <path id="MAPA" d="M-22.694-6.105h3.219a4.326,4.326,0,0,1,1.219.152,2.33,2.33,0,0,1,.855.439,1.763,1.763,0,0,1,.506.7,2.49,2.49,0,0,1,.166.934,2.428,2.428,0,0,1-.164.9,1.882,1.882,0,0,1-.5.717,2.373,2.373,0,0,1-.854.473,3.906,3.906,0,0,1-1.219.17l-1.988,0V0h-1.238Zm3.25,3.414a2.032,2.032,0,0,0,.615-.084,1.236,1.236,0,0,0,.441-.238.959.959,0,0,0,.266-.375,1.314,1.314,0,0,0,.088-.49,1.053,1.053,0,0,0-.354-.846,1.589,1.589,0,0,0-1.057-.3h-2.012v2.336Zm3.682-1.918h1.156v.664a5.041,5.041,0,0,1,.809-.492,4.551,4.551,0,0,1,.848-.316l.34,1.059a3.669,3.669,0,0,0-1.174.3,2.107,2.107,0,0,0-.822.654V0h-1.156Zm3.553,2.289a2.171,2.171,0,0,1,.191-.9,2.274,2.274,0,0,1,.551-.756,2.686,2.686,0,0,1,.881-.523,3.364,3.364,0,0,1,1.186-.2,3.386,3.386,0,0,1,1.189.2,2.666,2.666,0,0,1,.9.541,2.344,2.344,0,0,1,.566.809,2.523,2.523,0,0,1,.2,1q0,.066,0,.143t-.01.139H-10.92a1.056,1.056,0,0,0,.24.379,1.511,1.511,0,0,0,.416.3A2.372,2.372,0,0,0-9.686-1a3.57,3.57,0,0,0,.727.068,3.8,3.8,0,0,0,.793-.084,5.819,5.819,0,0,0,.754-.213l.391.883a4.765,4.765,0,0,1-.459.186,4,4,0,0,1-.484.133,4.972,4.972,0,0,1-.527.08q-.275.027-.58.027a4.481,4.481,0,0,1-1.363-.187,2.935,2.935,0,0,1-.98-.512,2.112,2.112,0,0,1-.594-.762A2.245,2.245,0,0,1-12.209-2.32Zm4.434-.449a1.152,1.152,0,0,0-.193-.357A1.277,1.277,0,0,0-8.3-3.416a1.668,1.668,0,0,0-.453-.193,2.149,2.149,0,0,0-.566-.07,2.249,2.249,0,0,0-.6.074,1.818,1.818,0,0,0-.473.2,1.342,1.342,0,0,0-.338.289,1.111,1.111,0,0,0-.2.348Zm2.26-1.84h1.156v.391a3.053,3.053,0,0,1,.846-.369,3.3,3.3,0,0,1,.807-.1A2.817,2.817,0,0,1-1.7-4.516a2.055,2.055,0,0,1,.789.531,3.884,3.884,0,0,1,.5-.33,3.13,3.13,0,0,1,.492-.219,2.8,2.8,0,0,1,.5-.121,3.616,3.616,0,0,1,.523-.037,3.223,3.223,0,0,1,1.027.154,2.122,2.122,0,0,1,.787.459,2.034,2.034,0,0,1,.5.76,2.881,2.881,0,0,1,.178,1.053V0H2.453V-2.078a2,2,0,0,0-.107-.678,1.427,1.427,0,0,0-.3-.5,1.281,1.281,0,0,0-.461-.312A1.564,1.564,0,0,0,1-3.68a2.017,2.017,0,0,0-.359.033,1.81,1.81,0,0,0-.357.1,1.615,1.615,0,0,0-.326.178,1.252,1.252,0,0,0-.266.252V0H-1.465V-2.078a2,2,0,0,0-.107-.678,1.427,1.427,0,0,0-.3-.5,1.274,1.274,0,0,0-.465-.312,1.605,1.605,0,0,0-.6-.107,2,2,0,0,0-.4.041,2.248,2.248,0,0,0-.387.115,1.993,1.993,0,0,0-.348.18,1.682,1.682,0,0,0-.291.238V0H-5.516ZM5.428-5.238a.931.931,0,0,1-.311-.049.73.73,0,0,1-.236-.133.588.588,0,0,1-.15-.2.545.545,0,0,1-.053-.236.554.554,0,0,1,.053-.24.568.568,0,0,1,.15-.193.751.751,0,0,1,.236-.131.931.931,0,0,1,.311-.049.943.943,0,0,1,.314.049.751.751,0,0,1,.236.131.568.568,0,0,1,.15.193.554.554,0,0,1,.053.24.545.545,0,0,1-.053.236.588.588,0,0,1-.15.2.73.73,0,0,1-.236.133A.943.943,0,0,1,5.428-5.238Zm-.578.629H6.006V0H4.85Zm2.4,0H8.4v2.25a2.265,2.265,0,0,0,.07.584,1.071,1.071,0,0,0,.24.451,1.114,1.114,0,0,0,.453.291,2.072,2.072,0,0,0,.705.1,1.968,1.968,0,0,0,.4-.043,2.287,2.287,0,0,0,.393-.119,2.063,2.063,0,0,0,.35-.182,1.506,1.506,0,0,0,.279-.23V-4.613H12.45V0H11.293V-.395a3.224,3.224,0,0,1-.855.363,3.312,3.312,0,0,1-.816.109A3.406,3.406,0,0,1,8.538-.074,1.846,1.846,0,0,1,7.8-.518a1.74,1.74,0,0,1-.42-.715A3.232,3.232,0,0,1,7.247-2.2Zm6.463,0h1.156v.391a3.053,3.053,0,0,1,.846-.369,3.3,3.3,0,0,1,.807-.1,2.817,2.817,0,0,1,1.012.176,2.055,2.055,0,0,1,.789.531,3.884,3.884,0,0,1,.5-.33,3.13,3.13,0,0,1,.492-.219,2.8,2.8,0,0,1,.5-.121,3.616,3.616,0,0,1,.523-.037,3.223,3.223,0,0,1,1.027.154,2.122,2.122,0,0,1,.787.459,2.034,2.034,0,0,1,.5.76,2.881,2.881,0,0,1,.178,1.053V0H21.678V-2.078a2,2,0,0,0-.107-.678,1.427,1.427,0,0,0-.3-.5,1.281,1.281,0,0,0-.461-.312,1.564,1.564,0,0,0-.588-.107,2.017,2.017,0,0,0-.359.033,1.81,1.81,0,0,0-.357.1,1.615,1.615,0,0,0-.326.178,1.252,1.252,0,0,0-.266.252V0H17.76V-2.078a2,2,0,0,0-.107-.678,1.427,1.427,0,0,0-.3-.5,1.274,1.274,0,0,0-.465-.312,1.605,1.605,0,0,0-.6-.107,2,2,0,0,0-.4.041,2.248,2.248,0,0,0-.387.115,1.993,1.993,0,0,0-.348.18,1.682,1.682,0,0,0-.291.238V0H13.71Z" transform="translate(100 360.5)" fill="#072a40"/>
    </g>
    <rect id="Rectangle_8276" data-name="Rectangle 8276" width="48" height="62" transform="translate(116 310)" fill="none"/>
  </g>
</svg>
