<svg xmlns="http://www.w3.org/2000/svg" xmlns:xlink="http://www.w3.org/1999/xlink" width="65.992" height="79.648" viewBox="0 0 65.992 79.648">
  <defs>
    <filter id="Path_5397" x="0" y="0" width="65.992" height="79.648" filterUnits="userSpaceOnUse">
      <feOffset dx="1" dy="1" input="SourceAlpha"/>
      <feGaussianBlur stdDeviation="3" result="blur"/>
      <feFlood flood-opacity="0.161"/>
      <feComposite operator="in" in2="blur"/>
      <feComposite in="SourceGraphic"/>
    </filter>
  </defs>
  <g id="tag_2_por_1" transform="translate(-107 -126)">
    <g transform="matrix(1, 0, 0, 1, 107, 126)" filter="url(#Path_5397)">
      <path id="Path_5397-2" data-name="Path 5397" d="M24,61.648c-13.254,0-24-9.955-24-22.235A20.73,20.73,0,0,1,.917,33.3a32.143,32.143,0,0,1,3.776-9.147q.16-.267.314-.489h0s2-3.02,5.44-7.488,6.321-7.765,6.636-8.2S23.955,0,23.955,0V17.178H24c13.253,0,24,9.955,24,22.235S37.249,61.648,24,61.648Z" transform="translate(55.99 69.65) rotate(180)" fill="#f01f1f"/>
    </g>
    <path id="MAPA" d="M-18.147-1.2l2.421-1.661q.545-.374.892-.65A4.751,4.751,0,0,0-14.289-4a1.472,1.472,0,0,0,.272-.393.893.893,0,0,0,.075-.352.87.87,0,0,0-.083-.378.823.823,0,0,0-.261-.308,1.348,1.348,0,0,0-.457-.207,2.6,2.6,0,0,0-.666-.075,4.091,4.091,0,0,0-1.121.158,4.748,4.748,0,0,0-1.138.505L-18.31-6.1a5.77,5.77,0,0,1,1.4-.624,5.529,5.529,0,0,1,1.584-.224,4.085,4.085,0,0,1,1.259.174,2.558,2.558,0,0,1,.883.472,1.9,1.9,0,0,1,.521.694,2.088,2.088,0,0,1,.171.839,1.889,1.889,0,0,1-.114.655,2.157,2.157,0,0,1-.4.646,5.565,5.565,0,0,1-.771.719q-.486.385-1.224.872l-1,.659h3.762V0h-5.906ZM-6.532,2.118h-1.3v-7.3h1.3V-4.7a2.582,2.582,0,0,1,.4-.224,3.866,3.866,0,0,1,.5-.185,4.477,4.477,0,0,1,.554-.125A3.577,3.577,0,0,1-4.5-5.278a3.637,3.637,0,0,1,1.211.193,2.8,2.8,0,0,1,.947.545,2.483,2.483,0,0,1,.617.842,2.6,2.6,0,0,1,.222,1.083A2.612,2.612,0,0,1-1.738-1.5a2.516,2.516,0,0,1-.644.853A2.9,2.9,0,0,1-3.357-.1,3.794,3.794,0,0,1-4.581.092,4.374,4.374,0,0,1-5.137.057a4.81,4.81,0,0,1-.527-.1,3.837,3.837,0,0,1-.475-.147,2.664,2.664,0,0,1-.393-.187Zm0-3.749a2.349,2.349,0,0,0,.417.268,2.924,2.924,0,0,0,.448.18,2.993,2.993,0,0,0,.461.1,3.23,3.23,0,0,0,.453.033,2.434,2.434,0,0,0,.8-.121A1.739,1.739,0,0,0-3.366-1.5,1.434,1.434,0,0,0-3-2a1.5,1.5,0,0,0,.127-.62A1.412,1.412,0,0,0-3-3.2a1.435,1.435,0,0,0-.36-.486,1.74,1.74,0,0,0-.567-.33,2.165,2.165,0,0,0-.745-.121,2.8,2.8,0,0,0-.527.051,3.058,3.058,0,0,0-.508.143,2.647,2.647,0,0,0-.457.224,1.934,1.934,0,0,0-.371.294Zm5.941-.962A2.455,2.455,0,0,1-.365-3.639a2.533,2.533,0,0,1,.646-.853A3.112,3.112,0,0,1,1.3-5.067a3.989,3.989,0,0,1,1.338-.211,3.989,3.989,0,0,1,1.338.211,3.112,3.112,0,0,1,1.015.576,2.533,2.533,0,0,1,.646.853A2.455,2.455,0,0,1,5.86-2.593a2.455,2.455,0,0,1-.226,1.046,2.533,2.533,0,0,1-.646.853,3.112,3.112,0,0,1-1.015.576A3.989,3.989,0,0,1,2.635.092,3.989,3.989,0,0,1,1.3-.119,3.112,3.112,0,0,1,.281-.694a2.533,2.533,0,0,1-.646-.853A2.455,2.455,0,0,1-.591-2.593Zm1.367,0A1.427,1.427,0,0,0,.9-2a1.448,1.448,0,0,0,.365.492,1.783,1.783,0,0,0,.584.338,2.289,2.289,0,0,0,.784.125,2.289,2.289,0,0,0,.784-.125A1.783,1.783,0,0,0,4-1.51,1.448,1.448,0,0,0,4.368-2a1.427,1.427,0,0,0,.125-.591,1.442,1.442,0,0,0-.125-.593A1.442,1.442,0,0,0,4-3.68a1.783,1.783,0,0,0-.584-.338,2.289,2.289,0,0,0-.784-.125,2.289,2.289,0,0,0-.784.125,1.783,1.783,0,0,0-.584.338A1.442,1.442,0,0,0,.9-3.186,1.442,1.442,0,0,0,.776-2.593Zm6.4-2.593h1.3v.747a5.671,5.671,0,0,1,.91-.554,5.12,5.12,0,0,1,.954-.356l.382,1.191A4.127,4.127,0,0,0,9.4-3.821a2.37,2.37,0,0,0-.925.736V0h-1.3Zm7.4,3.964h1.56V-5.5a3.906,3.906,0,0,0-.591.185,2.589,2.589,0,0,0-.516.277l-.686-.98a5.305,5.305,0,0,1,.771-.4,5.382,5.382,0,0,1,.8-.264,6.152,6.152,0,0,1,.809-.143,7.538,7.538,0,0,1,.811-.044l0,.009h0v5.638h1.49V0H14.579Z" transform="translate(139 159.5)" fill="#fff"/>
    <rect id="Rectangle_8276" data-name="Rectangle 8276" width="48" height="62" transform="translate(115 134)" fill="none"/>
  </g>
</svg>
