<svg xmlns="http://www.w3.org/2000/svg" width="24" height="24" viewBox="0 0 24 24">
  <g id="tracking_porta_insert" transform="translate(-41 -606.768)" opacity="0.5">
    <g id="key" transform="translate(42.188 608.188)">
      <g id="Group_12819" data-name="Group 12819" transform="translate(0 8.702)">
        <g id="Group_12818" data-name="Group 12818">
          <path id="Path_6076" data-name="Path 6076" d="M10.022,214.219a.483.483,0,0,0-.684,0l-1.794,1.8H6.292a.484.484,0,0,0-.484.484v.968H4.84a.484.484,0,0,0-.484.484v.968H3.388a.484.484,0,0,0-.484.484v1.253l-.2.2H.968V219.12l8.085-8.092a.484.484,0,0,0,0-.685l-.142-.142a.676.676,0,0,1-.2-.483v0a.484.484,0,1,0-.968,0,1.638,1.638,0,0,0,.3.95l-7.9,7.909A.484.484,0,0,0,0,218.92v2.422a.484.484,0,0,0,.484.484H2.9a.485.485,0,0,0,.342-.142l.484-.484a.484.484,0,0,0,.142-.342v-.968H4.84a.484.484,0,0,0,.484-.484v-.968h.968a.484.484,0,0,0,.484-.484v-.968h.968a.484.484,0,0,0,.342-.142l1.936-1.937A.484.484,0,0,0,10.022,214.219Z" transform="translate(0 -209.233)" fill="#072a40"/>
        </g>
      </g>
      <g id="Group_12821" data-name="Group 12821" transform="translate(13.01 3.33)">
        <g id="Group_12820" data-name="Group 12820">
          <path id="Path_6077" data-name="Path 6077" d="M317.3,82.438,315.367,80.5a1.545,1.545,0,0,0-2.136,0,1.514,1.514,0,0,0,0,2.138l1.936,1.937a1.511,1.511,0,0,0,2.136-2.138Zm-.684,1.452a.555.555,0,0,1-.768,0l-1.936-1.937a.545.545,0,0,1,0-.768.542.542,0,0,1,.768,0l1.936,1.937A.544.544,0,0,1,316.619,83.89Z" transform="translate(-312.789 -80.072)" fill="#072a40"/>
        </g>
      </g>
      <g id="Group_12823" data-name="Group 12823" transform="translate(6.776 0)">
        <g id="Group_12822" data-name="Group 12822">
          <path id="Path_6078" data-name="Path 6078" d="M176.94,6.081,171.333.469a1.691,1.691,0,0,0-2.337,0l-4.639,4.643a1.654,1.654,0,0,0,0,2.339L169,12.093l-.285.285a.678.678,0,0,1-.482.2h0a.68.68,0,0,1-.484-.2l-1.353-1.354a.483.483,0,0,0-.684,0l-2.662,2.664a.484.484,0,1,0,.684.685l2.32-2.321,1.011,1.011a1.64,1.64,0,0,0,1.168.484h0a1.639,1.639,0,0,0,1.165-.484l.627-.627a.484.484,0,0,0,0-.685l-4.982-4.986a.685.685,0,0,1,0-.968l4.639-4.642a.7.7,0,0,1,.968,0l5.607,5.612a.685.685,0,0,1,0,.968l-4.639,4.642a.679.679,0,0,1-.484.2.484.484,0,0,0,0,.969,1.64,1.64,0,0,0,1.168-.484l4.639-4.643a1.654,1.654,0,0,0,0-2.339Z" transform="translate(-162.904 0)" fill="#072a40"/>
        </g>
      </g>
    </g>
    <rect id="Rectangle_8088" data-name="Rectangle 8088" width="24" height="24" transform="translate(41 606.768)" fill="none"/>
  </g>
</svg>
